  0
SECTION
  2
HEADER
  9
$ACADVER
  1
AC1009
  9
$DWGCODEPAGE
  3
ansi_1252
  9
$INSBASE
 10
0.0
 20
0.0
 30
0.0
  9
$EXTMIN
 10
-3.77072757768247
 20
-7.319535531491187
 30
0.0
  9
$EXTMAX
 10
2.356274398373435
 20
3.0
 30
0.0
  9
$LIMMIN
 10
0.0
 20
0.0
  9
$LIMMAX
 10
12.0
 20
9.0
  9
$ORTHOMODE
 70
     0
  9
$REGENMODE
 70
     1
  9
$FILLMODE
 70
     1
  9
$QTEXTMODE
 70
     0
  9
$MIRRTEXT
 70
     0
  9
$DRAGMODE
 70
     2
  9
$LTSCALE
 40
1.0
  9
$OSMODE
 70
   511
  9
$ATTMODE
 70
     1
  9
$TEXTSIZE
 40
0.2
  9
$TRACEWID
 40
0.05
  9
$TEXTSTYLE
  7
STANDARD
  9
$CLAYER
  8
0
  9
$CELTYPE
  6
BYLAYER
  9
$CECOLOR
 62
   256
  9
$DIMSCALE
 40
1.0
  9
$DIMASZ
 40
0.18
  9
$DIMEXO
 40
0.0625
  9
$DIMDLI
 40
0.38
  9
$DIMRND
 40
0.0
  9
$DIMDLE
 40
0.0
  9
$DIMEXE
 40
0.18
  9
$DIMTP
 40
0.0
  9
$DIMTM
 40
0.0
  9
$DIMTXT
 40
0.18
  9
$DIMCEN
 40
0.09
  9
$DIMTSZ
 40
0.0
  9
$DIMTOL
 70
     0
  9
$DIMLIM
 70
     0
  9
$DIMTIH
 70
     1
  9
$DIMTOH
 70
     1
  9
$DIMSE1
 70
     0
  9
$DIMSE2
 70
     0
  9
$DIMTAD
 70
     0
  9
$DIMZIN
 70
     0
  9
$DIMBLK
  1

  9
$DIMASO
 70
     1
  9
$DIMSHO
 70
     1
  9
$DIMPOST
  1

  9
$DIMAPOST
  1

  9
$DIMALT
 70
     0
  9
$DIMALTD
 70
     2
  9
$DIMALTF
 40
25.4
  9
$DIMLFAC
 40
1.0
  9
$DIMTOFL
 70
     0
  9
$DIMTVP
 40
0.0
  9
$DIMTIX
 70
     0
  9
$DIMSOXD
 70
     0
  9
$DIMSAH
 70
     0
  9
$DIMBLK1
  1

  9
$DIMBLK2
  1

  9
$DIMSTYLE
  2
STANDARD
  9
$DIMCLRD
 70
     0
  9
$DIMCLRE
 70
     0
  9
$DIMCLRT
 70
     0
  9
$DIMTFAC
 40
1.0
  9
$DIMGAP
 40
0.09
  9
$LUNITS
 70
     2
  9
$LUPREC
 70
     4
  9
$SKETCHINC
 40
0.1
  9
$FILLETRAD
 40
0.0
  9
$AUNITS
 70
     0
  9
$AUPREC
 70
     0
  9
$MENU
  1
.
  9
$ELEVATION
 40
0.0
  9
$PELEVATION
 40
0.0
  9
$THICKNESS
 40
0.0
  9
$LIMCHECK
 70
     0
  9
$CHAMFERA
 40
0.0
  9
$CHAMFERB
 40
0.0
  9
$SKPOLY
 70
     0
  9
$TDCREATE
 40
2452642.855050937
  9
$TDUPDATE
 40
2458328.044124988
  9
$TDINDWG
 40
0.0000001157
  9
$TDUSRTIMER
 40
0.0240117245
  9
$USRTIMER
 70
     1
  9
$ANGBASE
 50
0.0
  9
$ANGDIR
 70
     0
  9
$PDMODE
 70
     0
  9
$PDSIZE
 40
0.0
  9
$PLINEWID
 40
0.0
  9
$COORDS
 70
     1
  9
$SPLFRAME
 70
     0
  9
$SPLINETYPE
 70
     6
  9
$SPLINESEGS
 70
     8
  9
$ATTDIA
 70
     0
  9
$ATTREQ
 70
     1
  9
$HANDLING
 70
     1
  9
$HANDSEED
  5
2E8
  9
$SURFTAB1
 70
     6
  9
$SURFTAB2
 70
     6
  9
$SURFTYPE
 70
     6
  9
$SURFU
 70
     6
  9
$SURFV
 70
     6
  9
$UCSNAME
  2

  9
$UCSORG
 10
0.0
 20
0.0
 30
0.0
  9
$UCSXDIR
 10
1.0
 20
0.0
 30
0.0
  9
$UCSYDIR
 10
0.0
 20
1.0
 30
0.0
  9
$PUCSNAME
  2

  9
$PUCSORG
 10
0.0
 20
0.0
 30
0.0
  9
$PUCSXDIR
 10
1.0
 20
0.0
 30
0.0
  9
$PUCSYDIR
 10
0.0
 20
1.0
 30
0.0
  9
$USERI1
 70
     0
  9
$USERI2
 70
     0
  9
$USERI3
 70
     0
  9
$USERI4
 70
     0
  9
$USERI5
 70
     0
  9
$USERR1
 40
0.0
  9
$USERR2
 40
0.0
  9
$USERR3
 40
0.0
  9
$USERR4
 40
0.0
  9
$USERR5
 40
0.0
  9
$WORLDVIEW
 70
     1
  9
$SHADEDGE
 70
     3
  9
$SHADEDIF
 70
    70
  9
$TILEMODE
 70
     1
  9
$MAXACTVP
 70
    64
  9
$PLIMCHECK
 70
     0
  9
$PEXTMIN
 10
0.0
 20
0.0
 30
0.0
  9
$PEXTMAX
 10
0.0
 20
0.0
 30
0.0
  9
$PLIMMIN
 10
0.0
 20
0.0
  9
$PLIMMAX
 10
0.0
 20
0.0
  9
$UNITMODE
 70
     0
  9
$VISRETAIN
 70
     1
  9
$PLINEGEN
 70
     0
  9
$PSLTSCALE
 70
     1
  0
ENDSEC
  0
SECTION
  2
TABLES
  0
TABLE
  2
VPORT
 70
     1
  0
VPORT
  2
*ACTIVE
 70
     0
 10
0.0
 20
0.0
 11
1.0
 21
1.0
 12
26.74221696850897
 22
19.47779793638243
 13
0.0
 23
0.0
 14
0.5
 24
0.5
 15
0.5
 25
0.5
 16
0.0
 26
0.0
 36
1.0
 17
-27.66959356597984
 27
-19.53870295786203
 37
0.0
 40
30.19080748191286
 41
0.4326337169939066
 42
50.0
 43
0.0
 44
0.0
 50
0.0
 51
0.0
 71
    16
 72
  1000
 73
     1
 74
     3
 75
     0
 76
     0
 77
     0
 78
     0
  0
ENDTAB
  0
TABLE
  2
LTYPE
 70
     1
  0
LTYPE
  2
CONTINUOUS
 70
     0
  3
Solid line
 72
    65
 73
     0
 40
0.0
  0
ENDTAB
  0
TABLE
  2
LAYER
 70
     1
  0
LAYER
  2
0
 70
     0
 62
     7
  6
CONTINUOUS
  0
ENDTAB
  0
TABLE
  2
STYLE
 70
     2
  0
STYLE
  2
STANDARD
 70
     0
 40
0.0
 41
1.0
 50
0.0
 71
     0
 42
0.2
  3
arial.ttf
  4

  0
STYLE
  2
ANNOTATIVE
 70
     0
 40
0.0
 41
1.0
 50
0.0
 71
     0
 42
0.2
  3
arial.ttf
  4

  0
ENDTAB
  0
TABLE
  2
VIEW
 70
     0
  0
ENDTAB
  0
TABLE
  2
UCS
 70
     0
  0
ENDTAB
  0
TABLE
  2
APPID
 70
     2
  0
APPID
  2
ACAD
 70
     0
  0
APPID
  2
ACADANNOTATIVE
 70
     0
  0
ENDTAB
  0
TABLE
  2
DIMSTYLE
 70
     2
  0
DIMSTYLE
  2
STANDARD
 70
     0
  3

  4

  5

  6

  7

 40
1.0
 41
0.18
 42
0.0625
 43
0.38
 44
0.18
 45
0.0
 46
0.0
 47
0.0
 48
0.0
140
0.18
141
0.09
142
0.0
143
25.4
144
1.0
145
0.0
146
1.0
147
0.09
 71
     0
 72
     0
 73
     1
 74
     1
 75
     0
 76
     0
 77
     0
 78
     0
170
     0
171
     2
172
     0
173
     0
174
     0
175
     0
176
     0
177
     0
178
     0
  0
DIMSTYLE
  2
ANNOTATIVE
 70
     0
  3

  4

  5

  6

  7

 40
0.0
 41
0.18
 42
0.0625
 43
0.38
 44
0.18
 45
0.0
 46
0.0
 47
0.0
 48
0.0
140
0.18
141
0.09
142
0.0
143
25.4
144
1.0
145
0.0
146
1.0
147
0.09
 71
     0
 72
     0
 73
     1
 74
     1
 75
     0
 76
     0
 77
     0
 78
     0
170
     0
171
     2
172
     0
173
     0
174
     0
175
     0
176
     0
177
     0
178
     0
  0
ENDTAB
  0
ENDSEC
  0
SECTION
  2
BLOCKS
  0
BLOCK
  8
0
  2
$MODEL_SPACE
 70
     0
 10
0.0
 20
0.0
 30
0.0
  3
$MODEL_SPACE
  1

  0
ENDBLK
  5
21
  8
0
  0
BLOCK
 67
     1
  8
0
  2
$PAPER_SPACE
 70
     0
 10
0.0
 20
0.0
 30
0.0
  3
$PAPER_SPACE
  1

  0
ENDBLK
  5
5B
 67
     1
  8
0
  0
ENDSEC
  0
SECTION
  2
ENTITIES
  0
POLYLINE
  5
12A
  8
0
 66
     1
 10
0.0
 20
0.0
 30
0.0
 70
     1
  0
VERTEX
  5
23E
  8
0
 10
0.0
 20
0.0
 30
0.0
  0
VERTEX
  5
23F
  8
0
 10
0.0
 20
0.9999999999999998
 30
0.0
  0
VERTEX
  5
240
  8
0
 10
1.0
 20
0.9999999999999998
 30
0.0
  0
VERTEX
  5
241
  8
0
 10
1.0
 20
0.0
 30
0.0
  0
SEQEND
  5
2E4
  8
0
  0
CIRCLE
  5
167
  8
0
 10
0.5
 20
0.5
 30
0.0
 40
0.25
  0
ARC
  5
168
  8
0
 10
0.5
 20
0.625
 30
0.0
 40
0.625
 50
36.86989764584402
 51
143.130102354156
  0
ARC
  5
169
  8
0
 10
3.25
 20
1.25
 30
0.0
 40
2.850438562747845
 50
142.1250163489018
 51
195.2551187030578
  0
POLYLINE
  5
16A
  8
0
 66
     1
 10
0.0
 20
0.0
 30
0.0
  0
VERTEX
  5
242
  8
0
 10
-0.4151804233604739
 20
-1.059059164557658
 30
0.0
  0
VERTEX
  5
243
  8
0
 10
-0.3435252858628369
 20
-0.9967007570716712
 30
0.0
  0
VERTEX
  5
244
  8
0
 10
-0.2719577861877812
 20
-0.9347422440719191
 30
0.0
  0
VERTEX
  5
245
  8
0
 10
-0.2005655621578868
 20
-0.873583520044636
 30
0.0
  0
VERTEX
  5
246
  8
0
 10
-0.1294362515957344
 20
-0.8136244794760568
 30
0.0
  0
VERTEX
  5
247
  8
0
 10
-0.0586574923239054
 20
-0.7552650168524159
 30
0.0
  0
VERTEX
  5
248
  8
0
 10
0.0116830778350198
 20
-0.6989050266599482
 30
0.0
  0
VERTEX
  5
249
  8
0
 10
0.0814978210584602
 20
-0.6449444033848885
 30
0.0
  0
VERTEX
  5
24A
  8
0
 10
0.1506990995238354
 20
-0.5937830415134709
 30
0.0
  0
VERTEX
  5
24B
  8
0
 10
0.2191992754085642
 20
-0.5458208355319303
 30
0.0
  0
VERTEX
  5
24C
  8
0
 10
0.2869107108900661
 20
-0.5014576799265013
 30
0.0
  0
VERTEX
  5
24D
  8
0
 10
0.3537457681457603
 20
-0.4610934691834185
 30
0.0
  0
VERTEX
  5
24E
  8
0
 10
0.4196168093530659
 20
-0.4251280977889165
 30
0.0
  0
VERTEX
  5
24F
  8
0
 10
0.484436196689402
 20
-0.39396146022923
 30
0.0
  0
VERTEX
  5
250
  8
0
 10
0.5481162923321884
 20
-0.3679934509905936
 30
0.0
  0
VERTEX
  5
251
  8
0
 10
0.6105694584588437
 20
-0.3476239645592418
 30
0.0
  0
VERTEX
  5
252
  8
0
 10
0.6717080572467873
 20
-0.3332528954214095
 30
0.0
  0
VERTEX
  5
253
  8
0
 10
0.7314444508734388
 20
-0.325280138063331
 30
0.0
  0
VERTEX
  5
254
  8
0
 10
0.7896910015162166
 20
-0.324105586971241
 30
0.0
  0
VERTEX
  5
255
  8
0
 10
0.8463600713525403
 20
-0.3301291366313742
 30
0.0
  0
VERTEX
  5
256
  8
0
 10
0.9013640225598298
 20
-0.3437506815299653
 30
0.0
  0
VERTEX
  5
257
  8
0
 10
0.954615217315504
 20
-0.3653701161532489
 30
0.0
  0
VERTEX
  5
258
  8
0
 10
1.006059869230893
 20
-0.3952328696964038
 30
0.0
  0
VERTEX
  5
259
  8
0
 10
1.055813931431075
 20
-0.4328098439457272
 30
0.0
  0
VERTEX
  5
25A
  8
0
 10
1.104046446587766
 20
-0.4773296912071914
 30
0.0
  0
VERTEX
  5
25B
  8
0
 10
1.150926475483576
 20
-0.5280209811461137
 30
0.0
  0
VERTEX
  5
25C
  8
0
 10
1.196623078901115
 20
-0.5841122834278119
 30
0.0
  0
VERTEX
  5
25D
  8
0
 10
1.241305317622992
 20
-0.6448321677176037
 30
0.0
  0
VERTEX
  5
25E
  8
0
 10
1.285142252431819
 20
-0.7094092036808071
 30
0.0
  0
VERTEX
  5
25F
  8
0
 10
1.328302944110205
 20
-0.7770719609827395
 30
0.0
  0
VERTEX
  5
260
  8
0
 10
1.37095645344076
 20
-0.8470490092887187
 30
0.0
  0
VERTEX
  5
261
  8
0
 10
1.413271841206096
 20
-0.9185689182640625
 30
0.0
  0
VERTEX
  5
262
  8
0
 10
1.455418168188822
 20
-0.9908602575740904
 30
0.0
  0
SEQEND
  5
2E5
  8
0
  0
LINE
  5
16B
  8
0
 10
-0.1472561459250279
 20
-1.67284932740977
 30
0.0
 11
0.4957621199200424
 21
-1.565679616435592
 31
0.0
  0
LINE
  5
16C
  8
0
 10
0.4957621199200424
 20
-1.565679616435592
 30
0.0
 11
0.6272885833883521
 21
-2.174598428788879
 31
0.0
  0
LINE
  5
16D
  8
0
 10
0.6272885833883521
 20
-2.174598428788879
 30
0.0
 11
1.070581478781545
 21
-1.755662285889817
 31
0.0
  0
LINE
  5
16E
  8
0
 10
1.070581478781545
 20
-1.755662285889817
 30
0.0
 11
1.070581478781545
 21
-2.296382191259536
 31
0.0
  0
LINE
  5
16F
  8
0
 10
1.070581478781545
 20
-2.296382191259536
 30
0.0
 11
1.60155868315361
 21
-1.857960646365169
 31
0.0
  0
LINE
  5
170
  8
0
 10
1.60155868315361
 20
-1.857960646365169
 30
0.0
 11
1.357991158212296
 21
-2.744546437151554
 31
0.0
  0
LINE
  5
171
  8
0
 10
1.357991158212296
 20
-2.744546437151554
 30
0.0
 11
-0.147256145925028
 21
-2.10639952180531
 31
0.0
  0
LINE
  5
175
  8
0
 10
-0.7172041542877039
 20
-3.109897724563526
 30
0.0
 11
-0.2057123519109434
 21
-2.593534571687939
 31
0.0
  0
LINE
  5
176
  8
0
 10
-0.2057123519109434
 20
-2.593534571687939
 30
0.0
 11
0.2180951414869439
 21
-3.207324734540052
 31
0.0
  0
LINE
  5
177
  8
0
 10
0.2180951414869439
 20
-3.207324734540052
 30
0.0
 11
-0.7172041542877039
 21
-3.109897724563526
 31
0.0
  0
POLYLINE
  5
179
  8
0
 66
     1
 10
0.0
 20
0.0
 30
0.0
 70
     1
  0
VERTEX
  5
263
  8
0
 10
-1.135298664976644
 20
-5.184552823386357
 30
0.0
  0
VERTEX
  5
264
  8
0
 10
-1.185989019169083
 20
-5.126433215011193
 30
0.0
  0
VERTEX
  5
265
  8
0
 10
-1.189650624930155
 20
-5.047725622732957
 30
0.0
  0
VERTEX
  5
266
  8
0
 10
-1.151387603392954
 20
-4.953088182775104
 30
0.0
  0
VERTEX
  5
267
  8
0
 10
-1.076304075690574
 20
-4.847179031361081
 30
0.0
  0
VERTEX
  5
268
  8
0
 10
-0.9695041629561059
 20
-4.734656304714346
 30
0.0
  0
VERTEX
  5
269
  8
0
 10
-0.8360919863226449
 20
-4.620178139058349
 30
0.0
  0
VERTEX
  5
26A
  8
0
 10
-0.681171666923284
 20
-4.508402670616543
 30
0.0
  0
VERTEX
  5
26B
  8
0
 10
-0.5098473258911157
 20
-4.403988035612382
 30
0.0
  0
VERTEX
  5
26C
  8
0
 10
-0.3272230843592341
 20
-4.311592370269317
 30
0.0
  0
VERTEX
  5
26D
  8
0
 10
-0.1384030634607317
 20
-4.2358738108108
 30
0.0
  0
VERTEX
  5
26E
  8
0
 10
0.0515086156712975
 20
-4.181490493460286
 30
0.0
  0
VERTEX
  5
26F
  8
0
 10
0.2374078319037612
 20
-4.153100554441226
 30
0.0
  0
VERTEX
  5
270
  8
0
 10
0.4141904641035654
 20
-4.155362129977075
 30
0.0
  0
VERTEX
  5
271
  8
0
 10
0.5769129891736557
 20
-4.192646653899319
 30
0.0
  0
VERTEX
  5
272
  8
0
 10
0.7243009466466751
 20
-4.262775485965395
 30
0.0
  0
VERTEX
  5
273
  8
0
 10
0.8587352729998394
 20
-4.357044308076168
 30
0.0
  0
VERTEX
  5
274
  8
0
 10
0.9827547695974481
 20
-4.466466979005326
 30
0.0
  0
VERTEX
  5
275
  8
0
 10
1.098898237803801
 20
-4.58205735752656
 30
0.0
  0
VERTEX
  5
276
  8
0
 10
1.209704478983196
 20
-4.694829302413559
 30
0.0
  0
VERTEX
  5
277
  8
0
 10
1.317712294499933
 20
-4.795796672440019
 30
0.0
  0
VERTEX
  5
278
  8
0
 10
1.425460485718312
 20
-4.875973326379623
 30
0.0
  0
VERTEX
  5
279
  8
0
 10
1.535487854002631
 20
-4.926373123006066
 30
0.0
  0
VERTEX
  5
27A
  8
0
 10
1.650333200717189
 20
-4.938009921093037
 30
0.0
  0
VERTEX
  5
27B
  8
0
 10
1.772416180093892
 20
-4.902234525110405
 30
0.0
  0
VERTEX
  5
27C
  8
0
 10
1.899697544087676
 20
-4.823007425566606
 30
0.0
  0
VERTEX
  5
27D
  8
0
 10
2.024443882931543
 20
-4.720392087896748
 30
0.0
  0
VERTEX
  5
27E
  8
0
 10
2.138550947431958
 20
-4.615500703982243
 30
0.0
  0
VERTEX
  5
27F
  8
0
 10
2.233914488395385
 20
-4.529445465704503
 30
0.0
  0
VERTEX
  5
280
  8
0
 10
2.302776279492456
 20
-4.482464773390215
 30
0.0
  0
VERTEX
  5
281
  8
0
 10
2.342860711995093
 20
-4.480952089779743
 30
0.0
  0
VERTEX
  5
282
  8
0
 10
2.356274398373434
 20
-4.520234707511706
 30
0.0
  0
VERTEX
  5
283
  8
0
 10
2.345246426418716
 20
-4.595330639369776
 30
0.0
  0
VERTEX
  5
284
  8
0
 10
2.312005883922176
 20
-4.701257898137622
 30
0.0
  0
VERTEX
  5
285
  8
0
 10
2.25878185867505
 20
-4.833034496598914
 30
0.0
  0
VERTEX
  5
286
  8
0
 10
2.187803438468574
 20
-4.985678447537321
 30
0.0
  0
VERTEX
  5
287
  8
0
 10
2.101299711093986
 20
-5.154207763736515
 30
0.0
  0
VERTEX
  5
288
  8
0
 10
2.00149976434252
 20
-5.333640457980164
 30
0.0
  0
VERTEX
  5
289
  8
0
 10
1.890632686005416
 20
-5.51899454305194
 30
0.0
  0
VERTEX
  5
28A
  8
0
 10
1.770927563873907
 20
-5.705288031735509
 30
0.0
  0
VERTEX
  5
28B
  8
0
 10
1.644613485739233
 20
-5.887538936814546
 30
0.0
  0
VERTEX
  5
28C
  8
0
 10
1.513919539392629
 20
-6.060765271072717
 30
0.0
  0
VERTEX
  5
28D
  8
0
 10
1.381074812625331
 20
-6.219985047293694
 30
0.0
  0
VERTEX
  5
28E
  8
0
 10
1.248308393228576
 20
-6.360216278261148
 30
0.0
  0
VERTEX
  5
28F
  8
0
 10
1.1178493689936
 20
-6.476476976758742
 30
0.0
  0
VERTEX
  5
290
  8
0
 10
0.9919268277116411
 20
-6.563785155570155
 30
0.0
  0
VERTEX
  5
291
  8
0
 10
0.8727698571739347
 20
-6.617158827479052
 30
0.0
  0
VERTEX
  5
292
  8
0
 10
0.7624916488575251
 20
-6.631900700981922
 30
0.0
  0
VERTEX
  5
293
  8
0
 10
0.6610598988234544
 20
-6.608583827735556
 30
0.0
  0
VERTEX
  5
294
  8
0
 10
0.5665512617429911
 20
-6.552426544108192
 30
0.0
  0
VERTEX
  5
295
  8
0
 10
0.4769776411634444
 20
-6.46880624560226
 30
0.0
  0
VERTEX
  5
296
  8
0
 10
0.3903509406321237
 20
-6.363100327720189
 30
0.0
  0
VERTEX
  5
297
  8
0
 10
0.3046830636963386
 20
-6.240686185964408
 30
0.0
  0
VERTEX
  5
298
  8
0
 10
0.2179859139033982
 20
-6.106941215837346
 30
0.0
  0
VERTEX
  5
299
  8
0
 10
0.1282713948006121
 20
-5.967242812841436
 30
0.0
  0
VERTEX
  5
29A
  8
0
 10
0.0335514099352895
 20
-5.826968372479103
 30
0.0
  0
VERTEX
  5
29B
  8
0
 10
-0.0681621371452601
 20
-5.69149529025278
 30
0.0
  0
VERTEX
  5
29C
  8
0
 10
-0.1788573428937281
 20
-5.566200961664894
 30
0.0
  0
VERTEX
  5
29D
  8
0
 10
-0.3005223037628046
 20
-5.456462782217876
 30
0.0
  0
VERTEX
  5
29E
  8
0
 10
-0.4351451162051801
 20
-5.367658147414154
 30
0.0
  0
VERTEX
  5
29F
  8
0
 10
-0.5846363478981476
 20
-5.305085489818322
 30
0.0
  0
VERTEX
  5
2A0
  8
0
 10
-0.7447117626677457
 20
-5.267733843853253
 30
0.0
  0
VERTEX
  5
2A1
  8
0
 10
-0.9004738525986404
 20
-5.243782643087544
 30
0.0
  0
VERTEX
  5
2A2
  8
0
 10
-1.035982769448912
 20
-5.220349699079232
 30
0.0
  0
SEQEND
  5
2E6
  8
0
  0
POLYLINE
  5
17A
  8
0
 66
     1
 10
0.0
 20
0.0
 30
0.0
  0
VERTEX
  5
2A3
  8
0
 10
-0.6748121985226609
 20
2.999547557682159
 30
0.0
  0
VERTEX
  5
2A4
  8
0
 10
-1.095950246047453
 20
2.865802459863755
 30
0.0
  0
VERTEX
  5
2A5
  8
0
 10
-1.505202534118431
 20
2.731378135877095
 30
0.0
  0
VERTEX
  5
2A6
  8
0
 10
-1.890683303281783
 20
2.595595359553917
 30
0.0
  0
VERTEX
  5
2A7
  8
0
 10
-2.240506794083695
 20
2.457774904725964
 30
0.0
  0
VERTEX
  5
2A8
  8
0
 10
-2.542787247070355
 20
2.317237545224978
 30
0.0
  0
VERTEX
  5
2A9
  8
0
 10
-2.785638902787949
 20
2.173304054882701
 30
0.0
  0
VERTEX
  5
2AA
  8
0
 10
-2.957176001782664
 20
2.025295207530873
 30
0.0
  0
VERTEX
  5
2AB
  8
0
 10
-3.045512784600687
 20
1.872531777001238
 30
0.0
  0
VERTEX
  5
2AC
  8
0
 10
-3.038763491788204
 20
1.714334537125537
 30
0.0
  0
VERTEX
  5
2AD
  8
0
 10
-2.925363296974791
 20
1.550043495405867
 30
0.0
  0
VERTEX
  5
2AE
  8
0
 10
-2.711348014080393
 20
1.380053473979954
 30
0.0
  0
VERTEX
  5
2AF
  8
0
 10
-2.429122945882412
 20
1.20633963083251
 30
0.0
  0
VERTEX
  5
2B0
  8
0
 10
-2.113258450799926
 20
1.031006876749287
 30
0.0
  0
VERTEX
  5
2B1
  8
0
 10
-1.798324887252018
 20
0.8561601225160395
 30
0.0
  0
VERTEX
  5
2B2
  8
0
 10
-1.518892613657767
 20
0.6839042789185198
 30
0.0
  0
VERTEX
  5
2B3
  8
0
 10
-1.309531988436254
 20
0.5163442567424807
 30
0.0
  0
VERTEX
  5
2B4
  8
0
 10
-1.204813370006558
 20
0.3555849667736756
 30
0.0
  0
VERTEX
  5
2B5
  8
0
 10
-1.238685122585805
 20
0.2037008090697415
 30
0.0
  0
VERTEX
  5
2B6
  8
0
 10
-1.414480919012411
 20
0.0612644389420163
 30
0.0
  0
VERTEX
  5
2B7
  8
0
 10
-1.691581285072406
 20
-0.0733075253083901
 30
0.0
  0
VERTEX
  5
2B8
  8
0
 10
-2.025967205216848
 20
-0.2017652233357717
 30
0.0
  0
VERTEX
  5
2B9
  8
0
 10
-2.373619663896796
 20
-0.3258587947944221
 30
0.0
  0
VERTEX
  5
2BA
  8
0
 10
-2.690519645563309
 20
-0.4473383793386351
 30
0.0
  0
VERTEX
  5
2BB
  8
0
 10
-2.932648134667444
 20
-0.5679541166227047
 30
0.0
  0
VERTEX
  5
2BC
  8
0
 10
-3.055986115660262
 20
-0.6894561463009242
 30
0.0
  0
VERTEX
  5
2BD
  8
0
 10
-3.02554048599887
 20
-0.8134321519807887
 30
0.0
  0
VERTEX
  5
2BE
  8
0
 10
-2.859667743438246
 20
-0.9405095858608596
 30
0.0
  0
VERTEX
  5
2BF
  8
0
 10
-2.596255108777966
 20
-1.070964369601478
 30
0.0
  0
VERTEX
  5
2C0
  8
0
 10
-2.273219065063062
 20
-1.205071898176243
 30
0.0
  0
VERTEX
  5
2C1
  8
0
 10
-1.928476095338567
 20
-1.343107566558752
 30
0.0
  0
VERTEX
  5
2C2
  8
0
 10
-1.599942682649515
 20
-1.485346769722605
 30
0.0
  0
VERTEX
  5
2C3
  8
0
 10
-1.325535310040935
 20
-1.632064902641399
 30
0.0
  0
VERTEX
  5
2C4
  8
0
 10
-1.143170460557863
 20
-1.783537360288734
 30
0.0
  0
VERTEX
  5
2C5
  8
0
 10
-1.082946059584026
 20
-1.939936293066267
 30
0.0
  0
VERTEX
  5
2C6
  8
0
 10
-1.136826794430071
 20
-2.100930299440366
 30
0.0
  0
VERTEX
  5
2C7
  8
0
 10
-1.285169075906938
 20
-2.266034689817106
 30
0.0
  0
VERTEX
  5
2C8
  8
0
 10
-1.508326565192038
 20
-2.434764738293469
 30
0.0
  0
VERTEX
  5
2C9
  8
0
 10
-1.786652923462784
 20
-2.606635718966437
 30
0.0
  0
VERTEX
  5
2CA
  8
0
 10
-2.100501811896585
 20
-2.781162905932996
 30
0.0
  0
VERTEX
  5
2CB
  8
0
 10
-2.43022689167085
 20
-2.957861573290125
 30
0.0
  0
VERTEX
  5
2CC
  8
0
 10
-2.756181823962992
 20
-3.136246995134807
 30
0.0
  0
VERTEX
  5
2CD
  8
0
 10
-3.058720269950423
 20
-3.315834445564026
 30
0.0
  0
VERTEX
  5
2CE
  8
0
 10
-3.318195890810549
 20
-3.496139198674764
 30
0.0
  0
VERTEX
  5
2CF
  8
0
 10
-3.518525384987816
 20
-3.676751095505403
 30
0.0
  0
VERTEX
  5
2D0
  8
0
 10
-3.658719324697843
 20
-3.85757586040303
 30
0.0
  0
VERTEX
  5
2D1
  8
0
 10
-3.741784462581564
 20
-4.038602849439375
 30
0.0
  0
VERTEX
  5
2D2
  8
0
 10
-3.770727577682471
 20
-4.219821419238715
 30
0.0
  0
VERTEX
  5
2D3
  8
0
 10
-3.74855544904405
 20
-4.401220926425328
 30
0.0
  0
VERTEX
  5
2D4
  8
0
 10
-3.678274855709793
 20
-4.582790727623492
 30
0.0
  0
VERTEX
  5
2D5
  8
0
 10
-3.56289257672319
 20
-4.764520179457486
 30
0.0
  0
VERTEX
  5
2D6
  8
0
 10
-3.405415391127729
 20
-4.946398638551589
 30
0.0
  0
VERTEX
  5
2D7
  8
0
 10
-3.208850077966903
 20
-5.128415461530075
 30
0.0
  0
VERTEX
  5
2D8
  8
0
 10
-2.976203416284198
 20
-5.310560005017225
 30
0.0
  0
VERTEX
  5
2D9
  8
0
 10
-2.710482185123106
 20
-5.492821625637317
 30
0.0
  0
VERTEX
  5
2DA
  8
0
 10
-2.414693163527117
 20
-5.67518968001463
 30
0.0
  0
VERTEX
  5
2DB
  8
0
 10
-2.091843130539719
 20
-5.857653524773438
 30
0.0
  0
VERTEX
  5
2DC
  8
0
 10
-1.744938865204404
 20
-6.040202516538022
 30
0.0
  0
VERTEX
  5
2DD
  8
0
 10
-1.376987146564662
 20
-6.222826011932659
 30
0.0
  0
VERTEX
  5
2DE
  8
0
 10
-0.9909947536639817
 20
-6.405513367581628
 30
0.0
  0
VERTEX
  5
2DF
  8
0
 10
-0.5899684655458534
 20
-6.588253940109208
 30
0.0
  0
VERTEX
  5
2E0
  8
0
 10
-0.1769150612537658
 20
-6.771037086139675
 30
0.0
  0
VERTEX
  5
2E1
  8
0
 10
0.2451586801687911
 20
-6.953852162297307
 30
0.0
  0
VERTEX
  5
2E2
  8
0
 10
0.6732459796783273
 20
-7.136688525206383
 30
0.0
  0
VERTEX
  5
2E3
  8
0
 10
1.104340058231364
 20
-7.319535531491186
 30
0.0
  0
SEQEND
  5
2E7
  8
0
  0
ENDSEC
  0
EOF
