  0
SECTION
  2
HEADER
  9
$ACADVER
  1
AC1015
  9
$ACADMAINTVER
 70
     6
  9
$DWGCODEPAGE
  3
ANSI_1252
  9
$INSBASE
 10
0.0
 20
0.0
 30
0.0
  9
$EXTMIN
 10
0.0
 20
0.0
 30
0.0
  9
$EXTMAX
 10
22.0
 20
17.0
 30
0.0
  9
$LIMMIN
 10
0.0
 20
0.0
  9
$LIMMAX
 10
22.0
 20
17.0
  9
$ORTHOMODE
 70
     0
  9
$REGENMODE
 70
     1
  9
$FILLMODE
 70
     1
  9
$QTEXTMODE
 70
     0
  9
$MIRRTEXT
 70
     1
  9
$LTSCALE
 40
1.0
  9
$ATTMODE
 70
     1
  9
$TEXTSIZE
 40
0.1377952756
  9
$TRACEWID
 40
0.05
  9
$TEXTSTYLE
  7
Standard
  9
$CLAYER
  8
0
  9
$CELTYPE
  6
ByLayer
  9
$CECOLOR
 62
   256
  9
$CELTSCALE
 40
1.0
  9
$DISPSILH
 70
     0
  9
$DIMSCALE
 40
1.0
  9
$DIMASZ
 40
0.13
  9
$DIMEXO
 40
0.0393700787
  9
$DIMDLI
 40
0.38
  9
$DIMRND
 40
0.0
  9
$DIMDLE
 40
0.0
  9
$DIMEXE
 40
0.0393700787
  9
$DIMTP
 40
0.0
  9
$DIMTM
 40
0.0
  9
$DIMTXT
 40
0.1377952756
  9
$DIMCEN
 40
0.09
  9
$DIMTSZ
 40
0.0
  9
$DIMTOL
 70
     0
  9
$DIMLIM
 70
     0
  9
$DIMTIH
 70
     1
  9
$DIMTOH
 70
     1
  9
$DIMSE1
 70
     0
  9
$DIMSE2
 70
     0
  9
$DIMTAD
 70
     1
  9
$DIMZIN
 70
     0
  9
$DIMBLK
  1

  9
$DIMASO
 70
     1
  9
$DIMSHO
 70
     1
  9
$DIMPOST
  1

  9
$DIMAPOST
  1

  9
$DIMALT
 70
     0
  9
$DIMALTD
 70
     2
  9
$DIMALTF
 40
25.4
  9
$DIMLFAC
 40
1.0
  9
$DIMTOFL
 70
     0
  9
$DIMTVP
 40
0.0
  9
$DIMTIX
 70
     0
  9
$DIMSOXD
 70
     0
  9
$DIMSAH
 70
     0
  9
$DIMBLK1
  1

  9
$DIMBLK2
  1

  9
$DIMSTYLE
  2
Standard
  9
$DIMCLRD
 70
     0
  9
$DIMCLRE
 70
     0
  9
$DIMCLRT
 70
     0
  9
$DIMTFAC
 40
1.0
  9
$DIMGAP
 40
0.06
  9
$DIMJUST
 70
     0
  9
$DIMSD1
 70
     0
  9
$DIMSD2
 70
     0
  9
$DIMTOLJ
 70
     1
  9
$DIMTZIN
 70
     0
  9
$DIMALTZ
 70
     0
  9
$DIMALTTZ
 70
     0
  9
$DIMUPT
 70
     0
  9
$DIMDEC
 70
     2
  9
$DIMTDEC
 70
     2
  9
$DIMALTU
 70
     2
  9
$DIMALTTD
 70
     2
  9
$DIMTXSTY
  7
Standard
  9
$DIMAUNIT
 70
     0
  9
$DIMADEC
 70
     2
  9
$DIMALTRND
 40
0.0
  9
$DIMAZIN
 70
     0
  9
$DIMDSEP
 70
    46
  9
$DIMATFIT
 70
     3
  9
$DIMFRAC
 70
     0
  9
$DIMLDRBLK
  1

  9
$DIMLUNIT
 70
     2
  9
$DIMLWD
 70
    -2
  9
$DIMLWE
 70
    -2
  9
$DIMTMOVE
 70
     0
  9
$LUNITS
 70
     2
  9
$LUPREC
 70
     2
  9
$SKETCHINC
 40
0.1
  9
$FILLETRAD
 40
0.5
  9
$AUNITS
 70
     0
  9
$AUPREC
 70
     2
  9
$MENU
  1
.
  9
$ELEVATION
 40
0.0
  9
$PELEVATION
 40
0.0
  9
$THICKNESS
 40
0.0
  9
$LIMCHECK
 70
     0
  9
$CHAMFERA
 40
0.5
  9
$CHAMFERB
 40
0.5
  9
$CHAMFERC
 40
1.0
  9
$CHAMFERD
 40
0.0
  9
$SKPOLY
 70
     0
  9
$TDCREATE
 40
2456681.634135949
  9
$TDUCREATE
 40
2456681.842469282
  9
$TDUPDATE
 40
2456681.634136204
  9
$TDUUPDATE
 40
2456681.842469537
  9
$TDINDWG
 40
0.0000000116
  9
$TDUSRTIMER
 40
0.0000000116
  9
$USRTIMER
 70
     1
  9
$ANGBASE
 50
0.0
  9
$ANGDIR
 70
     0
  9
$PDMODE
 70
     0
  9
$PDSIZE
 40
-1.0
  9
$PLINEWID
 40
0.0
  9
$SPLFRAME
 70
     0
  9
$SPLINETYPE
 70
     6
  9
$SPLINESEGS
 70
     8
  9
$HANDSEED
  5
73
  9
$SURFTAB1
 70
     6
  9
$SURFTAB2
 70
     6
  9
$SURFTYPE
 70
     6
  9
$SURFU
 70
     6
  9
$SURFV
 70
     6
  9
$UCSBASE
  2

  9
$UCSNAME
  2

  9
$UCSORG
 10
0.0
 20
0.0
 30
0.0
  9
$UCSXDIR
 10
1.0
 20
0.0
 30
0.0
  9
$UCSYDIR
 10
0.0
 20
1.0
 30
0.0
  9
$UCSORTHOREF
  2

  9
$UCSORTHOVIEW
 70
     0
  9
$UCSORGTOP
 10
0.0
 20
0.0
 30
0.0
  9
$UCSORGBOTTOM
 10
0.0
 20
0.0
 30
0.0
  9
$UCSORGLEFT
 10
0.0
 20
0.0
 30
0.0
  9
$UCSORGRIGHT
 10
0.0
 20
0.0
 30
0.0
  9
$UCSORGFRONT
 10
0.0
 20
0.0
 30
0.0
  9
$UCSORGBACK
 10
0.0
 20
0.0
 30
0.0
  9
$PUCSBASE
  2

  9
$PUCSNAME
  2

  9
$PUCSORG
 10
0.0
 20
0.0
 30
0.0
  9
$PUCSXDIR
 10
1.0
 20
0.0
 30
0.0
  9
$PUCSYDIR
 10
0.0
 20
1.0
 30
0.0
  9
$PUCSORTHOREF
  2

  9
$PUCSORTHOVIEW
 70
     0
  9
$PUCSORGTOP
 10
0.0
 20
0.0
 30
0.0
  9
$PUCSORGBOTTOM
 10
0.0
 20
0.0
 30
0.0
  9
$PUCSORGLEFT
 10
0.0
 20
0.0
 30
0.0
  9
$PUCSORGRIGHT
 10
0.0
 20
0.0
 30
0.0
  9
$PUCSORGFRONT
 10
0.0
 20
0.0
 30
0.0
  9
$PUCSORGBACK
 10
0.0
 20
0.0
 30
0.0
  9
$USERI1
 70
     0
  9
$USERI2
 70
     0
  9
$USERI3
 70
     0
  9
$USERI4
 70
     0
  9
$USERI5
 70
     0
  9
$USERR1
 40
0.0
  9
$USERR2
 40
0.0
  9
$USERR3
 40
0.0
  9
$USERR4
 40
0.0
  9
$USERR5
 40
0.0
  9
$WORLDVIEW
 70
     1
  9
$SHADEDGE
 70
     3
  9
$SHADEDIF
 70
    70
  9
$TILEMODE
 70
     1
  9
$MAXACTVP
 70
    64
  9
$PINSBASE
 10
0.0
 20
0.0
 30
0.0
  9
$PLIMCHECK
 70
     0
  9
$PEXTMIN
 10
1.0000000000E+20
 20
1.0000000000E+20
 30
1.0000000000E+20
  9
$PEXTMAX
 10
-1.0000000000E+20
 20
-1.0000000000E+20
 30
-1.0000000000E+20
  9
$PLIMMIN
 10
0.0
 20
0.0
  9
$PLIMMAX
 10
12.0
 20
9.0
  9
$UNITMODE
 70
     0
  9
$VISRETAIN
 70
     1
  9
$PLINEGEN
 70
     0
  9
$PSLTSCALE
 70
     1
  9
$TREEDEPTH
 70
  3020
  9
$CMLSTYLE
  2
Standard
  9
$CMLJUST
 70
     0
  9
$CMLSCALE
 40
1.0
  9
$PROXYGRAPHICS
 70
     1
  9
$MEASUREMENT
 70
     0
  9
$CELWEIGHT
370
    -1
  9
$ENDCAPS
280
     0
  9
$JOINSTYLE
280
     0
  9
$LWDISPLAY
290
     1
  9
$INSUNITS
 70
     1
  9
$HYPERLINKBASE
  1

  9
$STYLESHEET
  1

  9
$XEDIT
290
     1
  9
$CEPSNTYPE
380
     0
  9
$PSTYLEMODE
290
     1
  9
$FINGERPRINTGUID
  2
{C22C1588-5915-4C7B-8C3C-E9EC3F99EEAD}
  9
$VERSIONGUID
  2
{FAEB1C32-E019-11D5-929B-00C0DF256EC4}
  9
$EXTNAMES
290
     1
  9
$PSVPSCALE
 40
0.0
  9
$OLESTARTUP
290
     0
  0
ENDSEC
  0
SECTION
  2
CLASSES
  0
CLASS
  1
ACDBDICTIONARYWDFLT
  2
AcDbDictionaryWithDefault
  3
ObjectDBX Classes
 90
        0
280
     0
281
     0
  0
CLASS
  1
VISUALSTYLE
  2
AcDbVisualStyle
  3
ObjectDBX Classes
 90
     4095
280
     0
281
     0
  0
CLASS
  1
MATERIAL
  2
AcDbMaterial
  3
ObjectDBX Classes
 90
     1153
280
     0
281
     0
  0
CLASS
  1
ACDBPLACEHOLDER
  2
AcDbPlaceHolder
  3
ObjectDBX Classes
 90
        0
280
     0
281
     0
  0
CLASS
  1
LAYOUT
  2
AcDbLayout
  3
ObjectDBX Classes
 90
        0
280
     0
281
     0
  0
ENDSEC
  0
SECTION
  2
TABLES
  0
TABLE
  2
VPORT
  5
8
330
0
100
AcDbSymbolTable
 70
     1
  0
VPORT
  5
29
330
8
100
AcDbSymbolTableRecord
100
AcDbViewportTableRecord
  2
*Active
 70
     0
 10
0.0
 20
0.0
 11
1.0
 21
1.0
 12
11.0
 22
8.5
 13
0.0
 23
0.0
 14
0.5
 24
0.5
 15
0.5
 25
0.5
 16
0.0
 26
0.0
 36
1.0
 17
0.0
 27
0.0
 37
0.0
 40
17.0
 41
1.2941176471
 42
50.0
 43
0.0
 44
0.0
 50
0.0
 51
0.0
 71
     0
 72
  2000
 73
     1
 74
     3
 75
     0
 76
     0
 77
     0
 78
     0
281
     0
 65
     1
110
0.0
120
0.0
130
0.0
111
1.0
121
0.0
131
0.0
112
0.0
122
1.0
132
0.0
 79
     0
146
0.0
  0
ENDTAB
  0
TABLE
  2
LTYPE
  5
5
330
0
100
AcDbSymbolTable
 70
     6
  0
LTYPE
  5
14
330
5
100
AcDbSymbolTableRecord
100
AcDbLinetypeTableRecord
  2
ByBlock
 70
     0
  3

 72
    65
 73
     0
 40
0.0
  0
LTYPE
  5
15
330
5
100
AcDbSymbolTableRecord
100
AcDbLinetypeTableRecord
  2
ByLayer
 70
     0
  3

 72
    65
 73
     0
 40
0.0
  0
LTYPE
  5
16
330
5
100
AcDbSymbolTableRecord
100
AcDbLinetypeTableRecord
  2
Continuous
 70
     0
  3
Solid line
 72
    65
 73
     0
 40
0.0
  0
LTYPE
  5
3F
330
5
100
AcDbSymbolTableRecord
100
AcDbLinetypeTableRecord
  2
HIDDEN
 70
     0
  3
Hidden __ __ __ __ __ __ __ __ __ __ __ __ __ __
 72
    65
 73
     2
 40
0.075
 49
0.05
 74
     0
 49
-0.025
 74
     0
  0
LTYPE
  5
40
330
5
100
AcDbSymbolTableRecord
100
AcDbLinetypeTableRecord
  2
PHANTOM
 70
     0
  3
Phantom ______  __  __  ______  __  __  ______
 72
    65
 73
     6
 40
0.5
 49
0.25
 74
     0
 49
-0.05
 74
     0
 49
0.05
 74
     0
 49
-0.05
 74
     0
 49
0.05
 74
     0
 49
-0.05
 74
     0
  0
LTYPE
  5
41
330
5
100
AcDbSymbolTableRecord
100
AcDbLinetypeTableRecord
  2
CENTER
 70
     0
  3
Center ____ _ ____ _ ____ _ ____ _ ____ _ ____
 72
    65
 73
     4
 40
0.4
 49
0.25
 74
     0
 49
-0.05
 74
     0
 49
0.05
 74
     0
 49
-0.05
 74
     0
  0
LTYPE
  5
42
330
5
100
AcDbSymbolTableRecord
100
AcDbLinetypeTableRecord
  2
CENTERX2
 70
     0
  3
Center (2x) ________  __  ________  __  _____
 72
    65
 73
     4
 40
0.8
 49
0.5
 74
     0
 49
-0.1
 74
     0
 49
0.1
 74
     0
 49
-0.1
 74
     0
  0
LTYPE
  5
43
330
5
100
AcDbSymbolTableRecord
100
AcDbLinetypeTableRecord
  2
DOT2
 70
     0
  3
Dot (.5x) ........................................
 72
    65
 73
     2
 40
0.025
 49
0.0
 74
     0
 49
-0.025
 74
     0
  0
ENDTAB
  0
TABLE
  2
LAYER
  5
2
330
0
100
AcDbSymbolTable
 70
     2
  0
LAYER
  5
10
330
2
100
AcDbSymbolTableRecord
100
AcDbLayerTableRecord
  2
0
 70
     0
 62
     7
  6
Continuous
370
    -3
390
F
  0
LAYER
  5
44
330
2
100
AcDbSymbolTableRecord
100
AcDbLayerTableRecord
  2
FORMAT
 70
     0
 62
     7
  6
Continuous
370
    -3
390
F
  0
ENDTAB
  0
TABLE
  2
STYLE
  5
3
330
0
100
AcDbSymbolTable
 70
     1
  0
STYLE
  5
11
330
3
100
AcDbSymbolTableRecord
100
AcDbTextStyleTableRecord
  2
Standard
 70
     0
 40
0.0
 41
1.0
 50
0.0
 71
     0
 42
0.1377952756
  3
txt
  4

  0
ENDTAB
  0
TABLE
  2
VIEW
  5
6
330
0
100
AcDbSymbolTable
 70
     0
  0
ENDTAB
  0
TABLE
  2
UCS
  5
7
330
0
100
AcDbSymbolTable
 70
     0
  0
ENDTAB
  0
TABLE
  2
APPID
  5
9
330
0
100
AcDbSymbolTable
 70
     1
  0
APPID
  5
12
330
9
100
AcDbSymbolTableRecord
100
AcDbRegAppTableRecord
  2
ACAD
 70
     0
  0
ENDTAB
  0
TABLE
  2
DIMSTYLE
  5
A
330
0
100
AcDbSymbolTable
 70
     1
100
AcDbDimStyleTable
  0
DIMSTYLE
105
27
330
A
100
AcDbSymbolTableRecord
100
AcDbDimStyleTableRecord
  2
Standard
 70
     0
178
     0
340
11
  0
ENDTAB
  0
TABLE
  2
BLOCK_RECORD
  5
1
330
0
100
AcDbSymbolTable
 70
     1
  0
BLOCK_RECORD
  5
1F
330
1
100
AcDbSymbolTableRecord
100
AcDbBlockTableRecord
  2
*Model_Space
340
22
  0
BLOCK_RECORD
  5
1B
330
1
100
AcDbSymbolTableRecord
100
AcDbBlockTableRecord
  2
*Paper_Space
340
1E
  0
BLOCK_RECORD
  5
23
330
1
100
AcDbSymbolTableRecord
100
AcDbBlockTableRecord
  2
*Paper_Space0
340
26
  0
ENDTAB
  0
ENDSEC
  0
SECTION
  2
BLOCKS
  0
BLOCK
  5
20
330
1F
100
AcDbEntity
  8
0
100
AcDbBlockBegin
  2
*Model_Space
 70
     0
 10
0.0
 20
0.0
 30
0.0
  3
*Model_Space
  1

  0
ENDBLK
  5
21
330
1F
100
AcDbEntity
  8
0
100
AcDbBlockEnd
  0
BLOCK
  5
1C
330
1B
100
AcDbEntity
 67
     1
  8
0
100
AcDbBlockBegin
  2
*Paper_Space
 70
     0
 10
0.0
 20
0.0
 30
0.0
  3
*Paper_Space
  1

  0
ENDBLK
  5
1D
330
1B
100
AcDbEntity
 67
     1
  8
0
100
AcDbBlockEnd
  0
BLOCK
  5
24
330
23
100
AcDbEntity
  8
0
100
AcDbBlockBegin
  2
*Paper_Space0
 70
     0
 10
0.0
 20
0.0
 30
0.0
  3
*Paper_Space0
  1

  0
ENDBLK
  5
25
330
23
100
AcDbEntity
  8
0
100
AcDbBlockEnd
  0
ENDSEC
  0
SECTION
  2
ENTITIES
  0
CIRCLE
  5
45
330
1F
100
AcDbEntity
  8
0
  6
Continuous
 62
     7
370
    15
100
AcDbCircle
 10
4.5376690197
 20
12.5842412953
 30
0.0
 40
0.250375
  0
LWPOLYLINE
  5
46
330
1F
100
AcDbEntity
  8
0
  6
Continuous
 62
     7
370
    15
100
AcDbPolyline
 90
      411
 70
   128
 43
0.0
 10
4.9106299046
 20
13.324590823
 10
4.8954923496
 20
13.3312934276
 10
4.883740528
 20
13.3429886021
 10
4.874290163
 20
13.3567044788
 10
4.8629362812
 20
13.3688427135
 10
4.8489481046
 20
13.3778104205
 10
4.8331641182
 20
13.3829983297
 10
4.8165857391
 20
13.3841058523
 10
4.8001582356
 20
13.381465058
 10
4.7910186873
 20
13.379602256
 10
4.7817242804
 20
13.3789007584
 10
4.7744272311
 20
13.3795995332
 10
4.7673521089
 20
13.3815302473
 10
4.7590325966
 20
13.3857251673
 10
4.7516319616
 20
13.3913850827
 10
4.7413934673
 20
13.401872933
 10
4.7269880114
 20
13.4136539386
 10
4.7099476137
 20
13.4211021731
 10
4.6955026628
 20
13.4234316252
 10
4.6808997403
 20
13.4225172098
 10
4.6688995619
 20
13.4192990305
 10
4.6573433516
 20
13.4147013226
 10
4.6454611567
 20
13.4110944455
 10
4.6357414259
 20
13.4102153563
 10
4.6260907447
 20
13.4116671083
 10
4.6169560358
 20
13.415094599
 10
4.6064982493
 20
13.4218040194
 10
4.5964423168
 20
13.4291211706
 10
4.5855354061
 20
13.4350679954
 10
4.5715545435
 20
13.4393732005
 10
4.5569688407
 20
13.4404991867
 10
4.540567016
 20
13.4378505629
 10
4.5253053152
 20
13.4312673928
 10
4.5110451888
 20
13.4226600333
 10
4.495413708
 20
13.4171252011
 10
4.4830211036
 20
13.4169406252
 10
4.4710265436
 20
13.4200897815
 10
4.4598151896
 20
13.4254632691
 10
4.4464067995
 20
13.4313531864
 10
4.4321160386
 20
13.4344941832
 10
4.4135306024
 20
13.4338106039
 10
4.395871675
 20
13.4279828571
 10
4.3835264384
 20
13.4201259713
 10
4.3724540181
 20
13.4105216539
 10
4.3635157005
 20
13.4039518711
 10
4.353389766
 20
13.3994412081
 10
4.3424399861
 20
13.3977384848
 10
4.3260036289
 20
13.3999635169
 10
4.3100258673
 20
13.4046659579
 10
4.2935177601
 20
13.4065878069
 10
4.2770509322
 20
13.4043641896
 10
4.2616631717
 20
13.3980977976
 10
4.2483113672
 20
13.3882084336
 10
4.2347054741
 20
13.3723716943
 10
4.2291016615
 20
13.366379379
 10
4.222704129
 20
13.3612441661
 10
4.2093189839
 20
13.3553875862
 10
4.1947570646
 20
13.3541902197
 10
4.1782130238
 20
13.3561034331
 10
4.1615906467
 20
13.3560781425
 10
4.1454771582
 20
13.3520241073
 10
4.1308951716
 20
13.3440592016
 10
4.1209385389
 20
13.3352337195
 10
4.1129158723
 20
13.3246143826
 10
4.1063508844
 20
13.3130185117
 10
4.0987972201
 20
13.3020683271
 10
4.0886391349
 20
13.2935087026
 10
4.0772326726
 20
13.2886235087
 10
4.0649455052
 20
13.2868123662
 10
4.0525197262
 20
13.2862666979
 10
4.0380697641
 20
13.2839380375
 10
4.0244542151
 20
13.2785801802
 10
4.0094014561
 20
13.2676569436
 10
3.9979828934
 20
13.2529774325
 10
3.9919860023
 20
13.239621759
 10
3.9869176067
 20
13.225871156
 10
3.9800197945
 20
13.2145062874
 10
3.9700801006
 20
13.2056824147
 10
3.9579656114
 20
13.200207493
 10
3.9449919229
 20
13.1971827561
 10
3.9321519588
 20
13.1936575645
 10
3.9173564402
 20
13.1860940034
 10
3.9049292142
 20
13.1750631813
 10
3.8956439346
 20
13.1612856115
 10
3.8900393832
 20
13.145641511
 10
3.8883122455
 20
13.1364760891
 10
3.8866382035
 20
13.1273004501
 10
3.8845826096
 20
13.1202695608
 10
3.8815621267
 20
13.1135954207
 10
3.8761230624
 20
13.1060266166
 10
3.8692010988
 20
13.099797658
 10
3.8563435699
 20
13.0928397081
 10
3.8448156735
 20
13.0881709168
 10
3.8338963841
 20
13.0822457158
 10
3.8242166577
 20
13.0744624914
 10
3.8149475423
 20
13.0631422851
 10
3.80838614
 20
13.0500673972
 10
3.8046105608
 20
13.0338864991
 10
3.8041786397
 20
13.0172441703
 10
3.8024340181
 20
13.0007266953
 10
3.7952347173
 20
12.9858181637
 10
3.7865575599
 20
12.9769614973
 10
3.7762062986
 20
12.9700818138
 10
3.765787752
 20
12.9632966335
 10
3.7550461155
 20
12.953361055
 10
3.7467251577
 20
12.9413269091
 10
3.7403084843
 20
12.9238702534
 10
3.739006368
 20
12.9053166261
 10
3.7410734638
 20
12.8908125586
 10
3.7426110648
 20
12.8762591485
 10
3.7405457895
 20
12.8631491103
 10
3.7346673937
 20
12.8512535204
 10
3.7257694018
 20
12.8413732526
 10
3.7157934675
 20
12.8325381588
 10
3.7069469576
 20
12.8225962392
 10
3.6988722705
 20
12.8080745935
 10
3.6947042377
 20
12.7919895284
 10
3.6946669765
 20
12.7753747668
 10
3.6985984272
 20
12.7592189407
 10
3.7022996674
 20
12.7487487382
 10
3.7047900944
 20
12.7379434925
 10
3.7047710505
 20
12.7268691061
 10
3.7020355655
 20
12.7161315055
 10
3.6967150605
 20
12.7064001964
 10
3.6898819857
 20
12.6976491418
 10
3.6792323902
 20
12.6823703668
 10
3.6728851385
 20
12.66488801
 10
3.6714968276
 20
12.6503227055
 10
3.6733395381
 20
12.6358100132
 10
3.6800924999
 20
12.6184729402
 10
3.6888201475
 20
12.6019953474
 10
3.6916971866
 20
12.5926739507
 10
3.6925008946
 20
12.582955256
 10
3.6911719142
 20
12.5732887424
 10
3.6875046836
 20
12.5635180553
 10
3.6824968319
 20
12.554350118
 10
3.6754046789
 20
12.5395672356
 10
3.67200091
 20
12.5253395108
 10
3.6717992044
 20
12.510710748
 10
3.6761977338
 20
12.4926399758
 10
3.6854094162
 20
12.4764761306
 10
3.694561566
 20
12.4650260244
 10
3.7020023226
 20
12.4524385809
 10
3.7046576708
 20
12.4423556383
 10
3.7049870587
 20
12.431933659
 10
3.7035014867
 20
12.4238662608
 10
3.7010376078
 20
12.4160389144
 10
3.6964168995
 20
12.4021331987
 10
3.6942159501
 20
12.3876682482
 10
3.6956153808
 20
12.3711110512
 10
3.7011198353
 20
12.3554336996
 10
3.7103395136
 20
12.3416103022
 10
3.7223628695
 20
12.3301037503
 10
3.7328813969
 20
12.3197088146
 10
3.7400757602
 20
12.3068357363
 10
3.7426101316
 20
12.292316741
 10
3.7410637965
 20
12.2776161182
 10
3.7389908467
 20
12.262963706
 10
3.7396453729
 20
12.2481987551
 10
3.7442509997
 20
12.2323114193
 10
3.7526410586
 20
12.2180567307
 10
3.7643091773
 20
12.2063313059
 10
3.7751124711
 20
12.1990615457
 10
3.7860252951
 20
12.1919533037
 10
3.7951803588
 20
12.1827402601
 10
3.8018661802
 20
12.1696154015
 10
3.8041336086
 20
12.1550332287
 10
3.8042061829
 20
12.1402268869
 10
3.8061906702
 20
12.1255789742
 10
3.8112966326
 20
12.1117136466
 10
3.8193500157
 20
12.0993241251
 10
3.8313879775
 20
12.0879796529
 10
3.8458149704
 20
12.0798730797
 10
3.8611281822
 20
12.0735147799
 10
3.8720725078
 20
12.0664982672
 10
3.8805042307
 20
12.0566101081
 10
3.885749105
 20
12.0447194439
 10
3.8882266753
 20
12.0325371807
 10
3.8906599089
 20
12.0203451196
 10
3.8938222632
 20
12.0111060622
 10
3.8982896158
 20
12.0024228183
 10
3.9073835882
 20
11.990774482
 10
3.9188305193
 20
11.9814310933
 10
3.9320646216
 20
11.9748578553
 10
3.9463508288
 20
11.971019756
 10
3.9606812228
 20
11.9673530536
 10
3.9735748075
 20
11.9602088084
 10
3.9813068803
 20
11.9522790037
 10
3.9868811363
 20
11.9426973151
 10
3.9907854375
 20
11.9323046644
 10
3.9947308716
 20
11.921927451
 10
4.000771068
 20
11.9110728932
 10
4.0086958328
 20
11.9015086429
 10
4.0161162355
 20
11.8951611831
 10
4.0243720962
 20
11.8899467827
 10
4.0381225238
 20
11.8845297842
 10
4.0527221135
 20
11.8822021997
 10
4.0675119151
 20
11.881498604
 10
4.0796782171
 20
11.8790563224
 10
4.0908010399
 20
11.8735748612
 10
4.0999103244
 20
11.8651487675
 10
4.1067445429
 20
11.8547731944
 10
4.1131827133
 20
11.8434464565
 10
4.1210771493
 20
11.8331006685
 10
4.1308199342
 20
11.8244785693
 10
4.1453223617
 20
11.8165220983
 10
4.1613507216
 20
11.8124309133
 10
4.1778993524
 20
11.8123460031
 10
4.1887555321
 20
11.8137396647
 10
4.1996722083
 20
11.8143499457
 10
4.2081973207
 20
11.8133093355
 10
4.2163819843
 20
11.8106924982
 10
4.2280333151
 20
11.803126526
 10
4.2373732806
 20
11.7928124087
 10
4.2443334734
 20
11.7843669699
 10
4.2522409285
 20
11.7768133377
 10
4.2630674346
 20
11.7695979689
 10
4.2751104289
 20
11.7646733766
 10
4.2878808016
 20
11.7621907885
 10
4.3026550549
 20
11.7624619267
 10
4.3170687497
 20
11.765772023
 10
4.3313087259
 20
11.7698019525
 10
4.3460457609
 20
11.7705585493
 10
4.3601841772
 20
11.7663487163
 10
4.372383752
 20
11.7580223225
 10
4.3835692656
 20
11.7483224655
 10
4.3960542337
 20
11.7404113001
 10
4.4099608095
 20
11.7354172761
 10
4.4246302511
 20
11.7336276942
 10
4.4393299047
 20
11.7351581881
 10
4.4533413618
 20
11.739868081
 10
4.4632857978
 20
11.7448087673
 10
4.4734275198
 20
11.7493152725
 10
4.4842507002
 20
11.7516974442
 10
4.4953223071
 20
11.7513761356
 10
4.509318009
 20
11.7467156864
 10
4.5220371437
 20
11.7391444974
 10
4.5352254893
 20
11.7324562234
 10
4.5495059952
 20
11.7286581181
 10
4.5642736155
 20
11.7281431039
 10
4.5787879086
 20
11.7309105473
 10
4.5902577302
 20
11.7356771477
 10
4.6007357932
 20
11.7423602257
 10
4.6085708913
 20
11.748201657
 10
4.61687174
 20
11.7533476493
 10
4.6255340961
 20
11.7566561775
 10
4.6346754202
 20
11.7582028083
 10
4.6439376539
 20
11.757675573
 10
4.6544973739
 20
11.7548580595
 10
4.6646592851
 20
11.750792732
 10
4.683441525
 20
11.7455716146
 10
4.7029176586
 20
11.7458315854
 10
4.7163267605
 20
11.7495170441
 10
4.7286743509
 20
11.7559102599
 10
4.7372937659
 20
11.7626388086
 10
4.7450067742
 20
11.7704009427
 10
4.7527723196
 20
11.7781086996
 10
4.7617166985
 20
11.7843907017
 10
4.7696650312
 20
11.787646897
 10
4.7780863576
 20
11.7893099743
 10
4.7913658572
 20
11.7888278364
 10
4.8044055737
 20
11.7860828014
 10
4.8176020618
 20
11.7843293177
 10
4.8308875575
 20
11.785066279
 10
4.8437489486
 20
11.7884744316
 10
4.855676578
 20
11.7943684762
 10
4.8661721348
 20
11.8025445045
 10
4.8748895522
 20
11.812600046
 10
4.8823848416
 20
11.823618235
 10
4.8910795416
 20
11.8336766335
 10
4.9013412285
 20
11.8406263562
 10
4.9131466052
 20
11.8444282931
 10
4.9255468085
 20
11.8451227312
 10
4.9401951593
 20
11.8446154413
 10
4.9547384168
 20
11.8462399486
 10
4.9721378861
 20
11.8528077907
 10
4.9870139212
 20
11.8639668804
 10
4.9961672695
 20
11.8753793574
 10
5.0029004843
 20
11.8883843048
 10
5.007607004
 20
11.898440014
 10
5.0138017264
 20
11.9076304663
 10
5.0219844292
 20
11.9150948334
 10
5.0317870009
 20
11.9202640201
 10
5.0425328985
 20
11.9230149072
 10
5.0535469841
 20
11.9244341688
 10
5.0716550183
 20
11.9287373332
 10
5.0879393855
 20
11.937716191
 10
5.0985916115
 20
11.9477464558
 10
5.106761743
 20
11.9598849817
 10
5.1132039475
 20
11.97735032
 10
5.1186759394
 20
11.9951578958
 10
5.123580462
 20
12.0035917927
 10
5.1302593636
 20
12.0106974847
 10
5.1382919092
 20
12.016234578
 10
5.1479318284
 20
12.0202374734
 10
5.1579258013
 20
12.0232837828
 10
5.1730601195
 20
12.0295715784
 10
5.1849919634
 20
12.0380360233
 10
5.1947648708
 20
12.0489217321
 10
5.2033491538
 20
12.0654164285
 10
5.2071639825
 20
12.0836306521
 10
5.2088305258
 20
12.0999577453
 10
5.2126854456
 20
12.1122379681
 10
5.2183723446
 20
12.1209795306
 10
5.2258580598
 20
12.1282390687
 10
5.2400618044
 20
12.1364248747
 10
5.2528580183
 20
12.1435528376
 10
5.2640510131
 20
12.1529773403
 10
5.274836215
 20
12.1681294577
 10
5.2809688292
 20
12.1856863271
 10
5.2822393718
 20
12.2002639167
 10
5.281165603
 20
12.214880366
 10
5.2810239316
 20
12.2259723068
 10
5.2831220406
 20
12.2368556653
 10
5.2879636358
 20
12.2468216449
 10
5.2950766839
 20
12.2553143126
 10
5.3036883008
 20
12.2623124862
 10
5.3125654434
 20
12.2689830612
 10
5.3253054802
 20
12.2825367768
 10
5.3338207148
 20
12.2990674792
 10
5.3370755508
 20
12.3133317427
 10
5.337091238
 20
12.3279632594
 10
5.3345506114
 20
12.3410327125
 10
5.3313644393
 20
12.3539686755
 10
5.3306750997
 20
12.3672355626
 10
5.3338758602
 20
12.3801122212
 10
5.3406835238
 20
12.3915161951
 10
5.3490926176
 20
12.4006739404
 10
5.3573500806
 20
12.4099660334
 10
5.3640248428
 20
12.4204422552
 10
5.3692056543
 20
12.4341250078
 10
5.3712505706
 20
12.4486107048
 10
5.3703192516
 20
12.4618829884
 10
5.3667675413
 20
12.4747087417
 10
5.3614082007
 20
12.4869074016
 10
5.3568921726
 20
12.4994210219
 10
5.3557262168
 20
12.5126412282
 10
5.3585552961
 20
12.5256071779
 10
5.364777375
 20
12.5373607429
 10
5.3721953898
 20
12.5484306599
 10
5.3781734044
 20
12.5603199155
 10
5.381730588
 20
12.5731403162
 10
5.3822466236
 20
12.5917317171
 10
5.3775563155
 20
12.6097291964
 10
5.3705736636
 20
12.6225949977
 10
5.36245983
 20
12.6348017729
 10
5.3574084105
 20
12.6461405613
 10
5.355554181
 20
12.6584089622
 10
5.357274999
 20
12.6707014343
 10
5.3626691027
 20
12.6843152888
 10
5.3681833421
 20
12.6978855038
 10
5.3711940433
 20
12.7142274222
 10
5.3700117496
 20
12.7308010832
 10
5.3647484384
 20
12.7465594064
 10
5.3557423857
 20
12.7605241055
 10
5.3466741476
 20
12.7702837949
 10
5.3380897294
 20
12.7804576687
 10
5.3323197241
 20
12.7924333872
 10
5.3304384387
 20
12.8055914741
 10
5.3322665996
 20
12.8187676398
 10
5.3353888581
 20
12.8308072419
 10
5.3373126192
 20
12.8430817579
 10
5.3370362831
 20
12.8554997298
 10
5.3337093999
 20
12.869747916
 10
5.3273318609
 20
12.8829142668
 10
5.3153319893
 20
12.8971229656
 10
5.300555613
 20
12.9085010112
 10
5.2900575298
 20
12.9186759489
 10
5.2831550473
 20
12.9315395388
 10
5.280916487
 20
12.9437451305
 10
5.2813960948
 20
12.9561639559
 10
5.2822456763
 20
12.9685695981
 10
5.2808963806
 20
12.9831396304
 10
5.2764187686
 20
12.9970672565
 10
5.267749092
 20
13.0112405727
 10
5.2558319981
 20
13.0228185656
 10
5.2415397719
 20
13.0313284163
 10
5.2270125774
 20
13.0394369762
 10
5.2174273113
 20
13.0486295372
 10
5.2110635175
 20
13.0602809141
 10
5.2081511123
 20
13.073251083
 10
5.2069874028
 20
13.0865262843
 10
5.2044634971
 20
13.0995940015
 10
5.1978609391
 20
13.1148410853
 10
5.1876442403
 20
13.1279440016
 10
5.1744949608
 20
13.1381000091
 10
5.1592697405
 20
13.1447781289
 10
5.148646493
 20
13.1480151134
 10
5.1383753595
 20
13.1522061932
 10
5.1293281511
 20
13.1586029841
 10
5.1220936815
 20
13.1669924046
 10
5.1171777479
 20
13.1769310418
 10
5.1140965263
 20
13.1875960407
 10
5.1083625812
 20
13.2053204073
 10
5.0983618739
 20
13.221001602
 10
5.0876618582
 20
13.230981184
 10
5.0750273135
 20
13.2383575818
 10
5.0623906254
 20
13.2425222993
 10
5.0492299366
 20
13.2445742941
 10
5.0361147604
 20
13.2468601298
 10
5.0239344903
 20
13.2521411758
 10
5.0138605896
 20
13.2607797318
 10
5.0051951064
 20
13.2749394529
 10
4.9980500823
 20
13.2899799453
 10
4.9881771008
 20
13.3033478707
 10
4.9752828442
 20
13.3138282944
 10
4.9633390226
 20
13.3196894181
 10
4.9504634061
 20
13.3230382932
 10
4.9371790664
 20
13.3238555192
 10
4.9238635326
 20
13.323325849
 10
4.9106299046
 20
13.324590823
  0
CIRCLE
  5
47
330
1F
100
AcDbEntity
  8
0
  6
Continuous
 62
     7
370
    15
100
AcDbCircle
 10
4.5376690197
 20
12.9848412953
 30
0.0
 40
0.1311965000000006
  0
CIRCLE
  5
48
330
1F
100
AcDbEntity
  8
0
  6
Continuous
 62
     7
370
    15
100
AcDbCircle
 10
4.8845987965
 20
12.7845412953
 30
0.0
 40
0.1311965
  0
CIRCLE
  5
49
330
1F
100
AcDbEntity
  8
0
  6
Continuous
 62
     7
370
    15
100
AcDbCircle
 10
4.8845987965
 20
12.3839412953
 30
0.0
 40
0.131196500000002
  0
CIRCLE
  5
4A
330
1F
100
AcDbEntity
  8
0
  6
Continuous
 62
     7
370
    15
100
AcDbCircle
 10
4.5376690197
 20
12.1836412953
 30
0.0
 40
0.1311965000000006
  0
CIRCLE
  5
4B
330
1F
100
AcDbEntity
  8
0
  6
Continuous
 62
     7
370
    15
100
AcDbCircle
 10
4.190739243
 20
12.3839412953
 30
0.0
 40
0.1311964999999995
  0
CIRCLE
  5
4C
330
1F
100
AcDbEntity
  8
0
  6
Continuous
 62
     7
370
    15
100
AcDbCircle
 10
4.190739243
 20
12.7845412953
 30
0.0
 40
0.1311964999999989
  0
CIRCLE
  5
4D
330
1F
100
AcDbEntity
  8
0
  6
Continuous
 62
     7
370
    15
100
AcDbCircle
 10
6.2967530406
 20
12.7243684479
 30
0.0
 40
0.0156250000000018
  0
CIRCLE
  5
4E
330
1F
100
AcDbEntity
  8
0
  6
Continuous
 62
     7
370
    15
100
AcDbCircle
 10
6.2167530406
 20
12.7243684479
 30
0.0
 40
0.0295275590551185
  0
CIRCLE
  5
4F
330
1F
100
AcDbEntity
  8
0
  6
Continuous
 62
     7
370
    15
100
AcDbCircle
 10
6.2167530406
 20
12.7123684479
 30
0.0
 40
0.125
  0
CIRCLE
  5
50
330
1F
100
AcDbEntity
  8
0
  6
Continuous
 62
     7
370
    15
100
AcDbCircle
 10
6.1367530406
 20
12.7243684479
 30
0.0
 40
0.0156250000000018
  0
ARC
  5
51
330
1F
100
AcDbEntity
  8
0
  6
Continuous
 62
     7
370
    15
100
AcDbCircle
 10
2.5586079586
 20
14.028517833
 30
0.0
 40
0.1275000000000011
100
AcDbArc
 50
240.0
 51
60.0
  0
LINE
  5
52
330
1F
100
AcDbEntity
  8
0
  6
Continuous
 62
     7
370
    15
100
AcDbLine
 10
2.6223579604
 20
14.1389360804
 30
0.0
 11
2.5430769446
 21
14.1847089716
 31
0.0
  0
LINE
  5
53
330
1F
100
AcDbEntity
  8
0
  6
Continuous
 62
     7
370
    15
100
AcDbLine
 10
2.7775181164
 20
14.3200636546
 30
0.0
 11
2.7775181164
 21
14.2285178355
 31
0.0
  0
ARC
  5
54
330
1F
100
AcDbEntity
  8
0
  6
Continuous
 62
     7
370
    15
100
AcDbCircle
 10
2.9050181201
 20
14.228517833
 30
0.0
 40
0.1275000000000004
100
AcDbArc
 50
180.0
 51
0.0
  0
LINE
  5
55
330
1F
100
AcDbEntity
  8
0
  6
Continuous
 62
     7
370
    15
100
AcDbLine
 10
3.0325181239
 20
14.2285178355
 30
0.0
 11
3.0325181239
 21
14.3200636546
 31
0.0
  0
LINE
  5
56
330
1F
100
AcDbEntity
  8
0
  6
Continuous
 62
     7
370
    15
100
AcDbLine
 10
3.2669592956
 20
14.1847089716
 30
0.0
 11
3.1876782798
 21
14.1389360804
 31
0.0
  0
ARC
  5
57
330
1F
100
AcDbEntity
  8
0
  6
Continuous
 62
     7
370
    15
100
AcDbCircle
 10
3.2514282816
 20
14.028517833
 30
0.0
 40
0.1275000000000002
100
AcDbArc
 50
120.0
 51
300.0
  0
LINE
  5
58
330
1F
100
AcDbEntity
  8
0
  6
Continuous
 62
     7
370
    15
100
AcDbLine
 10
3.3151782653
 20
13.9180995973
 30
0.0
 11
3.3944592627
 21
13.9638724977
 31
0.0
  0
LINE
  5
59
330
1F
100
AcDbEntity
  8
0
  6
Continuous
 62
     7
370
    15
100
AcDbLine
 10
3.3944592627
 20
13.6931631683
 30
0.0
 11
3.3151782653
 21
13.7389360687
 31
0.0
  0
ARC
  5
5A
330
1F
100
AcDbEntity
  8
0
  6
Continuous
 62
     7
370
    15
100
AcDbCircle
 10
3.2514282816
 20
13.628517833
 30
0.0
 40
0.1275000000000009
100
AcDbArc
 50
60.0
 51
240.0
  0
LINE
  5
5B
330
1F
100
AcDbEntity
  8
0
  6
Continuous
 62
     7
370
    15
100
AcDbLine
 10
3.1876782798
 20
13.5180995857
 30
0.0
 11
3.2669592956
 21
13.4723266944
 31
0.0
  0
LINE
  5
5C
330
1F
100
AcDbEntity
  8
0
  6
Continuous
 62
     7
370
    15
100
AcDbLine
 10
3.0325181239
 20
13.3369720114
 30
0.0
 11
3.0325181239
 21
13.4285178305
 31
0.0
  0
ARC
  5
5D
330
1F
100
AcDbEntity
  8
0
  6
Continuous
 62
     7
370
    15
100
AcDbCircle
 10
2.9050181201
 20
13.428517833
 30
0.0
 40
0.1275000000000004
100
AcDbArc
 50
0.0
 51
180.0
  0
LINE
  5
5E
330
1F
100
AcDbEntity
  8
0
  6
Continuous
 62
     7
370
    15
100
AcDbLine
 10
2.7775181164
 20
13.4285178305
 30
0.0
 11
2.7775181164
 21
13.3369720114
 31
0.0
  0
LINE
  5
5F
330
1F
100
AcDbEntity
  8
0
  6
Continuous
 62
     7
370
    15
100
AcDbLine
 10
2.5430769446
 20
13.4723266944
 30
0.0
 11
2.6223579604
 21
13.5180995857
 31
0.0
  0
ARC
  5
60
330
1F
100
AcDbEntity
  8
0
  6
Continuous
 62
     7
370
    15
100
AcDbCircle
 10
2.5586079586
 20
13.628517833
 30
0.0
 40
0.1275000000000002
100
AcDbArc
 50
300.0
 51
120.0
  0
LINE
  5
61
330
1F
100
AcDbEntity
  8
0
  6
Continuous
 62
     7
370
    15
100
AcDbLine
 10
2.494857975
 20
13.7389360687
 30
0.0
 11
2.4155769775
 21
13.6931631683
 31
0.0
  0
LINE
  5
62
330
1F
100
AcDbEntity
  8
0
  6
Continuous
 62
     7
370
    15
100
AcDbLine
 10
2.4155769775
 20
13.9638724977
 30
0.0
 11
2.494857975
 21
13.9180995973
 31
0.0
  0
CIRCLE
  5
63
330
1F
100
AcDbEntity
  8
0
  6
Continuous
 62
     7
370
    15
100
AcDbCircle
 10
3.0925181201
 20
14.1532773594
 30
0.0
 40
0.0579999999999998
  0
CIRCLE
  5
64
330
1F
100
AcDbEntity
  8
0
  6
Continuous
 62
     7
370
    15
100
AcDbCircle
 10
3.2800181201
 20
13.828517833
 30
0.0
 40
0.0579999999999998
  0
CIRCLE
  5
65
330
1F
100
AcDbEntity
  8
0
  6
Continuous
 62
     7
370
    15
100
AcDbCircle
 10
3.0925181201
 20
13.5037583066
 30
0.0
 40
0.058
  0
CIRCLE
  5
66
330
1F
100
AcDbEntity
  8
0
  6
Continuous
 62
     7
370
    15
100
AcDbCircle
 10
2.7175181201
 20
13.5037583066
 30
0.0
 40
0.0579999999999998
  0
CIRCLE
  5
67
330
1F
100
AcDbEntity
  8
0
  6
Continuous
 62
     7
370
    15
100
AcDbCircle
 10
2.5300181201
 20
13.828517833
 30
0.0
 40
0.0580000000000011
  0
CIRCLE
  5
68
330
1F
100
AcDbEntity
  8
0
  6
Continuous
 62
     7
370
    15
100
AcDbCircle
 10
2.7175181201
 20
14.1532773594
 30
0.0
 40
0.0580000000000002
  0
ARC
  5
69
330
1F
100
AcDbEntity
  8
0
  6
Continuous
 62
     7
370
    15
100
AcDbCircle
 10
2.9050181201
 20
13.828517833
 30
0.0
 40
0.5078125000000008
100
AcDbArc
 50
104.5412480886
 51
135.4587519114
  0
ARC
  5
6A
330
1F
100
AcDbEntity
  8
0
  6
Continuous
 62
     7
370
    15
100
AcDbCircle
 10
2.9050181201
 20
13.828517833
 30
0.0
 40
0.5078125000000009
100
AcDbArc
 50
44.5412480886
 51
75.4587519114
  0
ARC
  5
6B
330
1F
100
AcDbEntity
  8
0
  6
Continuous
 62
     7
370
    15
100
AcDbCircle
 10
2.9050181201
 20
13.828517833
 30
0.0
 40
0.5078125000000009
100
AcDbArc
 50
344.5412480886
 51
15.4587519114
  0
ARC
  5
6C
330
1F
100
AcDbEntity
  8
0
  6
Continuous
 62
     7
370
    15
100
AcDbCircle
 10
2.9050181201
 20
13.828517833
 30
0.0
 40
0.5078125000000009
100
AcDbArc
 50
284.5412480886
 51
315.4587519114
  0
ARC
  5
6D
330
1F
100
AcDbEntity
  8
0
  6
Continuous
 62
     7
370
    15
100
AcDbCircle
 10
2.9050181201
 20
13.828517833
 30
0.0
 40
0.5078125000000008
100
AcDbArc
 50
224.5412480886
 51
255.4587519114
  0
ARC
  5
6E
330
1F
100
AcDbEntity
  8
0
  6
Continuous
 62
     7
370
    15
100
AcDbCircle
 10
2.9050181201
 20
13.828517833
 30
0.0
 40
0.5078124999999998
100
AcDbArc
 50
164.5412480886
 51
195.4587519114
  0
CIRCLE
  5
6F
330
1F
100
AcDbEntity
  8
0
  6
Continuous
 62
     7
370
    15
100
AcDbCircle
 10
6.9638147525
 20
12.7393301893
 30
0.0
 40
0.015625
  0
CIRCLE
  5
70
330
1F
100
AcDbEntity
  8
0
  6
Continuous
 62
     7
370
    15
100
AcDbCircle
 10
6.8838147525
 20
12.7393301893
 30
0.0
 40
0.0295275590551167
  0
CIRCLE
  5
71
330
1F
100
AcDbEntity
  8
0
  6
Continuous
 62
     7
370
    15
100
AcDbCircle
 10
6.8838147525
 20
12.7393301893
 30
0.0
 40
0.125
  0
CIRCLE
  5
72
330
1F
100
AcDbEntity
  8
0
  6
Continuous
 62
     7
370
    15
100
AcDbCircle
 10
6.8038147525
 20
12.7393301893
 30
0.0
 40
0.015625
  0
ENDSEC
  0
SECTION
  2
OBJECTS
  0
DICTIONARY
  5
C
330
0
100
AcDbDictionary
281
     1
  3
ACAD_GROUP
350
D
  3
ACAD_LAYOUT
350
1A
  3
ACAD_MLINESTYLE
350
17
  3
ACAD_PLOTSETTINGS
350
19
  3
ACAD_PLOTSTYLENAME
350
E
  0
DICTIONARY
  5
D
102
{ACAD_REACTORS
330
C
102
}
330
C
100
AcDbDictionary
281
     1
  0
DICTIONARY
  5
1A
102
{ACAD_REACTORS
330
C
102
}
330
C
100
AcDbDictionary
281
     1
  3
Layout1
350
1E
  3
Layout2
350
26
  3
Model
350
22
  0
DICTIONARY
  5
17
102
{ACAD_REACTORS
330
C
102
}
330
C
100
AcDbDictionary
281
     1
  3
Standard
350
18
  0
DICTIONARY
  5
19
102
{ACAD_REACTORS
330
C
102
}
330
C
100
AcDbDictionary
281
     1
  0
ACDBDICTIONARYWDFLT
  5
E
102
{ACAD_REACTORS
330
C
102
}
330
C
100
AcDbDictionary
281
     1
  3
Normal
350
F
100
AcDbDictionaryWithDefault
340
F
  0
LAYOUT
  5
1E
102
{ACAD_REACTORS
330
1A
102
}
330
1A
100
AcDbPlotSettings
  1

  2
none_device
  4

  6

 40
0.0
 41
0.0
 42
0.0
 43
0.0
 44
0.0
 45
0.0
 46
0.0
 47
0.0
 48
0.0
 49
0.0
140
0.0
141
0.0
142
1.0
143
1.0
 70
   688
 72
     0
 73
     0
 74
     5
  7

 75
    16
147
1.0
148
0.0
149
0.0
100
AcDbLayout
  1
Layout1
 70
     1
 71
     1
 10
0.0
 20
0.0
 11
12.0
 21
9.0
 12
0.0
 22
0.0
 32
0.0
 14
1.0000000000E+20
 24
1.0000000000E+20
 34
1.0000000000E+20
 15
-1.0000000000E+20
 25
-1.0000000000E+20
 35
-1.0000000000E+20
146
0.0
 13
0.0
 23
0.0
 33
0.0
 16
1.0
 26
0.0
 36
0.0
 17
0.0
 27
1.0
 37
0.0
 76
     0
330
1B
  0
LAYOUT
  5
26
102
{ACAD_REACTORS
330
1A
102
}
330
1A
100
AcDbPlotSettings
  1

  2
none_device
  4

  6

 40
0.0
 41
0.0
 42
0.0
 43
0.0
 44
0.0
 45
0.0
 46
0.0
 47
0.0
 48
0.0
 49
0.0
140
0.0
141
0.0
142
1.0
143
1.0
 70
   688
 72
     0
 73
     0
 74
     5
  7

 75
    16
147
1.0
148
0.0
149
0.0
100
AcDbLayout
  1
Layout2
 70
     1
 71
     2
 10
0.0
 20
0.0
 11
0.0
 21
0.0
 12
0.0
 22
0.0
 32
0.0
 14
0.0
 24
0.0
 34
0.0
 15
0.0
 25
0.0
 35
0.0
146
0.0
 13
0.0
 23
0.0
 33
0.0
 16
1.0
 26
0.0
 36
0.0
 17
0.0
 27
1.0
 37
0.0
 76
     0
330
23
  0
LAYOUT
  5
22
102
{ACAD_REACTORS
330
1A
102
}
330
1A
100
AcDbPlotSettings
  1

  2
none_device
  4

  6

 40
0.0
 41
0.0
 42
0.0
 43
0.0
 44
0.0
 45
0.0
 46
0.0
 47
0.0
 48
0.0
 49
0.0
140
0.0
141
0.0
142
1.0
143
1.0
 70
  1712
 72
     0
 73
     0
 74
     0
  7

 75
     0
147
1.0
148
0.0
149
0.0
100
AcDbLayout
  1
Model
 70
     1
 71
     0
 10
0.0
 20
0.0
 11
22.0
 21
17.0
 12
0.0
 22
0.0
 32
0.0
 14
0.0
 24
0.0
 34
0.0
 15
22.0
 25
17.0
 35
0.0
146
0.0
 13
0.0
 23
0.0
 33
0.0
 16
1.0
 26
0.0
 36
0.0
 17
0.0
 27
1.0
 37
0.0
 76
     0
330
1F
331
29
  0
MLINESTYLE
  5
18
102
{ACAD_REACTORS
330
17
102
}
330
17
100
AcDbMlineStyle
  2
Standard
 70
     0
  3

 62
   256
 51
90.0
 52
90.0
 71
     2
 49
0.5
 62
   256
  6
BYLAYER
 49
-0.5
 62
   256
  6
BYLAYER
  0
ACDBPLACEHOLDER
  5
F
102
{ACAD_REACTORS
330
E
102
}
330
E
  0
ENDSEC
  0
EOF
