  0
SECTION
  2
HEADER
  9
$ACADVER
  1
AC1024
  9
$ACADMAINTVER
 70
     6
  9
$DWGCODEPAGE
  3
ANSI_1252
  9
$LASTSAVEDBY
  1
Michael
  9
$INSBASE
 10
0.0
 20
0.0
 30
0.0
  9
$EXTMIN
 10
-95.552109
 20
-94.246628
 30
0.0
  9
$EXTMAX
 10
95.538391
 20
95.98452
 30
0.0
  9
$LIMMIN
 10
0.0
 20
0.0
  9
$LIMMAX
 10
12.0
 20
9.0
  9
$ORTHOMODE
 70
     0
  9
$REGENMODE
 70
     1
  9
$FILLMODE
 70
     1
  9
$QTEXTMODE
 70
     0
  9
$MIRRTEXT
 70
     0
  9
$LTSCALE
 40
1.0
  9
$ATTMODE
 70
     1
  9
$TEXTSIZE
 40
0.2
  9
$TRACEWID
 40
0.05
  9
$TEXTSTYLE
  7
NOTES
  9
$CLAYER
  8
0
  9
$CELTYPE
  6
ByLayer
  9
$CECOLOR
 62
   256
  9
$CELTSCALE
 40
1.0
  9
$DISPSILH
 70
     0
  9
$DIMSCALE
 40
1.0
  9
$DIMASZ
 40
3.0
  9
$DIMEXO
 40
1.5
  9
$DIMDLI
 40
6.0
  9
$DIMRND
 40
0.0
  9
$DIMDLE
 40
0.0
  9
$DIMEXE
 40
3.0
  9
$DIMTP
 40
0.0
  9
$DIMTM
 40
0.0
  9
$DIMTXT
 40
3.0
  9
$DIMCEN
 40
3.0
  9
$DIMTSZ
 40
0.0
  9
$DIMTOL
 70
     0
  9
$DIMLIM
 70
     0
  9
$DIMTIH
 70
     0
  9
$DIMTOH
 70
     0
  9
$DIMSE1
 70
     0
  9
$DIMSE2
 70
     0
  9
$DIMTAD
 70
     1
  9
$DIMZIN
 70
     3
  9
$DIMBLK
  1

  9
$DIMASO
 70
     1
  9
$DIMSHO
 70
     1
  9
$DIMPOST
  1

  9
$DIMAPOST
  1

  9
$DIMALT
 70
     0
  9
$DIMALTD
 70
     2
  9
$DIMALTF
 40
25.4
  9
$DIMLFAC
 40
1.0
  9
$DIMTOFL
 70
     0
  9
$DIMTVP
 40
0.0
  9
$DIMTIX
 70
     0
  9
$DIMSOXD
 70
     0
  9
$DIMSAH
 70
     0
  9
$DIMBLK1
  1

  9
$DIMBLK2
  1

  9
$DIMSTYLE
  2
CIVIL-METRIC
  9
$DIMCLRD
 70
     0
  9
$DIMCLRE
 70
     0
  9
$DIMCLRT
 70
     0
  9
$DIMTFAC
 40
1.0
  9
$DIMGAP
 40
2.0
  9
$DIMJUST
 70
     0
  9
$DIMSD1
 70
     0
  9
$DIMSD2
 70
     0
  9
$DIMTOLJ
 70
     1
  9
$DIMTZIN
 70
     0
  9
$DIMALTZ
 70
     0
  9
$DIMALTTZ
 70
     0
  9
$DIMUPT
 70
     0
  9
$DIMDEC
 70
     4
  9
$DIMTDEC
 70
     4
  9
$DIMALTU
 70
     2
  9
$DIMALTTD
 70
     2
  9
$DIMTXSTY
  7
STANDARD
  9
$DIMAUNIT
 70
     0
  9
$DIMADEC
 70
     0
  9
$DIMALTRND
 40
0.0
  9
$DIMAZIN
 70
     0
  9
$DIMDSEP
 70
    46
  9
$DIMATFIT
 70
     3
  9
$DIMFRAC
 70
     0
  9
$DIMLDRBLK
  1

  9
$DIMLUNIT
 70
     2
  9
$DIMLWD
 70
    -2
  9
$DIMLWE
 70
    -2
  9
$DIMTMOVE
 70
     2
  9
$DIMFXL
 40
1.0
  9
$DIMFXLON
 70
     0
  9
$DIMJOGANG
 40
0.7853981633974483
  9
$DIMTFILL
 70
     0
  9
$DIMTFILLCLR
 70
     0
  9
$DIMARCSYM
 70
     0
  9
$DIMLTYPE
  6

  9
$DIMLTEX1
  6

  9
$DIMLTEX2
  6

  9
$DIMTXTDIRECTION
 70
     0
  9
$LUNITS
 70
     2
  9
$LUPREC
 70
     4
  9
$SKETCHINC
 40
0.1
  9
$FILLETRAD
 40
0.0
  9
$AUNITS
 70
     4
  9
$AUPREC
 70
     5
  9
$MENU
  1
.
  9
$ELEVATION
 40
0.0
  9
$PELEVATION
 40
0.0
  9
$THICKNESS
 40
0.0
  9
$LIMCHECK
 70
     0
  9
$CHAMFERA
 40
0.0
  9
$CHAMFERB
 40
0.0
  9
$CHAMFERC
 40
0.0
  9
$CHAMFERD
 40
0.0
  9
$SKPOLY
 70
     0
  9
$TDCREATE
 40
2456404.87307
  9
$TDUCREATE
 40
2456405.081403333
  9
$TDUPDATE
 40
2456610.005803599
  9
$TDUUPDATE
 40
2456610.214136933
  9
$TDINDWG
 40
0.0005945602
  9
$TDUSRTIMER
 40
2456610.213542465
  9
$USRTIMER
 70
     1
  9
$ANGBASE
 50
0.0
  9
$ANGDIR
 70
     0
  9
$PDMODE
 70
     0
  9
$PDSIZE
 40
0.0
  9
$PLINEWID
 40
0.0
  9
$SPLFRAME
 70
     0
  9
$SPLINETYPE
 70
     6
  9
$SPLINESEGS
 70
     8
  9
$HANDSEED
  5
5E2
  9
$SURFTAB1
 70
     6
  9
$SURFTAB2
 70
     6
  9
$SURFTYPE
 70
     6
  9
$SURFU
 70
     6
  9
$SURFV
 70
     6
  9
$UCSBASE
  2

  9
$UCSNAME
  2

  9
$UCSORG
 10
0.0
 20
0.0
 30
0.0
  9
$UCSXDIR
 10
1.0
 20
0.0
 30
0.0
  9
$UCSYDIR
 10
0.0
 20
1.0
 30
0.0
  9
$UCSORTHOREF
  2

  9
$UCSORTHOVIEW
 70
     0
  9
$UCSORGTOP
 10
0.0
 20
0.0
 30
0.0
  9
$UCSORGBOTTOM
 10
0.0
 20
0.0
 30
0.0
  9
$UCSORGLEFT
 10
0.0
 20
0.0
 30
0.0
  9
$UCSORGRIGHT
 10
0.0
 20
0.0
 30
0.0
  9
$UCSORGFRONT
 10
0.0
 20
0.0
 30
0.0
  9
$UCSORGBACK
 10
0.0
 20
0.0
 30
0.0
  9
$PUCSBASE
  2

  9
$PUCSNAME
  2

  9
$PUCSORG
 10
0.0
 20
0.0
 30
0.0
  9
$PUCSXDIR
 10
1.0
 20
0.0
 30
0.0
  9
$PUCSYDIR
 10
0.0
 20
1.0
 30
0.0
  9
$PUCSORTHOREF
  2

  9
$PUCSORTHOVIEW
 70
     0
  9
$PUCSORGTOP
 10
0.0
 20
0.0
 30
0.0
  9
$PUCSORGBOTTOM
 10
0.0
 20
0.0
 30
0.0
  9
$PUCSORGLEFT
 10
0.0
 20
0.0
 30
0.0
  9
$PUCSORGRIGHT
 10
0.0
 20
0.0
 30
0.0
  9
$PUCSORGFRONT
 10
0.0
 20
0.0
 30
0.0
  9
$PUCSORGBACK
 10
0.0
 20
0.0
 30
0.0
  9
$USERI1
 70
     0
  9
$USERI2
 70
     0
  9
$USERI3
 70
     0
  9
$USERI4
 70
     0
  9
$USERI5
 70
     0
  9
$USERR1
 40
0.0
  9
$USERR2
 40
0.0
  9
$USERR3
 40
0.0
  9
$USERR4
 40
0.0
  9
$USERR5
 40
0.0
  9
$WORLDVIEW
 70
     1
  9
$SHADEDGE
 70
     3
  9
$SHADEDIF
 70
    70
  9
$TILEMODE
 70
     1
  9
$MAXACTVP
 70
    64
  9
$PINSBASE
 10
0.0
 20
0.0
 30
0.0
  9
$PLIMCHECK
 70
     0
  9
$PEXTMIN
 10
0.628866766397
 20
0.799999952316
 30
0.0
  9
$PEXTMAX
 10
9.02886638493
 20
7.19999957085
 30
0.0
  9
$PLIMMIN
 10
0.0
 20
0.0
  9
$PLIMMAX
 10
0.0
 20
0.0
  9
$UNITMODE
 70
     0
  9
$VISRETAIN
 70
     1
  9
$PLINEGEN
 70
     0
  9
$PSLTSCALE
 70
     1
  9
$TREEDEPTH
 70
  3020
  9
$CMLSTYLE
  2
Standard
  9
$CMLJUST
 70
     0
  9
$CMLSCALE
 40
1.0
  9
$PROXYGRAPHICS
 70
     1
  9
$MEASUREMENT
 70
     0
  9
$CELWEIGHT
370
    -1
  9
$ENDCAPS
280
     0
  9
$JOINSTYLE
280
     0
  9
$LWDISPLAY
290
     0
  9
$INSUNITS
 70
     0
  9
$HYPERLINKBASE
  1

  9
$STYLESHEET
  1

  9
$XEDIT
290
     1
  9
$CEPSNTYPE
380
     0
  9
$PSTYLEMODE
290
     1
  9
$FINGERPRINTGUID
  2
{CBC6795E-BCF1-4C84-B870-C147CD150DA6}
  9
$VERSIONGUID
  2
{FAEB1C32-E019-11D5-929B-00C0DF256EC4}
  9
$EXTNAMES
290
     1
  9
$PSVPSCALE
 40
0.0
  9
$OLESTARTUP
290
     0
  9
$SORTENTS
280
   127
  9
$INDEXCTL
280
     0
  9
$HIDETEXT
280
     1
  9
$XCLIPFRAME
280
     2
  9
$HALOGAP
280
     0
  9
$OBSCOLOR
 70
   257
  9
$OBSLTYPE
280
     0
  9
$INTERSECTIONDISPLAY
280
     0
  9
$INTERSECTIONCOLOR
 70
   257
  9
$DIMASSOC
280
     2
  9
$PROJECTNAME
  1

  9
$CAMERADISPLAY
290
     0
  9
$LENSLENGTH
 40
50.0
  9
$CAMERAHEIGHT
 40
0.0
  9
$STEPSPERSEC
 40
2.0
  9
$STEPSIZE
 40
6.0
  9
$3DDWFPREC
 40
2.0
  9
$PSOLWIDTH
 40
0.25
  9
$PSOLHEIGHT
 40
4.0
  9
$LOFTANG1
 40
1.570796326794897
  9
$LOFTANG2
 40
1.570796326794897
  9
$LOFTMAG1
 40
0.0
  9
$LOFTMAG2
 40
0.0
  9
$LOFTPARAM
 70
     7
  9
$LOFTNORMALS
280
     1
  9
$LATITUDE
 40
37.795
  9
$LONGITUDE
 40
-122.394
  9
$NORTHDIRECTION
 40
0.0
  9
$TIMEZONE
 70
 -8000
  9
$LIGHTGLYPHDISPLAY
280
     1
  9
$TILEMODELIGHTSYNCH
280
     1
  9
$SOLIDHIST
280
     1
  9
$SHOWHIST
280
     1
  9
$DWFFRAME
280
     2
  9
$DGNFRAME
280
     2
  9
$REALWORLDSCALE
290
     1
  9
$INTERFERECOLOR
 62
   256
  9
$CSHADOW
280
     0
  9
$SHADOWPLANELOCATION
 40
0.0
  0
ENDSEC
  0
SECTION
  2
CLASSES
  0
CLASS
  1
ACDBDICTIONARYWDFLT
  2
AcDbDictionaryWithDefault
  3
ObjectDBX Classes
 90
        0
 91
        7
280
     0
281
     0
  0
CLASS
  1
MATERIAL
  2
AcDbMaterial
  3
ObjectDBX Classes
 90
     1153
 91
        7
280
     0
281
     0
  0
CLASS
  1
SCALE
  2
AcDbScale
  3
ObjectDBX Classes
 90
     1153
 91
        7
280
     0
281
     0
  0
CLASS
  1
VISUALSTYLE
  2
AcDbVisualStyle
  3
ObjectDBX Classes
 90
     4095
 91
        7
280
     0
281
     0
  0
CLASS
  1
TABLESTYLE
  2
AcDbTableStyle
  3
ObjectDBX Classes
 90
     4095
 91
        7
280
     0
281
     0
  0
CLASS
  1
SUN
  2
AcDbSun
  3
SCENEOE
 90
     1153
 91
        7
280
     0
281
     0
  0
CLASS
  1
RASTERVARIABLES
  2
AcDbRasterVariables
  3
ISM
 90
        0
 91
        7
280
     0
281
     0
  0
CLASS
  1
DICTIONARYVAR
  2
AcDbDictionaryVar
  3
ObjectDBX Classes
 90
        0
 91
        5
280
     0
281
     0
  0
CLASS
  1
CELLSTYLEMAP
  2
AcDbCellStyleMap
  3
ObjectDBX Classes
 90
     1152
 91
        5
280
     0
281
     0
  0
ENDSEC
  0
SECTION
  2
TABLES
  0
TABLE
  2
VPORT
  5
574
330
0
100
AcDbSymbolTable
 70
     1
  0
VPORT
  5
40E
330
574
100
AcDbSymbolTableRecord
100
AcDbViewportTableRecord
  2
*ACTIVE
 70
     0
 10
0.0
 20
0.0
 11
1.0
 21
1.0
 12
5.837635142473687
 22
0.4819477866959074
 13
0.0
 23
0.0
 14
0.5
 24
0.5
 15
0.5
 25
0.5
 16
0.0
 26
0.0
 36
1.0
 17
0.0
 27
0.0
 37
0.0
 40
18.0982802965856
 41
1.73475935828877
 42
50.0
 43
0.0
 44
0.0
 50
0.0
 51
0.0
 71
    16
 72
  1000
 73
     1
 74
     3
 75
     0
 76
     0
 77
     0
 78
     0
281
     0
 65
     0
110
0.0
120
0.0
130
0.0
111
1.0
121
0.0
131
0.0
112
0.0
122
1.0
132
0.0
 79
     0
146
0.0
348
5BF
 60
     3
 61
     5
292
     1
282
     1
141
0.0
142
0.0
 63
   256
361
5D6
  0
ENDTAB
  0
TABLE
  2
LTYPE
  5
571
330
0
100
AcDbSymbolTable
 70
     5
  0
LTYPE
  5
57F
330
571
100
AcDbSymbolTableRecord
100
AcDbLinetypeTableRecord
  2
ByBlock
 70
     0
  3

 72
    65
 73
     0
 40
0.0
  0
LTYPE
  5
580
330
571
100
AcDbSymbolTableRecord
100
AcDbLinetypeTableRecord
  2
ByLayer
 70
     0
  3

 72
    65
 73
     0
 40
0.0
  0
LTYPE
  5
581
330
571
100
AcDbSymbolTableRecord
100
AcDbLinetypeTableRecord
  2
CONTINUOUS
 70
     0
  3
Solid line
 72
    65
 73
     0
 40
0.0
  0
LTYPE
  5
410
330
571
100
AcDbSymbolTableRecord
100
AcDbLinetypeTableRecord
  2
CENTER
 70
     0
  3
Center ____ _ ____ _ ____ _ ____ _ ____ _ ____
 72
    65
 73
     4
 40
2.0
 49
1.25
 74
     0
 49
-0.25
 74
     0
 49
0.25
 74
     0
 49
-0.25
 74
     0
  0
LTYPE
  5
411
330
571
100
AcDbSymbolTableRecord
100
AcDbLinetypeTableRecord
  2
DASHED
 70
     0
  3
Dashed __ __ __ __ __ __ __ __ __ __ __ __ __ _
 72
    65
 73
     2
 40
0.75
 49
0.5
 74
     0
 49
-0.25
 74
     0
  0
LTYPE
  5
412
330
571
100
AcDbSymbolTableRecord
100
AcDbLinetypeTableRecord
  2
PHANTOM
 70
     0
  3
Phantom ______  __  __  ______  __  __  ______
 72
    65
 73
     6
 40
2.5
 49
1.25
 74
     0
 49
-0.25
 74
     0
 49
0.25
 74
     0
 49
-0.25
 74
     0
 49
0.25
 74
     0
 49
-0.25
 74
     0
  0
LTYPE
  5
413
330
571
100
AcDbSymbolTableRecord
100
AcDbLinetypeTableRecord
  2
HIDDEN
 70
     0
  3
Hidden __ __ __ __ __ __ __ __ __ __ __ __ __ __
 72
    65
 73
     2
 40
9.524999999999999
 49
6.35
 74
     0
 49
-3.175
 74
     0
  0
ENDTAB
  0
TABLE
  2
LAYER
  5
56E
330
0
100
AcDbSymbolTable
 70
     3
  0
LAYER
  5
57C
330
56E
100
AcDbSymbolTableRecord
100
AcDbLayerTableRecord
  2
0
 70
     0
 62
     7
  6
CONTINUOUS
370
    -3
390
57B
347
58E
  0
LAYER
  5
415
330
56E
100
AcDbSymbolTableRecord
100
AcDbLayerTableRecord
  2
VIEW_PORT
 70
     0
 62
     7
  6
CONTINUOUS
370
    -3
390
57B
347
58E
  0
LAYER
  5
416
330
56E
100
AcDbSymbolTableRecord
100
AcDbLayerTableRecord
  2
DEFPOINTS
 70
     0
 62
     7
  6
CONTINUOUS
290
     0
370
    -3
390
57B
347
58E
  0
ENDTAB
  0
TABLE
  2
STYLE
  5
56F
330
0
100
AcDbSymbolTable
 70
     5
  0
STYLE
  5
57D
330
56F
100
AcDbSymbolTableRecord
100
AcDbTextStyleTableRecord
  2
STANDARD
 70
     0
 40
0.0
 41
1.0
 50
0.0
 71
     0
 42
0.2
  3
txt
  4

  0
STYLE
  5
418
330
56F
100
AcDbSymbolTableRecord
100
AcDbTextStyleTableRecord
  2
ANNOTATIVE
 70
     0
 40
0.0
 41
1.0
 50
0.0
 71
     0
 42
0.2
  3
txt
  4

  0
STYLE
  5
419
330
56F
100
AcDbSymbolTableRecord
100
AcDbTextStyleTableRecord
  2
NOTES
 70
     0
 40
3.0
 41
1.0
 50
0.0
 71
     0
 42
0.2
  3
txt
  4

  0
STYLE
  5
41A
330
56F
100
AcDbSymbolTableRecord
100
AcDbTextStyleTableRecord
  2
TITLES
 70
     0
 40
6.0
 41
1.0
 50
0.0
 71
     0
 42
0.2
  3
txt
  4

  0
STYLE
  5
41B
330
56F
100
AcDbSymbolTableRecord
100
AcDbTextStyleTableRecord
  2

 70
     1
 40
0.0
 41
1.0
 50
0.0
 71
     0
 42
0.2
  3
ltypeshp.shx
  4

  0
ENDTAB
  0
TABLE
  2
VIEW
  5
572
330
0
100
AcDbSymbolTable
 70
     0
  0
ENDTAB
  0
TABLE
  2
UCS
  5
573
330
0
100
AcDbSymbolTable
 70
     0
  0
ENDTAB
  0
TABLE
  2
APPID
  5
575
330
0
100
AcDbSymbolTable
 70
    10
  0
APPID
  5
57E
330
575
100
AcDbSymbolTableRecord
100
AcDbRegAppTableRecord
  2
ACAD
 70
     0
  0
APPID
  5
41D
330
575
100
AcDbSymbolTableRecord
100
AcDbRegAppTableRecord
  2
ACADANNOPO
 70
     0
  0
APPID
  5
41E
330
575
100
AcDbSymbolTableRecord
100
AcDbRegAppTableRecord
  2
ACADANNOTATIVE
 70
     0
  0
APPID
  5
41F
330
575
100
AcDbSymbolTableRecord
100
AcDbRegAppTableRecord
  2
ACAD_DSTYLE_DIMJAG
 70
     0
  0
APPID
  5
420
330
575
100
AcDbSymbolTableRecord
100
AcDbRegAppTableRecord
  2
ACAD_DSTYLE_DIMTALN
 70
     0
  0
APPID
  5
421
330
575
100
AcDbSymbolTableRecord
100
AcDbRegAppTableRecord
  2
ACAD_MLEADERVER
 70
     0
  0
APPID
  5
422
330
575
100
AcDbSymbolTableRecord
100
AcDbRegAppTableRecord
  2
ACAECLAYERSTANDARD
 70
     0
  0
APPID
  5
423
330
575
100
AcDbSymbolTableRecord
100
AcDbRegAppTableRecord
  2
ACAD_EXEMPT_FROM_CAD_STANDARDS
 70
     0
  0
APPID
  5
424
330
575
100
AcDbSymbolTableRecord
100
AcDbRegAppTableRecord
  2
ACAD_DSTYLE_DIMBREAK
 70
     0
  0
APPID
  5
425
330
575
100
AcDbSymbolTableRecord
100
AcDbRegAppTableRecord
  2
ACAD_PSEXT
 70
     0
  0
ENDTAB
  0
TABLE
  2
DIMSTYLE
  5
576
330
0
100
AcDbSymbolTable
 70
     3
100
AcDbDimStyleTable
  0
DIMSTYLE
105
58F
330
576
100
AcDbSymbolTableRecord
100
AcDbDimStyleTableRecord
  2
STANDARD
 70
     0
 41
3.0
 42
2.0
 43
9.0
 44
5.0
140
3.0
141
2.0
147
2.0
178
     0
340
419
  0
DIMSTYLE
105
590
330
576
100
AcDbSymbolTableRecord
100
AcDbDimStyleTableRecord
  2
ANNOTATIVE
 70
     0
 40
0.0
 41
3.0
 42
2.5
 43
10.0
 44
5.0
140
3.0
141
2.0
147
2.0
178
     0
340
419
  0
DIMSTYLE
105
591
330
576
100
AcDbSymbolTableRecord
100
AcDbDimStyleTableRecord
  2
CIVIL-METRIC
 70
     0
 41
3.0
 42
1.5
 43
6.0
 44
3.0
 73
     0
 74
     0
 77
     1
 78
     3
140
3.0
141
3.0
147
2.0
178
     0
340
419
  0
ENDTAB
  0
TABLE
  2
BLOCK_RECORD
  5
56D
330
0
100
AcDbSymbolTable
 70
     2
  0
BLOCK_RECORD
  5
588
330
56D
100
AcDbSymbolTableRecord
100
AcDbBlockTableRecord
  2
*Model_Space
340
589
 70
     0
280
     1
281
     0
  0
BLOCK_RECORD
  5
586
330
56D
100
AcDbSymbolTableRecord
100
AcDbBlockTableRecord
  2
*Paper_Space
340
587
 70
     0
280
     1
281
     0
  0
BLOCK_RECORD
  5
595
330
56D
100
AcDbSymbolTableRecord
100
AcDbBlockTableRecord
  2
_ARCHTICK
340
0
 70
     0
280
     1
281
     0
  0
BLOCK_RECORD
  5
597
330
56D
100
AcDbSymbolTableRecord
100
AcDbBlockTableRecord
  2
_OPEN30
340
0
 70
     0
280
     1
281
     0
  0
ENDTAB
  0
ENDSEC
  0
SECTION
  2
BLOCKS
  0
BLOCK
  5
592
330
588
100
AcDbEntity
  8
0
100
AcDbBlockBegin
  2
*Model_Space
 70
     0
 10
0.0
 20
0.0
 30
0.0
  3
*Model_Space
  1
*Model_Space
  0
ENDBLK
  5
21
330
588
100
AcDbEntity
  8
0
100
AcDbBlockEnd
  0
BLOCK
  5
593
330
586
100
AcDbEntity
 67
     1
  8
0
100
AcDbBlockBegin
  2
*Paper_Space
 70
     0
 10
0.0
 20
0.0
 30
0.0
  3
*Paper_Space
  1
*Paper_Space
  0
ENDBLK
  5
5B
330
586
100
AcDbEntity
 67
     1
  8
0
100
AcDbBlockEnd
  0
BLOCK
  5
594
330
595
100
AcDbEntity
  8
0
100
AcDbBlockBegin
  2
_ARCHTICK
 70
     0
 10
0.0
 20
0.0
 30
0.0
  3
_ARCHTICK
  1
_ARCHTICK
  0
LWPOLYLINE
  5
239
330
595
100
AcDbEntity
  8
0
  6
ByBlock
 62
     0
100
AcDbPolyline
 90
        2
 70
     0
 43
0.15
 10
-0.5
 20
-0.5
 10
0.5
 20
0.5
  0
ENDBLK
  5
23B
330
595
100
AcDbEntity
  8
0
100
AcDbBlockEnd
  0
BLOCK
  5
596
330
597
100
AcDbEntity
  8
0
100
AcDbBlockBegin
  2
_OPEN30
 70
     0
 10
0.0
 20
0.0
 30
0.0
  3
_OPEN30
  1
_OPEN30
  0
LINE
  5
23D
330
597
100
AcDbEntity
  8
0
  6
ByBlock
 62
     0
100
AcDbLine
 10
-1.0
 20
0.26794919
 30
0.0
 11
0.0
 21
0.0
 31
0.0
  0
LINE
  5
23E
330
597
100
AcDbEntity
  8
0
  6
ByBlock
 62
     0
100
AcDbLine
 10
0.0
 20
0.0
 30
0.0
 11
-1.0
 21
-0.26794919
 31
0.0
  0
LINE
  5
23F
330
597
100
AcDbEntity
  8
0
  6
ByBlock
 62
     0
100
AcDbLine
 10
0.0
 20
0.0
 30
0.0
 11
-1.0
 21
0.0
 31
0.0
  0
ENDBLK
  5
241
330
597
100
AcDbEntity
  8
0
100
AcDbBlockEnd
  0
ENDSEC
  0
SECTION
  2
ENTITIES
  0
LINE
  5
42D
330
588
100
AcDbEntity
  8
0
 62
     7
100
AcDbLine
 10
2.715407
 20
3.4933365
 30
0.0
 11
2.6526003
 21
3.51937865
 31
0.0
  0
LINE
  5
42E
330
588
100
AcDbEntity
  8
0
 62
     7
100
AcDbLine
 10
2.6526003
 20
3.51937865
 30
0.0
 11
2.58887195
 21
3.5577896
 31
0.0
  0
LINE
  5
42F
330
588
100
AcDbEntity
  8
0
 62
     7
100
AcDbLine
 10
2.58887195
 20
3.5577896
 30
0.0
 11
2.53173085
 21
3.60600965
 31
0.0
  0
LINE
  5
430
330
588
100
AcDbEntity
  8
0
 62
     7
100
AcDbLine
 10
2.53173085
 20
3.60600965
 30
0.0
 11
2.4863535
 21
3.6578659
 31
0.0
  0
LINE
  5
431
330
588
100
AcDbEntity
  8
0
 62
     7
100
AcDbLine
 10
2.4863535
 20
3.6578659
 30
0.0
 11
2.45336855
 21
3.707243350000001
 31
0.0
  0
LINE
  5
432
330
588
100
AcDbEntity
  8
0
 62
     7
100
AcDbLine
 10
2.45336855
 20
3.707243350000001
 30
0.0
 11
2.41417065
 21
3.7878971
 31
0.0
  0
LINE
  5
433
330
588
100
AcDbEntity
  8
0
 62
     7
100
AcDbLine
 10
2.41417065
 20
3.7878971
 30
0.0
 11
2.35132925
 21
3.97199285
 31
0.0
  0
LINE
  5
434
330
588
100
AcDbEntity
  8
0
 62
     7
100
AcDbLine
 10
2.35132925
 20
3.97199285
 30
0.0
 11
2.3020006
 21
4.07538145
 31
0.0
  0
LINE
  5
435
330
588
100
AcDbEntity
  8
0
 62
     7
100
AcDbLine
 10
2.3020006
 20
4.07538145
 30
0.0
 11
2.2409096
 21
4.164400100000001
 31
0.0
  0
LINE
  5
436
330
588
100
AcDbEntity
  8
0
 62
     7
100
AcDbLine
 10
2.2409096
 20
4.164400100000001
 30
0.0
 11
2.18018305
 21
4.23115995
 31
0.0
  0
LINE
  5
437
330
588
100
AcDbEntity
  8
0
 62
     7
100
AcDbLine
 10
2.18018305
 20
4.23115995
 30
0.0
 11
2.10692025
 21
4.2939949
 31
0.0
  0
LINE
  5
438
330
588
100
AcDbEntity
  8
0
 62
     7
100
AcDbLine
 10
2.10692025
 20
4.2939949
 30
0.0
 11
2.0227724
 21
4.34937365
 31
0.0
  0
LINE
  5
439
330
588
100
AcDbEntity
  8
0
 62
     7
100
AcDbLine
 10
2.0227724
 20
4.34937365
 30
0.0
 11
1.9305256
 21
4.39434355
 31
0.0
  0
LINE
  5
43A
330
588
100
AcDbEntity
  8
0
 62
     7
100
AcDbLine
 10
1.9305256
 20
4.39434355
 30
0.0
 11
1.8337904
 21
4.42691575
 31
0.0
  0
LINE
  5
43B
330
588
100
AcDbEntity
  8
0
 62
     7
100
AcDbLine
 10
1.8337904
 20
4.42691575
 30
0.0
 11
1.7365978
 21
4.44630015
 31
0.0
  0
LINE
  5
43C
330
588
100
AcDbEntity
  8
0
 62
     7
100
AcDbLine
 10
1.7365978
 20
4.44630015
 30
0.0
 11
1.6429268
 21
4.45297625
 31
0.0
  0
LINE
  5
43D
330
588
100
AcDbEntity
  8
0
 62
     7
100
AcDbLine
 10
1.6429268
 20
4.45297625
 30
0.0
 11
1.5292804
 21
4.44507295
 31
0.0
  0
LINE
  5
43E
330
588
100
AcDbEntity
  8
0
 62
     7
100
AcDbLine
 10
1.5292804
 20
4.44507295
 30
0.0
 11
1.4112482
 21
4.41684875
 31
0.0
  0
LINE
  5
43F
330
588
100
AcDbEntity
  8
0
 62
     7
100
AcDbLine
 10
1.4112482
 20
4.41684875
 30
0.0
 11
1.2224431
 21
4.3375065
 31
0.0
  0
LINE
  5
440
330
588
100
AcDbEntity
  8
0
 62
     7
100
AcDbLine
 10
1.2224431
 20
4.3375065
 30
0.0
 11
1.1495658
 21
4.3125355
 31
0.0
  0
LINE
  5
441
330
588
100
AcDbEntity
  8
0
 62
     7
100
AcDbLine
 10
1.1495658
 20
4.3125355
 30
0.0
 11
1.0994093
 21
4.301174550000001
 31
0.0
  0
LINE
  5
442
330
588
100
AcDbEntity
  8
0
 62
     7
100
AcDbLine
 10
1.0994093
 20
4.301174550000001
 30
0.0
 11
1.0381487
 21
4.29418335
 31
0.0
  0
LINE
  5
443
330
588
100
AcDbEntity
  8
0
 62
     7
100
AcDbLine
 10
1.0381487
 20
4.29418335
 30
0.0
 11
0.9675003000000001
 21
4.295739
 31
0.0
  0
LINE
  5
444
330
588
100
AcDbEntity
  8
0
 62
     7
100
AcDbLine
 10
0.9675003000000001
 20
4.295739
 30
0.0
 11
0.8933868500000002
 21
4.3089325
 31
0.0
  0
LINE
  5
445
330
588
100
AcDbEntity
  8
0
 62
     7
100
AcDbLine
 10
0.8933868500000002
 20
4.3089325
 30
0.0
 11
0.8240254500000002
 21
4.3330017
 31
0.0
  0
LINE
  5
446
330
588
100
AcDbEntity
  8
0
 62
     7
100
AcDbLine
 10
0.8240254500000002
 20
4.3330017
 30
0.0
 11
0.7654819500000001
 21
4.36341895
 31
0.0
  0
LINE
  5
447
330
588
100
AcDbEntity
  8
0
 62
     7
100
AcDbLine
 10
0.7654819500000001
 20
4.36341895
 30
0.0
 11
0.71931305
 21
4.39502565
 31
0.0
  0
LINE
  5
448
330
588
100
AcDbEntity
  8
0
 62
     7
100
AcDbLine
 10
0.71931305
 20
4.39502565
 30
0.0
 11
0.65633325
 21
4.450687400000001
 31
0.0
  0
LINE
  5
449
330
588
100
AcDbEntity
  8
0
 62
     7
100
AcDbLine
 10
0.65633325
 20
4.450687400000001
 30
0.0
 11
0.52745335
 21
4.5899353
 31
0.0
  0
LINE
  5
44A
330
588
100
AcDbEntity
  8
0
 62
     7
100
AcDbLine
 10
0.52745335
 20
4.5899353
 30
0.0
 11
0.4385215750000001
 21
4.66425475
 31
0.0
  0
LINE
  5
44B
330
588
100
AcDbEntity
  8
0
 62
     7
100
AcDbLine
 10
0.4385215750000001
 20
4.66425475
 30
0.0
 11
0.344730785
 21
4.72019465
 31
0.0
  0
LINE
  5
44C
330
588
100
AcDbEntity
  8
0
 62
     7
100
AcDbLine
 10
0.344730785
 20
4.72019465
 30
0.0
 11
0.26089399
 21
4.75566675
 31
0.0
  0
LINE
  5
44D
330
588
100
AcDbEntity
  8
0
 62
     7
100
AcDbLine
 10
0.26089399
 20
4.75566675
 30
0.0
 11
0.16747637
 21
4.7821327
 31
0.0
  0
LINE
  5
44E
330
588
100
AcDbEntity
  8
0
 62
     7
100
AcDbLine
 10
0.16747637
 20
4.7821327
 30
0.0
 11
0.067531725
 21
4.79713175
 31
0.0
  0
LINE
  5
44F
330
588
100
AcDbEntity
  8
0
 62
     7
100
AcDbLine
 10
0.067531725
 20
4.79713175
 30
0.0
 11
-0.0351313025
 21
4.799226
 31
0.0
  0
LINE
  5
450
330
588
100
AcDbEntity
  8
0
 62
     7
100
AcDbLine
 10
-0.0351313025
 20
4.799226
 30
0.0
 11
-0.13639313
 21
4.78820915
 31
0.0
  0
LINE
  5
451
330
588
100
AcDbEntity
  8
0
 62
     7
100
AcDbLine
 10
-0.13639313
 20
4.78820915
 30
0.0
 11
-0.23229091
 21
4.7651352
 31
0.0
  0
LINE
  5
452
330
588
100
AcDbEntity
  8
0
 62
     7
100
AcDbLine
 10
-0.23229091
 20
4.7651352
 30
0.0
 11
-0.31947372
 21
4.73217085
 31
0.0
  0
LINE
  5
453
330
588
100
AcDbEntity
  8
0
 62
     7
100
AcDbLine
 10
-0.31947372
 20
4.73217085
 30
0.0
 11
-0.418328905
 21
4.677993
 31
0.0
  0
LINE
  5
454
330
588
100
AcDbEntity
  8
0
 62
     7
100
AcDbLine
 10
-0.418328905
 20
4.677993
 30
0.0
 11
-0.5126434
 21
4.60404625
 31
0.0
  0
LINE
  5
455
330
588
100
AcDbEntity
  8
0
 62
     7
100
AcDbLine
 10
-0.5126434
 20
4.60404625
 30
0.0
 11
-0.6551139500000001
 21
4.451913050000001
 31
0.0
  0
LINE
  5
456
330
588
100
AcDbEntity
  8
0
 62
     7
100
AcDbLine
 10
-0.6551139500000001
 20
4.451913050000001
 30
0.0
 11
-0.7164196
 21
4.39725495
 31
0.0
  0
LINE
  5
457
330
588
100
AcDbEntity
  8
0
 62
     7
100
AcDbLine
 10
-0.7164196
 20
4.39725495
 30
0.0
 11
-0.7613913000000001
 21
4.3659313
 31
0.0
  0
LINE
  5
458
330
588
100
AcDbEntity
  8
0
 62
     7
100
AcDbLine
 10
-0.7613913000000001
 20
4.3659313
 30
0.0
 11
-0.81869585
 21
4.3353649
 31
0.0
  0
LINE
  5
459
330
588
100
AcDbEntity
  8
0
 62
     7
100
AcDbLine
 10
-0.81869585
 20
4.3353649
 30
0.0
 11
-0.88719875
 21
4.310599150000001
 31
0.0
  0
LINE
  5
45A
330
588
100
AcDbEntity
  8
0
 62
     7
100
AcDbLine
 10
-0.88719875
 20
4.310599150000001
 30
0.0
 11
-0.9612473500000001
 21
4.296384450000001
 31
0.0
  0
LINE
  5
45B
330
588
100
AcDbEntity
  8
0
 62
     7
100
AcDbLine
 10
-0.9612473500000001
 20
4.296384450000001
 30
0.0
 11
-1.03263495
 21
4.2939308
 31
0.0
  0
LINE
  5
45C
330
588
100
AcDbEntity
  8
0
 62
     7
100
AcDbLine
 10
-1.03263495
 20
4.2939308
 30
0.0
 11
-1.09505605
 21
4.3004261
 31
0.0
  0
LINE
  5
45D
330
588
100
AcDbEntity
  8
0
 62
     7
100
AcDbLine
 10
-1.09505605
 20
4.3004261
 30
0.0
 11
-1.18766725
 21
4.3244255
 31
0.0
  0
LINE
  5
45E
330
588
100
AcDbEntity
  8
0
 62
     7
100
AcDbLine
 10
-1.18766725
 20
4.3244255
 30
0.0
 11
-1.39174205
 21
4.41010095
 31
0.0
  0
LINE
  5
45F
330
588
100
AcDbEntity
  8
0
 62
     7
100
AcDbLine
 10
-1.39174205
 20
4.41010095
 30
0.0
 11
-1.50489285
 21
4.4409813
 31
0.0
  0
LINE
  5
460
330
588
100
AcDbEntity
  8
0
 62
     7
100
AcDbLine
 10
-1.50489285
 20
4.4409813
 30
0.0
 11
-1.61470775
 21
4.452681350000001
 31
0.0
  0
LINE
  5
461
330
588
100
AcDbEntity
  8
0
 62
     7
100
AcDbLine
 10
-1.61470775
 20
4.452681350000001
 30
0.0
 11
-1.70645695
 21
4.44972495
 31
0.0
  0
LINE
  5
462
330
588
100
AcDbEntity
  8
0
 62
     7
100
AcDbLine
 10
-1.70645695
 20
4.44972495
 30
0.0
 11
-1.80290375
 21
4.43447535
 31
0.0
  0
LINE
  5
463
330
588
100
AcDbEntity
  8
0
 62
     7
100
AcDbLine
 10
-1.80290375
 20
4.43447535
 30
0.0
 11
-1.900202
 21
4.4060585
 31
0.0
  0
LINE
  5
464
330
588
100
AcDbEntity
  8
0
 62
     7
100
AcDbLine
 10
-1.900202
 20
4.4060585
 30
0.0
 11
-1.99428785
 21
4.36485215
 31
0.0
  0
LINE
  5
465
330
588
100
AcDbEntity
  8
0
 62
     7
100
AcDbLine
 10
-1.99428785
 20
4.36485215
 30
0.0
 11
-2.08136675
 21
4.312474799999999
 31
0.0
  0
LINE
  5
466
330
588
100
AcDbEntity
  8
0
 62
     7
100
AcDbLine
 10
-2.08136675
 20
4.312474799999999
 30
0.0
 11
-2.1583433
 21
4.2516052
 31
0.0
  0
LINE
  5
467
330
588
100
AcDbEntity
  8
0
 62
     7
100
AcDbLine
 10
-2.1583433
 20
4.2516052
 30
0.0
 11
-2.2231678
 21
4.1856453
 31
0.0
  0
LINE
  5
468
330
588
100
AcDbEntity
  8
0
 62
     7
100
AcDbLine
 10
-2.2231678
 20
4.1856453
 30
0.0
 11
-2.2895527
 21
4.096038800000001
 31
0.0
  0
LINE
  5
469
330
588
100
AcDbEntity
  8
0
 62
     7
100
AcDbLine
 10
-2.2895527
 20
4.096038800000001
 30
0.0
 11
-2.3437702
 21
3.99082565
 31
0.0
  0
LINE
  5
46A
330
588
100
AcDbEntity
  8
0
 62
     7
100
AcDbLine
 10
-2.3437702
 20
3.99082565
 30
0.0
 11
-2.413430200000001
 21
3.7897541
 31
0.0
  0
LINE
  5
46B
330
588
100
AcDbEntity
  8
0
 62
     7
100
AcDbLine
 10
-2.413430200000001
 20
3.7897541
 30
0.0
 11
-2.45133895
 21
3.7107273
 31
0.0
  0
LINE
  5
46C
330
588
100
AcDbEntity
  8
0
 62
     7
100
AcDbLine
 10
-2.45133895
 20
3.7107273
 30
0.0
 11
-2.4832535
 21
3.662006
 31
0.0
  0
LINE
  5
46D
330
588
100
AcDbEntity
  8
0
 62
     7
100
AcDbLine
 10
-2.4832535
 20
3.662006
 30
0.0
 11
-2.5274294
 21
3.61032065
 31
0.0
  0
LINE
  5
46E
330
588
100
AcDbEntity
  8
0
 62
     7
100
AcDbLine
 10
-2.5274294
 20
3.61032065
 30
0.0
 11
-2.58365365
 21
3.56158105
 31
0.0
  0
LINE
  5
46F
330
588
100
AcDbEntity
  8
0
 62
     7
100
AcDbLine
 10
-2.58365365
 20
3.56158105
 30
0.0
 11
-2.6471712
 21
3.522137450000001
 31
0.0
  0
LINE
  5
470
330
588
100
AcDbEntity
  8
0
 62
     7
100
AcDbLine
 10
-2.6471712
 20
3.522137450000001
 30
0.0
 11
-2.7105116
 21
3.4950054
 31
0.0
  0
LINE
  5
471
330
588
100
AcDbEntity
  8
0
 62
     7
100
AcDbLine
 10
-2.7105116
 20
3.4950054
 30
0.0
 11
-2.7676655
 21
3.4788933
 31
0.0
  0
LINE
  5
472
330
588
100
AcDbEntity
  8
0
 62
     7
100
AcDbLine
 10
-2.7676655
 20
3.4788933
 30
0.0
 11
-2.8564844
 21
3.4665375
 31
0.0
  0
LINE
  5
473
330
588
100
AcDbEntity
  8
0
 62
     7
100
AcDbLine
 10
-2.8564844
 20
3.4665375
 30
0.0
 11
-3.05098895
 21
3.46366005
 31
0.0
  0
LINE
  5
474
330
588
100
AcDbEntity
  8
0
 62
     7
100
AcDbLine
 10
-3.05098895
 20
3.46366005
 30
0.0
 11
-3.1645609
 21
3.448695
 31
0.0
  0
LINE
  5
475
330
588
100
AcDbEntity
  8
0
 62
     7
100
AcDbLine
 10
-3.1645609
 20
3.448695
 30
0.0
 11
-3.26810075
 21
3.4181019
 31
0.0
  0
LINE
  5
476
330
588
100
AcDbEntity
  8
0
 62
     7
100
AcDbLine
 10
-3.26810075
 20
3.4181019
 30
0.0
 11
-3.35035895
 21
3.38097765
 31
0.0
  0
LINE
  5
477
330
588
100
AcDbEntity
  8
0
 62
     7
100
AcDbLine
 10
-3.35035895
 20
3.38097765
 30
0.0
 11
-3.43275755
 21
3.33071745
 31
0.0
  0
LINE
  5
478
330
588
100
AcDbEntity
  8
0
 62
     7
100
AcDbLine
 10
-3.43275755
 20
3.33071745
 30
0.0
 11
-3.5114292
 21
3.2678013
 31
0.0
  0
LINE
  5
479
330
588
100
AcDbEntity
  8
0
 62
     7
100
AcDbLine
 10
-3.5114292
 20
3.2678013
 30
0.0
 11
-3.5827038
 21
3.1939657
 31
0.0
  0
LINE
  5
47A
330
588
100
AcDbEntity
  8
0
 62
     7
100
AcDbLine
 10
-3.5827038
 20
3.1939657
 30
0.0
 11
-3.6435745
 21
3.1120306
 31
0.0
  0
LINE
  5
47B
330
588
100
AcDbEntity
  8
0
 62
     7
100
AcDbLine
 10
-3.6435745
 20
3.1120306
 30
0.0
 11
-3.69204445
 21
3.025585
 31
0.0
  0
LINE
  5
47C
330
588
100
AcDbEntity
  8
0
 62
     7
100
AcDbLine
 10
-3.69204445
 20
3.025585
 30
0.0
 11
-3.72733955
 21
2.93856165
 31
0.0
  0
LINE
  5
47D
330
588
100
AcDbEntity
  8
0
 62
     7
100
AcDbLine
 10
-3.72733955
 20
2.93856165
 30
0.0
 11
-3.75494195
 21
2.82803515
 31
0.0
  0
LINE
  5
47E
330
588
100
AcDbEntity
  8
0
 62
     7
100
AcDbLine
 10
-3.75494195
 20
2.82803515
 30
0.0
 11
-3.7645733
 21
2.70705815
 31
0.0
  0
LINE
  5
47F
330
588
100
AcDbEntity
  8
0
 62
     7
100
AcDbLine
 10
-3.7645733
 20
2.70705815
 30
0.0
 11
-3.74745825
 21
2.50297585
 31
0.0
  0
LINE
  5
480
330
588
100
AcDbEntity
  8
0
 62
     7
100
AcDbLine
 10
-3.74745825
 20
2.50297585
 30
0.0
 11
-3.746229550000001
 21
2.4259487
 31
0.0
  0
LINE
  5
481
330
588
100
AcDbEntity
  8
0
 62
     7
100
AcDbLine
 10
-3.746229550000001
 20
2.4259487
 30
0.0
 11
-3.7509239
 21
2.3747364
 31
0.0
  0
LINE
  5
482
330
588
100
AcDbEntity
  8
0
 62
     7
100
AcDbLine
 10
-3.7509239
 20
2.3747364
 30
0.0
 11
-3.76320535
 21
2.3143137
 31
0.0
  0
LINE
  5
483
330
588
100
AcDbEntity
  8
0
 62
     7
100
AcDbLine
 10
-3.76320535
 20
2.3143137
 30
0.0
 11
-3.78651655
 21
2.2476038
 31
0.0
  0
LINE
  5
484
330
588
100
AcDbEntity
  8
0
 62
     7
100
AcDbLine
 10
-3.78651655
 20
2.2476038
 30
0.0
 11
-3.82196655
 21
2.1811947
 31
0.0
  0
LINE
  5
485
330
588
100
AcDbEntity
  8
0
 62
     7
100
AcDbLine
 10
-3.82196655
 20
2.1811947
 30
0.0
 11
-3.8662918
 21
2.122666
 31
0.0
  0
LINE
  5
486
330
588
100
AcDbEntity
  8
0
 62
     7
100
AcDbLine
 10
-3.8662918
 20
2.122666
 30
0.0
 11
-3.913311
 21
2.0763872
 31
0.0
  0
LINE
  5
487
330
588
100
AcDbEntity
  8
0
 62
     7
100
AcDbLine
 10
-3.913311
 20
2.0763872
 30
0.0
 11
-3.95763815
 21
2.0422451
 31
0.0
  0
LINE
  5
488
330
588
100
AcDbEntity
  8
0
 62
     7
100
AcDbLine
 10
-3.95763815
 20
2.0422451
 30
0.0
 11
-4.0300373
 21
1.99954815
 31
0.0
  0
LINE
  5
489
330
588
100
AcDbEntity
  8
0
 62
     7
100
AcDbLine
 10
-4.0300373
 20
1.99954815
 30
0.0
 11
-4.2022957
 21
1.920006
 31
0.0
  0
LINE
  5
48A
330
588
100
AcDbEntity
  8
0
 62
     7
100
AcDbLine
 10
-4.2022957
 20
1.920006
 30
0.0
 11
-4.3004593
 21
1.8583929
 31
0.0
  0
LINE
  5
48B
330
588
100
AcDbEntity
  8
0
 62
     7
100
AcDbLine
 10
-4.3004593
 20
1.8583929
 30
0.0
 11
-4.38264425
 21
1.7864788
 31
0.0
  0
LINE
  5
48C
330
588
100
AcDbEntity
  8
0
 62
     7
100
AcDbLine
 10
-4.38264425
 20
1.7864788
 30
0.0
 11
-4.44228745
 21
1.71770685
 31
0.0
  0
LINE
  5
48D
330
588
100
AcDbEntity
  8
0
 62
     7
100
AcDbLine
 10
-4.44228745
 20
1.71770685
 30
0.0
 11
-4.496325300000001
 21
1.63703975
 31
0.0
  0
LINE
  5
48E
330
588
100
AcDbEntity
  8
0
 62
     7
100
AcDbLine
 10
-4.496325300000001
 20
1.63703975
 30
0.0
 11
-4.5414749
 21
1.5466217
 31
0.0
  0
LINE
  5
48F
330
588
100
AcDbEntity
  8
0
 62
     7
100
AcDbLine
 10
-4.5414749
 20
1.5466217
 30
0.0
 11
-4.5751915
 21
1.44963055
 31
0.0
  0
LINE
  5
490
330
588
100
AcDbEntity
  8
0
 62
     7
100
AcDbLine
 10
-4.5751915
 20
1.44963055
 30
0.0
 11
-4.59600525
 21
1.34992045
 31
0.0
  0
LINE
  5
491
330
588
100
AcDbEntity
  8
0
 62
     7
100
AcDbLine
 10
-4.59600525
 20
1.34992045
 30
0.0
 11
-4.60369455
 21
1.25158595
 31
0.0
  0
LINE
  5
492
330
588
100
AcDbEntity
  8
0
 62
     7
100
AcDbLine
 10
-4.60369455
 20
1.25158595
 30
0.0
 11
-4.599284750000001
 21
1.1584836
 31
0.0
  0
LINE
  5
493
330
588
100
AcDbEntity
  8
0
 62
     7
100
AcDbLine
 10
-4.599284750000001
 20
1.1584836
 30
0.0
 11
-4.5783066
 21
1.0477249
 31
0.0
  0
LINE
  5
494
330
588
100
AcDbEntity
  8
0
 62
     7
100
AcDbLine
 10
-4.5783066
 20
1.0477249
 30
0.0
 11
-4.53712385
 21
0.9351756999999999
 31
0.0
  0
LINE
  5
495
330
588
100
AcDbEntity
  8
0
 62
     7
100
AcDbLine
 10
-4.53712385
 20
0.9351756999999999
 30
0.0
 11
-4.4364624
 21
0.75266645
 31
0.0
  0
LINE
  5
496
330
588
100
AcDbEntity
  8
0
 62
     7
100
AcDbLine
 10
-4.4364624
 20
0.75266645
 30
0.0
 11
-4.4034237
 21
0.67747095
 31
0.0
  0
LINE
  5
497
330
588
100
AcDbEntity
  8
0
 62
     7
100
AcDbLine
 10
-4.4034237
 20
0.67747095
 30
0.0
 11
-4.38753015
 21
0.6250208
 31
0.0
  0
LINE
  5
498
330
588
100
AcDbEntity
  8
0
 62
     7
100
AcDbLine
 10
-4.38753015
 20
0.6250208
 30
0.0
 11
-4.37616805
 21
0.56107545
 31
0.0
  0
LINE
  5
499
330
588
100
AcDbEntity
  8
0
 62
     7
100
AcDbLine
 10
-4.37616805
 20
0.56107545
 30
0.0
 11
-4.37378275
 21
0.48827224
 31
0.0
  0
LINE
  5
49A
330
588
100
AcDbEntity
  8
0
 62
     7
100
AcDbLine
 10
-4.37378275
 20
0.48827224
 30
0.0
 11
-4.3831463
 21
0.4134552
 31
0.0
  0
LINE
  5
49B
330
588
100
AcDbEntity
  8
0
 62
     7
100
AcDbLine
 10
-4.3831463
 20
0.4134552
 30
0.0
 11
-4.40287245
 21
0.344803355
 31
0.0
  0
LINE
  5
49C
330
588
100
AcDbEntity
  8
0
 62
     7
100
AcDbLine
 10
-4.40287245
 20
0.344803355
 30
0.0
 11
-4.428339
 21
0.28744452
 31
0.0
  0
LINE
  5
49D
330
588
100
AcDbEntity
  8
0
 62
     7
100
AcDbLine
 10
-4.428339
 20
0.28744452
 30
0.0
 11
-4.479782500000001
 21
0.20678227
 31
0.0
  0
LINE
  5
49E
330
588
100
AcDbEntity
  8
0
 62
     7
100
AcDbLine
 10
-4.479782500000001
 20
0.20678227
 30
0.0
 11
-4.6243271
 21
0.0391708105
 31
0.0
  0
LINE
  5
49F
330
588
100
AcDbEntity
  8
0
 62
     7
100
AcDbLine
 10
-4.6243271
 20
0.0391708105
 30
0.0
 11
-4.68866195
 21
-0.058899365
 31
0.0
  0
LINE
  5
4A0
330
588
100
AcDbEntity
  8
0
 62
     7
100
AcDbLine
 10
-4.68866195
 20
-0.058899365
 30
0.0
 11
-4.73372385
 21
-0.159724225
 31
0.0
  0
LINE
  5
4A1
330
588
100
AcDbEntity
  8
0
 62
     7
100
AcDbLine
 10
-4.73372385
 20
-0.159724225
 30
0.0
 11
-4.759264000000001
 21
-0.247896455
 31
0.0
  0
LINE
  5
4A2
330
588
100
AcDbEntity
  8
0
 62
     7
100
AcDbLine
 10
-4.759264000000001
 20
-0.247896455
 30
0.0
 11
-4.77456435
 21
-0.34433515
 31
0.0
  0
LINE
  5
4A3
330
588
100
AcDbEntity
  8
0
 62
     7
100
AcDbLine
 10
-4.77456435
 20
-0.34433515
 30
0.0
 11
-4.77760545
 21
-0.445652435
 31
0.0
  0
LINE
  5
4A4
330
588
100
AcDbEntity
  8
0
 62
     7
100
AcDbLine
 10
-4.77760545
 20
-0.445652435
 30
0.0
 11
-4.76749
 21
-0.547867
 31
0.0
  0
LINE
  5
4A5
330
588
100
AcDbEntity
  8
0
 62
     7
100
AcDbLine
 10
-4.76749
 20
-0.547867
 30
0.0
 11
-4.74458505
 21
-0.64686935
 31
0.0
  0
LINE
  5
4A6
330
588
100
AcDbEntity
  8
0
 62
     7
100
AcDbLine
 10
-4.74458505
 20
-0.64686935
 30
0.0
 11
-4.71048165
 21
-0.7388881500000001
 31
0.0
  0
LINE
  5
4A7
330
588
100
AcDbEntity
  8
0
 62
     7
100
AcDbLine
 10
-4.71048165
 20
-0.7388881500000001
 30
0.0
 11
-4.66778185
 21
-0.82092265
 31
0.0
  0
LINE
  5
4A8
330
588
100
AcDbEntity
  8
0
 62
     7
100
AcDbLine
 10
-4.66778185
 20
-0.82092265
 30
0.0
 11
-4.60307505
 21
-0.9117484
 31
0.0
  0
LINE
  5
4A9
330
588
100
AcDbEntity
  8
0
 62
     7
100
AcDbLine
 10
-4.60307505
 20
-0.9117484
 30
0.0
 11
-4.51976545
 21
-0.9958251000000001
 31
0.0
  0
LINE
  5
4AA
330
588
100
AcDbEntity
  8
0
 62
     7
100
AcDbLine
 10
-4.51976545
 20
-0.9958251000000001
 30
0.0
 11
-4.35006105
 21
-1.12421015
 31
0.0
  0
LINE
  5
4AB
330
588
100
AcDbEntity
  8
0
 62
     7
100
AcDbLine
 10
-4.35006105
 20
-1.12421015
 30
0.0
 11
-4.2866169
 21
-1.1846841
 31
0.0
  0
LINE
  5
4AC
330
588
100
AcDbEntity
  8
0
 62
     7
100
AcDbLine
 10
-4.2866169
 20
-1.1846841
 30
0.0
 11
-4.2501419
 21
-1.23009245
 31
0.0
  0
LINE
  5
4AD
330
588
100
AcDbEntity
  8
0
 62
     7
100
AcDbLine
 10
-4.2501419
 20
-1.23009245
 30
0.0
 11
-4.21463735
 21
-1.28807775
 31
0.0
  0
LINE
  5
4AE
330
588
100
AcDbEntity
  8
0
 62
     7
100
AcDbLine
 10
-4.21463735
 20
-1.28807775
 30
0.0
 11
-4.1856575
 21
-1.35661155
 31
0.0
  0
LINE
  5
4AF
330
588
100
AcDbEntity
  8
0
 62
     7
100
AcDbLine
 10
-4.1856575
 20
-1.35661155
 30
0.0
 11
-4.16777265
 21
-1.42920915
 31
0.0
  0
LINE
  5
4B0
330
588
100
AcDbEntity
  8
0
 62
     7
100
AcDbLine
 10
-4.16777265
 20
-1.42920915
 30
0.0
 11
-4.16154175
 21
-1.49783365
 31
0.0
  0
LINE
  5
4B1
330
588
100
AcDbEntity
  8
0
 62
     7
100
AcDbLine
 10
-4.16154175
 20
-1.49783365
 30
0.0
 11
-4.1638798
 21
-1.55716915
 31
0.0
  0
LINE
  5
4B2
330
588
100
AcDbEntity
  8
0
 62
     7
100
AcDbLine
 10
-4.1638798
 20
-1.55716915
 30
0.0
 11
-4.17957495
 21
-1.6454592
 31
0.0
  0
LINE
  5
4B3
330
588
100
AcDbEntity
  8
0
 62
     7
100
AcDbLine
 10
-4.17957495
 20
-1.6454592
 30
0.0
 11
-4.2369442
 21
-1.83133315
 31
0.0
  0
LINE
  5
4B4
330
588
100
AcDbEntity
  8
0
 62
     7
100
AcDbLine
 10
-4.2369442
 20
-1.83133315
 30
0.0
 11
-4.2578068
 21
-1.94397085
 31
0.0
  0
LINE
  5
4B5
330
588
100
AcDbEntity
  8
0
 62
     7
100
AcDbLine
 10
-4.2578068
 20
-1.94397085
 30
0.0
 11
-4.2607067
 21
-2.05189685
 31
0.0
  0
LINE
  5
4B6
330
588
100
AcDbEntity
  8
0
 62
     7
100
AcDbLine
 10
-4.2607067
 20
-2.05189685
 30
0.0
 11
-4.25081865
 21
-2.141601
 31
0.0
  0
LINE
  5
4B7
330
588
100
AcDbEntity
  8
0
 62
     7
100
AcDbLine
 10
-4.25081865
 20
-2.141601
 30
0.0
 11
-4.2284809
 21
-2.23549805
 31
0.0
  0
LINE
  5
4B8
330
588
100
AcDbEntity
  8
0
 62
     7
100
AcDbLine
 10
-4.2284809
 20
-2.23549805
 30
0.0
 11
-4.192955
 21
-2.3297613
 31
0.0
  0
LINE
  5
4B9
330
588
100
AcDbEntity
  8
0
 62
     7
100
AcDbLine
 10
-4.192955
 20
-2.3297613
 30
0.0
 11
-4.1447582
 21
-2.4203642
 31
0.0
  0
LINE
  5
4BA
330
588
100
AcDbEntity
  8
0
 62
     7
100
AcDbLine
 10
-4.1447582
 20
-2.4203642
 30
0.0
 11
-4.0856434
 21
-2.50357515
 31
0.0
  0
LINE
  5
4BB
330
588
100
AcDbEntity
  8
0
 62
     7
100
AcDbLine
 10
-4.0856434
 20
-2.50357515
 30
0.0
 11
-4.0184067
 21
-2.5763857
 31
0.0
  0
LINE
  5
4BC
330
588
100
AcDbEntity
  8
0
 62
     7
100
AcDbLine
 10
-4.0184067
 20
-2.5763857
 30
0.0
 11
-3.9465492
 21
-2.6368452
 31
0.0
  0
LINE
  5
4BD
330
588
100
AcDbEntity
  8
0
 62
     7
100
AcDbLine
 10
-3.9465492
 20
-2.6368452
 30
0.0
 11
-3.84996225
 21
-2.6972513
 31
0.0
  0
LINE
  5
4BE
330
588
100
AcDbEntity
  8
0
 62
     7
100
AcDbLine
 10
-3.84996225
 20
-2.6972513
 30
0.0
 11
-3.7378826
 21
-2.7437948
 31
0.0
  0
LINE
  5
4BF
330
588
100
AcDbEntity
  8
0
 62
     7
100
AcDbLine
 10
-3.7378826
 20
-2.7437948
 30
0.0
 11
-3.53849985
 21
-2.79058245
 31
0.0
  0
LINE
  5
4C0
330
588
100
AcDbEntity
  8
0
 62
     7
100
AcDbLine
 10
-3.53849985
 20
-2.79058245
 30
0.0
 11
-3.464862800000001
 21
-2.813216600000001
 31
0.0
  0
LINE
  5
4C1
330
588
100
AcDbEntity
  8
0
 62
     7
100
AcDbLine
 10
-3.464862800000001
 20
-2.813216600000001
 30
0.0
 11
-3.4176079
 21
-2.83350675
 31
0.0
  0
LINE
  5
4C2
330
588
100
AcDbEntity
  8
0
 62
     7
100
AcDbLine
 10
-3.4176079
 20
-2.83350675
 30
0.0
 11
-3.3639374
 21
-2.8638586
 31
0.0
  0
LINE
  5
4C3
330
588
100
AcDbEntity
  8
0
 62
     7
100
AcDbLine
 10
-3.3639374
 20
-2.8638586
 30
0.0
 11
-3.30769615
 21
-2.9066433
 31
0.0
  0
LINE
  5
4C4
330
588
100
AcDbEntity
  8
0
 62
     7
100
AcDbLine
 10
-3.30769615
 20
-2.9066433
 30
0.0
 11
-3.255492
 21
-2.9608799
 31
0.0
  0
LINE
  5
4C5
330
588
100
AcDbEntity
  8
0
 62
     7
100
AcDbLine
 10
-3.255492
 20
-2.9608799
 30
0.0
 11
-3.213525
 21
-3.02112215
 31
0.0
  0
LINE
  5
4C6
330
588
100
AcDbEntity
  8
0
 62
     7
100
AcDbLine
 10
-3.213525
 20
-3.02112215
 30
0.0
 11
-3.1840412
 21
-3.08014105
 31
0.0
  0
LINE
  5
4C7
330
588
100
AcDbEntity
  8
0
 62
     7
100
AcDbLine
 10
-3.1840412
 20
-3.08014105
 30
0.0
 11
-3.16526795
 21
-3.13284895
 31
0.0
  0
LINE
  5
4C8
330
588
100
AcDbEntity
  8
0
 62
     7
100
AcDbLine
 10
-3.16526795
 20
-3.13284895
 30
0.0
 11
-3.1470331
 21
-3.2148987
 31
0.0
  0
LINE
  5
4C9
330
588
100
AcDbEntity
  8
0
 62
     7
100
AcDbLine
 10
-3.1470331
 20
-3.2148987
 30
0.0
 11
-3.1246151
 21
-3.4033062
 31
0.0
  0
LINE
  5
4CA
330
588
100
AcDbEntity
  8
0
 62
     7
100
AcDbLine
 10
-3.1246151
 20
-3.4033062
 30
0.0
 11
-3.0963516
 21
-3.5157051
 31
0.0
  0
LINE
  5
4CB
330
588
100
AcDbEntity
  8
0
 62
     7
100
AcDbLine
 10
-3.0963516
 20
-3.5157051
 30
0.0
 11
-3.0533539
 21
-3.61609
 31
0.0
  0
LINE
  5
4CC
330
588
100
AcDbEntity
  8
0
 62
     7
100
AcDbLine
 10
-3.0533539
 20
-3.61609
 30
0.0
 11
-3.00637855
 21
-3.69406585
 31
0.0
  0
LINE
  5
4CD
330
588
100
AcDbEntity
  8
0
 62
     7
100
AcDbLine
 10
-3.00637855
 20
-3.69406585
 30
0.0
 11
-2.9463583
 21
-3.7703865
 31
0.0
  0
LINE
  5
4CE
330
588
100
AcDbEntity
  8
0
 62
     7
100
AcDbLine
 10
-2.9463583
 20
-3.7703865
 30
0.0
 11
-2.87431755
 21
-3.841267
 31
0.0
  0
LINE
  5
4CF
330
588
100
AcDbEntity
  8
0
 62
     7
100
AcDbLine
 10
-2.87431755
 20
-3.841267
 30
0.0
 11
-2.7924925
 21
-3.90330505
 31
0.0
  0
LINE
  5
4D0
330
588
100
AcDbEntity
  8
0
 62
     7
100
AcDbLine
 10
-2.7924925
 20
-3.90330505
 30
0.0
 11
-2.7040945
 21
-3.95391235
 31
0.0
  0
LINE
  5
4D1
330
588
100
AcDbEntity
  8
0
 62
     7
100
AcDbLine
 10
-2.7040945
 20
-3.95391235
 30
0.0
 11
-2.6129488
 21
-3.99161225
 31
0.0
  0
LINE
  5
4D2
330
588
100
AcDbEntity
  8
0
 62
     7
100
AcDbLine
 10
-2.6129488
 20
-3.99161225
 30
0.0
 11
-2.5230406
 21
-4.01618845
 31
0.0
  0
LINE
  5
4D3
330
588
100
AcDbEntity
  8
0
 62
     7
100
AcDbLine
 10
-2.5230406
 20
-4.01618845
 30
0.0
 11
-2.41122015
 21
-4.0304634
 31
0.0
  0
LINE
  5
4D4
330
588
100
AcDbEntity
  8
0
 62
     7
100
AcDbLine
 10
-2.41122015
 20
-4.0304634
 30
0.0
 11
-2.29145335
 21
-4.026076150000001
 31
0.0
  0
LINE
  5
4D5
330
588
100
AcDbEntity
  8
0
 62
     7
100
AcDbLine
 10
-2.29145335
 20
-4.026076150000001
 30
0.0
 11
-2.08677065
 21
-3.98673975
 31
0.0
  0
LINE
  5
4D6
330
588
100
AcDbEntity
  8
0
 62
     7
100
AcDbLine
 10
-2.08677065
 20
-3.98673975
 30
0.0
 11
-2.0050459
 21
-3.978554900000001
 31
0.0
  0
LINE
  5
4D7
330
588
100
AcDbEntity
  8
0
 62
     7
100
AcDbLine
 10
-2.0050459
 20
-3.978554900000001
 30
0.0
 11
-1.9502516
 21
-3.97964705
 31
0.0
  0
LINE
  5
4D8
330
588
100
AcDbEntity
  8
0
 62
     7
100
AcDbLine
 10
-1.9502516
 20
-3.97964705
 30
0.0
 11
-1.8859247
 21
-3.9886013
 31
0.0
  0
LINE
  5
4D9
330
588
100
AcDbEntity
  8
0
 62
     7
100
AcDbLine
 10
-1.8859247
 20
-3.9886013
 30
0.0
 11
-1.8159477
 21
-4.00883025
 31
0.0
  0
LINE
  5
4DA
330
588
100
AcDbEntity
  8
0
 62
     7
100
AcDbLine
 10
-1.8159477
 20
-4.00883025
 30
0.0
 11
-1.7476858
 21
-4.04085505
 31
0.0
  0
LINE
  5
4DB
330
588
100
AcDbEntity
  8
0
 62
     7
100
AcDbLine
 10
-1.7476858
 20
-4.04085505
 30
0.0
 11
-1.6884899
 21
-4.0808304
 31
0.0
  0
LINE
  5
4DC
330
588
100
AcDbEntity
  8
0
 62
     7
100
AcDbLine
 10
-1.6884899
 20
-4.0808304
 30
0.0
 11
-1.64180795
 21
-4.12277565
 31
0.0
  0
LINE
  5
4DD
330
588
100
AcDbEntity
  8
0
 62
     7
100
AcDbLine
 10
-1.64180795
 20
-4.12277565
 30
0.0
 11
-1.5809905
 21
-4.19662705
 31
0.0
  0
LINE
  5
4DE
330
588
100
AcDbEntity
  8
0
 62
     7
100
AcDbLine
 10
-1.5809905
 20
-4.19662705
 30
0.0
 11
-1.46624935
 21
-4.3858921
 31
0.0
  0
LINE
  5
4DF
330
588
100
AcDbEntity
  8
0
 62
     7
100
AcDbLine
 10
-1.46624935
 20
-4.3858921
 30
0.0
 11
-1.39285955
 21
-4.4773834
 31
0.0
  0
LINE
  5
4E0
330
588
100
AcDbEntity
  8
0
 62
     7
100
AcDbLine
 10
-1.39285955
 20
-4.4773834
 30
0.0
 11
-1.3108943
 21
-4.5513962
 31
0.0
  0
LINE
  5
4E1
330
588
100
AcDbEntity
  8
0
 62
     7
100
AcDbLine
 10
-1.3108943
 20
-4.5513962
 30
0.0
 11
-1.23492995
 21
-4.6029331
 31
0.0
  0
LINE
  5
4E2
330
588
100
AcDbEntity
  8
0
 62
     7
100
AcDbLine
 10
-1.23492995
 20
-4.6029331
 30
0.0
 11
-1.1479394
 21
-4.6472862
 31
0.0
  0
LINE
  5
4E3
330
588
100
AcDbEntity
  8
0
 62
     7
100
AcDbLine
 10
-1.1479394
 20
-4.6472862
 30
0.0
 11
-1.05252055
 21
-4.6814869
 31
0.0
  0
LINE
  5
4E4
330
588
100
AcDbEntity
  8
0
 62
     7
100
AcDbLine
 10
-1.05252055
 20
-4.6814869
 30
0.0
 11
-0.9521829500000001
 21
-4.7034527
 31
0.0
  0
LINE
  5
4E5
330
588
100
AcDbEntity
  8
0
 62
     7
100
AcDbLine
 10
-0.9521829500000001
 20
-4.7034527
 30
0.0
 11
-0.85094815
 21
-4.71226195
 31
0.0
  0
LINE
  5
4E6
330
588
100
AcDbEntity
  8
0
 62
     7
100
AcDbLine
 10
-0.85094815
 20
-4.71226195
 30
0.0
 11
-0.75289445
 21
-4.7082634
 31
0.0
  0
LINE
  5
4E7
330
588
100
AcDbEntity
  8
0
 62
     7
100
AcDbLine
 10
-0.75289445
 20
-4.7082634
 30
0.0
 11
-0.6616801
 21
-4.69300345
 31
0.0
  0
LINE
  5
4E8
330
588
100
AcDbEntity
  8
0
 62
     7
100
AcDbLine
 10
-0.6616801
 20
-4.69300345
 30
0.0
 11
-0.55530415
 21
-4.65953025
 31
0.0
  0
LINE
  5
4E9
330
588
100
AcDbEntity
  8
0
 62
     7
100
AcDbLine
 10
-0.55530415
 20
-4.65953025
 30
0.0
 11
-0.4495984100000001
 21
-4.60627935
 31
0.0
  0
LINE
  5
4EA
330
588
100
AcDbEntity
  8
0
 62
     7
100
AcDbLine
 10
-0.4495984100000001
 20
-4.60627935
 30
0.0
 11
-0.27505543
 21
-4.484553900000001
 31
0.0
  0
LINE
  5
4EB
330
588
100
AcDbEntity
  8
0
 62
     7
100
AcDbLine
 10
-0.27505543
 20
-4.484553900000001
 30
0.0
 11
-0.197935865
 21
-4.44290235
 31
0.0
  0
LINE
  5
4EC
330
588
100
AcDbEntity
  8
0
 62
     7
100
AcDbLine
 10
-0.197935865
 20
-4.44290235
 30
0.0
 11
-0.143478725
 21
-4.42224465
 31
0.0
  0
LINE
  5
4ED
330
588
100
AcDbEntity
  8
0
 62
     7
100
AcDbLine
 10
-0.143478725
 20
-4.42224465
 30
0.0
 11
-0.077359865
 21
-4.4063965
 31
0.0
  0
LINE
  5
4EE
330
588
100
AcDbEntity
  8
0
 62
     7
100
AcDbLine
 10
-0.077359865
 20
-4.4063965
 30
0.0
 11
-0.00322514215
 21
-4.40001295
 31
0.0
  0
LINE
  5
4EF
330
588
100
AcDbEntity
  8
0
 62
     7
100
AcDbLine
 10
-0.00322514215
 20
-4.40001295
 30
0.0
 11
0.07134611
 21
-4.4054371
 31
0.0
  0
LINE
  5
4F0
330
588
100
AcDbEntity
  8
0
 62
     7
100
AcDbLine
 10
0.07134611
 20
-4.4054371
 30
0.0
 11
0.13853737
 21
-4.42071725
 31
0.0
  0
LINE
  5
4F1
330
588
100
AcDbEntity
  8
0
 62
     7
100
AcDbLine
 10
0.13853737
 20
-4.42071725
 30
0.0
 11
0.19424621
 21
-4.441276950000001
 31
0.0
  0
LINE
  5
4F2
330
588
100
AcDbEntity
  8
0
 62
     7
100
AcDbLine
 10
0.19424621
 20
-4.441276950000001
 30
0.0
 11
0.27336488
 21
-4.483486950000001
 31
0.0
  0
LINE
  5
4F3
330
588
100
AcDbEntity
  8
0
 62
     7
100
AcDbLine
 10
0.27336488
 20
-4.483486950000001
 30
0.0
 11
0.43241358
 21
-4.59548645
 31
0.0
  0
LINE
  5
4F4
330
588
100
AcDbEntity
  8
0
 62
     7
100
AcDbLine
 10
0.43241358
 20
-4.59548645
 30
0.0
 11
0.53309155
 21
-4.65013505
 31
0.0
  0
LINE
  5
4F5
330
588
100
AcDbEntity
  8
0
 62
     7
100
AcDbLine
 10
0.53309155
 20
-4.65013505
 30
0.0
 11
0.6348391000000001
 21
-4.6862442
 31
0.0
  0
LINE
  5
4F6
330
588
100
AcDbEntity
  8
0
 62
     7
100
AcDbLine
 10
0.6348391000000001
 20
-4.6862442
 30
0.0
 11
0.72320845
 21
-4.7045597
 31
0.0
  0
LINE
  5
4F7
330
588
100
AcDbEntity
  8
0
 62
     7
100
AcDbLine
 10
0.72320845
 20
-4.7045597
 30
0.0
 11
0.8194126000000002
 21
-4.7123314
 31
0.0
  0
LINE
  5
4F8
330
588
100
AcDbEntity
  8
0
 62
     7
100
AcDbLine
 10
0.8194126000000002
 20
-4.7123314
 30
0.0
 11
0.9200404000000001
 21
-4.7076729
 31
0.0
  0
LINE
  5
4F9
330
588
100
AcDbEntity
  8
0
 62
     7
100
AcDbLine
 10
0.9200404000000001
 20
-4.7076729
 30
0.0
 11
1.02110245
 21
-4.68983305
 31
0.0
  0
LINE
  5
4FA
330
588
100
AcDbEntity
  8
0
 62
     7
100
AcDbLine
 10
1.02110245
 20
-4.68983305
 30
0.0
 11
1.11850815
 21
-4.659325050000001
 31
0.0
  0
LINE
  5
4FB
330
588
100
AcDbEntity
  8
0
 62
     7
100
AcDbLine
 10
1.11850815
 20
-4.659325050000001
 30
0.0
 11
1.20853245
 21
-4.6178787
 31
0.0
  0
LINE
  5
4FC
330
588
100
AcDbEntity
  8
0
 62
     7
100
AcDbLine
 10
1.20853245
 20
-4.6178787
 30
0.0
 11
1.28823795
 21
-4.568221650000001
 31
0.0
  0
LINE
  5
4FD
330
588
100
AcDbEntity
  8
0
 62
     7
100
AcDbLine
 10
1.28823795
 20
-4.568221650000001
 30
0.0
 11
1.37553465
 21
-4.4950283
 31
0.0
  0
LINE
  5
4FE
330
588
100
AcDbEntity
  8
0
 62
     7
100
AcDbLine
 10
1.37553465
 20
-4.4950283
 30
0.0
 11
1.45443485
 21
-4.40281675
 31
0.0
  0
LINE
  5
4FF
330
588
100
AcDbEntity
  8
0
 62
     7
100
AcDbLine
 10
1.45443485
 20
-4.40281675
 30
0.0
 11
1.56054515
 21
-4.227650450000001
 31
0.0
  0
LINE
  5
500
330
588
100
AcDbEntity
  8
0
 62
     7
100
AcDbLine
 10
1.56054515
 20
-4.227650450000001
 30
0.0
 11
1.60482655
 21
-4.1646122
 31
0.0
  0
LINE
  5
501
330
588
100
AcDbEntity
  8
0
 62
     7
100
AcDbLine
 10
1.60482655
 20
-4.1646122
 30
0.0
 11
1.63872625
 21
-4.12593995
 31
0.0
  0
LINE
  5
502
330
588
100
AcDbEntity
  8
0
 62
     7
100
AcDbLine
 10
1.63872625
 20
-4.12593995
 30
0.0
 11
1.6841776
 21
-4.0842758
 31
0.0
  0
LINE
  5
503
330
588
100
AcDbEntity
  8
0
 62
     7
100
AcDbLine
 10
1.6841776
 20
-4.0842758
 30
0.0
 11
1.74224775
 21
-4.04400825
 31
0.0
  0
LINE
  5
504
330
588
100
AcDbEntity
  8
0
 62
     7
100
AcDbLine
 10
1.74224775
 20
-4.04400825
 30
0.0
 11
1.8099617
 21
-4.0111191
 31
0.0
  0
LINE
  5
505
330
588
100
AcDbEntity
  8
0
 62
     7
100
AcDbLine
 10
1.8099617
 20
-4.0111191
 30
0.0
 11
1.88022405
 21
-3.989822
 31
0.0
  0
LINE
  5
506
330
588
100
AcDbEntity
  8
0
 62
     7
100
AcDbLine
 10
1.88022405
 20
-3.989822
 30
0.0
 11
1.9454653
 21
-3.980019
 31
0.0
  0
LINE
  5
507
330
588
100
AcDbEntity
  8
0
 62
     7
100
AcDbLine
 10
1.9454653
 20
-3.980019
 30
0.0
 11
2.00139485
 21
-3.9784523
 31
0.0
  0
LINE
  5
508
330
588
100
AcDbEntity
  8
0
 62
     7
100
AcDbLine
 10
2.00139485
 20
-3.9784523
 30
0.0
 11
2.08506375
 21
-3.9864647
 31
0.0
  0
LINE
  5
509
330
588
100
AcDbEntity
  8
0
 62
     7
100
AcDbLine
 10
2.08506375
 20
-3.9864647
 30
0.0
 11
2.2711775
 21
-4.023365
 31
0.0
  0
LINE
  5
50A
330
588
100
AcDbEntity
  8
0
 62
     7
100
AcDbLine
 10
2.2711775
 20
-4.023365
 30
0.0
 11
2.3868088
 21
-4.03121795
 31
0.0
  0
LINE
  5
50B
330
588
100
AcDbEntity
  8
0
 62
     7
100
AcDbLine
 10
2.3868088
 20
-4.03121795
 30
0.0
 11
2.4955679
 21
-4.021345500000001
 31
0.0
  0
LINE
  5
50C
330
588
100
AcDbEntity
  8
0
 62
     7
100
AcDbLine
 10
2.4955679
 20
-4.021345500000001
 30
0.0
 11
2.5842432
 21
-4.00076485
 31
0.0
  0
LINE
  5
50D
330
588
100
AcDbEntity
  8
0
 62
     7
100
AcDbLine
 10
2.5842432
 20
-4.00076485
 30
0.0
 11
2.67537595
 21
-3.96726685
 31
0.0
  0
LINE
  5
50E
330
588
100
AcDbEntity
  8
0
 62
     7
100
AcDbLine
 10
2.67537595
 20
-3.96726685
 30
0.0
 11
2.765049
 21
-3.92065505
 31
0.0
  0
LINE
  5
50F
330
588
100
AcDbEntity
  8
0
 62
     7
100
AcDbLine
 10
2.765049
 20
-3.92065505
 30
0.0
 11
2.84933605
 21
-3.8620056
 31
0.0
  0
LINE
  5
510
330
588
100
AcDbEntity
  8
0
 62
     7
100
AcDbLine
 10
2.84933605
 20
-3.8620056
 30
0.0
 11
2.92478315
 21
-3.793572600000001
 31
0.0
  0
LINE
  5
511
330
588
100
AcDbEntity
  8
0
 62
     7
100
AcDbLine
 10
2.92478315
 20
-3.793572600000001
 30
0.0
 11
2.9888033
 21
-3.7185379
 31
0.0
  0
LINE
  5
512
330
588
100
AcDbEntity
  8
0
 62
     7
100
AcDbLine
 10
2.9888033
 20
-3.7185379
 30
0.0
 11
3.0399599
 21
-3.640624600000001
 31
0.0
  0
LINE
  5
513
330
588
100
AcDbEntity
  8
0
 62
     7
100
AcDbLine
 10
3.0399599
 20
-3.640624600000001
 30
0.0
 11
3.0880905
 21
-3.5386883
 31
0.0
  0
LINE
  5
514
330
588
100
AcDbEntity
  8
0
 62
     7
100
AcDbLine
 10
3.0880905
 20
-3.5386883
 30
0.0
 11
3.1209278
 21
-3.4234276
 31
0.0
  0
LINE
  5
515
330
588
100
AcDbEntity
  8
0
 62
     7
100
AcDbLine
 10
3.1209278
 20
-3.4234276
 30
0.0
 11
3.14676725
 21
-3.2166069
 31
0.0
  0
LINE
  5
516
330
588
100
AcDbEntity
  8
0
 62
     7
100
AcDbLine
 10
3.14676725
 20
-3.2166069
 30
0.0
 11
3.164237200000001
 21
-3.1363531
 31
0.0
  0
LINE
  5
517
330
588
100
AcDbEntity
  8
0
 62
     7
100
AcDbLine
 10
3.164237200000001
 20
-3.1363531
 30
0.0
 11
3.18220845
 21
-3.08457795
 31
0.0
  0
LINE
  5
518
330
588
100
AcDbEntity
  8
0
 62
     7
100
AcDbLine
 10
3.18220845
 20
-3.08457795
 30
0.0
 11
3.2106022
 21
-3.02616655
 31
0.0
  0
LINE
  5
519
330
588
100
AcDbEntity
  8
0
 62
     7
100
AcDbLine
 10
3.2106022
 20
-3.02616655
 30
0.0
 11
3.25146525
 21
-2.9658655
 31
0.0
  0
LINE
  5
51A
330
588
100
AcDbEntity
  8
0
 62
     7
100
AcDbLine
 10
3.25146525
 20
-2.9658655
 30
0.0
 11
3.30301665
 21
-2.910841
 31
0.0
  0
LINE
  5
51B
330
588
100
AcDbEntity
  8
0
 62
     7
100
AcDbLine
 10
3.30301665
 20
-2.910841
 30
0.0
 11
3.35932845
 21
-2.8668953
 31
0.0
  0
LINE
  5
51C
330
588
100
AcDbEntity
  8
0
 62
     7
100
AcDbLine
 10
3.35932845
 20
-2.8668953
 30
0.0
 11
3.41364595
 21
-2.8354599
 31
0.0
  0
LINE
  5
51D
330
588
100
AcDbEntity
  8
0
 62
     7
100
AcDbLine
 10
3.41364595
 20
-2.8354599
 30
0.0
 11
3.5026764
 21
-2.8004404
 31
0.0
  0
LINE
  5
51E
330
588
100
AcDbEntity
  8
0
 62
     7
100
AcDbLine
 10
3.5026764
 20
-2.8004404
 30
0.0
 11
3.71813505
 21
-2.74980125
 31
0.0
  0
LINE
  5
51F
330
588
100
AcDbEntity
  8
0
 62
     7
100
AcDbLine
 10
3.71813505
 20
-2.74980125
 30
0.0
 11
3.82782705
 21
-2.7082756
 31
0.0
  0
LINE
  5
520
330
588
100
AcDbEntity
  8
0
 62
     7
100
AcDbLine
 10
3.82782705
 20
-2.7082756
 30
0.0
 11
3.9235466
 21
-2.6531933
 31
0.0
  0
LINE
  5
521
330
588
100
AcDbEntity
  8
0
 62
     7
100
AcDbLine
 10
3.9235466
 20
-2.6531933
 30
0.0
 11
3.9960354
 21
-2.5968727
 31
0.0
  0
LINE
  5
522
330
588
100
AcDbEntity
  8
0
 62
     7
100
AcDbLine
 10
3.9960354
 20
-2.5968727
 30
0.0
 11
4.06509895
 21
-2.52784555
 31
0.0
  0
LINE
  5
523
330
588
100
AcDbEntity
  8
0
 62
     7
100
AcDbLine
 10
4.06509895
 20
-2.52784555
 30
0.0
 11
4.127111800000001
 21
-2.4476656
 31
0.0
  0
LINE
  5
524
330
588
100
AcDbEntity
  8
0
 62
     7
100
AcDbLine
 10
4.127111800000001
 20
-2.4476656
 30
0.0
 11
4.1790085
 21
-2.35902655
 31
0.0
  0
LINE
  5
525
330
588
100
AcDbEntity
  8
0
 62
     7
100
AcDbLine
 10
4.1790085
 20
-2.35902655
 30
0.0
 11
4.218670250000001
 21
-2.2654688
 31
0.0
  0
LINE
  5
526
330
588
100
AcDbEntity
  8
0
 62
     7
100
AcDbLine
 10
4.218670250000001
 20
-2.2654688
 30
0.0
 11
4.24516715
 21
-2.17097855
 31
0.0
  0
LINE
  5
527
330
588
100
AcDbEntity
  8
0
 62
     7
100
AcDbLine
 10
4.24516715
 20
-2.17097855
 30
0.0
 11
4.2588413
 21
-2.079513
 31
0.0
  0
LINE
  5
528
330
588
100
AcDbEntity
  8
0
 62
     7
100
AcDbLine
 10
4.2588413
 20
-2.079513
 30
0.0
 11
4.25987815
 21
-1.96799965
 31
0.0
  0
LINE
  5
529
330
588
100
AcDbEntity
  8
0
 62
     7
100
AcDbLine
 10
4.25987815
 20
-1.96799965
 30
0.0
 11
4.24189835
 21
-1.85101205
 31
0.0
  0
LINE
  5
52A
330
588
100
AcDbEntity
  8
0
 62
     7
100
AcDbLine
 10
4.24189835
 20
-1.85101205
 30
0.0
 11
4.18006745
 21
-1.64739665
 31
0.0
  0
LINE
  5
52B
330
588
100
AcDbEntity
  8
0
 62
     7
100
AcDbLine
 10
4.18006745
 20
-1.64739665
 30
0.0
 11
4.16428565
 21
-1.5611805
 31
0.0
  0
LINE
  5
52C
330
588
100
AcDbEntity
  8
0
 62
     7
100
AcDbLine
 10
4.16428565
 20
-1.5611805
 30
0.0
 11
4.161467350000001
 21
-1.5030051
 31
0.0
  0
LINE
  5
52D
330
588
100
AcDbEntity
  8
0
 62
     7
100
AcDbLine
 10
4.161467350000001
 20
-1.5030051
 30
0.0
 11
4.16682665
 21
-1.435225
 31
0.0
  0
LINE
  5
52E
330
588
100
AcDbEntity
  8
0
 62
     7
100
AcDbLine
 10
4.16682665
 20
-1.435225
 30
0.0
 11
4.1836643
 21
-1.36274605
 31
0.0
  0
LINE
  5
52F
330
588
100
AcDbEntity
  8
0
 62
     7
100
AcDbLine
 10
4.1836643
 20
-1.36274605
 30
0.0
 11
4.21186675
 21
-1.2935007
 31
0.0
  0
LINE
  5
530
330
588
100
AcDbEntity
  8
0
 62
     7
100
AcDbLine
 10
4.21186675
 20
-1.2935007
 30
0.0
 11
4.24716265
 21
-1.23431995
 31
0.0
  0
LINE
  5
531
330
588
100
AcDbEntity
  8
0
 62
     7
100
AcDbLine
 10
4.24716265
 20
-1.23431995
 30
0.0
 11
4.283930600000001
 21
-1.18769095
 31
0.0
  0
LINE
  5
532
330
588
100
AcDbEntity
  8
0
 62
     7
100
AcDbLine
 10
4.283930600000001
 20
-1.18769095
 30
0.0
 11
4.3485237
 21
-1.1254882
 31
0.0
  0
LINE
  5
533
330
588
100
AcDbEntity
  8
0
 62
     7
100
AcDbLine
 10
4.3485237
 20
-1.1254882
 30
0.0
 11
4.50419045
 21
-1.0088336
 31
0.0
  0
LINE
  5
534
330
588
100
AcDbEntity
  8
0
 62
     7
100
AcDbLine
 10
4.50419045
 20
-1.0088336
 30
0.0
 11
4.587275300000001
 21
-0.9299705500000001
 31
0.0
  0
LINE
  5
535
330
588
100
AcDbEntity
  8
0
 62
     7
100
AcDbLine
 10
4.587275300000001
 20
-0.9299705500000001
 30
0.0
 11
4.653059
 21
-0.8443612
 31
0.0
  0
LINE
  5
536
330
588
100
AcDbEntity
  8
0
 62
     7
100
AcDbLine
 10
4.653059
 20
-0.8443612
 30
0.0
 11
4.69778595
 21
-0.76597685
 31
0.0
  0
LINE
  5
537
330
588
100
AcDbEntity
  8
0
 62
     7
100
AcDbLine
 10
4.69778595
 20
-0.76597685
 30
0.0
 11
4.734906000000001
 21
-0.6768828
 31
0.0
  0
LINE
  5
538
330
588
100
AcDbEntity
  8
0
 62
     7
100
AcDbLine
 10
4.734906000000001
 20
-0.6768828
 30
0.0
 11
4.7615711
 21
-0.57974055
 31
0.0
  0
LINE
  5
539
330
588
100
AcDbEntity
  8
0
 62
     7
100
AcDbLine
 10
4.7615711
 20
-0.57974055
 30
0.0
 11
4.77583425
 21
-0.47811198
 31
0.0
  0
LINE
  5
53A
330
588
100
AcDbEntity
  8
0
 62
     7
100
AcDbLine
 10
4.77583425
 20
-0.47811198
 30
0.0
 11
4.776919550000001
 21
-0.376046155
 31
0.0
  0
LINE
  5
53B
330
588
100
AcDbEntity
  8
0
 62
     7
100
AcDbLine
 10
4.776919550000001
 20
-0.376046155
 30
0.0
 11
4.76532095
 21
-0.277620385
 31
0.0
  0
LINE
  5
53C
330
588
100
AcDbEntity
  8
0
 62
     7
100
AcDbLine
 10
4.76532095
 20
-0.277620385
 30
0.0
 11
4.74272425
 21
-0.186471035
 31
0.0
  0
LINE
  5
53D
330
588
100
AcDbEntity
  8
0
 62
     7
100
AcDbLine
 10
4.74272425
 20
-0.186471035
 30
0.0
 11
4.70008925
 21
-0.080828935
 31
0.0
  0
LINE
  5
53E
330
588
100
AcDbEntity
  8
0
 62
     7
100
AcDbLine
 10
4.70008925
 20
-0.080828935
 30
0.0
 11
4.63677255
 21
0.0227045285
 31
0.0
  0
LINE
  5
53F
330
588
100
AcDbEntity
  8
0
 62
     7
100
AcDbLine
 10
4.63677255
 20
0.0227045285
 30
0.0
 11
4.50296975
 21
0.177750705
 31
0.0
  0
LINE
  5
540
330
588
100
AcDbEntity
  8
0
 62
     7
100
AcDbLine
 10
4.50296975
 20
0.177750705
 30
0.0
 11
4.456700150000001
 21
0.239344715
 31
0.0
  0
LINE
  5
541
330
588
100
AcDbEntity
  8
0
 62
     7
100
AcDbLine
 10
4.456700150000001
 20
0.239344715
 30
0.0
 11
4.43039625
 21
0.28353567
 31
0.0
  0
LINE
  5
542
330
588
100
AcDbEntity
  8
0
 62
     7
100
AcDbLine
 10
4.43039625
 20
0.28353567
 30
0.0
 11
4.40481645
 21
0.339637495
 31
0.0
  0
LINE
  5
543
330
588
100
AcDbEntity
  8
0
 62
     7
100
AcDbLine
 10
4.40481645
 20
0.339637495
 30
0.0
 11
4.384464650000001
 21
0.407308815
 31
0.0
  0
LINE
  5
544
330
588
100
AcDbEntity
  8
0
 62
     7
100
AcDbLine
 10
4.384464650000001
 20
0.407308815
 30
0.0
 11
4.374110050000001
 21
0.48187194
 31
0.0
  0
LINE
  5
545
330
588
100
AcDbEntity
  8
0
 62
     7
100
AcDbLine
 10
4.374110050000001
 20
0.48187194
 30
0.0
 11
4.37556765
 21
0.55527645
 31
0.0
  0
LINE
  5
546
330
588
100
AcDbEntity
  8
0
 62
     7
100
AcDbLine
 10
4.37556765
 20
0.55527645
 30
0.0
 11
4.3864048
 21
0.6203540000000001
 31
0.0
  0
LINE
  5
547
330
588
100
AcDbEntity
  8
0
 62
     7
100
AcDbLine
 10
4.3864048
 20
0.6203540000000001
 30
0.0
 11
4.40219805
 21
0.6740303000000001
 31
0.0
  0
LINE
  5
548
330
588
100
AcDbEntity
  8
0
 62
     7
100
AcDbLine
 10
4.40219805
 20
0.6740303000000001
 30
0.0
 11
4.4356735
 21
0.75112805
 31
0.0
  0
LINE
  5
549
330
588
100
AcDbEntity
  8
0
 62
     7
100
AcDbLine
 10
4.4356735
 20
0.75112805
 30
0.0
 11
4.5282799
 21
0.9167299999999999
 31
0.0
  0
LINE
  5
54A
330
588
100
AcDbEntity
  8
0
 62
     7
100
AcDbLine
 10
4.5282799
 20
0.9167299999999999
 30
0.0
 11
4.57148055
 21
1.0242752
 31
0.0
  0
LINE
  5
54B
330
588
100
AcDbEntity
  8
0
 62
     7
100
AcDbLine
 10
4.57148055
 20
1.0242752
 30
0.0
 11
4.5956997
 21
1.1307619
 31
0.0
  0
LINE
  5
54C
330
588
100
AcDbEntity
  8
0
 62
     7
100
AcDbLine
 10
4.5956997
 20
1.1307619
 30
0.0
 11
4.6035286
 21
1.221457
 31
0.0
  0
LINE
  5
54D
330
588
100
AcDbEntity
  8
0
 62
     7
100
AcDbLine
 10
4.6035286
 20
1.221457
 30
0.0
 11
4.5998314
 21
1.3184808
 31
0.0
  0
LINE
  5
54E
330
588
100
AcDbEntity
  8
0
 62
     7
100
AcDbLine
 10
4.5998314
 20
1.3184808
 30
0.0
 11
4.5832119
 21
1.41816875
 31
0.0
  0
LINE
  5
54F
330
588
100
AcDbEntity
  8
0
 62
     7
100
AcDbLine
 10
4.5832119
 20
1.41816875
 30
0.0
 11
4.553479
 21
1.5164542
 31
0.0
  0
LINE
  5
550
330
588
100
AcDbEntity
  8
0
 62
     7
100
AcDbLine
 10
4.553479
 20
1.5164542
 30
0.0
 11
4.51171
 21
1.60935555
 31
0.0
  0
LINE
  5
551
330
588
100
AcDbEntity
  8
0
 62
     7
100
AcDbLine
 10
4.51171
 20
1.60935555
 30
0.0
 11
4.4601307
 21
1.69342955
 31
0.0
  0
LINE
  5
552
330
588
100
AcDbEntity
  8
0
 62
     7
100
AcDbLine
 10
4.4601307
 20
1.69342955
 30
0.0
 11
4.40183905
 21
1.7661587
 31
0.0
  0
LINE
  5
553
330
588
100
AcDbEntity
  8
0
 62
     7
100
AcDbLine
 10
4.40183905
 20
1.7661587
 30
0.0
 11
4.319765100000001
 21
1.84343375
 31
0.0
  0
LINE
  5
554
330
588
100
AcDbEntity
  8
0
 62
     7
100
AcDbLine
 10
4.319765100000001
 20
1.84343375
 30
0.0
 11
4.22029265
 21
1.91028135
 31
0.0
  0
LINE
  5
555
330
588
100
AcDbEntity
  8
0
 62
     7
100
AcDbLine
 10
4.22029265
 20
1.91028135
 30
0.0
 11
4.0315796
 21
1.9987671
 31
0.0
  0
LINE
  5
556
330
588
100
AcDbEntity
  8
0
 62
     7
100
AcDbLine
 10
4.0315796
 20
1.9987671
 30
0.0
 11
3.96065215
 21
2.0401819
 31
0.0
  0
LINE
  5
557
330
588
100
AcDbEntity
  8
0
 62
     7
100
AcDbLine
 10
3.96065215
 20
2.0401819
 30
0.0
 11
3.91696435
 21
2.0732731
 31
0.0
  0
LINE
  5
558
330
588
100
AcDbEntity
  8
0
 62
     7
100
AcDbLine
 10
3.91696435
 20
2.0732731
 30
0.0
 11
3.87018625
 21
2.11832735
 31
0.0
  0
LINE
  5
559
330
588
100
AcDbEntity
  8
0
 62
     7
100
AcDbLine
 10
3.87018625
 20
2.11832735
 30
0.0
 11
3.82546385
 21
2.17582455
 31
0.0
  0
LINE
  5
55A
330
588
100
AcDbEntity
  8
0
 62
     7
100
AcDbLine
 10
3.82546385
 20
2.17582455
 30
0.0
 11
3.7890625
 21
2.2418564
 31
0.0
  0
LINE
  5
55B
330
588
100
AcDbEntity
  8
0
 62
     7
100
AcDbLine
 10
3.7890625
 20
2.2418564
 30
0.0
 11
3.76466905
 21
2.3089918
 31
0.0
  0
LINE
  5
55C
330
588
100
AcDbEntity
  8
0
 62
     7
100
AcDbLine
 10
3.76466905
 20
2.3089918
 30
0.0
 11
3.75155715
 21
2.37036495
 31
0.0
  0
LINE
  5
55D
330
588
100
AcDbEntity
  8
0
 62
     7
100
AcDbLine
 10
3.75155715
 20
2.37036495
 30
0.0
 11
3.745763800000001
 21
2.4658596
 31
0.0
  0
LINE
  5
55E
330
588
100
AcDbEntity
  8
0
 62
     7
100
AcDbLine
 10
3.745763800000001
 20
2.4658596
 30
0.0
 11
3.76418345
 21
2.6864214
 31
0.0
  0
LINE
  5
55F
330
588
100
AcDbEntity
  8
0
 62
     7
100
AcDbLine
 10
3.76418345
 20
2.6864214
 30
0.0
 11
3.758586900000001
 21
2.80357685
 31
0.0
  0
LINE
  5
560
330
588
100
AcDbEntity
  8
0
 62
     7
100
AcDbLine
 10
3.758586900000001
 20
2.80357685
 30
0.0
 11
3.735779200000001
 21
2.91163255
 31
0.0
  0
LINE
  5
561
330
588
100
AcDbEntity
  8
0
 62
     7
100
AcDbLine
 10
3.735779200000001
 20
2.91163255
 30
0.0
 11
3.7046154
 21
2.99797765
 31
0.0
  0
LINE
  5
562
330
588
100
AcDbEntity
  8
0
 62
     7
100
AcDbLine
 10
3.7046154
 20
2.99797765
 30
0.0
 11
3.66030885
 21
3.08499165
 31
0.0
  0
LINE
  5
563
330
588
100
AcDbEntity
  8
0
 62
     7
100
AcDbLine
 10
3.66030885
 20
3.08499165
 30
0.0
 11
3.603215800000001
 21
3.1687464
 31
0.0
  0
LINE
  5
564
330
588
100
AcDbEntity
  8
0
 62
     7
100
AcDbLine
 10
3.603215800000001
 20
3.1687464
 30
0.0
 11
3.534952150000001
 21
3.2454941
 31
0.0
  0
LINE
  5
565
330
588
100
AcDbEntity
  8
0
 62
     7
100
AcDbLine
 10
3.534952150000001
 20
3.2454941
 30
0.0
 11
3.45822985
 21
3.3121254
 31
0.0
  0
LINE
  5
566
330
588
100
AcDbEntity
  8
0
 62
     7
100
AcDbLine
 10
3.45822985
 20
3.3121254
 30
0.0
 11
3.3765522
 21
3.3665245
 31
0.0
  0
LINE
  5
567
330
588
100
AcDbEntity
  8
0
 62
     7
100
AcDbLine
 10
3.3765522
 20
3.3665245
 30
0.0
 11
3.29378855
 21
3.4077938
 31
0.0
  0
LINE
  5
568
330
588
100
AcDbEntity
  8
0
 62
     7
100
AcDbLine
 10
3.29378855
 20
3.4077938
 30
0.0
 11
3.1880537
 21
3.4432396
 31
0.0
  0
LINE
  5
569
330
588
100
AcDbEntity
  8
0
 62
     7
100
AcDbLine
 10
3.1880537
 20
3.4432396
 30
0.0
 11
3.07123585
 21
3.46229095
 31
0.0
  0
LINE
  5
56A
330
588
100
AcDbEntity
  8
0
 62
     7
100
AcDbLine
 10
3.07123585
 20
3.46229095
 30
0.0
 11
2.8584793
 21
3.466407
 31
0.0
  0
LINE
  5
56B
330
588
100
AcDbEntity
  8
0
 62
     7
100
AcDbLine
 10
2.8584793
 20
3.466407
 30
0.0
 11
2.77160585
 21
3.47803955
 31
0.0
  0
LINE
  5
56C
330
588
100
AcDbEntity
  8
0
 62
     7
100
AcDbLine
 10
2.715407
 20
3.4933365
 30
0.0
 11
2.77160585
 21
3.47803955
 31
0.0
  0
VIEWPORT
  5
28B
330
586
100
AcDbEntity
 67
     1
  8
0
100
AcDbViewport
 10
4.79945806068
 20
4.02189949366
 30
0.0
 40
17.8806127758
 41
8.99299974577
 68
     1
 69
     1
 12
4.79945806068
 22
4.02189949366
 13
0.0
 23
0.0
 14
0.5
 24
0.5
 15
0.5
 25
0.5
 16
0.0
 26
0.0
 36
1.0
 17
0.0
 27
0.0
 37
0.0
 42
50.0
 43
0.0
 44
0.0
 45
8.99299974577
 50
0.0
 51
0.0
 72
  1000
 90
   557216
  1

281
     0
 71
     0
 74
     0
110
0.0
120
0.0
130
0.0
111
1.0
121
0.0
131
0.0
112
0.0
122
1.0
132
0.0
 79
     0
146
0.0
170
     0
 61
     5
348
5BF
292
     1
282
     1
141
0.0
142
0.0
 63
   256
  0
VIEWPORT
  5
290
330
586
100
AcDbEntity
 67
     1
  8
VIEW_PORT
100
AcDbViewport
 10
4.82886657566
 20
3.99999976158
 30
0.0
 40
8.39999961853
 41
6.39999961853
 68
     2
 69
     2
 12
6.0
 22
4.5
 13
0.0
 23
0.0
 14
0.5
 24
0.5
 15
0.5
 25
0.5
 16
0.0
 26
0.0
 36
1.0
 17
0.0
 27
0.0
 37
0.0
 42
50.0
 43
0.0
 44
0.0
 45
6.39999961853
 50
0.0
 51
0.0
 72
  1000
 90
   557280
  1

281
     0
 71
     0
 74
     0
110
0.0
120
0.0
130
0.0
111
1.0
121
0.0
131
0.0
112
0.0
122
1.0
132
0.0
 79
     0
146
0.0
170
     0
 61
     5
348
5BF
292
     1
282
     1
141
0.0
142
0.0
 63
   256
  0
ENDSEC
  0
SECTION
  2
OBJECTS
  0
DICTIONARY
  5
578
330
0
100
AcDbDictionary
281
     1
  3
ACAD_DETAILVIEWSTYLE
350
5E0
  3
ACAD_GROUP
350
579
  3
ACAD_IMAGE_VARS
350
5D7
  3
ACAD_LAYOUT
350
585
  3
ACAD_MATERIAL
350
58B
  3
ACAD_MLEADERSTYLE
350
5DE
  3
ACAD_MLINESTYLE
350
582
  3
ACAD_PLOTSETTINGS
350
584
  3
ACAD_PLOTSTYLENAME
350
57A
  3
ACAD_SCALELIST
350
598
  3
ACAD_SECTIONVIEWSTYLE
350
5E1
  3
ACAD_TABLESTYLE
350
5D3
  3
ACAD_VISUALSTYLE
350
5BA
  3
ACDB_RECOMPOSE_DATA
350
5DC
  3
AcDbVariableDictionary
350
5D8
  3
APPDATA
350
5D5
  0
SUN
  5
5D6
330
40E
100
AcDbSun
 90
        1
290
     0
 63
     7
421
 16777215
 40
1.0
291
     1
 91
  2455826
 92
 54000000
292
     0
 70
     2
 71
   256
280
     1
  0
DICTIONARY
  5
5E0
102
{ACAD_REACTORS
330
578
102
}
330
578
100
AcDbDictionary
281
     1
  0
DICTIONARY
  5
579
102
{ACAD_REACTORS
330
578
102
}
330
578
100
AcDbDictionary
281
     1
  0
RASTERVARIABLES
  5
5D7
102
{ACAD_REACTORS
330
578
102
}
330
578
100
AcDbRasterVariables
 90
        0
 70
     1
 71
     1
 72
     0
  0
DICTIONARY
  5
585
102
{ACAD_REACTORS
330
578
102
}
330
578
100
AcDbDictionary
281
     1
  3
Model
350
589
  3
Sheet 1
350
587
  0
DICTIONARY
  5
58B
102
{ACAD_REACTORS
330
578
102
}
330
578
100
AcDbDictionary
281
     1
  3
ByBlock
350
58D
  3
ByLayer
350
58C
  3
Global
350
58E
  0
DICTIONARY
  5
5DE
102
{ACAD_REACTORS
330
578
102
}
330
578
100
AcDbDictionary
281
     1
  0
DICTIONARY
  5
582
102
{ACAD_REACTORS
330
578
102
}
330
578
100
AcDbDictionary
281
     1
  3
Standard
350
583
  0
DICTIONARY
  5
584
102
{ACAD_REACTORS
330
578
102
}
330
578
100
AcDbDictionary
281
     1
  0
ACDBDICTIONARYWDFLT
  5
57A
102
{ACAD_REACTORS
330
578
102
}
330
578
100
AcDbDictionary
281
     1
  3
Normal
350
57B
100
AcDbDictionaryWithDefault
340
57B
  0
DICTIONARY
  5
598
102
{ACAD_REACTORS
330
578
102
}
330
578
100
AcDbDictionary
281
     1
  3
A0
350
599
  3
A1
350
59A
  3
A2
350
59B
  3
A3
350
59C
  3
A4
350
59D
  3
A5
350
59E
  3
A6
350
59F
  3
A7
350
5A0
  3
A8
350
5A1
  3
A9
350
5A2
  3
B0
350
5A3
  3
B1
350
5A4
  3
B2
350
5A5
  3
B3
350
5A6
  3
B4
350
5A7
  3
B5
350
5A8
  3
B6
350
5A9
  3
B7
350
5AA
  3
B8
350
5AB
  3
B9
350
5AC
  3
C0
350
5AD
  3
C1
350
5AE
  3
C2
350
5AF
  3
C3
350
5B0
  3
C4
350
5B1
  3
C5
350
5B2
  3
C6
350
5B3
  3
C7
350
5B4
  3
C8
350
5B5
  3
C9
350
5B6
  3
D0
350
5B7
  3
D1
350
5B8
  3
D2
350
5B9
  0
DICTIONARY
  5
5E1
102
{ACAD_REACTORS
330
578
102
}
330
578
100
AcDbDictionary
281
     1
  0
DICTIONARY
  5
5D3
102
{ACAD_REACTORS
330
578
102
}
330
578
100
AcDbDictionary
281
     1
  3
Standard
350
5D4
  0
DICTIONARY
  5
5BA
102
{ACAD_REACTORS
330
578
102
}
330
578
100
AcDbDictionary
281
     1
  3
2dWireframe
350
5BF
  3
Basic
350
5C2
  3
Brighten
350
5C6
  3
ColorChange
350
5CA
  3
Conceptual
350
5C4
  3
Dim
350
5C5
  3
EdgeColorOff
350
5CD
  3
Facepattern
350
5C9
  3
Flat
350
5BB
  3
FlatWithEdges
350
5BC
  3
Gouraud
350
5BD
  3
GouraudWithEdges
350
5BE
  3
Hidden
350
5C1
  3
JitterOff
350
5CB
  3
Linepattern
350
5C8
  3
OverhangOff
350
5CC
  3
Realistic
350
5C3
  3
Shaded
350
5D2
  3
Shaded with edges
350
5D1
  3
Shades of Gray
350
5CE
  3
Sketchy
350
5CF
  3
Thicken
350
5C7
  3
Wireframe
350
5C0
  3
X-Ray
350
5D0
  0
XRECORD
  5
5DC
102
{ACAD_REACTORS
330
578
102
}
330
578
100
AcDbXrecord
280
     1
 90
        1
330
5D4
  0
DICTIONARY
  5
5D8
102
{ACAD_REACTORS
330
578
102
}
330
578
100
AcDbDictionary
281
     1
  3
CANNOSCALE
350
5D9
  3
CTABLESTYLE
350
5DD
  3
MSLTSCALE
350
5DF
  0
DICTIONARY
  5
5D5
102
{ACAD_REACTORS
330
578
102
}
330
578
100
AcDbDictionary
281
     1
  0
LAYOUT
  5
589
102
{ACAD_REACTORS
330
585
102
}
330
585
100
AcDbPlotSettings
  1

  2
none_device
  4
Letter_(8.50_x_11.00_Inches)
  6

 40
6.35
 41
6.35
 42
6.35
 43
6.35
 44
215.9
 45
279.4
 46
0.0
 47
0.0
 48
0.0
 49
0.0
140
0.0
141
0.0
142
1.0
143
1.0
 70
  1712
 72
     0
 73
     0
 74
     0
  7

 75
     0
 76
     0
 77
     2
 78
   300
147
1.0
148
0.0
149
0.0
100
AcDbLayout
  1
Model
 70
     1
 71
     0
 10
0.0
 20
0.0
 11
12.0
 21
9.0
 12
0.0
 22
0.0
 32
0.0
 14
-95.552109
 24
-94.246628
 34
0.0
 15
95.538391
 25
95.98452
 35
0.0
146
0.0
 13
0.0
 23
0.0
 33
0.0
 16
1.0
 26
0.0
 36
0.0
 17
0.0
 27
1.0
 37
0.0
 76
     0
330
588
331
40E
  0
LAYOUT
  5
587
102
{ACAD_REACTORS
330
585
102
}
330
585
100
AcDbPlotSettings
  1

  2
none_device
  4

  6

 40
0.0
 41
0.0
 42
0.0
 43
0.0
 44
0.0
 45
0.0
 46
0.0
 47
0.0
 48
0.0
 49
0.0
140
0.0
141
0.0
142
1.0
143
1.0
 70
   688
 72
     0
 73
     0
 74
     5
  7

 75
    16
 76
     0
 77
     2
 78
   300
147
1.0
148
0.0
149
0.0
100
AcDbLayout
  1
Sheet 1
 70
     1
 71
     1
 10
0.0
 20
0.0
 11
0.0
 21
0.0
 12
0.0
 22
0.0
 32
0.0
 14
0.628866766397
 24
0.799999952316
 34
0.0
 15
9.02886638493
 25
7.19999957085
 35
0.0
146
0.0
 13
0.0
 23
0.0
 33
0.0
 16
1.0
 26
0.0
 36
0.0
 17
0.0
 27
1.0
 37
0.0
 76
     0
330
586
331
28B
  0
MATERIAL
  5
58D
102
{ACAD_REACTORS
330
58B
102
}
330
58B
100
AcDbMaterial
  1
ByBlock
 72
     1
 94
      127
  0
MATERIAL
  5
58C
102
{ACAD_REACTORS
330
58B
102
}
330
58B
100
AcDbMaterial
  1
ByLayer
 72
     1
 94
      127
  0
MATERIAL
  5
58E
102
{ACAD_REACTORS
330
58B
102
}
330
58B
100
AcDbMaterial
  1
Global
 72
     1
 94
      127
  0
MLINESTYLE
  5
583
102
{ACAD_REACTORS
330
582
102
}
330
582
100
AcDbMlineStyle
  2
Standard
 70
     0
  3

 62
   256
 51
90.0
 52
90.0
 71
     2
 49
0.5
 62
   256
  6
BYLAYER
 49
-0.5
 62
   256
  6
BYLAYER
  0
ACDBPLACEHOLDER
  5
57B
102
{ACAD_REACTORS
330
57A
102
}
330
57A
  0
SCALE
  5
599
102
{ACAD_REACTORS
330
598
102
}
330
598
100
AcDbScale
 70
     0
300
1:1
140
1.0
141
1.0
290
     1
  0
SCALE
  5
59A
102
{ACAD_REACTORS
330
598
102
}
330
598
100
AcDbScale
 70
     0
300
1:2
140
1.0
141
2.0
290
     0
  0
SCALE
  5
59B
102
{ACAD_REACTORS
330
598
102
}
330
598
100
AcDbScale
 70
     0
300
1:4
140
1.0
141
4.0
290
     0
  0
SCALE
  5
59C
102
{ACAD_REACTORS
330
598
102
}
330
598
100
AcDbScale
 70
     0
300
1:5
140
1.0
141
5.0
290
     0
  0
SCALE
  5
59D
102
{ACAD_REACTORS
330
598
102
}
330
598
100
AcDbScale
 70
     0
300
1:8
140
1.0
141
8.0
290
     0
  0
SCALE
  5
59E
102
{ACAD_REACTORS
330
598
102
}
330
598
100
AcDbScale
 70
     0
300
1:10
140
1.0
141
10.0
290
     0
  0
SCALE
  5
59F
102
{ACAD_REACTORS
330
598
102
}
330
598
100
AcDbScale
 70
     0
300
1:16
140
1.0
141
16.0
290
     0
  0
SCALE
  5
5A0
102
{ACAD_REACTORS
330
598
102
}
330
598
100
AcDbScale
 70
     0
300
1:20
140
1.0
141
20.0
290
     0
  0
SCALE
  5
5A1
102
{ACAD_REACTORS
330
598
102
}
330
598
100
AcDbScale
 70
     0
300
1:30
140
1.0
141
30.0
290
     0
  0
SCALE
  5
5A2
102
{ACAD_REACTORS
330
598
102
}
330
598
100
AcDbScale
 70
     0
300
1:40
140
1.0
141
40.0
290
     0
  0
SCALE
  5
5A3
102
{ACAD_REACTORS
330
598
102
}
330
598
100
AcDbScale
 70
     0
300
1:50
140
1.0
141
50.0
290
     0
  0
SCALE
  5
5A4
102
{ACAD_REACTORS
330
598
102
}
330
598
100
AcDbScale
 70
     0
300
1:100
140
1.0
141
100.0
290
     0
  0
SCALE
  5
5A5
102
{ACAD_REACTORS
330
598
102
}
330
598
100
AcDbScale
 70
     0
300
2:1
140
2.0
141
1.0
290
     0
  0
SCALE
  5
5A6
102
{ACAD_REACTORS
330
598
102
}
330
598
100
AcDbScale
 70
     0
300
4:1
140
4.0
141
1.0
290
     0
  0
SCALE
  5
5A7
102
{ACAD_REACTORS
330
598
102
}
330
598
100
AcDbScale
 70
     0
300
8:1
140
8.0
141
1.0
290
     0
  0
SCALE
  5
5A8
102
{ACAD_REACTORS
330
598
102
}
330
598
100
AcDbScale
 70
     0
300
10:1
140
10.0
141
1.0
290
     0
  0
SCALE
  5
5A9
102
{ACAD_REACTORS
330
598
102
}
330
598
100
AcDbScale
 70
     0
300
100:1
140
100.0
141
1.0
290
     0
  0
SCALE
  5
5AA
102
{ACAD_REACTORS
330
598
102
}
330
598
100
AcDbScale
 70
     0
300
1/128" = 1'-0"
140
0.0078125
141
12.0
290
     0
  0
SCALE
  5
5AB
102
{ACAD_REACTORS
330
598
102
}
330
598
100
AcDbScale
 70
     0
300
1/64" = 1'-0"
140
0.015625
141
12.0
290
     0
  0
SCALE
  5
5AC
102
{ACAD_REACTORS
330
598
102
}
330
598
100
AcDbScale
 70
     0
300
1/32" = 1'-0"
140
0.03125
141
12.0
290
     0
  0
SCALE
  5
5AD
102
{ACAD_REACTORS
330
598
102
}
330
598
100
AcDbScale
 70
     0
300
1/16" = 1'-0"
140
0.0625
141
12.0
290
     0
  0
SCALE
  5
5AE
102
{ACAD_REACTORS
330
598
102
}
330
598
100
AcDbScale
 70
     0
300
3/32" = 1'-0"
140
0.09375
141
12.0
290
     0
  0
SCALE
  5
5AF
102
{ACAD_REACTORS
330
598
102
}
330
598
100
AcDbScale
 70
     0
300
1/8" = 1'-0"
140
0.125
141
12.0
290
     0
  0
SCALE
  5
5B0
102
{ACAD_REACTORS
330
598
102
}
330
598
100
AcDbScale
 70
     0
300
3/16" = 1'-0"
140
0.1875
141
12.0
290
     0
  0
SCALE
  5
5B1
102
{ACAD_REACTORS
330
598
102
}
330
598
100
AcDbScale
 70
     0
300
1/4" = 1'-0"
140
0.25
141
12.0
290
     0
  0
SCALE
  5
5B2
102
{ACAD_REACTORS
330
598
102
}
330
598
100
AcDbScale
 70
     0
300
3/8" = 1'-0"
140
0.375
141
12.0
290
     0
  0
SCALE
  5
5B3
102
{ACAD_REACTORS
330
598
102
}
330
598
100
AcDbScale
 70
     0
300
1/2" = 1'-0"
140
0.5
141
12.0
290
     0
  0
SCALE
  5
5B4
102
{ACAD_REACTORS
330
598
102
}
330
598
100
AcDbScale
 70
     0
300
3/4" = 1'-0"
140
0.75
141
12.0
290
     0
  0
SCALE
  5
5B5
102
{ACAD_REACTORS
330
598
102
}
330
598
100
AcDbScale
 70
     0
300
1" = 1'-0"
140
1.0
141
12.0
290
     0
  0
SCALE
  5
5B6
102
{ACAD_REACTORS
330
598
102
}
330
598
100
AcDbScale
 70
     0
300
1-1/2" = 1'-0"
140
1.5
141
12.0
290
     0
  0
SCALE
  5
5B7
102
{ACAD_REACTORS
330
598
102
}
330
598
100
AcDbScale
 70
     0
300
3" = 1'-0"
140
3.0
141
12.0
290
     0
  0
SCALE
  5
5B8
102
{ACAD_REACTORS
330
598
102
}
330
598
100
AcDbScale
 70
     0
300
6" = 1'-0"
140
6.0
141
12.0
290
     0
  0
SCALE
  5
5B9
102
{ACAD_REACTORS
330
598
102
}
330
598
100
AcDbScale
 70
     0
300
1'-0" = 1'-0"
140
12.0
141
12.0
290
     0
  0
TABLESTYLE
  5
5D4
102
{ACAD_REACTORS
330
5D3
102
}
102
{ACAD_XDICTIONARY
360
5DA
102
}
330
5D3
100
AcDbTableStyle
  3
Standard
 70
     0
 71
     0
 40
0.06
 41
0.06
280
     0
281
     0
  7
STANDARD
140
0.18
170
     2
 62
     0
 63
   257
283
     0
 90
        4
 91
        0
  1

274
    -2
284
     1
 64
     0
275
    -2
285
     1
 65
     0
276
    -2
286
     1
 66
     0
277
    -2
287
     1
 67
     0
278
    -2
288
     1
 68
     0
279
    -2
289
     1
 69
     0
  7
STANDARD
140
0.25
170
     5
 62
     0
 63
   257
283
     0
 90
        4
 91
        0
  1

274
    -2
284
     1
 64
     0
275
    -2
285
     1
 65
     0
276
    -2
286
     1
 66
     0
277
    -2
287
     1
 67
     0
278
    -2
288
     1
 68
     0
279
    -2
289
     1
 69
     0
  7
STANDARD
140
0.18
170
     5
 62
     0
 63
   257
283
     0
 90
        4
 91
        0
  1

274
    -2
284
     1
 64
     0
275
    -2
285
     1
 65
     0
276
    -2
286
     1
 66
     0
277
    -2
287
     1
 67
     0
278
    -2
288
     1
 68
     0
279
    -2
289
     1
 69
     0
  0
VISUALSTYLE
  5
5BF
102
{ACAD_REACTORS
330
5BA
102
}
330
5BA
100
AcDbVisualStyle
  2
2dWireframe
 70
     4
177
     2
291
     0
 71
     0
176
     1
 72
     2
176
     1
 73
     0
176
     1
 90
        0
176
     1
 40
0.6
176
     1
 41
30.0
176
     1
 62
     5
 63
     7
421
 16777215
176
     1
 74
     1
176
     1
 91
        4
176
     1
 64
     7
176
     1
 65
   257
176
     1
 75
     1
176
     1
175
     1
176
     1
 42
1.0
176
     1
 92
        0
176
     1
 66
   257
176
     1
 43
1.0
176
     1
 76
     1
176
     1
 77
     6
176
     1
 78
     2
176
     1
 67
     7
176
     1
 79
     5
176
     1
170
     0
176
     1
171
     0
176
     1
290
     0
176
     1
 93
        1
176
     1
 44
0.0
176
     1
173
     0
176
     1
  0
VISUALSTYLE
  5
5C2
102
{ACAD_REACTORS
330
5BA
102
}
330
5BA
100
AcDbVisualStyle
  2
Basic
 70
     7
177
     2
291
     1
 71
     1
176
     1
 72
     0
176
     1
 73
     1
176
     1
 90
        0
176
     1
 40
0.6
176
     1
 41
30.0
176
     1
 62
     5
 63
     7
421
 16777215
176
     1
 74
     0
176
     1
 91
        4
176
     1
 64
     7
176
     1
 65
   257
176
     1
 75
     1
176
     1
175
     1
176
     1
 42
1.0
176
     1
 92
        8
176
     1
 66
     7
176
     1
 43
1.0
176
     1
 76
     1
176
     1
 77
     6
176
     1
 78
     2
176
     1
 67
     7
176
     1
 79
     5
176
     1
170
     0
176
     1
171
     0
176
     1
290
     0
176
     1
 93
        1
176
     1
 44
0.0
176
     1
173
     0
176
     1
  0
VISUALSTYLE
  5
5C6
102
{ACAD_REACTORS
330
5BA
102
}
330
5BA
100
AcDbVisualStyle
  2
Brighten
 70
    12
177
     2
291
     1
 71
     2
176
     1
 72
     2
176
     1
 73
     0
176
     1
 90
        0
176
     1
 40
0.6
176
     1
 41
30.0
176
     1
 62
     5
 63
     7
421
 16777215
176
     1
 74
     1
176
     1
 91
        4
176
     1
 64
     7
176
     1
 65
   257
176
     1
 75
     1
176
     1
175
     1
176
     1
 42
1.0
176
     1
 92
        8
176
     1
 66
     7
176
     1
 43
1.0
176
     1
 76
     1
176
     1
 77
     6
176
     1
 78
     2
176
     1
 67
     7
176
     1
 79
     5
176
     1
170
     0
176
     1
171
     0
176
     1
290
     0
176
     1
 93
        1
176
     1
 44
50.0
176
     1
173
     0
176
     1
  0
VISUALSTYLE
  5
5CA
102
{ACAD_REACTORS
330
5BA
102
}
330
5BA
100
AcDbVisualStyle
  2
ColorChange
 70
    16
177
     2
291
     1
 71
     2
176
     1
 72
     2
176
     1
 73
     3
176
     1
 90
        0
176
     1
 40
0.6
176
     1
 41
30.0
176
     1
 62
     5
 63
     8
421
  8421504
176
     1
 74
     1
176
     1
 91
        4
176
     1
 64
     7
176
     1
 65
   257
176
     1
 75
     1
176
     1
175
     1
176
     1
 42
1.0
176
     1
 92
        8
176
     1
 66
     8
424
  8421504
176
     1
 43
1.0
176
     1
 76
     1
176
     1
 77
     6
176
     1
 78
     2
176
     1
 67
     7
176
     1
 79
     5
176
     1
170
     0
176
     1
171
     0
176
     1
290
     0
176
     1
 93
        1
176
     1
 44
0.0
176
     1
173
     0
176
     1
  0
VISUALSTYLE
  5
5C4
102
{ACAD_REACTORS
330
5BA
102
}
330
5BA
100
AcDbVisualStyle
  2
Conceptual
 70
     9
177
     2
291
     0
 71
     3
176
     1
 72
     2
176
     1
 73
     0
176
     1
 90
        0
176
     1
 40
0.6
176
     1
 41
30.0
176
     1
 62
     5
 63
     7
421
 16777215
176
     1
 74
     2
176
     1
 91
        2
176
     1
 64
     7
176
     1
 65
   257
176
     1
 75
     1
176
     1
175
     1
176
     1
 42
179.0
176
     1
 92
        8
176
     1
 66
     7
176
     1
 43
1.0
176
     1
 76
     1
176
     1
 77
     6
176
     1
 78
     2
176
     1
 67
     7
176
     1
 79
     3
176
     1
170
     0
176
     1
171
     0
176
     1
290
     0
176
     1
 93
        1
176
     1
 44
0.0
176
     1
173
     0
176
     1
  0
VISUALSTYLE
  5
5C5
102
{ACAD_REACTORS
330
5BA
102
}
330
5BA
100
AcDbVisualStyle
  2
Dim
 70
    11
177
     2
291
     1
 71
     2
176
     1
 72
     2
176
     1
 73
     0
176
     1
 90
        0
176
     1
 40
0.6
176
     1
 41
30.0
176
     1
 62
     5
 63
     7
421
 16777215
176
     1
 74
     1
176
     1
 91
        4
176
     1
 64
     7
176
     1
 65
   257
176
     1
 75
     1
176
     1
175
     1
176
     1
 42
1.0
176
     1
 92
        8
176
     1
 66
     7
176
     1
 43
1.0
176
     1
 76
     1
176
     1
 77
     6
176
     1
 78
     2
176
     1
 67
     7
176
     1
 79
     5
176
     1
170
     0
176
     1
171
     0
176
     1
290
     0
176
     1
 93
        1
176
     1
 44
-50.0
176
     1
173
     0
176
     1
  0
VISUALSTYLE
  5
5CD
102
{ACAD_REACTORS
330
5BA
102
}
330
5BA
100
AcDbVisualStyle
  2
EdgeColorOff
 70
    22
177
     2
291
     1
 71
     2
176
     0
 72
     2
176
     0
 73
     0
176
     0
 90
        0
176
     0
 40
0.6
176
     0
 41
30.0
176
     0
 62
     5
 63
     7
421
 16777215
176
     0
 74
     1
176
     0
 91
        4
176
     0
 64
     7
176
     0
 65
   257
176
     0
 75
     1
176
     0
175
     1
176
     0
 42
1.0
176
     0
 92
        8
176
     2
 66
     7
176
     0
 43
1.0
176
     0
 76
     1
176
     0
 77
     6
176
     0
 78
     2
176
     0
 67
     7
176
     0
 79
     5
176
     0
170
     0
176
     0
171
     0
176
     0
290
     0
176
     0
 93
        1
176
     0
 44
0.0
176
     0
173
     0
176
     0
  0
VISUALSTYLE
  5
5C9
102
{ACAD_REACTORS
330
5BA
102
}
330
5BA
100
AcDbVisualStyle
  2
Facepattern
 70
    15
177
     2
291
     1
 71
     2
176
     1
 72
     2
176
     1
 73
     0
176
     1
 90
        0
176
     1
 40
0.6
176
     1
 41
30.0
176
     1
 62
     5
 63
     7
421
 16777215
176
     1
 74
     1
176
     1
 91
        4
176
     1
 64
     7
176
     1
 65
   257
176
     1
 75
     1
176
     1
175
     1
176
     1
 42
1.0
176
     1
 92
        8
176
     1
 66
     7
176
     1
 43
1.0
176
     1
 76
     1
176
     1
 77
     6
176
     1
 78
     2
176
     1
 67
     7
176
     1
 79
     5
176
     1
170
     0
176
     1
171
     0
176
     1
290
     0
176
     1
 93
        1
176
     1
 44
0.0
176
     1
173
     0
176
     1
  0
VISUALSTYLE
  5
5BB
102
{ACAD_REACTORS
330
5BA
102
}
330
5BA
100
AcDbVisualStyle
  2
Flat
 70
     0
177
     2
291
     1
 71
     2
176
     1
 72
     1
176
     1
 73
     1
176
     1
 90
        2
176
     1
 40
0.6
176
     1
 41
30.0
176
     1
 62
     5
 63
     7
421
 16777215
176
     1
 74
     0
176
     1
 91
        0
176
     1
 64
     7
176
     1
 65
   257
176
     1
 75
     1
176
     1
175
     1
176
     1
 42
1.0
176
     1
 92
        8
176
     1
 66
     7
176
     1
 43
1.0
176
     1
 76
     1
176
     1
 77
     6
176
     1
 78
     2
176
     1
 67
     7
176
     1
 79
     5
176
     1
170
     0
176
     1
171
     0
176
     1
290
     0
176
     1
 93
       13
176
     1
 44
0.0
176
     1
173
     0
176
     1
  0
VISUALSTYLE
  5
5BC
102
{ACAD_REACTORS
330
5BA
102
}
330
5BA
100
AcDbVisualStyle
  2
FlatWithEdges
 70
     1
177
     2
291
     1
 71
     2
176
     1
 72
     1
176
     1
 73
     1
176
     1
 90
        2
176
     1
 40
0.6
176
     1
 41
30.0
176
     1
 62
     5
 63
     7
421
 16777215
176
     1
 74
     1
176
     1
 91
        0
176
     1
 64
     7
176
     1
 65
   257
176
     1
 75
     1
176
     1
175
     1
176
     1
 42
1.0
176
     1
 92
        0
176
     1
 66
   257
176
     1
 43
1.0
176
     1
 76
     1
176
     1
 77
     6
176
     1
 78
     2
176
     1
 67
     7
176
     1
 79
     5
176
     1
170
     0
176
     1
171
     0
176
     1
290
     0
176
     1
 93
       13
176
     1
 44
0.0
176
     1
173
     0
176
     1
  0
VISUALSTYLE
  5
5BD
102
{ACAD_REACTORS
330
5BA
102
}
330
5BA
100
AcDbVisualStyle
  2
Gouraud
 70
     2
177
     2
291
     1
 71
     2
176
     1
 72
     2
176
     1
 73
     1
176
     1
 90
        2
176
     1
 40
0.6
176
     1
 41
30.0
176
     1
 62
     5
 63
     7
421
 16777215
176
     1
 74
     0
176
     1
 91
        0
176
     1
 64
     7
176
     1
 65
   257
176
     1
 75
     1
176
     1
175
     1
176
     1
 42
1.0
176
     1
 92
        0
176
     1
 66
     7
176
     1
 43
1.0
176
     1
 76
     1
176
     1
 77
     6
176
     1
 78
     2
176
     1
 67
     7
176
     1
 79
     5
176
     1
170
     0
176
     1
171
     0
176
     1
290
     0
176
     1
 93
       13
176
     1
 44
0.0
176
     1
173
     0
176
     1
  0
VISUALSTYLE
  5
5BE
102
{ACAD_REACTORS
330
5BA
102
}
330
5BA
100
AcDbVisualStyle
  2
GouraudWithEdges
 70
     3
177
     2
291
     1
 71
     2
176
     1
 72
     2
176
     1
 73
     1
176
     1
 90
        2
176
     1
 40
0.6
176
     1
 41
30.0
176
     1
 62
     5
 63
     7
421
 16777215
176
     1
 74
     1
176
     1
 91
        0
176
     1
 64
     7
176
     1
 65
   257
176
     1
 75
     1
176
     1
175
     1
176
     1
 42
1.0
176
     1
 92
        0
176
     1
 66
   257
176
     1
 43
1.0
176
     1
 76
     1
176
     1
 77
     6
176
     1
 78
     2
176
     1
 67
     7
176
     1
 79
     5
176
     1
170
     0
176
     1
171
     0
176
     1
290
     0
176
     1
 93
       13
176
     1
 44
0.0
176
     1
173
     0
176
     1
  0
VISUALSTYLE
  5
5C1
102
{ACAD_REACTORS
330
5BA
102
}
330
5BA
100
AcDbVisualStyle
  2
Hidden
 70
     6
177
     2
291
     0
 71
     1
176
     1
 72
     2
176
     1
 73
     2
176
     1
 90
        0
176
     1
 40
0.6
176
     1
 41
30.0
176
     1
 62
     5
 63
     7
421
 16777215
176
     1
 74
     2
176
     1
 91
        2
176
     1
 64
     7
176
     1
 65
   257
176
     1
 75
     2
176
     1
175
     1
176
     1
 42
40.0
176
     1
 92
        0
176
     1
 66
   257
176
     1
 43
1.0
176
     1
 76
     1
176
     1
 77
     6
176
     1
 78
     2
176
     1
 67
     7
176
     1
 79
     3
176
     1
170
     0
176
     1
171
     0
176
     1
290
     0
176
     1
 93
        1
176
     1
 44
0.0
176
     1
173
     0
176
     1
  0
VISUALSTYLE
  5
5CB
102
{ACAD_REACTORS
330
5BA
102
}
330
5BA
100
AcDbVisualStyle
  2
JitterOff
 70
    20
177
     2
291
     1
 71
     2
176
     0
 72
     2
176
     0
 73
     0
176
     0
 90
        0
176
     0
 40
0.6
176
     0
 41
30.0
176
     0
 62
     5
 63
     7
421
 16777215
176
     0
 74
     1
176
     0
 91
        4
176
     0
 64
     7
176
     0
 65
   257
176
     0
 75
     1
176
     0
175
     1
176
     0
 42
1.0
176
     0
 92
       10
176
     2
 66
     7
176
     0
 43
1.0
176
     0
 76
     1
176
     0
 77
     6
176
     0
 78
     2
176
     0
 67
     7
176
     0
 79
     5
176
     0
170
     0
176
     0
171
     0
176
     0
290
     0
176
     0
 93
        1
176
     0
 44
0.0
176
     0
173
     0
176
     0
  0
VISUALSTYLE
  5
5C8
102
{ACAD_REACTORS
330
5BA
102
}
330
5BA
100
AcDbVisualStyle
  2
Linepattern
 70
    14
177
     2
291
     1
 71
     2
176
     1
 72
     2
176
     1
 73
     0
176
     1
 90
        0
176
     1
 40
0.6
176
     1
 41
30.0
176
     1
 62
     5
 63
     7
421
 16777215
176
     1
 74
     1
176
     1
 91
        4
176
     1
 64
     7
176
     1
 65
   257
176
     1
 75
     7
176
     1
175
     7
176
     1
 42
1.0
176
     1
 92
        8
176
     1
 66
     7
176
     1
 43
1.0
176
     1
 76
     1
176
     1
 77
     6
176
     1
 78
     2
176
     1
 67
     7
176
     1
 79
     5
176
     1
170
     0
176
     1
171
     0
176
     1
290
     0
176
     1
 93
        1
176
     1
 44
0.0
176
     1
173
     0
176
     1
  0
VISUALSTYLE
  5
5CC
102
{ACAD_REACTORS
330
5BA
102
}
330
5BA
100
AcDbVisualStyle
  2
OverhangOff
 70
    21
177
     2
291
     1
 71
     2
176
     0
 72
     2
176
     0
 73
     0
176
     0
 90
        0
176
     0
 40
0.6
176
     0
 41
30.0
176
     0
 62
     5
 63
     7
421
 16777215
176
     0
 74
     1
176
     0
 91
        4
176
     0
 64
     7
176
     0
 65
   257
176
     0
 75
     1
176
     0
175
     1
176
     0
 42
1.0
176
     0
 92
        9
176
     2
 66
     7
176
     0
 43
1.0
176
     0
 76
     1
176
     0
 77
     6
176
     0
 78
     2
176
     0
 67
     7
176
     0
 79
     5
176
     0
170
     0
176
     0
171
     0
176
     0
290
     0
176
     0
 93
        1
176
     0
 44
0.0
176
     0
173
     0
176
     0
  0
VISUALSTYLE
  5
5C3
102
{ACAD_REACTORS
330
5BA
102
}
330
5BA
100
AcDbVisualStyle
  2
Realistic
 70
     8
177
     2
291
     0
 71
     2
176
     1
 72
     3
176
     1
 73
     0
176
     1
 90
        2
176
     1
 40
0.6
176
     1
 41
30.0
176
     1
 62
     5
 63
     7
421
 16777215
176
     1
 74
     0
176
     1
 91
        0
176
     1
 64
     7
176
     1
 65
   257
176
     1
 75
     1
176
     1
175
     1
176
     1
 42
1.0
176
     1
 92
        8
176
     1
 66
   257
176
     1
 43
1.0
176
     1
 76
     1
176
     1
 77
     6
176
     1
 78
     2
176
     1
 67
     7
176
     1
 79
     3
176
     1
170
     0
176
     1
171
     0
176
     1
290
     0
176
     1
 93
       13
176
     1
 44
0.0
176
     1
173
     0
176
     1
  0
VISUALSTYLE
  5
5D2
102
{ACAD_REACTORS
330
5BA
102
}
330
5BA
100
AcDbVisualStyle
  2
Shaded
 70
    27
177
     2
291
     0
 71
     2
176
     1
 72
     2
176
     1
 73
     1
176
     1
 90
        2
176
     1
 40
0.6
176
     1
 41
30.0
176
     1
 62
     5
 63
     7
421
 16777215
176
     1
 74
     0
176
     1
 91
        4
176
     1
 64
     7
176
     1
 65
   257
176
     1
 75
     1
176
     1
175
     1
176
     1
 42
1.0
176
     1
 92
        8
176
     1
 66
   257
176
     1
 43
1.0
176
     1
 76
     1
176
     1
 77
     6
176
     1
 78
     2
176
     1
 67
     8
425
  7895160
176
     1
 79
     3
176
     1
170
     0
176
     1
171
     0
176
     1
290
     0
176
     1
 93
        5
176
     1
 44
0.0
176
     1
173
     0
176
     1
  0
VISUALSTYLE
  5
5D1
102
{ACAD_REACTORS
330
5BA
102
}
330
5BA
100
AcDbVisualStyle
  2
Shaded with edges
 70
    26
177
     2
291
     0
 71
     2
176
     1
 72
     2
176
     1
 73
     1
176
     1
 90
        2
176
     1
 40
0.6
176
     1
 41
30.0
176
     1
 62
     5
 63
     7
421
 16777215
176
     1
 74
     1
176
     1
 91
       10
176
     1
 64
     7
176
     1
 65
   257
176
     1
 75
     2
176
     1
175
     1
176
     1
 42
1.0
176
     1
 92
        8
176
     1
 66
   257
176
     1
 43
1.0
176
     1
 76
     1
176
     1
 77
     6
176
     1
 78
     2
176
     1
 67
     7
176
     1
 79
     3
176
     1
170
     0
176
     1
171
     0
176
     1
290
     0
176
     1
 93
        5
176
     1
 44
0.0
176
     1
173
     0
176
     1
  0
VISUALSTYLE
  5
5CE
102
{ACAD_REACTORS
330
5BA
102
}
330
5BA
100
AcDbVisualStyle
  2
Shades of Gray
 70
    23
177
     2
291
     0
 71
     2
176
     1
 72
     2
176
     1
 73
     3
176
     1
 90
        0
176
     1
 40
0.6
176
     1
 41
30.0
176
     1
 62
     5
 63
     7
421
 16777215
176
     1
 74
     2
176
     1
 91
        2
176
     1
 64
     7
176
     1
 65
     7
176
     1
 75
     1
176
     1
175
     1
176
     1
 42
40.0
176
     1
 92
        8
176
     1
 66
     7
176
     1
 43
1.0
176
     1
 76
     1
176
     1
 77
     6
176
     1
 78
     2
176
     1
 67
     7
176
     1
 79
     3
176
     1
170
     0
176
     1
171
     0
176
     1
290
     0
176
     1
 93
        1
176
     1
 44
0.0
176
     1
173
     0
176
     1
  0
VISUALSTYLE
  5
5CF
102
{ACAD_REACTORS
330
5BA
102
}
330
5BA
100
AcDbVisualStyle
  2
Sketchy
 70
    24
177
     2
291
     0
 71
     1
176
     1
 72
     2
176
     1
 73
     2
176
     1
 90
        0
176
     1
 40
0.6
176
     1
 41
30.0
176
     1
 62
     5
 63
     7
421
 16777215
176
     1
 74
     2
176
     1
 91
        2
176
     1
 64
     7
176
     1
 65
     7
176
     1
 75
     1
176
     1
175
     1
176
     1
 42
40.0
176
     1
 92
       11
176
     1
 66
     7
176
     1
 43
1.0
176
     1
 76
     1
176
     1
 77
     6
176
     1
 78
     2
176
     1
 67
     7
176
     1
 79
     6
176
     1
170
     0
176
     1
171
     0
176
     1
290
     0
176
     1
 93
        1
176
     1
 44
0.0
176
     1
173
     0
176
     1
  0
VISUALSTYLE
  5
5C7
102
{ACAD_REACTORS
330
5BA
102
}
330
5BA
100
AcDbVisualStyle
  2
Thicken
 70
    13
177
     2
291
     1
 71
     2
176
     1
 72
     2
176
     1
 73
     0
176
     1
 90
        0
176
     1
 40
0.6
176
     1
 41
30.0
176
     1
 62
     5
 63
     7
421
 16777215
176
     1
 74
     1
176
     1
 91
        4
176
     1
 64
     7
176
     1
 65
   257
176
     1
 75
     1
176
     1
175
     1
176
     1
 42
1.0
176
     1
 92
       12
176
     1
 66
     7
176
     1
 43
1.0
176
     1
 76
     1
176
     1
 77
     6
176
     1
 78
     2
176
     1
 67
     7
176
     1
 79
     5
176
     1
170
     0
176
     1
171
     0
176
     1
290
     0
176
     1
 93
        1
176
     1
 44
0.0
176
     1
173
     0
176
     1
  0
VISUALSTYLE
  5
5C0
102
{ACAD_REACTORS
330
5BA
102
}
330
5BA
100
AcDbVisualStyle
  2
Wireframe
 70
     5
177
     2
291
     0
 71
     0
176
     1
 72
     2
176
     1
 73
     0
176
     1
 90
        0
176
     1
 40
0.6
176
     1
 41
30.0
176
     1
 62
     5
 63
     7
421
 16777215
176
     1
 74
     1
176
     1
 91
        4
176
     1
 64
     7
176
     1
 65
   257
176
     1
 75
     1
176
     1
175
     1
176
     1
 42
1.0
176
     1
 92
        0
176
     1
 66
   257
176
     1
 43
1.0
176
     1
 76
     1
176
     1
 77
     6
176
     1
 78
     2
176
     1
 67
     7
176
     1
 79
     3
176
     1
170
     0
176
     1
171
     0
176
     1
290
     0
176
     1
 93
        1
176
     1
 44
0.0
176
     1
173
     0
176
     1
  0
VISUALSTYLE
  5
5D0
102
{ACAD_REACTORS
330
5BA
102
}
330
5BA
100
AcDbVisualStyle
  2
X-Ray
 70
    25
177
     2
291
     0
 71
     2
176
     1
 72
     2
176
     1
 73
     1
176
     1
 90
        1
176
     1
 40
0.5
176
     1
 41
30.0
176
     1
 62
     5
 63
     7
421
 16777215
176
     1
 74
     1
176
     1
 91
        0
176
     1
 64
     7
176
     1
 65
   257
176
     1
 75
     1
176
     1
175
     1
176
     1
 42
1.0
176
     1
 92
        8
176
     1
 66
     7
176
     1
 43
1.0
176
     1
 76
     1
176
     1
 77
     6
176
     1
 78
     2
176
     1
 67
     7
176
     1
 79
     3
176
     1
170
     0
176
     1
171
     0
176
     1
290
     0
176
     1
 93
       13
176
     1
 44
0.0
176
     1
173
     0
176
     1
  0
DICTIONARYVAR
  5
5D9
102
{ACAD_REACTORS
330
5D8
102
}
330
5D8
100
DictionaryVariables
280
     0
  1
1:1
  0
DICTIONARYVAR
  5
5DD
102
{ACAD_REACTORS
330
5D8
102
}
330
5D8
100
DictionaryVariables
280
     0
  1
Standard
  0
DICTIONARYVAR
  5
5DF
102
{ACAD_REACTORS
330
5D8
102
}
330
5D8
100
DictionaryVariables
280
     0
  1
0
  0
DICTIONARY
  5
5DA
330
5D4
100
AcDbDictionary
280
     1
281
     1
  3
ACAD_ROUNDTRIP_2008_TABLESTYLE_CELLSTYLEMAP
360
5DB
  0
CELLSTYLEMAP
  5
5DB
102
{ACAD_REACTORS
330
5DA
102
}
330
5DA
100
AcDbCellStyleMap
 90
        3
300
CELLSTYLE
  1
TABLEFORMAT_BEGIN
 90
        5
170
     1
 91
        0
 92
        0
 62
   257
 93
        1
300
CONTENTFORMAT
  1
CONTENTFORMAT_BEGIN
 90
        0
 91
        0
 92
        4
 93
        0
300

 40
0.0
140
1.0
 94
        5
 62
     0
340
57D
144
0.25
309
CONTENTFORMAT_END
171
     1
301
MARGIN
  1
CELLMARGIN_BEGIN
 40
0.06
 40
0.06
 40
0.06
 40
0.06
 40
0.06
 40
0.06
309
CELLMARGIN_END
 94
        6
 95
        1
302
GRIDFORMAT
  1
GRIDFORMAT_BEGIN
 90
        0
 91
        1
 62
     0
 92
       -2
340
57F
 93
        0
 40
0.045
309
GRIDFORMAT_END
 95
        2
302
GRIDFORMAT
  1
GRIDFORMAT_BEGIN
 90
        0
 91
        1
 62
     0
 92
       -2
340
57F
 93
        0
 40
0.045
309
GRIDFORMAT_END
 95
        4
302
GRIDFORMAT
  1
GRIDFORMAT_BEGIN
 90
        0
 91
        1
 62
     0
 92
       -2
340
57F
 93
        0
 40
0.045
309
GRIDFORMAT_END
 95
        8
302
GRIDFORMAT
  1
GRIDFORMAT_BEGIN
 90
        0
 91
        1
 62
     0
 92
       -2
340
57F
 93
        0
 40
0.045
309
GRIDFORMAT_END
 95
       16
302
GRIDFORMAT
  1
GRIDFORMAT_BEGIN
 90
        0
 91
        1
 62
     0
 92
       -2
340
57F
 93
        0
 40
0.045
309
GRIDFORMAT_END
 95
       32
302
GRIDFORMAT
  1
GRIDFORMAT_BEGIN
 90
        0
 91
        1
 62
     0
 92
       -2
340
57F
 93
        0
 40
0.045
309
GRIDFORMAT_END
309
TABLEFORMAT_END
  1
CELLSTYLE_BEGIN
 90
        1
 91
        1
300
_TITLE
309
CELLSTYLE_END
300
CELLSTYLE
  1
TABLEFORMAT_BEGIN
 90
        5
170
     1
 91
        0
 92
        0
 62
   257
 93
        1
300
CONTENTFORMAT
  1
CONTENTFORMAT_BEGIN
 90
        0
 91
        0
 92
        4
 93
        0
300

 40
0.0
140
1.0
 94
        5
 62
     0
340
57D
144
0.18
309
CONTENTFORMAT_END
171
     1
301
MARGIN
  1
CELLMARGIN_BEGIN
 40
0.06
 40
0.06
 40
0.06
 40
0.06
 40
0.06
 40
0.06
309
CELLMARGIN_END
 94
        6
 95
        1
302
GRIDFORMAT
  1
GRIDFORMAT_BEGIN
 90
        0
 91
        1
 62
     0
 92
       -2
340
57F
 93
        0
 40
0.045
309
GRIDFORMAT_END
 95
        2
302
GRIDFORMAT
  1
GRIDFORMAT_BEGIN
 90
        0
 91
        1
 62
     0
 92
       -2
340
57F
 93
        0
 40
0.045
309
GRIDFORMAT_END
 95
        4
302
GRIDFORMAT
  1
GRIDFORMAT_BEGIN
 90
        0
 91
        1
 62
     0
 92
       -2
340
57F
 93
        0
 40
0.045
309
GRIDFORMAT_END
 95
        8
302
GRIDFORMAT
  1
GRIDFORMAT_BEGIN
 90
        0
 91
        1
 62
     0
 92
       -2
340
57F
 93
        0
 40
0.045
309
GRIDFORMAT_END
 95
       16
302
GRIDFORMAT
  1
GRIDFORMAT_BEGIN
 90
        0
 91
        1
 62
     0
 92
       -2
340
57F
 93
        0
 40
0.045
309
GRIDFORMAT_END
 95
       32
302
GRIDFORMAT
  1
GRIDFORMAT_BEGIN
 90
        0
 91
        1
 62
     0
 92
       -2
340
57F
 93
        0
 40
0.045
309
GRIDFORMAT_END
309
TABLEFORMAT_END
  1
CELLSTYLE_BEGIN
 90
        2
 91
        1
300
_HEADER
309
CELLSTYLE_END
300
CELLSTYLE
  1
TABLEFORMAT_BEGIN
 90
        5
170
     1
 91
        0
 92
        0
 62
   257
 93
        1
300
CONTENTFORMAT
  1
CONTENTFORMAT_BEGIN
 90
        0
 91
        0
 92
        4
 93
        0
300

 40
0.0
140
1.0
 94
        2
 62
     0
340
57D
144
0.18
309
CONTENTFORMAT_END
171
     1
301
MARGIN
  1
CELLMARGIN_BEGIN
 40
0.06
 40
0.06
 40
0.06
 40
0.06
 40
0.06
 40
0.06
309
CELLMARGIN_END
 94
        6
 95
        1
302
GRIDFORMAT
  1
GRIDFORMAT_BEGIN
 90
        0
 91
        1
 62
     0
 92
       -2
340
57F
 93
        0
 40
0.045
309
GRIDFORMAT_END
 95
        2
302
GRIDFORMAT
  1
GRIDFORMAT_BEGIN
 90
        0
 91
        1
 62
     0
 92
       -2
340
57F
 93
        0
 40
0.045
309
GRIDFORMAT_END
 95
        4
302
GRIDFORMAT
  1
GRIDFORMAT_BEGIN
 90
        0
 91
        1
 62
     0
 92
       -2
340
57F
 93
        0
 40
0.045
309
GRIDFORMAT_END
 95
        8
302
GRIDFORMAT
  1
GRIDFORMAT_BEGIN
 90
        0
 91
        1
 62
     0
 92
       -2
340
57F
 93
        0
 40
0.045
309
GRIDFORMAT_END
 95
       16
302
GRIDFORMAT
  1
GRIDFORMAT_BEGIN
 90
        0
 91
        1
 62
     0
 92
       -2
340
57F
 93
        0
 40
0.045
309
GRIDFORMAT_END
 95
       32
302
GRIDFORMAT
  1
GRIDFORMAT_BEGIN
 90
        0
 91
        1
 62
     0
 92
       -2
340
57F
 93
        0
 40
0.045
309
GRIDFORMAT_END
309
TABLEFORMAT_END
  1
CELLSTYLE_BEGIN
 90
        3
 91
        2
300
_DATA
309
CELLSTYLE_END
  0
ENDSEC
  0
EOF
