0
SECTION
2
HEADER
9
$ACADVER
1
AC1006
9
$INSBASE
10
0.0
20
0.0
30
0.0
9
$INSUNITS
70
1
9
$EXTMIN
10
-1.8801657867559916
20
-1.9616615115425384
30
0.0
9
$EXTMAX
10
2.019381353707722
20
1.9562289236535881
30
0.0
0
ENDSEC
0
SECTION
2
ENTITIES
0
SPLINE
5
140505207361944
8
0
62
0
40
0.0
40
0.0
40
0.0
40
0.0
40
0.009811138546786379
40
0.011095680479087582
40
0.015935653765693645
40
0.03015582311233913
40
0.03235891537073935
40
0.03364348349320818
40
0.035142380642399586
40
0.04081532314687144
40
0.05102008808229767
40
0.05293613536100023
40
0.056278955292807936
40
0.06255171056606412
40
0.07552274889143619
40
0.07697336679152282
40
0.07814231228698396
40
0.08212998658132036
40
0.09347429676936037
40
0.09615496399787724
40
0.09763443194944892
40
0.10221068638225182
40
0.1094113728986485
40
0.12020773873657803
40
0.12405650409215854
40
0.13546262111304785
40
0.1392933302647669
40
0.14098026085883578
40
0.14256758278206752
40
0.14872504376596477
40
0.15620553301562454
40
0.16209875020901324
40
0.16582279137174935
40
0.16856663899022
40
0.17462866036135066
40
0.1823101692202621
40
0.18433076101758591
40
0.18825445461079543
40
0.2026322549541058
40
0.20691251950719694
40
0.2087534817841968
40
0.21538497233678877
40
0.22437320581341497
40
0.22910997898540994
40
0.23459713834365992
40
0.24843579090654302
40
0.25183513452535833
40
0.25317654869579553
40
0.25654318532552256
40
0.2665712800003186
40
0.27014170857643705
40
0.27092386572113925
40
0.28135232099538793
40
0.29348299351167856
40
0.29501635030520573
40
0.2983186897929641
40
0.3082111333620246
40
0.31330419588212155
40
0.3142617138272153
40
0.3155516931396117
40
0.32822246175462516
40
0.33810204193990495
40
0.33991140101718104
40
0.34924588775881826
40
0.3575820727896671
40
0.35886928955093983
40
0.36079589167038206
40
0.37489732915312773
40
0.38013097268184515
40
0.38141811505063145
40
0.3878509922541493
40
0.3985465361405103
40
0.40087440130080604
40
0.4021962416660073
40
0.4067820970742561
40
0.41437473973155003
40
0.42108876809577017
40
0.4247533675316764
40
0.4293749776191883
40
0.44086372817780184
40
0.44387836787009993
40
0.4472597582643297
40
0.45333211880958907
40
0.4611239028125934
40
0.4665782881450817
40
0.4680997848908914
40
0.47148109251204695
40
0.48266133761888547
40
0.486981685297869
40
0.48876334679509437
40
0.5001733906773718
40
0.5113447401179344
40
0.5140170861964861
40
0.529945331216782
40
0.5321149046865474
40
0.5335908859460302
40
0.5395170892047104
40
0.5469987924883803
40
0.55312481646175
40
0.5564335961924493
40
0.5623732559445782
40
0.572695798561103
40
0.5754677743449921
40
0.5768713702306295
40
0.57915805564542
40
0.5935029352822739
40
0.598042708498666
40
0.599553087681182
40
0.6037340568508447
40
0.613853429359137
40
0.6188184572622839
40
0.6201628323813969
40
0.625410379577667
40
0.6394193301517077
40
0.6413833642609378
40
0.642759388428806
40
0.6457019873382511
40
0.6552840219818987
40
0.6610030703751254
40
0.662037557413107
40
0.6721189566790406
40
0.6845857780682859
40
0.6860233232954213
40
0.6881418397568279
40
0.6961640060807607
40
0.7040087258412965
40
0.7053499286665064
40
0.7066439400335324
40
0.718991636145966
40
0.7291948517230286
40
0.7304588249538654
40
0.736933161462996
40
0.7468234513042055
40
0.7486298510909256
40
0.7517668963165454
40
0.7582771750034291
40
0.7657179151966982
40
0.7712079648359029
40
0.7766857093550494
40
0.7881951568965517
40
0.7918602938307303
40
0.7933117961863299
40
0.7976430185090351
40
0.8120035778900414
40
0.8158833496622284
40
0.8189532216738661
40
0.8297888779786173
40
0.8346547317189389
40
0.8382603668310848
40
0.8441199841031258
40
0.8519279736380125
40
0.8576142694546531
40
0.8592358725789474
40
0.8615987092275612
40
0.864537378886952
40
0.870785625816077
40
0.877557128024339
40
0.8798992011205624
40
0.8909350023733265
40
0.902478724841123
40
0.9044937491293493
40
0.9115246409794752
40
0.9202138676994247
40
0.923251781651779
40
0.9246339821361583
40
0.9303183834446201
40
0.9377838253110202
40
0.944130957176408
40
0.9472805641257046
40
0.9509940870081437
40
0.9624981672166227
40
0.9658435577339557
40
0.9666007634512559
40
0.9700793345958785
40
0.9843585142522598
40
0.9890363706703046
40
0.9903361022596262
40
1.0
40
1.0
40
1.0
40
1.0
10
-0.05323191011359735
20
1.8010736412336699
30
0.0
10
-0.0013061212781452201
20
1.801054774163142
30
0.0
10
0.0351782226867973
20
1.841092348657238
30
0.0
10
0.07546600776881424
20
1.9050458714600265
30
0.0
10
0.15946935396627193
20
1.9562289236535881
30
0.0
10
0.27224405724148804
20
1.9398712213231508
30
0.0
10
0.32951433686970066
20
1.8769089619233508
30
0.0
10
0.3393579757457862
20
1.8556970447238745
30
0.0
10
0.3544558393916709
20
1.8186574958312998
30
0.0
10
0.4120739290559793
20
1.7562417559417407
30
0.0
10
0.5118537768636159
20
1.7597426198772623
30
0.0
10
0.5628482093462855
20
1.8120134333208715
30
0.0
10
0.6090628335730581
20
1.8431790683020262
30
0.0
10
0.7172908892230824
20
1.8505000308164108
30
0.0
10
0.8099954108505063
20
1.791097844715107
30
0.0
10
0.8301087360940715
20
1.7184671160245724
30
0.0
10
0.8329905692288816
20
1.687829181152412
30
0.0
10
0.857440575394615
20
1.6114708767876884
30
0.0
10
0.9527213231733167
20
1.5728045205360788
30
0.0
10
1.0201396844570414
20
1.602692381362754
30
0.0
10
1.0566657395131536
20
1.6227758749203547
30
0.0
10
1.1204275654956195
20
1.6265631843072412
30
0.0
10
1.2215581469141066
20
1.5837598254377567
30
0.0
10
1.2774518639876349
20
1.4860654663480342
30
0.0
10
1.2468389283848555
20
1.360621422068149
30
0.0
10
1.3302874492641577
20
1.28116025060355
30
0.0
10
1.4078644591798901
20
1.2845228700166107
30
0.0
10
1.441147259529552
20
1.292768458187473
30
0.0
10
1.4854289665977822
20
1.2937571732060742
30
0.0
10
1.5542242818518561
20
1.2630468065973608
30
0.0
10
1.6111561733700226
20
1.1894702703018993
30
0.0
10
1.6273254358877534
20
1.1060727894447728
30
0.0
10
1.6014835844165636
20
1.052228257868313
30
0.0
10
1.5874191297224847
20
0.9953060890477331
30
0.0
10
1.6130319207680843
20
0.9154814442682658
30
0.0
10
1.6815765240978358
20
0.8749071452775754
30
0.0
10
1.747023970245625
20
0.8759735662659747
30
0.0
10
1.8362762802607289
20
0.8366533976026468
30
0.0
10
1.8866246203383197
20
0.7244710953832826
30
0.0
10
1.8567815646329453
20
0.6305043812463477
30
0.0
10
1.8148547657410516
20
0.5863576549561088
30
0.0
10
1.7880279928770624
20
0.5026570080232151
30
0.0
10
1.8425850593320017
20
0.4107826460086153
30
0.0
10
1.9355696842294312
20
0.38797886398175496
30
0.0
10
2.0071276020411437
20
0.29694848367624205
30
0.0
10
2.007629024828766
20
0.1741295945177561
30
0.0
10
1.9420116223751653
20
0.11172246238423898
30
0.0
10
1.9098682426974543
20
0.09187847823793609
30
0.0
10
1.8667801864258522
20
0.03523865265656234
30
0.0
10
1.8725617873485327
20
-0.05816129510667946
30
0.0
10
1.9248475974528072
20
-0.10170603566354201
30
0.0
10
1.9835159804557556
20
-0.1434456748054485
30
0.0
10
2.019381353707722
20
-0.25542931468352087
30
0.0
10
1.9650691166164818
20
-0.3695766522139126
30
0.0
10
1.8891997629945243
20
-0.40131272006190094
30
0.0
10
1.8250264909691698
20
-0.4260368916766254
30
0.0
10
1.7864581566426079
20
-0.523041095771634
30
0.0
10
1.8216236289985195
20
-0.5907546427641469
30
0.0
10
1.8442397718050396
20
-0.6170699522337402
30
0.0
10
1.8824417574017798
20
-0.6774921283731175
30
0.0
10
1.865191506252644
20
-0.8029433945273421
30
0.0
10
1.7676677275802914
20
-0.8768580127491112
30
0.0
10
1.6653366749590002
20
-0.8760452912314937
30
0.0
10
1.5837895580713075
20
-0.9455799831421271
30
0.0
10
1.594114681954917
20
-1.0403840296317797
30
0.0
10
1.618592745978698
20
-1.088948766058977
30
0.0
10
1.626522894928426
20
-1.172104665330014
30
0.0
10
1.564765648201543
20
-1.2667081624835193
30
0.0
10
1.4688719385697508
20
-1.296437978338979
30
0.0
10
1.4087344159273998
20
-1.285552085918738
30
0.0
10
1.318586729632701
20
-1.2786656430476069
30
0.0
10
1.2534589007332122
20
-1.3717565703365078
30
0.0
10
1.263348469759366
20
-1.4380978583930408
30
0.0
10
1.268099945806665
20
-1.4766490209042449
30
0.0
10
1.2484968745623755
20
-1.5400837616758156
30
0.0
10
1.1843430228798257
20
-1.6032391268280701
30
0.0
10
1.0990177245637918
20
-1.6305816598558929
30
0.0
10
1.030470474964003
20
-1.611818048408116
30
0.0
10
0.947844780869063
20
-1.564886946062752
30
0.0
10
0.8454649492413878
20
-1.6246943389578923
30
0.0
10
0.831995484659235
20
-1.7063469364697879
30
0.0
10
0.8194392228739905
20
-1.7648000470934966
30
0.0
10
0.7579133456490349
20
-1.8242253898526284
30
0.0
10
0.6698861545515328
20
-1.8513024963149822
30
0.0
10
0.5981978249474573
20
-1.837289587783678
30
0.0
10
0.5593879693583428
20
-1.8080400568229262
30
0.0
10
0.5056639783311777
20
-1.7526720715207535
30
0.0
10
0.3952543590925757
20
-1.7630128481243723
30
0.0
10
0.3504558390055179
20
-1.830304670718949
30
0.0
10
0.3164529871129659
20
-1.9090003845067125
30
0.0
10
0.20272328207882548
20
-1.9616615115425384
30
0.0
10
0.07910607138367871
20
-1.9216264908395426
30
0.0
10
0.011052684096210753
20
-1.790073632852408
30
0.0
10
-0.12004037928670806
20
-1.7843549162670052
30
0.0
10
-0.1742353467955318
20
-1.8646664880888373
30
0.0
10
-0.20724888622037752
20
-1.8943852653142872
30
0.0
10
-0.2781944643779689
20
-1.9162892724788607
30
0.0
10
-0.3685210753109994
20
-1.898001291290235
30
0.0
10
-0.4362247787034618
20
-1.846556554223793
30
0.0
10
-0.45586297253370145
20
-1.7759690859511645
30
0.0
10
-0.5012788297387151
20
-1.693027713123184
30
0.0
10
-0.6111328615285018
20
-1.6835112168102329
30
0.0
10
-0.6638709217832648
20
-1.726269794198331
30
0.0
10
-0.6905197591863925
20
-1.7413956975980827
30
0.0
10
-0.7741907246223121
20
-1.7607001646570666
30
0.0
10
-0.8779381378872647
20
-1.7121580262281306
30
0.0
10
-0.9170038139654949
20
-1.6219587039725276
30
0.0
10
-0.915510382776769
20
-1.5730460402041515
30
0.0
10
-0.9256268819919459
20
-1.4993553120469576
30
0.0
10
-1.0157713820165613
20
-1.4348386025189248
30
0.0
10
-1.0907429532791117
20
-1.4602990526570965
30
0.0
10
-1.1436034064432619
20
-1.4745961749772762
30
0.0
10
-1.2411955505370533
20
-1.4561037315707404
30
0.0
10
-1.3148641855081524
20
-1.3694344270824153
30
0.0
10
-1.3149862640355416
20
-1.28595398922157
30
0.0
10
-1.3063459982923336
20
-1.2578161453402288
30
0.0
10
-1.2911554506332539
20
-1.1932682629985985
30
0.0
10
-1.3410283946102508
20
-1.1059142181375852
30
0.0
10
-1.4175281898112653
20
-1.0894277952188844
30
0.0
10
-1.4992421408666534
20
-1.0979562840991006
30
0.0
10
-1.600673203223057
20
-1.0364087605059988
30
0.0
10
-1.6334667119341568
20
-0.914478601018494
30
0.0
10
-1.5995068210931995
20
-0.844863788445508
30
0.0
10
-1.5692263842690997
20
-0.7999072342849449
30
0.0
10
-1.5734455886274985
20
-0.7047614876656096
30
0.0
10
-1.6421191568429498
20
-0.6499106774536967
30
0.0
10
-1.690879940338775
20
-0.642333456043036
30
0.0
10
-1.7601096068439994
20
-0.6210241604292147
30
0.0
10
-1.8273160884344286
20
-0.515617501602407
30
0.0
10
-1.8041560208658944
20
-0.39761684849820467
30
0.0
10
-1.7377153040156161
20
-0.34046756904569386
30
0.0
10
-1.6989340090798737
20
-0.26459853180736
30
0.0
10
-1.738686539327421
20
-0.17125574046452202
30
0.0
10
-1.8025274537840752
20
-0.14207398237233348
30
0.0
10
-1.8471345469476785
20
-0.11021613622527061
30
0.0
10
-1.8801657867559916
20
-0.0329951532943485
30
0.0
10
-1.873624759231997
20
0.06063780024127526
30
0.0
10
-1.824751960360288
20
0.1360400510856921
30
0.0
10
-1.7191141008865345
20
0.1741872477897597
30
0.0
10
-1.7036387063107767
20
0.29818334317019546
30
0.0
10
-1.7551263293595905
20
0.35552708747780826
30
0.0
10
-1.7889777913847729
20
0.3861783652080499
30
0.0
10
-1.827771484943203
20
0.47363359359036217
30
0.0
10
-1.7921699171532481
20
0.5925375408950179
30
0.0
10
-1.7028447173865255
20
0.6422486558565751
30
0.0
10
-1.6182428400920694
20
0.6511533073937299
30
0.0
10
-1.5578859499586015
20
0.7450480461779457
30
0.0
10
-1.5886052894381752
20
0.8304932184661953
30
0.0
10
-1.6246648180920922
20
0.8891396162754587
30
0.0
10
-1.6166985645245981
20
0.9749787818696289
30
0.0
10
-1.568492438971
20
1.053187266192979
30
0.0
10
-1.5035315599813075
20
1.0905212859037186
30
0.0
10
-1.4582645506806102
20
1.0940439172321252
30
0.0
10
-1.4255672206374175
20
1.0897989333368865
30
0.0
10
-1.3715404962798878
20
1.0987913669596272
30
0.0
10
-1.3088191061838879
20
1.1508470882134336
30
0.0
10
-1.2955981629522895
20
1.223999797401488
30
0.0
10
-1.3269266709887917
20
1.3182950285877595
30
0.0
10
-1.2749938004461336
20
1.4344660754672445
30
0.0
10
-1.1569980367495587
20
1.4838871816473627
30
0.0
10
-1.0628815228251633
20
1.4487108735014977
30
0.0
10
-0.9776162641127764
20
1.4499659612291267
30
0.0
10
-0.9134082275170275
20
1.5314424219081817
30
0.0
10
-0.917275143646321
20
1.5932415727237674
30
0.0
10
-0.9121788556856917
20
1.6405739720278785
30
0.0
10
-0.8737789088755824
20
1.7014782090653373
30
0.0
10
-0.7937745232470358
20
1.7477818283888444
30
0.0
10
-0.7090719023803933
20
1.752640839038445
30
0.0
10
-0.65536011388026
20
1.7203640578211703
30
0.0
10
-0.5815189978045489
20
1.6733344770062166
30
0.0
10
-0.47863629224015825
20
1.7143251978031704
30
0.0
10
-0.45426213119369346
20
1.7838050656375553
30
0.0
10
-0.4455222591790829
20
1.8185772363864074
30
0.0
10
-0.3986775360457352
20
1.894547126657282
30
0.0
10
-0.28094326223092025
20
1.9257876754201755
30
0.0
10
-0.19281145819689516
20
1.8849065287124263
30
0.0
10
-0.14562673993402053
20
1.827142099492218
30
0.0
10
-0.10335324586830376
20
1.7946720663452933
30
0.0
10
-0.05323191011359735
20
1.8010736412336699
30
0.0
0
ENDSEC
0
EOF
