999
dxfrw 0.5.13
0
SECTION
2
HEADER
9
$ACADVER
1
AC1021
9
$HANDSEED
5
20000
9
$DWGCODEPAGE
3
ANSI_1250
9
$INSBASE
10
0
20
0
30
0
9
$EXTMIN
10
-246
20
-249
30
0
9
$EXTMAX
10
205
20
217
30
0
9
$LIMMIN
10
0
20
0
9
$LIMMAX
10
420
20
297
9
$ORTHOMODE
70
0
9
$LTSCALE
40
1
9
$TEXTSTYLE
7
STANDARD
9
$CLAYER
8
IZREZ
9
$DIMASZ
40
3.5
9
$DIMLFAC
40
1
9
$DIMSCALE
40
1
9
$DIMEXO
40
1
9
$DIMEXE
40
1
9
$DIMTXT
40
3.5
9
$DIMTSZ
40
0
9
$DIMAUNIT
70
0
9
$DIMADEC
70
0
9
$DIMLUNIT
70
2
9
$DIMSTYLE
2
AM_ISO
9
$DIMGAP
40
1.5
9
$DIMTIH
70
0
9
$LUNITS
70
2
9
$LUPREC
70
2
9
$AUNITS
70
0
9
$AUPREC
70
0
9
$SPLINESEGS
70
8
9
$GRIDMODE
70
1
9
$SNAPSTYLE
70
0
9
$PINSBASE
10
0
20
0
30
0
9
$PLIMMIN
10
0
20
0
9
$PLIMMAX
10
0
20
0
9
$INSUNITS
70
4
9
$PSVPSCALE
40
1
0
ENDSEC
0
SECTION
2
CLASSES
0
ENDSEC
0
SECTION
2
TABLES
0
TABLE
2
VPORT
5
8
330
0
100
AcDbSymbolTable
70
1
0
VPORT
5
31
330
2
100
AcDbSymbolTableRecord
100
AcDbViewportTableRecord
2
*ACTIVE
70
0
10
0
20
0
11
1
21
1
12
218.867807154
22
112.33281493
13
0
23
0
14
10
24
10
15
10
25
10
16
0
26
0
36
1
17
0
27
0
37
0
40
480.494556765
41
1.90497737557
42
50
43
0
44
0
50
0
51
0
71
0
72
100
73
1
74
3
75
0
76
1
77
0
78
0
281
0
65
1
110
0
120
0
130
0
111
1
121
0
131
0
112
0
122
1
132
0
79
0
146
0
348
10020
60
7
61
5
292
1
282
1
141
0
142
0
63
250
421
3358443
0
ENDTAB
0
TABLE
2
LTYPE
5
5
330
0
100
AcDbSymbolTable
70
4
0
LTYPE
5
14
330
5
100
AcDbSymbolTableRecord
100
AcDbLinetypeTableRecord
2
ByBlock
70
0
3

72
65
73
0
40
0
0
LTYPE
5
15
330
5
100
AcDbSymbolTableRecord
100
AcDbLinetypeTableRecord
2
ByLayer
70
0
3

72
65
73
0
40
0
0
LTYPE
5
16
330
5
100
AcDbSymbolTableRecord
100
AcDbLinetypeTableRecord
2
Continuous
70
0
3
Solid line
72
65
73
0
40
0
0
LTYPE
5
32
330
5
100
AcDbSymbolTableRecord
100
AcDbLinetypeTableRecord
2
DOT
70
0
3
Dot . . . . . . . . . . . . . . . . . . . . . .
72
65
73
2
40
6.35
49
0
74
0
49
-6.35
74
0
0
LTYPE
5
33
330
5
100
AcDbSymbolTableRecord
100
AcDbLinetypeTableRecord
2
DOT2
70
0
3
Dot (.5x) .....................................
72
65
73
2
40
3.175
49
0
74
0
49
-3.175
74
0
0
LTYPE
5
34
330
5
100
AcDbSymbolTableRecord
100
AcDbLinetypeTableRecord
2
DOTX2
70
0
3
Dot (2x) .  .  .  .  .  .  .  .  .  .  .  .  .
72
65
73
2
40
12.7
49
0
74
0
49
-12.7
74
0
0
LTYPE
5
35
330
5
100
AcDbSymbolTableRecord
100
AcDbLinetypeTableRecord
2
DASHED
70
0
3
Dot . . . . . . . . . . . . . . . . . . . . . .
72
65
73
2
40
19.05
49
12.7
74
0
49
-6.35
74
0
0
LTYPE
5
36
330
5
100
AcDbSymbolTableRecord
100
AcDbLinetypeTableRecord
2
DASHED2
70
0
3
Dashed (.5x) _ _ _ _ _ _ _ _ _ _ _ _ _ _ _ _ _
72
65
73
2
40
9.525
49
6.35
74
0
49
-3.175
74
0
0
LTYPE
5
37
330
5
100
AcDbSymbolTableRecord
100
AcDbLinetypeTableRecord
2
DASHEDX2
70
0
3
Dashed (2x) ____  ____  ____  ____  ____  ___
72
65
73
2
40
38.1
49
25.4
74
0
49
-12.7
74
0
0
LTYPE
5
38
330
5
100
AcDbSymbolTableRecord
100
AcDbLinetypeTableRecord
2
DASHDOT
70
0
3
Dash dot __ . __ . __ . __ . __ . __ . __ . __
72
65
73
4
40
25.4
49
12.7
74
0
49
-6.35
74
0
49
0
74
0
49
-6.35
74
0
0
LTYPE
5
39
330
5
100
AcDbSymbolTableRecord
100
AcDbLinetypeTableRecord
2
DASHDOT2
70
0
3
Dash dot (.5x) _._._._._._._._._._._._._._._.
72
65
73
4
40
12.7
49
6.35
74
0
49
-3.175
74
0
49
0
74
0
49
-3.175
74
0
0
LTYPE
5
3A
330
5
100
AcDbSymbolTableRecord
100
AcDbLinetypeTableRecord
2
DASHDOTX2
70
0
3
Dash dot (2x) ____  .  ____  .  ____  .  ___
72
65
73
4
40
50.8
49
25.4
74
0
49
-12.7
74
0
49
0
74
0
49
-12.7
74
0
0
LTYPE
5
3B
330
5
100
AcDbSymbolTableRecord
100
AcDbLinetypeTableRecord
2
DIVIDE
70
0
3
Divide ____ . . ____ . . ____ . . ____ . . ____
72
65
73
6
40
31.75
49
12.7
74
0
49
-6.35
74
0
49
0
74
0
49
-6.35
74
0
49
0
74
0
49
-6.35
74
0
0
LTYPE
5
3C
330
5
100
AcDbSymbolTableRecord
100
AcDbLinetypeTableRecord
2
DIVIDE2
70
0
3
Divide (.5x) __..__..__..__..__..__..__..__.._
72
65
73
6
40
15.875
49
6.35
74
0
49
-3.175
74
0
49
0
74
0
49
-3.175
74
0
49
0
74
0
49
-3.175
74
0
0
LTYPE
5
3D
330
5
100
AcDbSymbolTableRecord
100
AcDbLinetypeTableRecord
2
DIVIDEX2
70
0
3
Divide (2x) ________  .  .  ________  .  .  _
72
65
73
6
40
63.5
49
25.4
74
0
49
-12.7
74
0
49
0
74
0
49
-12.7
74
0
49
0
74
0
49
-12.7
74
0
0
LTYPE
5
3E
330
5
100
AcDbSymbolTableRecord
100
AcDbLinetypeTableRecord
2
BORDER
70
0
3
Border __ __ . __ __ . __ __ . __ __ . __ __ .
72
65
73
6
40
44.45
49
12.7
74
0
49
-6.35
74
0
49
12.7
74
0
49
-6.35
74
0
49
0
74
0
49
-6.35
74
0
0
LTYPE
5
3F
330
5
100
AcDbSymbolTableRecord
100
AcDbLinetypeTableRecord
2
BORDER2
70
0
3
Border (.5x) __.__.__.__.__.__.__.__.__.__.__.
72
65
73
6
40
22.225
49
6.35
74
0
49
-3.175
74
0
49
6.35
74
0
49
-3.175
74
0
49
0
74
0
49
-3.175
74
0
0
LTYPE
5
40
330
5
100
AcDbSymbolTableRecord
100
AcDbLinetypeTableRecord
2
BORDERX2
70
0
3
Border (2x) ____  ____  .  ____  ____  .  ___
72
65
73
6
40
88.9
49
25.4
74
0
49
-12.7
74
0
49
25.4
74
0
49
-12.7
74
0
49
0
74
0
49
-12.7
74
0
0
LTYPE
5
41
330
5
100
AcDbSymbolTableRecord
100
AcDbLinetypeTableRecord
2
CENTER
70
0
3
Center ____ _ ____ _ ____ _ ____ _ ____ _ ____
72
65
73
4
40
50.8
49
31.75
74
0
49
-6.35
74
0
49
6.35
74
0
49
-6.35
74
0
0
LTYPE
5
42
330
5
100
AcDbSymbolTableRecord
100
AcDbLinetypeTableRecord
2
CENTER2
70
0
3
Center (.5x) ___ _ ___ _ ___ _ ___ _ ___ _ ___
72
65
73
4
40
28.575
49
19.05
74
0
49
-3.175
74
0
49
3.175
74
0
49
-3.175
74
0
0
LTYPE
5
43
330
5
100
AcDbSymbolTableRecord
100
AcDbLinetypeTableRecord
2
CENTERX2
70
0
3
Center (2x) ________  __  ________  __  _____
72
65
73
4
40
101.6
49
63.5
74
0
49
-12.7
74
0
49
12.7
74
0
49
-12.7
74
0
0
ENDTAB
0
TABLE
2
LAYER
5
2
330
0
100
AcDbSymbolTable
70
1
0
LAYER
5
10
330
2
100
AcDbSymbolTableRecord
100
AcDbLayerTableRecord
2
0
70
0
62
2
6
CONTINUOUS
370
-3
390
F
0
LAYER
5
44
330
2
100
AcDbSymbolTableRecord
100
AcDbLayerTableRecord
2
GRAVIRANJE
70
0
62
3
6
CONTINUOUS
370
-3
390
F
0
LAYER
5
45
330
2
100
AcDbSymbolTableRecord
100
AcDbLayerTableRecord
2
HOLES
70
0
62
160
6
CONTINUOUS
370
-3
390
F
0
LAYER
5
46
330
2
100
AcDbSymbolTableRecord
100
AcDbLayerTableRecord
2
IZREZ
70
0
62
7
6
CONTINUOUS
370
-3
390
F
0
ENDTAB
0
TABLE
2
STYLE
5
3
330
0
100
AcDbSymbolTable
70
3
0
STYLE
5
47
330
2
100
AcDbSymbolTableRecord
100
AcDbTextStyleTableRecord
2
standard
70
0
40
0
41
1
50
0
71
0
42
1
3
standard
4

0
ENDTAB
0
TABLE
2
VIEW
5
6
330
0
100
AcDbSymbolTable
70
0
0
ENDTAB
0
TABLE
2
UCS
5
7
330
0
100
AcDbSymbolTable
70
0
0
ENDTAB
0
TABLE
2
APPID
5
9
330
0
100
AcDbSymbolTable
70
1
0
APPID
5
12
330
9
100
AcDbSymbolTableRecord
100
AcDbRegAppTableRecord
2
ACAD
70
0
0
APPID
5
48
330
9
100
AcDbSymbolTableRecord
100
AcDbRegAppTableRecord
2
LibreCad
70
0
0
ENDTAB
0
TABLE
2
DIMSTYLE
5
A
330
0
100
AcDbSymbolTable
70
1
100
AcDbDimStyleTable
71
1
0
DIMSTYLE
105
49
330
A
100
AcDbSymbolTableRecord
100
AcDbDimStyleTableRecord
2
Standard
70
0
40
1
41
3.5
42
1
43
0.38
44
1
45
0
46
0
47
0
48
0
140
3.5
141
0.09
142
0
143
25.4
144
1
145
0
146
1
147
1.5
148
0
71
0
72
0
73
0
74
1
75
0
76
0
77
0
78
0
79
0
170
0
171
2
172
0
173
0
174
0
175
0
176
0
177
0
178
0
179
0
271
4
272
4
273
2
274
2
275
0
276
0
277
2
278
46
279
0
280
0
281
0
282
0
283
1
284
0
285
0
286
0
288
0
289
3
340
Standard
341

371
-2
372
-2
0
ENDTAB
0
TABLE
2
BLOCK_RECORD
5
1
330
0
100
AcDbSymbolTable
70
2
0
BLOCK_RECORD
5
1F
330
1
100
AcDbSymbolTableRecord
100
AcDbBlockTableRecord
2
*Model_Space
70
0
280
1
281
0
0
BLOCK_RECORD
5
1E
330
1
100
AcDbSymbolTableRecord
100
AcDbBlockTableRecord
2
*Paper_Space
70
0
280
1
281
0
0
BLOCK_RECORD
5
4A
330
1
100
AcDbSymbolTableRecord
100
AcDbBlockTableRecord
2
*D21
70
0
280
1
281
0
0
BLOCK_RECORD
5
4D
330
1
100
AcDbSymbolTableRecord
100
AcDbBlockTableRecord
2
*D16
70
0
280
1
281
0
0
BLOCK_RECORD
5
50
330
1
100
AcDbSymbolTableRecord
100
AcDbBlockTableRecord
2
*D3
70
0
280
1
281
0
0
BLOCK_RECORD
5
53
330
1
100
AcDbSymbolTableRecord
100
AcDbBlockTableRecord
2
*D12
70
0
280
1
281
0
0
BLOCK_RECORD
5
56
330
1
100
AcDbSymbolTableRecord
100
AcDbBlockTableRecord
2
*D18
70
0
280
1
281
0
0
BLOCK_RECORD
5
59
330
1
100
AcDbSymbolTableRecord
100
AcDbBlockTableRecord
2
*D8
70
0
280
1
281
0
0
BLOCK_RECORD
5
5C
330
1
100
AcDbSymbolTableRecord
100
AcDbBlockTableRecord
2
*D11
70
0
280
1
281
0
0
BLOCK_RECORD
5
5F
330
1
100
AcDbSymbolTableRecord
100
AcDbBlockTableRecord
2
*D2
70
0
280
1
281
0
0
BLOCK_RECORD
5
62
330
1
100
AcDbSymbolTableRecord
100
AcDbBlockTableRecord
2
*D9
70
0
280
1
281
0
0
BLOCK_RECORD
5
65
330
1
100
AcDbSymbolTableRecord
100
AcDbBlockTableRecord
2
*D22
70
0
280
1
281
0
0
BLOCK_RECORD
5
68
330
1
100
AcDbSymbolTableRecord
100
AcDbBlockTableRecord
2
*D13
70
0
280
1
281
0
0
BLOCK_RECORD
5
6B
330
1
100
AcDbSymbolTableRecord
100
AcDbBlockTableRecord
2
*D14
70
0
280
1
281
0
0
BLOCK_RECORD
5
6E
330
1
100
AcDbSymbolTableRecord
100
AcDbBlockTableRecord
2
*D17
70
0
280
1
281
0
0
BLOCK_RECORD
5
71
330
1
100
AcDbSymbolTableRecord
100
AcDbBlockTableRecord
2
*D15
70
0
280
1
281
0
0
BLOCK_RECORD
5
74
330
1
100
AcDbSymbolTableRecord
100
AcDbBlockTableRecord
2
*D6
70
0
280
1
281
0
0
BLOCK_RECORD
5
77
330
1
100
AcDbSymbolTableRecord
100
AcDbBlockTableRecord
2
*D5
70
0
280
1
281
0
0
BLOCK_RECORD
5
7A
330
1
100
AcDbSymbolTableRecord
100
AcDbBlockTableRecord
2
*D10
70
0
280
1
281
0
0
BLOCK_RECORD
5
7D
330
1
100
AcDbSymbolTableRecord
100
AcDbBlockTableRecord
2
*D20
70
0
280
1
281
0
0
BLOCK_RECORD
5
80
330
1
100
AcDbSymbolTableRecord
100
AcDbBlockTableRecord
2
*D1
70
0
280
1
281
0
0
BLOCK_RECORD
5
83
330
1
100
AcDbSymbolTableRecord
100
AcDbBlockTableRecord
2
*D7
70
0
280
1
281
0
0
BLOCK_RECORD
5
86
330
1
100
AcDbSymbolTableRecord
100
AcDbBlockTableRecord
2
*D19
70
0
280
1
281
0
0
BLOCK_RECORD
5
89
330
1
100
AcDbSymbolTableRecord
100
AcDbBlockTableRecord
2
*D4
70
0
280
1
281
0
0
BLOCK_RECORD
5
8C
330
1
100
AcDbSymbolTableRecord
100
AcDbBlockTableRecord
2
GENAXEH
70
0
280
1
281
0
0
ENDTAB
0
ENDSEC
0
SECTION
2
BLOCKS
0
BLOCK
5
20
330
1F
100
AcDbEntity
8
0
100
AcDbBlockBegin
2
*Model_Space
70
0
10
0
20
0
30
0
3
*Model_Space
1

0
ENDBLK
5
21
330
1F
100
AcDbEntity
8
0
100
AcDbBlockEnd
0
BLOCK
5
1C
330
1B
100
AcDbEntity
8
0
100
AcDbBlockBegin
2
*Paper_Space
70
0
10
0
20
0
30
0
3
*Paper_Space
1

0
ENDBLK
5
1D
330
1F
100
AcDbEntity
8
0
100
AcDbBlockEnd
0
BLOCK
5
4B
330
4A
100
AcDbEntity
8
0
100
AcDbBlockBegin
2
*D21
70
1
10
0
20
0
3
*D21
1

0
LINE
5
8F
100
AcDbEntity
8
0
6
CONTINUOUS
62
7
370
0
100
AcDbLine
10
-41
20
199
11
-41
21
105
0
SOLID
5
90
100
AcDbEntity
8
0
6
CONTINUOUS
62
7
370
0
100
AcDbTrace
10
-41
20
199
30
0
11
-40.4172014791
21
195.5
31
0
12
-41.5827985209
22
195.5
32
0
13
-41.5827985209
23
195.5
33
0
0
SOLID
5
91
100
AcDbEntity
8
0
6
CONTINUOUS
62
7
370
0
100
AcDbTrace
10
-41
20
105
30
0
11
-41.5827985209
21
108.5
31
0
12
-40.4172014791
22
108.5
32
0
13
-40.4172014791
23
108.5
33
0
0
MTEXT
5
92
100
AcDbEntity
8
0
6
CONTINUOUS
62
7
370
0
100
AcDbMText
10
-44.25
20
152
30
0
40
3.5
41
11.2777777778
71
5
72
1
1
94.00
7
standard
210
0
220
0
230
1
50
90
73
2
44
1
0
LINE
5
93
100
AcDbEntity
8
0
6
CONTINUOUS
62
7
370
0
100
AcDbLine
10
-31
20
199
11
-42
21
199
0
LINE
5
94
100
AcDbEntity
8
0
6
CONTINUOUS
62
7
370
0
100
AcDbLine
10
-31
20
105
11
-42
21
105
0
ENDBLK
5
4C
330
4A
100
AcDbEntity
8
0
100
AcDbBlockEnd
0
BLOCK
5
4E
330
4D
100
AcDbEntity
8
0
100
AcDbBlockBegin
2
*D16
70
1
10
0
20
0
3
*D16
1

0
LINE
5
95
100
AcDbEntity
8
0
6
CONTINUOUS
62
7
370
0
100
AcDbLine
10
199
20
200
11
199
21
213
0
LINE
5
96
100
AcDbEntity
8
0
6
CONTINUOUS
62
7
370
0
100
AcDbLine
10
16
20
200
11
16
21
213
0
LINE
5
97
100
AcDbEntity
8
0
6
CONTINUOUS
62
7
370
0
100
AcDbLine
10
199
20
212
11
16
21
212
0
SOLID
5
98
100
AcDbEntity
8
0
6
CONTINUOUS
62
7
370
0
100
AcDbTrace
10
199
20
212
30
0
11
195.5
21
211.417201479
31
0
12
195.5
22
212.582798521
32
0
13
195.5
23
212.582798521
33
0
0
SOLID
5
99
100
AcDbEntity
8
0
6
CONTINUOUS
62
7
370
0
100
AcDbTrace
10
16
20
212
30
0
11
19.5
21
212.582798521
31
0
12
19.5
22
211.417201479
32
0
13
19.5
23
211.417201479
33
0
0
MTEXT
5
9A
100
AcDbEntity
8
0
6
CONTINUOUS
62
7
370
0
100
AcDbMText
10
107.5
20
215.25
30
0
40
3.5
41
12.8333333333
71
5
72
1
1
183.00
7
standard
210
0
220
0
230
1
50
360
73
2
44
1
0
ENDBLK
5
4F
330
4D
100
AcDbEntity
8
0
100
AcDbBlockEnd
0
BLOCK
5
51
330
50
100
AcDbEntity
8
0
100
AcDbBlockBegin
2
*D3
70
1
10
0
20
0
3
*D3
1

0
LINE
5
9B
100
AcDbEntity
8
0
6
CONTINUOUS
62
7
370
0
100
AcDbLine
10
-170
20
-198
11
-170
21
-198
0
LINE
5
9C
100
AcDbEntity
8
0
6
CONTINUOUS
62
7
370
0
100
AcDbLine
10
-170
20
199
11
-170
21
199
0
LINE
5
9D
100
AcDbEntity
8
0
6
CONTINUOUS
62
7
370
0
100
AcDbLine
10
-171
20
-198
11
-171
21
199
0
SOLID
5
9E
100
AcDbEntity
8
0
6
CONTINUOUS
62
7
370
0
100
AcDbTrace
10
-171
20
-198
30
0
11
-171.582798521
21
-194.5
31
0
12
-170.417201479
22
-194.5
32
0
13
-170.417201479
23
-194.5
33
0
0
SOLID
5
9F
100
AcDbEntity
8
0
6
CONTINUOUS
62
7
370
0
100
AcDbTrace
10
-171
20
199
30
0
11
-170.417201479
21
195.5
31
0
12
-171.582798521
22
195.5
32
0
13
-171.582798521
23
195.5
33
0
0
MTEXT
5
A0
100
AcDbEntity
8
0
6
CONTINUOUS
62
7
370
0
100
AcDbMText
10
-167.75
20
0.5
30
0
40
3.5
41
13.6111111111
71
5
72
1
1
397.00
7
standard
210
0
220
0
230
1
50
90
73
2
44
1
0
ENDBLK
5
52
330
50
100
AcDbEntity
8
0
100
AcDbBlockEnd
0
BLOCK
5
54
330
53
100
AcDbEntity
8
0
100
AcDbBlockBegin
2
*D12
70
1
10
0
20
0
3
*D12
1

0
LINE
5
A1
100
AcDbEntity
8
0
6
CONTINUOUS
62
7
370
0
100
AcDbLine
10
-200
20
157
11
-212
21
157
0
LINE
5
A2
100
AcDbEntity
8
0
6
CONTINUOUS
62
7
370
0
100
AcDbLine
10
-200
20
199
11
-212
21
199
0
LINE
5
A3
100
AcDbEntity
8
0
6
CONTINUOUS
62
7
370
0
100
AcDbLine
10
-211
20
157
11
-211
21
199
0
SOLID
5
A4
100
AcDbEntity
8
0
6
CONTINUOUS
62
7
370
0
100
AcDbTrace
10
-211
20
157
30
0
11
-211.582798521
21
160.5
31
0
12
-210.417201479
22
160.5
32
0
13
-210.417201479
23
160.5
33
0
0
SOLID
5
A5
100
AcDbEntity
8
0
6
CONTINUOUS
62
7
370
0
100
AcDbTrace
10
-211
20
199
30
0
11
-210.417201479
21
195.5
31
0
12
-211.582798521
22
195.5
32
0
13
-211.582798521
23
195.5
33
0
0
MTEXT
5
A6
100
AcDbEntity
8
0
6
CONTINUOUS
62
7
370
0
100
AcDbMText
10
-214.25
20
178
30
0
40
3.5
41
11.2777777778
71
5
72
1
1
42.00
7
standard
210
0
220
0
230
1
50
90
73
2
44
1
0
ENDBLK
5
55
330
53
100
AcDbEntity
8
0
100
AcDbBlockEnd
0
BLOCK
5
57
330
56
100
AcDbEntity
8
0
100
AcDbBlockBegin
2
*D18
70
1
10
0
20
0
3
*D18
1

0
LINE
5
A7
100
AcDbEntity
8
0
6
CONTINUOUS
62
7
370
0
100
AcDbLine
10
-0.6
20
173
11
-0.6
21
167
0
LINE
5
A8
100
AcDbEntity
8
0
6
CONTINUOUS
62
7
370
0
100
AcDbLine
10
2.6
20
173
11
2.6
21
167
0
LINE
5
A9
100
AcDbEntity
8
0
6
CONTINUOUS
62
7
370
0
100
AcDbLine
10
-7.6
20
168
11
9.6
21
168
0
SOLID
5
AA
100
AcDbEntity
8
0
6
CONTINUOUS
62
7
370
0
100
AcDbTrace
10
-0.6
20
168
30
0
11
-4.1
21
167.417201479
31
0
12
-4.1
22
168.582798521
32
0
13
-4.1
23
168.582798521
33
0
0
SOLID
5
AB
100
AcDbEntity
8
0
6
CONTINUOUS
62
7
370
0
100
AcDbTrace
10
2.6
20
168
30
0
11
6.1
21
168.582798521
31
0
12
6.1
22
167.417201479
32
0
13
6.1
23
167.417201479
33
0
0
MTEXT
5
AC
100
AcDbEntity
8
0
6
CONTINUOUS
62
7
370
0
100
AcDbMText
10
8.18333333333
20
171.25
30
0
40
3.5
41
8.16666666667
71
5
72
1
1
3.20
7
standard
210
0
220
0
230
1
50
0
73
2
44
1
0
ENDBLK
5
58
330
56
100
AcDbEntity
8
0
100
AcDbBlockEnd
0
BLOCK
5
5A
330
59
100
AcDbEntity
8
0
100
AcDbBlockBegin
2
*D8
70
1
10
0
20
0
3
*D8
1

0
LINE
5
AD
100
AcDbEntity
8
0
6
CONTINUOUS
62
7
370
0
100
AcDbLine
10
-65
20
178
11
-70.775
21
178
0
LINE
5
AE
100
AcDbEntity
8
0
6
CONTINUOUS
62
7
370
0
100
AcDbLine
10
-65
20
199
11
-70.775
21
199
0
LINE
5
AF
100
AcDbEntity
8
0
6
CONTINUOUS
62
7
370
0
100
AcDbLine
10
-69.775
20
178
11
-69.775
21
199
0
SOLID
5
B0
100
AcDbEntity
8
0
6
CONTINUOUS
62
7
370
0
100
AcDbTrace
10
-69.775
20
178
30
0
11
-70.3577985209
21
181.5
31
0
12
-69.1922014791
22
181.5
32
0
13
-69.1922014791
23
181.5
33
0
0
SOLID
5
B1
100
AcDbEntity
8
0
6
CONTINUOUS
62
7
370
0
100
AcDbTrace
10
-69.775
20
199
30
0
11
-69.1922014791
21
195.5
31
0
12
-70.3577985209
22
195.5
32
0
13
-70.3577985209
23
195.5
33
0
0
MTEXT
5
B2
100
AcDbEntity
8
0
6
CONTINUOUS
62
7
370
0
100
AcDbMText
10
-73.025
20
188.5
30
0
40
3.5
41
10.1111111111
71
5
72
1
1
21.00
7
standard
210
0
220
0
230
1
50
90
73
2
44
1
0
ENDBLK
5
5B
330
59
100
AcDbEntity
8
0
100
AcDbBlockEnd
0
BLOCK
5
5D
330
5C
100
AcDbEntity
8
0
100
AcDbBlockBegin
2
*D11
70
1
10
0
20
0
3
*D11
1

0
LINE
5
B3
100
AcDbEntity
8
0
6
CONTINUOUS
62
7
370
0
100
AcDbLine
10
-200
20
-198
11
-242
21
-198
0
LINE
5
B4
100
AcDbEntity
8
0
6
CONTINUOUS
62
7
370
0
100
AcDbLine
10
-200
20
199
11
-242
21
199
0
LINE
5
B5
100
AcDbEntity
8
0
6
CONTINUOUS
62
7
370
0
100
AcDbLine
10
-241
20
-198
11
-241
21
199
0
SOLID
5
B6
100
AcDbEntity
8
0
6
CONTINUOUS
62
7
370
0
100
AcDbTrace
10
-241
20
-198
30
0
11
-241.582798521
21
-194.5
31
0
12
-240.417201479
22
-194.5
32
0
13
-240.417201479
23
-194.5
33
0
0
SOLID
5
B7
100
AcDbEntity
8
0
6
CONTINUOUS
62
7
370
0
100
AcDbTrace
10
-241
20
199
30
0
11
-240.417201479
21
195.5
31
0
12
-241.582798521
22
195.5
32
0
13
-241.582798521
23
195.5
33
0
0
MTEXT
5
B8
100
AcDbEntity
8
0
6
CONTINUOUS
62
7
370
0
100
AcDbMText
10
-244.25
20
0.5
30
0
40
3.5
41
13.6111111111
71
5
72
1
1
397.00
7
standard
210
0
220
0
230
1
50
90
73
2
44
1
0
ENDBLK
5
5E
330
5C
100
AcDbEntity
8
0
100
AcDbBlockEnd
0
BLOCK
5
60
330
5F
100
AcDbEntity
8
0
100
AcDbBlockBegin
2
*D2
70
1
10
0
20
0
3
*D2
1

0
LINE
5
B9
100
AcDbEntity
8
0
6
CONTINUOUS
62
7
370
0
100
AcDbLine
10
199
20
-199
11
199
21
-239
0
LINE
5
BA
100
AcDbEntity
8
0
6
CONTINUOUS
62
7
370
0
100
AcDbLine
10
-159
20
-199
11
-159
21
-239
0
LINE
5
BB
100
AcDbEntity
8
0
6
CONTINUOUS
62
7
370
0
100
AcDbLine
10
199
20
-238
11
-159
21
-238
0
SOLID
5
BC
100
AcDbEntity
8
0
6
CONTINUOUS
62
7
370
0
100
AcDbTrace
10
199
20
-238
30
0
11
195.5
21
-238.582798521
31
0
12
195.5
22
-237.417201479
32
0
13
195.5
23
-237.417201479
33
0
0
SOLID
5
BD
100
AcDbEntity
8
0
6
CONTINUOUS
62
7
370
0
100
AcDbTrace
10
-159
20
-238
30
0
11
-155.5
21
-237.417201479
31
0
12
-155.5
22
-238.582798521
32
0
13
-155.5
23
-238.582798521
33
0
0
MTEXT
5
BE
100
AcDbEntity
8
0
6
CONTINUOUS
62
7
370
0
100
AcDbMText
10
20
20
-234.75
30
0
40
3.5
41
13.6111111111
71
5
72
1
1
358.00
7
standard
210
0
220
0
230
1
50
360
73
2
44
1
0
ENDBLK
5
61
330
5F
100
AcDbEntity
8
0
100
AcDbBlockEnd
0
BLOCK
5
63
330
62
100
AcDbEntity
8
0
100
AcDbBlockBegin
2
*D9
70
1
10
0
20
0
3
*D9
1

0
LINE
5
BF
100
AcDbEntity
8
0
6
CONTINUOUS
62
7
370
0
100
AcDbLine
10
199
20
-199
11
199
21
-228.85
0
LINE
5
C0
100
AcDbEntity
8
0
6
CONTINUOUS
62
7
370
0
100
AcDbLine
10
-1.83690953073e-016
20
-199
11
-5.66686590231e-015
21
-228.85
0
LINE
5
C1
100
AcDbEntity
8
0
6
CONTINUOUS
62
7
370
0
100
AcDbLine
10
199
20
-227.85
11
-5.48317494924e-015
21
-227.85
0
SOLID
5
C2
100
AcDbEntity
8
0
6
CONTINUOUS
62
7
370
0
100
AcDbTrace
10
199
20
-227.85
30
0
11
195.5
21
-228.432798521
31
0
12
195.5
22
-227.267201479
32
0
13
195.5
23
-227.267201479
33
0
0
SOLID
5
C3
100
AcDbEntity
8
0
6
CONTINUOUS
62
7
370
0
100
AcDbTrace
10
-5.48317494924e-015
20
-227.85
30
0
11
3.5
21
-227.267201479
31
0
12
3.5
22
-228.432798521
32
0
13
3.5
23
-228.432798521
33
0
0
MTEXT
5
C4
100
AcDbEntity
8
0
6
CONTINUOUS
62
7
370
0
100
AcDbMText
10
99.5
20
-224.6
30
0
40
3.5
41
12.8333333333
71
5
72
1
1
199.00
7
standard
210
0
220
0
230
1
50
360
73
2
44
1
0
ENDBLK
5
64
330
62
100
AcDbEntity
8
0
100
AcDbBlockEnd
0
BLOCK
5
66
330
65
100
AcDbEntity
8
0
100
AcDbBlockBegin
2
*D22
70
1
10
0
20
0
3
*D22
1

0
LINE
5
C5
100
AcDbEntity
8
0
6
CONTINUOUS
62
7
370
0
100
AcDbLine
10
-41
20
-198
11
-41
21
-146
0
SOLID
5
C6
100
AcDbEntity
8
0
6
CONTINUOUS
62
7
370
0
100
AcDbTrace
10
-41
20
-198
30
0
11
-41.5827985209
21
-194.5
31
0
12
-40.4172014791
22
-194.5
32
0
13
-40.4172014791
23
-194.5
33
0
0
SOLID
5
C7
100
AcDbEntity
8
0
6
CONTINUOUS
62
7
370
0
100
AcDbTrace
10
-41
20
-146
30
0
11
-40.4172014791
21
-149.5
31
0
12
-41.5827985209
22
-149.5
32
0
13
-41.5827985209
23
-149.5
33
0
0
MTEXT
5
C8
100
AcDbEntity
8
0
6
CONTINUOUS
62
7
370
0
100
AcDbMText
10
-44.25
20
-172
30
0
40
3.5
41
10.8888888889
71
5
72
1
1
52.00
7
standard
210
0
220
0
230
1
50
90
73
2
44
1
0
LINE
5
C9
100
AcDbEntity
8
0
6
CONTINUOUS
62
7
370
0
100
AcDbLine
10
-31
20
-198
11
-42
21
-198
0
LINE
5
CA
100
AcDbEntity
8
0
6
CONTINUOUS
62
7
370
0
100
AcDbLine
10
-31
20
-146
11
-42
21
-146
0
ENDBLK
5
67
330
65
100
AcDbEntity
8
0
100
AcDbBlockEnd
0
BLOCK
5
69
330
68
100
AcDbEntity
8
0
100
AcDbBlockBegin
2
*D13
70
1
10
0
20
0
3
*D13
1

0
LINE
5
CB
100
AcDbEntity
8
0
6
CONTINUOUS
62
7
370
0
100
AcDbLine
10
-64
20
177
11
-64
21
161
0
LINE
5
CC
100
AcDbEntity
8
0
6
CONTINUOUS
62
7
370
0
100
AcDbLine
10
16
20
177
11
16
21
161
0
LINE
5
CD
100
AcDbEntity
8
0
6
CONTINUOUS
62
7
370
0
100
AcDbLine
10
-64
20
162
11
16
21
162
0
SOLID
5
CE
100
AcDbEntity
8
0
6
CONTINUOUS
62
7
370
0
100
AcDbTrace
10
-64
20
162
30
0
11
-60.5
21
162.582798521
31
0
12
-60.5
22
161.417201479
32
0
13
-60.5
23
161.417201479
33
0
0
SOLID
5
CF
100
AcDbEntity
8
0
6
CONTINUOUS
62
7
370
0
100
AcDbTrace
10
16
20
162
30
0
11
12.5
21
161.417201479
31
0
12
12.5
22
162.582798521
32
0
13
12.5
23
162.582798521
33
0
0
MTEXT
5
D0
100
AcDbEntity
8
0
6
CONTINUOUS
62
7
370
0
100
AcDbMText
10
-24
20
165.25
30
0
40
3.5
41
10.8888888889
71
5
72
1
1
80.00
7
standard
210
0
220
0
230
1
50
0
73
2
44
1
0
ENDBLK
5
6A
330
68
100
AcDbEntity
8
0
100
AcDbBlockEnd
0
BLOCK
5
6C
330
6B
100
AcDbEntity
8
0
100
AcDbBlockBegin
2
*D14
70
1
10
0
20
0
3
*D14
1

0
LINE
5
D1
100
AcDbEntity
8
0
6
CONTINUOUS
62
7
370
0
100
AcDbLine
10
16
20
177
11
16
21
161
0
LINE
5
D2
100
AcDbEntity
8
0
6
CONTINUOUS
62
7
370
0
100
AcDbLine
10
96
20
177
11
96
21
161
0
LINE
5
D3
100
AcDbEntity
8
0
6
CONTINUOUS
62
7
370
0
100
AcDbLine
10
16
20
162
11
96
21
162
0
SOLID
5
D4
100
AcDbEntity
8
0
6
CONTINUOUS
62
7
370
0
100
AcDbTrace
10
16
20
162
30
0
11
19.5
21
162.582798521
31
0
12
19.5
22
161.417201479
32
0
13
19.5
23
161.417201479
33
0
0
SOLID
5
D5
100
AcDbEntity
8
0
6
CONTINUOUS
62
7
370
0
100
AcDbTrace
10
96
20
162
30
0
11
92.5
21
161.417201479
31
0
12
92.5
22
162.582798521
32
0
13
92.5
23
162.582798521
33
0
0
MTEXT
5
D6
100
AcDbEntity
8
0
6
CONTINUOUS
62
7
370
0
100
AcDbMText
10
56
20
165.25
30
0
40
3.5
41
10.8888888889
71
5
72
1
1
80.00
7
standard
210
0
220
0
230
1
50
0
73
2
44
1
0
ENDBLK
5
6D
330
6B
100
AcDbEntity
8
0
100
AcDbBlockEnd
0
BLOCK
5
6F
330
6E
100
AcDbEntity
8
0
100
AcDbBlockBegin
2
*D17
70
1
10
0
20
0
3
*D17
1

0
LINE
5
D7
100
AcDbEntity
8
0
6
CONTINUOUS
62
7
370
0
100
AcDbLine
10
3.6
20
174
11
3.6
21
174
0
LINE
5
D8
100
AcDbEntity
8
0
6
CONTINUOUS
62
7
370
0
100
AcDbLine
10
11.95
20
174
11
11.95
21
174
0
LINE
5
D9
100
AcDbEntity
8
0
6
CONTINUOUS
62
7
370
0
100
AcDbLine
10
-4.4
20
174
11
17.95
21
174
0
SOLID
5
DA
100
AcDbEntity
8
0
6
CONTINUOUS
62
7
370
0
100
AcDbTrace
10
2.6
20
174
30
0
11
-0.9
21
173.417201479
31
0
12
-0.9
22
174.582798521
32
0
13
-0.9
23
174.582798521
33
0
0
SOLID
5
DB
100
AcDbEntity
8
0
6
CONTINUOUS
62
7
370
0
100
AcDbTrace
10
10.95
20
174
30
0
11
14.45
21
174.582798521
31
0
12
14.45
22
173.417201479
32
0
13
14.45
23
173.417201479
33
0
0
MTEXT
5
DC
100
AcDbEntity
8
0
6
CONTINUOUS
62
7
370
0
100
AcDbMText
10
6.775
20
177.25
30
0
40
3.5
41
8.16666666667
71
5
72
1
1
8.35
7
standard
210
0
220
0
230
1
50
0
73
2
44
1
0
ENDBLK
5
70
330
6E
100
AcDbEntity
8
0
100
AcDbBlockEnd
0
BLOCK
5
72
330
71
100
AcDbEntity
8
0
100
AcDbBlockBegin
2
*D15
70
1
10
0
20
0
3
*D15
1

0
LINE
5
DD
100
AcDbEntity
8
0
6
CONTINUOUS
62
7
370
0
100
AcDbLine
10
17
20
178
11
17
21
178
0
LINE
5
DE
100
AcDbEntity
8
0
6
CONTINUOUS
62
7
370
0
100
AcDbLine
10
17
20
199
11
17
21
199
0
LINE
5
DF
100
AcDbEntity
8
0
6
CONTINUOUS
62
7
370
0
100
AcDbLine
10
16
20
178
11
16
21
199
0
SOLID
5
E0
100
AcDbEntity
8
0
6
CONTINUOUS
62
7
370
0
100
AcDbTrace
10
16
20
178
30
0
11
15.4172014791
21
181.5
31
0
12
16.5827985209
22
181.5
32
0
13
16.5827985209
23
181.5
33
0
0
SOLID
5
E1
100
AcDbEntity
8
0
6
CONTINUOUS
62
7
370
0
100
AcDbTrace
10
16
20
199
30
0
11
16.5827985209
21
195.5
31
0
12
15.4172014791
22
195.5
32
0
13
15.4172014791
23
195.5
33
0
0
MTEXT
5
E2
100
AcDbEntity
8
0
6
CONTINUOUS
62
7
370
0
100
AcDbMText
10
12.75
20
188.5
30
0
40
3.5
41
10.1111111111
71
5
72
1
1
21.00
7
standard
210
0
220
0
230
1
50
90
73
2
44
1
0
ENDBLK
5
73
330
71
100
AcDbEntity
8
0
100
AcDbBlockEnd
0
BLOCK
5
75
330
74
100
AcDbEntity
8
0
100
AcDbBlockBegin
2
*D6
70
1
10
0
20
0
3
*D6
1

0
LINE
5
E3
100
AcDbEntity
8
0
6
CONTINUOUS
62
7
370
0
100
AcDbLine
10
-200
20
-198
11
-232
21
-198
0
LINE
5
E4
100
AcDbEntity
8
0
6
CONTINUOUS
62
7
370
0
100
AcDbLine
10
-200
20
157
11
-232
21
157
0
LINE
5
E5
100
AcDbEntity
8
0
6
CONTINUOUS
62
7
370
0
100
AcDbLine
10
-231
20
-198
11
-231
21
157
0
SOLID
5
E6
100
AcDbEntity
8
0
6
CONTINUOUS
62
7
370
0
100
AcDbTrace
10
-231
20
-198
30
0
11
-231.582798521
21
-194.5
31
0
12
-230.417201479
22
-194.5
32
0
13
-230.417201479
23
-194.5
33
0
0
SOLID
5
E7
100
AcDbEntity
8
0
6
CONTINUOUS
62
7
370
0
100
AcDbTrace
10
-231
20
157
30
0
11
-230.417201479
21
153.5
31
0
12
-231.582798521
22
153.5
32
0
13
-231.582798521
23
153.5
33
0
0
MTEXT
5
E8
100
AcDbEntity
8
0
6
CONTINUOUS
62
7
370
0
100
AcDbMText
10
-234.25
20
-20.5
30
0
40
3.5
41
13.6111111111
71
5
72
1
1
355.00
7
standard
210
0
220
0
230
1
50
90
73
2
44
1
0
ENDBLK
5
76
330
74
100
AcDbEntity
8
0
100
AcDbBlockEnd
0
BLOCK
5
78
330
77
100
AcDbEntity
8
0
100
AcDbBlockBegin
2
*D5
70
1
10
0
20
0
3
*D5
1

0
LINE
5
E9
100
AcDbEntity
8
0
6
CONTINUOUS
62
7
370
0
100
AcDbLine
10
-200
20
-198
11
-222
21
-198
0
LINE
5
EA
100
AcDbEntity
8
0
6
CONTINUOUS
62
7
370
0
100
AcDbLine
10
-200
20
1
11
-222
21
1
0
LINE
5
EB
100
AcDbEntity
8
0
6
CONTINUOUS
62
7
370
0
100
AcDbLine
10
-221
20
-198
11
-221
21
1
0
SOLID
5
EC
100
AcDbEntity
8
0
6
CONTINUOUS
62
7
370
0
100
AcDbTrace
10
-221
20
-198
30
0
11
-221.582798521
21
-194.5
31
0
12
-220.417201479
22
-194.5
32
0
13
-220.417201479
23
-194.5
33
0
0
SOLID
5
ED
100
AcDbEntity
8
0
6
CONTINUOUS
62
7
370
0
100
AcDbTrace
10
-221
20
1
30
0
11
-220.417201479
21
-2.5
31
0
12
-221.582798521
22
-2.5
32
0
13
-221.582798521
23
-2.5
33
0
0
MTEXT
5
EE
100
AcDbEntity
8
0
6
CONTINUOUS
62
7
370
0
100
AcDbMText
10
-224.25
20
-98.5
30
0
40
3.5
41
12.8333333333
71
5
72
1
1
199.00
7
standard
210
0
220
0
230
1
50
90
73
2
44
1
0
ENDBLK
5
79
330
77
100
AcDbEntity
8
0
100
AcDbBlockEnd
0
BLOCK
5
7B
330
7A
100
AcDbEntity
8
0
100
AcDbBlockBegin
2
*D10
70
1
10
0
20
0
3
*D10
1

0
LINE
5
EF
100
AcDbEntity
8
0
6
CONTINUOUS
62
7
370
0
100
AcDbLine
10
199
20
-199
11
199
21
-249
0
LINE
5
F0
100
AcDbEntity
8
0
6
CONTINUOUS
62
7
370
0
100
AcDbLine
10
-199
20
-199
11
-199
21
-249
0
LINE
5
F1
100
AcDbEntity
8
0
6
CONTINUOUS
62
7
370
0
100
AcDbLine
10
199
20
-248
11
-199
21
-248
0
SOLID
5
F2
100
AcDbEntity
8
0
6
CONTINUOUS
62
7
370
0
100
AcDbTrace
10
199
20
-248
30
0
11
195.5
21
-248.582798521
31
0
12
195.5
22
-247.417201479
32
0
13
195.5
23
-247.417201479
33
0
0
SOLID
5
F3
100
AcDbEntity
8
0
6
CONTINUOUS
62
7
370
0
100
AcDbTrace
10
-199
20
-248
30
0
11
-195.5
21
-247.417201479
31
0
12
-195.5
22
-248.582798521
32
0
13
-195.5
23
-248.582798521
33
0
0
MTEXT
5
F4
100
AcDbEntity
8
0
6
CONTINUOUS
62
7
370
0
100
AcDbMText
10
0
20
-244.75
30
0
40
3.5
41
13.6111111111
71
5
72
1
1
398.00
7
standard
210
0
220
0
230
1
50
360
73
2
44
1
0
ENDBLK
5
7C
330
7A
100
AcDbEntity
8
0
100
AcDbBlockEnd
0
BLOCK
5
7E
330
7D
100
AcDbEntity
8
0
100
AcDbBlockBegin
2
*D20
70
1
10
0
20
0
3
*D20
1

0
LINE
5
F5
100
AcDbEntity
8
0
6
CONTINUOUS
62
7
370
0
100
AcDbLine
10
10.95
20
181
11
10.95
21
173
0
LINE
5
F6
100
AcDbEntity
8
0
6
CONTINUOUS
62
7
370
0
100
AcDbLine
10
21.05
20
181
11
21.05
21
173
0
LINE
5
F7
100
AcDbEntity
8
0
6
CONTINUOUS
62
7
370
0
100
AcDbLine
10
10.95
20
174
11
21.05
21
174
0
SOLID
5
F8
100
AcDbEntity
8
0
6
CONTINUOUS
62
7
370
0
100
AcDbTrace
10
10.95
20
174
30
0
11
14.45
21
174.582798521
31
0
12
14.45
22
173.417201479
32
0
13
14.45
23
173.417201479
33
0
0
SOLID
5
F9
100
AcDbEntity
8
0
6
CONTINUOUS
62
7
370
0
100
AcDbTrace
10
21.05
20
174
30
0
11
17.55
21
173.417201479
31
0
12
17.55
22
174.582798521
32
0
13
17.55
23
174.582798521
33
0
0
MTEXT
5
FA
100
AcDbEntity
8
0
6
CONTINUOUS
62
7
370
0
100
AcDbMText
10
16
20
177.25
30
0
40
3.5
41
9.33333333333
71
5
72
1
1
10.10
7
standard
210
0
220
0
230
1
50
0
73
2
44
1
0
ENDBLK
5
7F
330
7D
100
AcDbEntity
8
0
100
AcDbBlockEnd
0
BLOCK
5
81
330
80
100
AcDbEntity
8
0
100
AcDbBlockBegin
2
*D1
70
1
10
0
20
0
3
*D1
1

0
LINE
5
FB
100
AcDbEntity
8
0
6
CONTINUOUS
62
7
370
0
100
AcDbLine
10
199
20
-199
11
199
21
-219
0
LINE
5
FC
100
AcDbEntity
8
0
6
CONTINUOUS
62
7
370
0
100
AcDbLine
10
159
20
-199
11
159
21
-219
0
LINE
5
FD
100
AcDbEntity
8
0
6
CONTINUOUS
62
7
370
0
100
AcDbLine
10
199
20
-218
11
159
21
-218
0
SOLID
5
FE
100
AcDbEntity
8
0
6
CONTINUOUS
62
7
370
0
100
AcDbTrace
10
199
20
-218
30
0
11
195.5
21
-218.582798521
31
0
12
195.5
22
-217.417201479
32
0
13
195.5
23
-217.417201479
33
0
0
SOLID
5
FF
100
AcDbEntity
8
0
6
CONTINUOUS
62
7
370
0
100
AcDbTrace
10
159
20
-218
30
0
11
162.5
21
-217.417201479
31
0
12
162.5
22
-218.582798521
32
0
13
162.5
23
-218.582798521
33
0
0
MTEXT
5
100
100
AcDbEntity
8
0
6
CONTINUOUS
62
7
370
0
100
AcDbMText
10
179
20
-214.75
30
0
40
3.5
41
11.2777777778
71
5
72
1
1
40.00
7
standard
210
0
220
0
230
1
50
360
73
2
44
1
0
ENDBLK
5
82
330
80
100
AcDbEntity
8
0
100
AcDbBlockEnd
0
BLOCK
5
84
330
83
100
AcDbEntity
8
0
100
AcDbBlockBegin
2
*D7
70
1
10
0
20
0
3
*D7
1

0
LINE
5
101
100
AcDbEntity
8
0
6
CONTINUOUS
62
7
370
0
100
AcDbLine
10
200
20
-126
11
200
21
-126
0
LINE
5
102
100
AcDbEntity
8
0
6
CONTINUOUS
62
7
370
0
100
AcDbLine
10
-198
20
-126
11
-198
21
-126
0
LINE
5
103
100
AcDbEntity
8
0
6
CONTINUOUS
62
7
370
0
100
AcDbLine
10
199
20
-126
11
-199
21
-126
0
SOLID
5
104
100
AcDbEntity
8
0
6
CONTINUOUS
62
7
370
0
100
AcDbTrace
10
199
20
-126
30
0
11
195.5
21
-126.582798521
31
0
12
195.5
22
-125.417201479
32
0
13
195.5
23
-125.417201479
33
0
0
SOLID
5
105
100
AcDbEntity
8
0
6
CONTINUOUS
62
7
370
0
100
AcDbTrace
10
-199
20
-126
30
0
11
-195.5
21
-125.417201479
31
0
12
-195.5
22
-126.582798521
32
0
13
-195.5
23
-126.582798521
33
0
0
MTEXT
5
106
100
AcDbEntity
8
0
6
CONTINUOUS
62
7
370
0
100
AcDbMText
10
0
20
-122.75
30
0
40
3.5
41
13.6111111111
71
5
72
1
1
398.00
7
standard
210
0
220
0
230
1
50
360
73
2
44
1
0
ENDBLK
5
85
330
83
100
AcDbEntity
8
0
100
AcDbBlockEnd
0
BLOCK
5
87
330
86
100
AcDbEntity
8
0
100
AcDbBlockBegin
2
*D19
70
1
10
0
20
0
3
*D19
1

0
LINE
5
107
100
AcDbEntity
8
0
6
CONTINUOUS
62
7
370
0
100
AcDbLine
10
3.6
20
182
11
3.6
21
182
0
LINE
5
108
100
AcDbEntity
8
0
6
CONTINUOUS
62
7
370
0
100
AcDbLine
10
33.6
20
182
11
33.6
21
182
0
LINE
5
109
100
AcDbEntity
8
0
6
CONTINUOUS
62
7
370
0
100
AcDbLine
10
2.6
20
182
11
32.6
21
182
0
SOLID
5
10A
100
AcDbEntity
8
0
6
CONTINUOUS
62
7
370
0
100
AcDbTrace
10
2.6
20
182
30
0
11
6.1
21
182.582798521
31
0
12
6.1
22
181.417201479
32
0
13
6.1
23
181.417201479
33
0
0
SOLID
5
10B
100
AcDbEntity
8
0
6
CONTINUOUS
62
7
370
0
100
AcDbTrace
10
32.6
20
182
30
0
11
29.1
21
181.417201479
31
0
12
29.1
22
182.582798521
32
0
13
29.1
23
182.582798521
33
0
0
MTEXT
5
10C
100
AcDbEntity
8
0
6
CONTINUOUS
62
7
370
0
100
AcDbMText
10
17.6
20
185.25
30
0
40
3.5
41
10.8888888889
71
5
72
1
1
30.00
7
standard
210
0
220
0
230
1
50
0
73
2
44
1
0
ENDBLK
5
88
330
86
100
AcDbEntity
8
0
100
AcDbBlockEnd
0
BLOCK
5
8A
330
89
100
AcDbEntity
8
0
100
AcDbBlockBegin
2
*D4
70
1
10
0
20
0
3
*D4
1

0
LINE
5
10D
100
AcDbEntity
8
0
6
CONTINUOUS
62
7
370
0
100
AcDbLine
10
-200
20
-198
11
-212
21
-198
0
LINE
5
10E
100
AcDbEntity
8
0
6
CONTINUOUS
62
7
370
0
100
AcDbLine
10
-200
20
-156
11
-212
21
-156
0
LINE
5
10F
100
AcDbEntity
8
0
6
CONTINUOUS
62
7
370
0
100
AcDbLine
10
-211
20
-198
11
-211
21
-156
0
SOLID
5
110
100
AcDbEntity
8
0
6
CONTINUOUS
62
7
370
0
100
AcDbTrace
10
-211
20
-198
30
0
11
-211.582798521
21
-194.5
31
0
12
-210.417201479
22
-194.5
32
0
13
-210.417201479
23
-194.5
33
0
0
SOLID
5
111
100
AcDbEntity
8
0
6
CONTINUOUS
62
7
370
0
100
AcDbTrace
10
-211
20
-156
30
0
11
-210.417201479
21
-159.5
31
0
12
-211.582798521
22
-159.5
32
0
13
-211.582798521
23
-159.5
33
0
0
MTEXT
5
112
100
AcDbEntity
8
0
6
CONTINUOUS
62
7
370
0
100
AcDbMText
10
-214.25
20
-177
30
0
40
3.5
41
11.2777777778
71
5
72
1
1
42.00
7
standard
210
0
220
0
230
1
50
90
73
2
44
1
0
ENDBLK
5
8B
330
89
100
AcDbEntity
8
0
100
AcDbBlockEnd
0
BLOCK
5
8D
330
8C
100
AcDbEntity
8
0
100
AcDbBlockBegin
2
GENAXEH
70
0
10
0
20
0
3
GENAXEH
1

0
LINE
5
113
100
AcDbEntity
8
0
6
ByLayer
62
256
370
-1
100
AcDbLine
10
-1
20
0
11
1
21
0
0
ENDBLK
5
8E
330
8C
100
AcDbEntity
8
0
100
AcDbBlockEnd
0
ENDSEC
0
SECTION
2
ENTITIES
0
TEXT
5
114
100
AcDbEntity
8
GRAVIRANJE
6
ByLayer
62
256
370
-1
100
AcDbText
10
-143.99508375
20
-143.718134922
30
0
40
5
1
X-min.
50
360
41
1
51
0
7
standard
71
0
210
0
220
0
230
1
100
AcDbText
0
TEXT
5
115
100
AcDbEntity
8
GRAVIRANJE
6
ByLayer
62
256
370
-1
100
AcDbText
10
-144.409659297
20
-133.655072308
30
0
40
5
1
Y-min.
50
360
41
1
51
0
7
standard
71
0
210
0
220
0
230
1
100
AcDbText
0
POINT
5
116
100
AcDbEntity
8
0
6
ByLayer
62
256
370
-1
100
AcDbPoint
10
159
20
-198
0
POINT
5
117
100
AcDbEntity
8
0
6
ByLayer
62
256
370
-1
100
AcDbPoint
10
-159
20
-198
0
DIMENSION
5
118
100
AcDbEntity
8
0
6
ByLayer
62
256
370
-1
100
AcDbDimension
2
*D1
10
159
20
-218
30
0
11
179
21
-214.75
31
0
70
33
71
5
3
Standard
53
0
210
0
220
0
230
1
100
AcDbAlignedDimension
13
199
23
-198
33
0
14
159
24
-198
34
0
0
DIMENSION
5
119
100
AcDbEntity
8
0
6
ByLayer
62
256
370
-1
100
AcDbDimension
2
*D2
10
-159
20
-238
30
0
11
20
21
-234.75
31
0
70
33
71
5
3
Standard
53
0
210
0
220
0
230
1
100
AcDbAlignedDimension
13
199
23
-198
33
0
14
-159
24
-198
34
0
0
DIMENSION
5
11A
100
AcDbEntity
8
0
6
ByLayer
62
256
370
-1
100
AcDbDimension
2
*D3
10
-171
20
199
30
0
11
-167.75
21
0.5
31
0
70
33
71
5
3
Standard
53
0
210
0
220
0
230
1
100
AcDbAlignedDimension
13
-171
23
-198
33
0
14
-171
24
199
34
0
0
POINT
5
11B
100
AcDbEntity
8
0
6
ByLayer
62
256
370
-1
100
AcDbPoint
10
159
20
199
0
POINT
5
11C
100
AcDbEntity
8
0
6
ByLayer
62
256
370
-1
100
AcDbPoint
10
-159
20
199
0
POINT
5
11D
100
AcDbEntity
8
0
6
ByLayer
62
256
370
-1
100
AcDbPoint
10
-199
20
-198
0
POINT
5
11E
100
AcDbEntity
8
0
6
ByLayer
62
256
370
-1
100
AcDbPoint
10
199
20
157
0
POINT
5
11F
100
AcDbEntity
8
0
6
ByLayer
62
256
370
-1
100
AcDbPoint
10
199
20
1
0
POINT
5
120
100
AcDbEntity
8
0
6
ByLayer
62
256
370
-1
100
AcDbPoint
10
199
20
-156
0
POINT
5
121
100
AcDbEntity
8
0
6
ByLayer
62
256
370
-1
100
AcDbPoint
10
-199
20
157
0
POINT
5
122
100
AcDbEntity
8
0
6
ByLayer
62
256
370
-1
100
AcDbPoint
10
-199
20
1
0
POINT
5
123
100
AcDbEntity
8
0
6
ByLayer
62
256
370
-1
100
AcDbPoint
10
-199
20
-156
0
DIMENSION
5
124
100
AcDbEntity
8
0
6
ByLayer
62
256
370
-1
100
AcDbDimension
2
*D4
10
-211
20
-156
30
0
11
-214.25
21
-177
31
0
70
33
71
5
3
Standard
53
0
210
0
220
0
230
1
100
AcDbAlignedDimension
13
-199
23
-198
33
0
14
-199
24
-156
34
0
0
DIMENSION
5
125
100
AcDbEntity
8
0
6
ByLayer
62
256
370
-1
100
AcDbDimension
2
*D5
10
-221
20
1
30
0
11
-224.25
21
-98.5
31
0
70
33
71
5
3
Standard
53
0
210
0
220
0
230
1
100
AcDbAlignedDimension
13
-199
23
-198
33
0
14
-199
24
1
34
0
0
DIMENSION
5
126
100
AcDbEntity
8
0
6
ByLayer
62
256
370
-1
100
AcDbDimension
2
*D6
10
-231
20
157
30
0
11
-234.25
21
-20.5
31
0
70
33
71
5
3
Standard
53
0
210
0
220
0
230
1
100
AcDbAlignedDimension
13
-199
23
-198
33
0
14
-199
24
157
34
0
0
POINT
5
127
100
AcDbEntity
8
0
6
ByLayer
62
256
370
-1
100
AcDbPoint
10
199
20
199
0
POINT
5
128
100
AcDbEntity
8
0
6
ByLayer
62
256
370
-1
100
AcDbPoint
10
-199
20
199
0
POINT
5
129
100
AcDbEntity
8
0
6
ByLayer
62
256
370
-1
100
AcDbPoint
10
199
20
-198
0
DIMENSION
5
12A
100
AcDbEntity
8
0
6
ByLayer
62
256
370
-1
100
AcDbDimension
2
*D7
10
-199
20
-126
30
0
11
0
21
-122.75
31
0
70
33
71
5
3
Standard
53
0
210
0
220
0
230
1
100
AcDbAlignedDimension
13
199
23
-126
33
0
14
-199
24
-126
34
0
0
POINT
5
12B
100
AcDbEntity
8
0
6
ByLayer
62
256
370
-1
100
AcDbPoint
10
-64
20
178
0
POINT
5
12C
100
AcDbEntity
8
0
6
ByLayer
62
256
370
-1
100
AcDbPoint
10
96
20
178
0
POINT
5
12D
100
AcDbEntity
8
0
6
ByLayer
62
256
370
-1
100
AcDbPoint
10
16
20
178
0
DIMENSION
5
12E
100
AcDbEntity
8
0
6
ByLayer
62
256
370
-1
100
AcDbDimension
2
*D8
10
-69.775
20
199
30
0
11
-73.025
21
188.5
31
0
70
33
71
5
3
Standard
53
0
210
0
220
0
230
1
100
AcDbAlignedDimension
13
-64
23
178
33
0
14
-64
24
199
34
0
0
CIRCLE
5
12F
100
AcDbEntity
8
HOLES
6
ByLayer
62
256
370
-1
100
AcDbCircle
10
-49
20
178
40
1.6
0
CIRCLE
5
130
100
AcDbEntity
8
HOLES
6
ByLayer
62
256
370
-1
100
AcDbCircle
10
-79
20
178
40
1.6
0
CIRCLE
5
131
100
AcDbEntity
8
HOLES
6
ByLayer
62
256
370
-1
100
AcDbCircle
10
111
20
178
40
1.6
0
CIRCLE
5
132
100
AcDbEntity
8
HOLES
6
ByLayer
62
256
370
-1
100
AcDbCircle
10
81
20
178
40
1.6
0
LWPOLYLINE
5
133
100
AcDbEntity
8
HOLES
6
ByLayer
62
256
370
-1
100
AcDbPolyline
90
4
70
1
43
0
10
-0.6
20
174
42
1
10
2.6
20
174
10
2.6
20
182
42
1
10
-0.6
20
182
0
LWPOLYLINE
5
134
100
AcDbEntity
8
HOLES
6
ByLayer
62
256
370
-1
100
AcDbPolyline
90
4
70
1
43
0
10
21.05
20
182
10
21.05
20
174
42
-1
10
10.95
20
174
10
10.95
20
182
42
-1
0
LWPOLYLINE
5
135
100
AcDbEntity
8
HOLES
6
ByLayer
62
256
370
-1
100
AcDbPolyline
90
4
70
1
43
0
10
29.4
20
174
42
1
10
32.6
20
174
10
32.6
20
182
42
1
10
29.4
20
182
0
POINT
5
136
100
AcDbEntity
8
0
6
ByLayer
62
256
370
-1
100
AcDbPoint
10
0
20
-198
0
POINT
5
137
100
AcDbEntity
8
0
6
ByLayer
62
256
370
-1
100
AcDbPoint
10
0
20
199
0
DIMENSION
5
138
100
AcDbEntity
8
0
6
ByLayer
62
256
370
-1
100
AcDbDimension
2
*D9
10
0
20
-227.85
30
0
11
99.5
21
-224.6
31
0
70
33
71
5
3
Standard
53
0
210
0
220
0
230
1
100
AcDbAlignedDimension
13
199
23
-198
33
0
14
0
24
-198
34
0
0
DIMENSION
5
139
100
AcDbEntity
8
0
6
ByLayer
62
256
370
-1
100
AcDbDimension
2
*D10
10
-199
20
-248
30
0
11
0
21
-244.75
31
0
70
33
71
5
72
0
3
Standard
53
0
210
0
220
0
230
1
100
AcDbAlignedDimension
13
199
23
-198
33
0
14
-199
24
-198
34
0
0
DIMENSION
5
13A
100
AcDbEntity
8
0
6
ByLayer
62
256
370
-1
100
AcDbDimension
2
*D11
10
-241
20
199
30
0
11
-244.25
21
0.5
31
0
70
33
71
5
72
0
3
Standard
53
0
210
0
220
0
230
1
100
AcDbAlignedDimension
13
-199
23
-198
33
0
14
-199
24
199
34
0
0
DIMENSION
5
13B
100
AcDbEntity
8
0
6
ByLayer
62
256
370
-1
100
AcDbDimension
2
*D12
10
-211
20
199
30
0
11
-214.25
21
178
31
0
70
33
71
5
72
0
3
Standard
53
0
210
0
220
0
230
1
100
AcDbAlignedDimension
13
-199
23
157
33
0
14
-199
24
199
34
0
0
TEXT
5
13C
100
AcDbEntity
8
GRAVIRANJE
6
ByLayer
62
256
370
-1
100
AcDbText
10
-144.24479679
20
105.982340696
30
0
40
5
1
Y-max.
50
360
41
1
51
0
7
standard
71
0
210
0
220
0
230
1
100
AcDbText
0
TEXT
5
13D
100
AcDbEntity
8
GRAVIRANJE
6
ByLayer
62
256
370
-1
100
AcDbText
10
-32.235745847
20
121.683683456
30
0
40
5
1
Z-min.
50
360
41
1
51
0
7
standard
71
0
210
0
220
0
230
1
100
AcDbText
0
CIRCLE
5
13E
100
AcDbEntity
8
HOLES
6
ByLayer
62
256
370
-1
100
AcDbCircle
10
-64
20
178
40
6
0
CIRCLE
5
13F
100
AcDbEntity
8
HOLES
6
ByLayer
62
256
370
-1
100
AcDbCircle
10
96
20
178
40
6
0
DIMENSION
5
140
100
AcDbEntity
8
0
6
ByLayer
62
256
370
-1
100
AcDbDimension
2
*D13
10
16
20
162
30
0
11
-24
21
165.25
31
0
70
33
71
5
3
Standard
53
0
210
0
220
0
230
1
100
AcDbAlignedDimension
13
-64
23
178
33
0
14
16
24
178
34
0
0
DIMENSION
5
141
100
AcDbEntity
8
0
6
ByLayer
62
256
370
-1
100
AcDbDimension
2
*D14
10
96
20
162
30
0
11
56
21
165.25
31
0
70
33
71
5
3
Standard
53
0
210
0
220
0
230
1
100
AcDbAlignedDimension
13
16
23
178
33
0
14
96
24
178
34
0
0
DIMENSION
5
142
100
AcDbEntity
8
0
6
ByLayer
62
256
370
-1
100
AcDbDimension
2
*D15
10
16
20
199
30
0
11
12.75
21
188.5
31
0
70
33
71
5
3
Standard
53
0
210
0
220
0
230
1
100
AcDbAlignedDimension
13
16
23
178
33
0
14
16
24
199
34
0
0
DIMENSION
5
143
100
AcDbEntity
8
0
6
ByLayer
62
256
370
-1
100
AcDbDimension
2
*D16
10
16
20
212
30
0
11
107.5
21
215.25
31
0
70
33
71
5
3
Standard
53
0
210
0
220
0
230
1
100
AcDbAlignedDimension
13
199
23
199
33
0
14
16
24
199
34
0
0
DIMENSION
5
144
100
AcDbEntity
8
0
6
ByLayer
62
256
370
-1
100
AcDbDimension
2
*D17
10
10.95
20
174
30
0
11
6.775
21
177.25
31
0
70
33
71
5
72
0
3
Standard
53
0
210
0
220
0
230
1
100
AcDbAlignedDimension
13
2.6
23
174
33
0
14
10.95
24
174
34
0
0
DIMENSION
5
145
100
AcDbEntity
8
0
6
ByLayer
62
256
370
-1
100
AcDbDimension
2
*D18
10
2.6
20
168
30
0
11
1
21
171.25
31
0
70
33
71
5
72
0
3
Standard
53
0
210
0
220
0
230
1
100
AcDbAlignedDimension
13
-0.6
23
174
33
0
14
2.6
24
174
34
0
0
DIMENSION
5
146
100
AcDbEntity
8
0
6
ByLayer
62
256
370
-1
100
AcDbDimension
2
*D19
10
32.6
20
182
30
0
11
17.6
21
185.25
31
0
70
33
71
5
72
0
3
Standard
53
0
210
0
220
0
230
1
100
AcDbAlignedDimension
13
2.6
23
182
33
0
14
32.6
24
182
34
0
0
DIMENSION
5
147
100
AcDbEntity
8
0
6
ByLayer
62
256
370
-1
100
AcDbDimension
2
*D20
10
21.05
20
174
30
0
11
16
21
177.25
31
0
70
33
71
5
72
0
3
Standard
53
0
210
0
220
0
230
1
100
AcDbAlignedDimension
13
10.95
23
182
33
0
14
21.05
24
182
34
0
0
TEXT
5
148
100
AcDbEntity
8
GRAVIRANJE
6
ByLayer
62
256
370
-1
100
AcDbText
10
161.272906461
20
-148.089155873
30
0
40
5
1
X-max.
50
360
41
1
51
0
7
standard
71
0
210
0
220
0
230
1
100
AcDbText
0
DIMENSION
5
149
100
AcDbEntity
8
0
6
ByLayer
62
256
370
-1
100
AcDbDimension
2
*D21
10
-41
20
105
30
0
11
-44.25
21
152
31
0
70
32
71
5
72
0
3
Standard
53
0
210
0
220
0
230
1
100
AcDbAlignedDimension
13
-30
23
199
33
0
14
-30
24
105
34
0
50
90
100
AcDbRotatedDimension
0
DIMENSION
5
14A
100
AcDbEntity
8
0
6
ByLayer
62
256
370
-1
100
AcDbDimension
2
*D22
10
-41
20
-146
30
0
11
-44.25
21
-172
31
0
70
32
71
5
72
0
3
Standard
53
0
210
0
220
0
230
1
100
AcDbAlignedDimension
13
-30
23
-198
33
0
14
-30
24
-146
34
0
50
90
100
AcDbRotatedDimension
0
POINT
5
14B
100
AcDbEntity
8
0
6
ByLayer
62
256
370
-1
100
AcDbPoint
10
-141
20
-118
0
POINT
5
14C
100
AcDbEntity
8
0
6
ByLayer
62
256
370
-1
100
AcDbPoint
10
-181
20
-118
0
POINT
5
14D
100
AcDbEntity
8
0
6
ByLayer
62
256
370
-1
100
AcDbPoint
10
-181
20
-158
0
POINT
5
14E
100
AcDbEntity
8
0
6
ByLayer
62
256
370
-1
100
AcDbPoint
10
-141
20
-158
0
CIRCLE
5
14F
100
AcDbEntity
8
HOLES
6
ByLayer
62
256
370
-1
100
AcDbCircle
10
-141
20
-118
40
1.5
0
CIRCLE
5
150
100
AcDbEntity
8
HOLES
6
ByLayer
62
256
370
-1
100
AcDbCircle
10
-181
20
-118
40
1.5
0
CIRCLE
5
151
100
AcDbEntity
8
HOLES
6
ByLayer
62
256
370
-1
100
AcDbCircle
10
-181
20
-158
40
1.5
0
CIRCLE
5
152
100
AcDbEntity
8
HOLES
6
ByLayer
62
256
370
-1
100
AcDbCircle
10
-141
20
-158
40
1.5
0
POINT
5
153
100
AcDbEntity
8
0
6
ByLayer
62
256
370
-1
100
AcDbPoint
10
-141
20
182
0
POINT
5
154
100
AcDbEntity
8
0
6
ByLayer
62
256
370
-1
100
AcDbPoint
10
-181
20
182
0
POINT
5
155
100
AcDbEntity
8
0
6
ByLayer
62
256
370
-1
100
AcDbPoint
10
-181
20
142
0
POINT
5
156
100
AcDbEntity
8
0
6
ByLayer
62
256
370
-1
100
AcDbPoint
10
-141
20
142
0
CIRCLE
5
157
100
AcDbEntity
8
HOLES
6
ByLayer
62
256
370
-1
100
AcDbCircle
10
-141
20
182
40
1.5
0
CIRCLE
5
158
100
AcDbEntity
8
HOLES
6
ByLayer
62
256
370
-1
100
AcDbCircle
10
-181
20
182
40
1.5
0
CIRCLE
5
159
100
AcDbEntity
8
HOLES
6
ByLayer
62
256
370
-1
100
AcDbCircle
10
-181
20
142
40
1.5
0
CIRCLE
5
15A
100
AcDbEntity
8
HOLES
6
ByLayer
62
256
370
-1
100
AcDbCircle
10
-141
20
142
40
1.5
0
CIRCLE
5
15B
100
AcDbEntity
8
HOLES
6
ByLayer
62
256
370
-1
100
AcDbCircle
10
-164
20
92
40
1.6
0
CIRCLE
5
15C
100
AcDbEntity
8
HOLES
6
ByLayer
62
256
370
-1
100
AcDbCircle
10
-158
20
92
40
1.6
0
CIRCLE
5
15D
100
AcDbEntity
8
HOLES
6
ByLayer
62
256
370
-1
100
AcDbCircle
10
-164
20
-8
40
1.6
0
CIRCLE
5
15E
100
AcDbEntity
8
HOLES
6
ByLayer
62
256
370
-1
100
AcDbCircle
10
-158
20
-8
40
1.6
0
CIRCLE
5
15F
100
AcDbEntity
8
HOLES
6
ByLayer
62
256
370
-1
100
AcDbCircle
10
-164
20
-58
40
1.6
0
CIRCLE
5
160
100
AcDbEntity
8
HOLES
6
ByLayer
62
256
370
-1
100
AcDbCircle
10
-158
20
-58
40
1.6
0
CIRCLE
5
161
100
AcDbEntity
8
HOLES
6
ByLayer
62
256
370
-1
100
AcDbCircle
10
-164
20
42
40
1.6
0
CIRCLE
5
162
100
AcDbEntity
8
HOLES
6
ByLayer
62
256
370
-1
100
AcDbCircle
10
-158
20
42
40
1.6
0
CIRCLE
5
163
100
AcDbEntity
8
HOLES
6
ByLayer
62
256
370
-1
100
AcDbCircle
10
-91
20
-181
40
1.6
0
CIRCLE
5
164
100
AcDbEntity
8
HOLES
6
ByLayer
62
256
370
-1
100
AcDbCircle
10
-91
20
-175
40
1.6
0
CIRCLE
5
165
100
AcDbEntity
8
HOLES
6
ByLayer
62
256
370
-1
100
AcDbCircle
10
9
20
-181
40
1.6
0
CIRCLE
5
166
100
AcDbEntity
8
HOLES
6
ByLayer
62
256
370
-1
100
AcDbCircle
10
9
20
-175
40
1.6
0
CIRCLE
5
167
100
AcDbEntity
8
HOLES
6
ByLayer
62
256
370
-1
100
AcDbCircle
10
109
20
-181
40
1.6
0
CIRCLE
5
168
100
AcDbEntity
8
HOLES
6
ByLayer
62
256
370
-1
100
AcDbCircle
10
109
20
-175
40
1.6
0
CIRCLE
5
169
100
AcDbEntity
8
HOLES
6
ByLayer
62
256
370
-1
100
AcDbCircle
10
59
20
-181
40
1.6
0
CIRCLE
5
16A
100
AcDbEntity
8
HOLES
6
ByLayer
62
256
370
-1
100
AcDbCircle
10
59
20
-175
40
1.6
0
CIRCLE
5
16B
100
AcDbEntity
8
HOLES
6
ByLayer
62
256
370
-1
100
AcDbCircle
10
-41
20
-181
40
1.6
0
CIRCLE
5
16C
100
AcDbEntity
8
HOLES
6
ByLayer
62
256
370
-1
100
AcDbCircle
10
-41
20
-175
40
1.6
0
CIRCLE
5
16D
100
AcDbEntity
8
HOLES
6
ByLayer
62
256
370
-1
100
AcDbCircle
10
-141
20
-181
40
1.6
0
CIRCLE
5
16E
100
AcDbEntity
8
HOLES
6
ByLayer
62
256
370
-1
100
AcDbCircle
10
-141
20
-175
40
1.6
0
CIRCLE
5
16F
100
AcDbEntity
8
HOLES
6
ByLayer
62
256
370
-1
100
AcDbCircle
10
149
20
-181
40
1.6
0
CIRCLE
5
170
100
AcDbEntity
8
HOLES
6
ByLayer
62
256
370
-1
100
AcDbCircle
10
149
20
-175
40
1.6
0
POINT
5
171
100
AcDbEntity
8
0
6
ByLayer
62
256
370
-1
100
AcDbPoint
10
179
20
179
0
POINT
5
172
100
AcDbEntity
8
0
6
ByLayer
62
256
370
-1
100
AcDbPoint
10
-179
20
-178
0
POINT
5
173
100
AcDbEntity
8
0
6
ByLayer
62
256
370
-1
100
AcDbPoint
10
179
20
-178
0
POINT
5
174
100
AcDbEntity
8
0
6
ByLayer
62
256
370
-1
100
AcDbPoint
10
-179
20
179
0
LWPOLYLINE
5
175
100
AcDbEntity
8
IZREZ
6
ByLayer
62
256
370
-1
100
AcDbPolyline
90
256
70
1
43
0
10
192
20
155.5
10
199
20
155.5
10
199
20
137
10
205
20
137
10
205
20
127
10
199
20
127
10
199
20
31
10
205
20
31
10
205
20
21
10
199
20
21
10
199
20
2.5
10
192
20
2.5
10
192
20
3.9
10
190
20
3.9
10
190
20
2.5
10
184
20
2.5
10
184
20
1
10
184
20
-0.5
10
190
20
-0.5
10
190
20
-1.9
10
192
20
-1.9
10
192
20
-0.5
10
199
20
-0.5
10
199
20
-19
10
205
20
-19
10
205
20
-29
10
199
20
-29
10
199
20
-126
10
205
20
-126
10
205
20
-136
10
199
20
-136
10
199
20
-154.5
10
192
20
-154.5
10
192
20
-153.1
10
190
20
-153.1
10
190
20
-154.5
10
184
20
-154.5
10
184
20
-156
10
184
20
-157.5
10
190
20
-157.5
10
190
20
-158.9
10
192
20
-158.9
10
192
20
-157.5
10
199
20
-157.5
10
199
20
-178.000000692
10
198.615705473
20
-181.901807119
10
197.477590385
20
-185.653669287
10
195.629391862
20
-189.111405236
10
193.142135134
20
-192.142136113
10
190.111404085
20
-194.62939263
10
186.653668008
20
-196.477590915
10
182.901805762
20
-197.615705743
10
179
20
-198
10
160.5
20
-198
10
160.5
20
-191
10
161.9
20
-191
10
161.9
20
-189
10
160.5
20
-189
10
160.5
20
-183
10
159
20
-183
10
157.5
20
-183
10
157.5
20
-189
10
156.1
20
-189
10
156.1
20
-191
10
157.5
20
-191
10
157.5
20
-198
10
139
20
-198
10
139
20
-204
10
129
20
-204
10
129
20
-198
10
30
20
-198
10
30
20
-204
10
20
20
-204
10
20
20
-198
10
1.5
20
-198
10
1.5
20
-191
10
2.9
20
-191
10
2.9
20
-189
10
1.5
20
-189
10
1.5
20
-183
10
0
20
-183
10
-1.5
20
-183
10
-1.5
20
-189
10
-2.9
20
-189
10
-2.9
20
-191
10
-1.5
20
-191
10
-1.5
20
-198
10
-20
20
-198
10
-20
20
-204
10
-30
20
-204
10
-30
20
-198
10
-129
20
-198
10
-129
20
-204
10
-139
20
-204
10
-139
20
-198
10
-157.5
20
-198
10
-157.5
20
-191
10
-156.1
20
-191
10
-156.1
20
-189
10
-157.5
20
-189
10
-157.5
20
-183
10
-159
20
-183
10
-160.5
20
-183
10
-160.5
20
-189
10
-161.9
20
-189
10
-161.9
20
-191
10
-160.5
20
-191
10
-160.5
20
-198
10
-179.000000692
20
-198
10
-182.901807119
20
-197.615705473
10
-186.653669287
20
-196.477590385
10
-190.111405236
20
-194.629391862
10
-193.142136113
20
-192.142135134
10
-195.62939263
20
-189.111404085
10
-197.477590915
20
-185.653668008
10
-198.615705743
20
-181.901805762
10
-199
20
-178
10
-199
20
-157.5
10
-192
20
-157.5
10
-192
20
-158.9
10
-190
20
-158.9
10
-190
20
-157.5
10
-184
20
-157.5
10
-184
20
-156
10
-184
20
-154.5
10
-190
20
-154.5
10
-190
20
-153.1
10
-192
20
-153.1
10
-192
20
-154.5
10
-199
20
-154.5
10
-199
20
-136
10
-205
20
-136
10
-205
20
-126
10
-199
20
-126
10
-199
20
-29
10
-205
20
-29
10
-205
20
-19
10
-199
20
-19
10
-199
20
-0.5
10
-192
20
-0.5
10
-192
20
-1.9
10
-190
20
-1.9
10
-190
20
-0.5
10
-184
20
-0.5
10
-184
20
1
10
-184
20
2.5
10
-190
20
2.5
10
-190
20
3.9
10
-192
20
3.9
10
-192
20
2.5
10
-199
20
2.5
10
-199
20
21
10
-205
20
21
10
-205
20
31
10
-199
20
31
10
-199
20
127
10
-205
20
127
10
-205
20
137
10
-199
20
137
10
-199
20
155.5
10
-192
20
155.5
10
-192
20
154.1
10
-190
20
154.1
10
-190
20
155.5
10
-184
20
155.5
10
-184
20
157
10
-184
20
158.5
10
-190
20
158.5
10
-190
20
159.9
10
-192
20
159.9
10
-192
20
158.5
10
-199
20
158.5
10
-199
20
179.000000692
10
-198.615705473
20
182.901807119
10
-197.477590385
20
186.653669287
10
-195.629391862
20
190.111405236
10
-193.142135134
20
193.142136113
10
-190.111404085
20
195.62939263
10
-186.653668008
20
197.477590915
10
-182.901805762
20
198.615705743
10
-179
20
199
10
-160.5
20
199
10
-160.5
20
192
10
-161.9
20
192
10
-161.9
20
190
10
-160.5
20
190
10
-160.5
20
184
10
-159
20
184
10
-157.5
20
184
10
-157.5
20
190
10
-156.1
20
190
10
-156.1
20
192
10
-157.5
20
192
10
-157.5
20
199
10
-139
20
199
10
-139
20
205
10
-129
20
205
10
-129
20
199
10
-30
20
199
10
-30
20
205
10
-20
20
205
10
-20
20
199
10
-1.5
20
199
10
-1.5
20
192
10
-2.9
20
192
10
-2.9
20
190
10
-1.5
20
190
10
-1.5
20
185
10
0
20
185
10
1.5
20
185
10
1.5
20
190
10
2.9
20
190
10
2.9
20
192
10
1.5
20
192
10
1.5
20
199
10
20
20
199
10
20
20
205
10
30
20
205
10
30
20
199
10
129
20
199
10
129
20
205
10
139
20
205
10
139
20
199
10
157.5
20
199
10
157.5
20
192
10
156.1
20
192
10
156.1
20
190
10
157.5
20
190
10
157.5
20
184
10
159
20
184
10
160.5
20
184
10
160.5
20
190
10
161.9
20
190
10
161.9
20
192
10
160.5
20
192
10
160.5
20
199
10
179.000000692
20
199
10
182.901807119
20
198.615705473
10
186.653669287
20
197.477590385
10
190.111405236
20
195.629391862
10
193.142136113
20
193.142135134
10
195.62939263
20
190.111404085
10
197.477590915
20
186.653668008
10
198.615705743
20
182.901805762
10
199
20
179
10
199
20
158.5
10
192
20
158.5
10
192
20
159.9
10
190
20
159.9
10
190
20
158.5
10
184
20
158.5
10
184
20
157
10
184
20
155.5
10
190
20
155.5
10
190
20
154.1
10
192
20
154.1
0
ENDSEC
0
SECTION
2
OBJECTS
0
DICTIONARY
5
C
330
0
100
AcDbDictionary
281
1
3
ACAD_GROUP
350
D
0
DICTIONARY
5
D
330
C
100
AcDbDictionary
281
1
0
ENDSEC
0
EOF
