<?xml version="1.0" encoding="UTF-8" standalone="no"?>
<svg
   xmlns:dc="http://purl.org/dc/elements/1.1/"
   xmlns:cc="http://creativecommons.org/ns#"
   xmlns:rdf="http://www.w3.org/1999/02/22-rdf-syntax-ns#"
   xmlns:svg="http://www.w3.org/2000/svg"
   xmlns="http://www.w3.org/2000/svg"
   xmlns:sodipodi="http://sodipodi.sourceforge.net/DTD/sodipodi-0.dtd"
   xmlns:inkscape="http://www.inkscape.org/namespaces/inkscape"
   width="2302.11"
   height="5329.134"
   viewBox="0 0 1726.5822 3996.8505"
   id="svg2"
   version="1.1"
   inkscape:version="0.48.5 r10040"
   sodipodi:docname="MIL_NP.svg">
  <metadata
     id="metadata104">
    <rdf:RDF>
      <cc:Work
         rdf:about="">
        <dc:format>image/svg+xml</dc:format>
        <dc:type
           rdf:resource="http://purl.org/dc/dcmitype/StillImage" />
      </cc:Work>
    </rdf:RDF>
  </metadata>
  <defs
     id="defs102" />
  <sodipodi:namedview
     pagecolor="#ffffff"
     bordercolor="#666666"
     borderopacity="1"
     objecttolerance="10"
     gridtolerance="10"
     guidetolerance="10"
     inkscape:pageopacity="0"
     inkscape:pageshadow="2"
     inkscape:window-width="1920"
     inkscape:window-height="1021"
     id="namedview100"
     showgrid="false"
     inkscape:zoom="1.0020522"
     inkscape:cx="1205.0166"
     inkscape:cy="1230.4614"
     inkscape:window-x="-8"
     inkscape:window-y="-8"
     inkscape:window-maximized="1"
     inkscape:current-layer="svg2" />
  <path
     d="M645.875 179.52700000000004c0-6.523 5.285-11.808 11.81-11.808m35.432 0c6.524 0 11.813 5.284 11.813 11.807m-47.246-11.808h35.433"
     fill="none"
     stroke-width=".295"
     stroke-linecap="round"
     stroke="#000"
     stroke-miterlimit="10"
     id="path60" />
  <path
     d="M693.117 167.72c6.524 0 11.813 5.284 11.813 11.807m0 94.49c0 6.522-5.29 11.81-11.813 11.81m11.813-106.3v94.49"
     fill="none"
     stroke-width=".295"
     stroke-linecap="round"
     stroke="#000"
     stroke-miterlimit="10"
     id="path62" />
  <path
     d="M704.93 274.016c0 6.523-5.29 11.812-11.813 11.812m-35.433 0c-3.133 0-6.137-1.246-8.352-3.46-2.215-2.216-3.457-5.22-3.457-8.352m47.242 11.812h-35.433M657.684 285.828c-3.133 0-6.137-1.246-8.352-3.46-2.215-2.216-3.457-5.22-3.457-8.352m0 0v-94.49M704.93 3829.133c0 6.523-5.29 11.812-11.813 11.812m-35.433 0c-6.524 0-11.81-5.29-11.81-11.812m47.243 11.812h-35.433"
     fill="none"
     stroke-width=".295"
     stroke-linecap="round"
     stroke="#000"
     stroke-miterlimit="10"
     id="path64" />
  <path
     d="M657.684 3840.945c-6.524 0-11.81-5.29-11.81-11.812m0-94.488c0-6.524 5.286-11.81 11.81-11.81m-11.81 106.298v-94.488"
     fill="none"
     stroke-width=".295"
     stroke-linecap="round"
     stroke="#000"
     stroke-miterlimit="10"
     id="path66" />
  <path
     d="M645.875 3734.645c0-6.524 5.285-11.81 11.81-11.81m35.432 0c6.524 0 11.813 5.286 11.813 11.81m-47.246-11.81h35.433"
     fill="none"
     stroke-width=".295"
     stroke-linecap="round"
     stroke="#000"
     stroke-miterlimit="10"
     id="path68" />
  <path
     d="M693.117 3722.836c6.524 0 11.813 5.285 11.813 11.81m0 0v94.487M494.93 1945.277c32.613 0 59.054 26.438 59.054 59.055 0 32.613-26.44 59.055-59.054 59.055m-94.727 0c-32.613 0-59.055-26.442-59.055-59.055 0-32.617 26.442-59.055 59.055-59.055m94.727 118.11h-94.727"
     fill="none"
     stroke-width=".295"
     stroke-linecap="round"
     stroke="#000"
     stroke-miterlimit="10"
     id="path70" />
  <path
     d="M400.203 2063.387c-32.613 0-59.055-26.442-59.055-59.055 0-32.617 26.442-59.055 59.055-59.055m0 0h94.727M775.793 1130.316c0 6.524-5.285 11.81-11.81 11.81m-153.542 0c-6.522 0-11.81-5.286-11.81-11.81m165.354 11.81H610.44"
     fill="none"
     stroke-width=".295"
     stroke-linecap="round"
     stroke="#000"
     stroke-miterlimit="10"
     id="path72" />
  <path
     d="M610.44 1142.125c-6.522 0-11.81-5.285-11.81-11.81m0-94.487c0-6.523 5.288-11.812 11.81-11.812m-11.81 106.3v-94.488"
     fill="none"
     stroke-width=".295"
     stroke-linecap="round"
     stroke="#000"
     stroke-miterlimit="10"
     id="path74" />
  <path
     d="M598.63 1035.828c0-6.523 5.288-11.812 11.81-11.812m153.544 0c6.524 0 11.81 5.29 11.81 11.812m-165.353-11.812h153.544M763.984 1024.016c6.524 0 11.81 5.29 11.81 11.812m0 0v94.488M763.984 2653.938c0 3.132-1.246 6.136-3.46 8.35-2.215 2.216-5.22 3.462-8.352 3.462m-153.543 0c-6.525 0-11.814-5.29-11.814-11.813m165.356 11.813H598.63"
     fill="none"
     stroke-width=".295"
     stroke-linecap="round"
     stroke="#000"
     stroke-miterlimit="10"
     id="path76" />
  <path
     d="M598.63 2665.75c-6.525 0-11.814-5.29-11.814-11.813m0-94.488c0-3.134 1.246-6.137 3.46-8.352 2.216-2.215 5.22-3.46 8.353-3.46m-11.814 106.3v-94.49"
     fill="none"
     stroke-width=".295"
     stroke-linecap="round"
     stroke="#000"
     stroke-miterlimit="10"
     id="path78" />
  <path
     d="M586.816 2559.45c0-3.134 1.246-6.137 3.46-8.352 2.216-2.215 5.22-3.46 8.353-3.46m153.542 0c3.133 0 6.137 1.245 8.35 3.46 2.216 2.215 3.462 5.218 3.462 8.35m-165.355-11.81H752.17"
     fill="none"
     stroke-width=".295"
     stroke-linecap="round"
     stroke="#000"
     stroke-miterlimit="10"
     id="path80" />
  <path
     d="M752.172 2547.637c3.133 0 6.137 1.246 8.35 3.46 2.216 2.215 3.462 5.22 3.462 8.352m0 0v94.488M1390.988 3135.563c-1.383-1.05-2.234-2.665-2.32-4.403-.086-1.738.598-3.426 1.87-4.613m16.185-15.09c2.14-1.996 5.414-2.125 7.703-.305m-23.887 15.395l16.183-15.09"
     fill="none"
     stroke-width=".295"
     stroke-linecap="round"
     stroke="#000"
     stroke-miterlimit="10"
     id="path82" />
  <path
     d="M1406.723 3111.457c2.14-1.996 5.414-2.125 7.703-.305m0 0c14.402 11.453 27.023 24.985 37.44 40.15m-37.44-40.15c14.402 11.453 27.023 24.985 37.44 40.15m0 0c1.657 2.41 1.298 5.67-.84 7.663m.84-7.664c1.657 2.41 1.298 5.673-.84 7.665m-16.182 15.094c-1.274 1.182-3.004 1.75-4.735 1.542-1.727-.207-3.274-1.168-4.23-2.622m25.147-14.015l-16.183 15.094"
     fill="none"
     stroke-width=".295"
     stroke-linecap="round"
     stroke="#000"
     stroke-miterlimit="10"
     id="path84" />
  <path
     d="M1434.844 3174.06c-1.274 1.182-3.004 1.75-4.735 1.542-1.727-.207-3.274-1.168-4.23-2.622m0 0c-9.43-14.355-21.228-27.007-34.892-37.418m-135.71 273.598c.062-1.777.92-3.433 2.343-4.504 1.42-1.074 3.247-1.45 4.974-1.023m0 0c20.453 5.058 41.734 5.8 62.492 2.183m-62.492-2.183c20.453 5.058 41.734 5.8 62.492 2.183m0 0c1.754-.304 3.55.196 4.89 1.364 1.344 1.172 2.086 2.883 2.024 4.66m-6.914-6.024c1.754-.304 3.55.196 4.89 1.364 1.344 1.172 2.086 2.883 2.024 4.66m-.777 22.258c-.098 2.847-2.22 5.218-5.035 5.632m5.812-27.89l-.777 22.258"
     fill="none"
     stroke-width=".295"
     stroke-linecap="round"
     stroke="#000"
     stroke-miterlimit="10"
     id="path86" />
  <path
     d="M1331.223 3434.098c-.098 2.847-2.22 5.218-5.035 5.632m0 0c-22.31 3.305-45.036 2.512-67.06-2.34m67.06 2.34c-22.31 3.305-45.036 2.512-67.06-2.34m0 0c-2.78-.613-4.73-3.124-4.628-5.972m4.63 5.973c-2.782-.613-4.732-3.124-4.63-5.972m0 0l.777-22.258M1216.78 3120.48c1.19 1.274 1.75 3.004 1.544 4.73-.207 1.73-1.168 3.278-2.62 4.23m0 .005c-14.356 9.426-27.01 21.227-37.415 34.887m37.413-34.887c-14.355 9.426-27.008 21.227-37.414 34.887m0 0c-1.056 1.387-2.67 2.234-4.407 2.32-1.738.086-3.426-.597-4.613-1.87m9.02-.45c-1.056 1.387-2.67 2.234-4.407 2.32-1.738.086-3.426-.597-4.613-1.87m-15.09-16.184c-1.993-2.137-2.125-5.414-.305-7.703m15.395 23.886l-15.09-16.182"
     fill="none"
     stroke-width=".295"
     stroke-linecap="round"
     stroke="#000"
     stroke-miterlimit="10"
     id="path88" />
  <path
     d="M1154.18 3148.598c-1.993-2.137-2.125-5.414-.305-7.703m0 .003c11.453-14.406 24.984-27.023 40.152-37.44m-40.152 37.44c11.453-14.406 24.984-27.023 40.152-37.44m0 0c2.41-1.657 5.668-1.302 7.66.84m-7.66-.84c2.41-1.657 5.668-1.302 7.66.84m0 0l15.094 16.182M964.77 232.676c0 9.785-7.93 17.72-17.715 17.72s-17.715-7.935-17.715-17.72m0-11.81c0-9.784 7.93-17.718 17.715-17.718s17.715 7.934 17.715 17.72m-35.43 11.808v-11.81"
     fill="none"
     stroke-width=".295"
     stroke-linecap="round"
     stroke="#000"
     stroke-miterlimit="10"
     id="path90" />
  <path
     d="m 1112.41,3787.797 c 0,-19.57 15.863,-35.434 35.434,-35.434 m 0,0 342.52,0 m -10e-4,0 c 8.328,0 16.395,-2.937 22.774,-8.29 m 0,0 75.086,-63.003 m 0,0 c 5.347,-4.488 8.437,-11.113 8.437,-18.097 m 0,0 0,-27.54 m 0,0 c 0,-13.047 -10.574,-23.622 -23.62,-23.622 m 0,0 -25.985,0 m 0,0 c -26.746,0 -48.426,-21.684 -48.426,-48.426 0,-26.746 21.68,-48.426 48.425,-48.426 m 0,0 25.984,0 m 0,-10e-4 c 13.046,0 23.62,-10.573 23.62,-23.62 m 0,0 0,-17.72 m 0,0 c 0,-13.042 -10.574,-23.62 -23.62,-23.62 m 0,0 -23.622,0 m 0,0 c -13.047,0 -23.625,-10.574 -23.625,-23.62 m 0,0 0,-474.64 m 0,0 c 0,-7.707 3.762,-14.93 10.074,-19.35 m 0,0 180.64,-126.49 m 10e-4,0 c 6.316,-4.418 10.074,-11.64 10.074,-19.347 m 0,0 0,-47.246 m 0,10e-4 c 0,-4.966 -2.086,-9.705 -5.746,-13.06 -3.66,-3.355 -8.563,-5.02 -13.512,-4.59 m 0,0 c -14.02,1.223 -27.906,-3.492 -38.28,-13 -10.372,-9.508 -16.278,-22.933 -16.278,-37.008 0,-14.07 5.906,-27.496 16.277,-37.004 10.375,-9.507 24.262,-14.226 38.28,-13 m 0,0 c 4.95,0.43 9.853,-1.234 13.513,-4.59 3.66,-3.355 5.746,-8.093 5.746,-13.062 m 0,0 0,-26.832 m 0,0 c 0,-9.78 -7.934,-17.715 -17.715,-17.715 m 0,0 -253.937,0 m 0,10e-4 c -3.133,0 -6.137,-1.247 -8.352,-3.462 -2.215,-2.215 -3.46,-5.218 -3.46,-8.35 m 0,0 0,-501.97 m -10e-4,0 c 0,-6.523 -5.29,-11.81 -11.812,-11.81 m 0,0 -64.957,0 m 0,0 c -6.524,0 -11.813,-5.29 -11.813,-11.813 m 0,0 0,-35.434 m 0,0 c 0,-3.133 1.242,-6.136 3.46,-8.35 2.216,-2.216 5.22,-3.458 8.353,-3.458 m 0,0 64.957,0 m 0,0 c 6.523,0 11.812,-5.29 11.812,-11.813 m 0,0 0,-496.062 m 0,0 c 0,-9.785 7.934,-17.72 17.72,-17.72 m 0,0 248.03,0 m 0,0 c 9.78,0 17.715,-7.93 17.715,-17.714 m 0,0 0,-26.832 m 0,0 c 0,-4.965 -2.086,-9.703 -5.746,-13.062 -3.66,-3.356 -8.563,-5.02 -13.512,-4.586 m 0,0 c -14.02,1.222 -27.906,-3.496 -38.28,-13.004 -10.372,-9.508 -16.278,-22.934 -16.278,-37.004 0,-14.07 5.906,-27.496 16.277,-37.004 10.375,-9.508 24.262,-14.227 38.28,-13.004 m 0,0 c 4.95,0.434 9.853,-1.23 13.513,-4.586 3.66,-3.355 5.746,-8.094 5.746,-13.062 m 0,0 0,-59.055 m 0,0 c 0,-4.988 -1.578,-9.848 -4.512,-13.887 m 0,0 -184.996,-254.625 m 0,0 c -7.332,-10.09 -11.28,-22.242 -11.28,-34.71 m 0,0 0,-324.79 m -0,0 c 0,-13.047 10.578,-23.625 23.625,-23.625 m 0,0 23.62,0 m 0,0 c 13.046,0 23.62,-10.574 23.62,-23.62 m 0,0 0,-17.716 m 0,0 c 0,-13.047 -10.574,-23.625 -23.62,-23.625 m 0,0 -25.985,0 m 0,10e-4 c -26.746,0 -48.426,-21.68 -48.426,-48.423 0,-26.746 21.68,-48.425 48.425,-48.425 m 0,0 25.984,0 m 0,0 c 13.046,0 23.62,-10.58 23.62,-23.625 m 0,0 0,-27.54 m 0,10e-4 c 0,-6.98 -3.09,-13.606 -8.437,-18.094 m 0,0 -75.086,-63.004 m 0,0 c -6.38,-5.356 -14.446,-8.29 -22.774,-8.29 m 0,0 -342.52,0 m 10e-4,0 c -19.57,0 -35.434,-15.866 -35.434,-35.433 m 0,0 0,-47.247 m 0,0 c 0,-10.472 -4.637,-20.41 -12.66,-27.14 m 0,0 -91.457,-76.742 m 0,0 c -8.02,-6.73 -17.102,-12.078 -26.875,-15.832 m 0,0 -82.28,-31.586 m -0.001,0 c -5.46,-2.097 -11.207,-3.37 -17.043,-3.777 m 0,0 -92.157,-6.445 m 10e-4,0 c -2.743,-0.192 -5.49,-0.286 -8.24,-0.286 m 0,0 -162.988,0 m -0.003,0.001 c -6.934,0 -13.844,0.76 -20.61,2.273 m 0,0 -272.59,60.93 m 10e-4,0 c -8.973,2.007 -16.707,7.66 -21.344,15.6 -4.637,7.947 -5.758,17.458 -3.094,26.263 m 0,0 c 8.024,26.48 -5.617,54.686 -31.36,64.843 -25.737,10.156 -54.964,-1.133 -67.187,-25.96 m 0,0 c -5.152,-10.462 -14.484,-18.26 -25.69,-21.474 -11.212,-3.216 -23.26,-1.548 -33.17,4.597 m 0,0 c -69.546,43.09 -115.24,115.933 -123.772,197.3 m -0.003,0 c -2.36,22.504 -3.54,45.122 -3.54,67.75 m 0,0 0,462.278 m 0,0.002 c 0,5.16 -0.68,10.3 -2.016,15.285 m 0,0 L 0,934.992 m 0,0 c -2.375,8.867 0.602,18.31 7.633,24.21 m 0,0 13.57,11.388 m 0,0 c 3.613,3.03 8.285,4.496 12.98,4.074 4.696,-0.426 9.032,-2.703 12.044,-6.332 m 0,0 c 8.53,-10.277 20.808,-16.73 34.113,-17.934 13.308,-1.2 26.543,2.957 36.777,11.543 10.235,8.587 16.62,20.9 17.75,34.212 1.13,13.313 -3.094,26.524 -11.738,36.71 m 0,0 c -3.048,3.6 -4.54,8.263 -4.142,12.958 0.4,4.7 2.653,9.047 6.266,12.078 m 0,0 92.89,77.942 m 0.002,-10e-4 c 5.347,4.488 8.437,11.113 8.437,18.098 m 0,0 0,1559.054 m 0,0 c 0,13.047 10.574,23.62 23.62,23.62 m 0,0 75.548,0 m 0,10e-4 c 13.047,0 23.625,10.578 23.625,23.625 m 0,0 0,206.692 m 0,0 c 0,13.047 -10.578,23.62 -23.625,23.62 m 0,0 -96.625,0 m 0,0 c -10.477,0 -20.41,-4.632 -27.145,-12.655 m 0,0 -33.67,-40.13 m 0,0 c -3.02,-3.602 -7.35,-5.852 -12.03,-6.262 -4.682,-0.41 -9.33,1.06 -12.932,4.078 m 0,0 -18.094,15.184 m 0,0 c -3.613,3.03 -5.867,7.375 -6.266,12.074 -0.398,4.7 1.09,9.363 4.14,12.957 m 0,0 c 8.645,10.187 12.868,23.402 11.74,36.71 -1.13,13.313 -7.516,25.626 -17.75,34.216 -10.235,8.586 -23.47,12.738 -36.778,11.54 -13.305,-1.2 -25.582,-7.654 -34.113,-17.935 m 0,0 c -3.012,-3.63 -7.348,-5.906 -12.043,-6.328 -4.696,-0.426 -9.368,1.04 -12.98,4.07 m 0,0 -13.57,11.39 m -0.001,0 c -7.03,5.9 -10.008,15.34 -7.633,24.208 m 0,0 14.332,53.496 m 0,0 c 1.336,4.984 2.016,10.12 2.016,15.285 m 0,0 0,462.277 m 0,10e-4 c 0,22.628 1.18,45.242 3.54,67.75 m 0,0 c 8.534,81.367 54.23,154.207 123.776,197.3 m 0,0 c 9.91,6.14 21.957,7.81 33.168,4.598 11.207,-3.215 20.54,-11.016 25.69,-21.477 m 0,0 c 12.224,-24.824 41.45,-36.117 67.19,-25.96 25.74,10.156 39.382,38.363 31.358,64.847 m 0,0 c -2.664,8.8 -1.543,18.317 3.094,26.258 4.637,7.94 12.37,13.594 21.344,15.602 m 0,0 272.59,60.93 m 0,-10e-4 c 6.765,1.512 13.675,2.278 20.61,2.278 m 0,0 162.99,0 m 0.002,0 c 2.75,0 5.495,-0.098 8.237,-0.29 m 0,0 92.157,-6.445 m 0,0 c 5.836,-0.406 11.582,-1.68 17.043,-3.777 m 0,0 82.28,-31.586 m 10e-4,0 c 9.773,-3.75 18.855,-9.102 26.875,-15.828 m 0,0 91.457,-76.742 m 0,0 c 8.023,-6.735 12.66,-16.672 12.66,-27.145 m 0,0 0,-47.243"
     stroke-miterlimit="10"
     id="path98"
     inkscape:connector-curvature="0"
     style="fill:none;stroke:#000000;stroke-width:0.29499999;stroke-linecap:round;stroke-miterlimit:10"
     sodipodi:nodetypes="cccccccccccccccccsccccccccccccccccccccccccscccsccccccccccccscccccccccccccccccccccccccccccccccsccccccccccccccccccccccccccccscccccccccccccccccccccccccccccccccccccccccccccccccccccccccccccccccccssccccccccccccccccccccccccccccccccccccccccccccccccccccccccccccccccccccccccccccccccccccccc" />
</svg>
