0
SECTION
2
HEADER
9
$ACADVER
1
AC1006
9
$INSBASE
10
0.0
20
0.0
30
0.0
9
$INSUNITS
70
1
9
$EXTMIN
10
40.0191504178
20
17.1200701334
30
0.0
9
$EXTMAX
10
261.064596203
20
193.374856298
30
0.0
0
ENDSEC
0
SECTION
2
ENTITIES
0
LWPOLYLINE
5
139925500921168
8
0
62
0
10
121.67392842
20
20.8002646439
30
0.0
10
122.11638212
20
20.9252273612
30
0.0
10
122.552786867
20
21.0734080645
30
0.0
10
122.983452435
20
21.2441029917
30
0.0
10
123.408688603
20
21.4366083805
30
0.0
10
123.828805146
20
21.650220469
30
0.0
10
124.244111841
20
21.884235495
30
0.0
10
124.654918466
20
22.1379496963
30
0.0
10
125.061534796
20
22.410659311
30
0.0
10
125.464270609
20
22.7016605769
30
0.0
10
125.86343568
20
23.0102497319
30
0.0
10
126.259339788
20
23.3357230138
30
0.0
10
126.652292707
20
23.6773766607
30
0.0
10
127.042604216
20
24.0345069103
30
0.0
10
127.43058409
20
24.4064100006
30
0.0
10
127.816542107
20
24.7923821695
30
0.0
10
128.200788042
20
25.1917196548
30
0.0
10
128.583631673
20
25.6037186945
30
0.0
10
128.965382777
20
26.0276755265
30
0.0
10
129.346351129
20
26.4628863886
30
0.0
10
129.726846508
20
26.9086475188
30
0.0
10
130.107178688
20
27.3642551549
30
0.0
10
130.487657447
20
27.8290055349
30
0.0
10
130.868592563
20
28.3021948966
30
0.0
10
131.25029381
20
28.7831194779
30
0.0
10
131.633070966
20
29.2710755167
30
0.0
10
132.017233808
20
29.765359251
30
0.0
10
132.403092112
20
30.2652669186
30
0.0
10
132.790955656
20
30.7700947574
30
0.0
10
133.181134215
20
31.2791390054
30
0.0
10
133.573937566
20
31.7916959003
30
0.0
10
133.969621321
20
32.307073766
30
0.0
10
134.365654333
20
32.8252027427
30
0.0
10
134.755433093
20
33.3469216465
30
0.0
10
135.132031152
20
33.8731413516
30
0.0
10
135.488522062
20
34.4047727323
30
0.0
10
135.817979376
20
34.9427266627
30
0.0
10
136.113476645
20
35.4879140171
30
0.0
10
136.36808742
20
36.0412456698
30
0.0
10
136.574885255
20
36.6036324949
30
0.0
10
136.7269437
20
37.1759853668
30
0.0
10
136.817336307
20
37.7592151596
30
0.0
10
136.83913663
20
38.3542327475
30
0.0
10
136.785418218
20
38.9619490049
30
0.0
10
136.649254625
20
39.583274806
30
0.0
10
136.423719401
20
40.2191210249
30
0.0
10
136.1018861
20
40.870398536
30
0.0
10
135.676828272
20
41.5380182134
30
0.0
10
135.14161947
20
42.2228909315
30
0.0
10
134.48958493
20
42.9258579292
30
0.0
10
133.725957479
20
43.6444658904
30
0.0
10
132.872792864
20
44.3716069868
30
0.0
10
131.953418529
20
45.0998215408
30
0.0
10
130.991161916
20
45.8216498748
30
0.0
10
130.009350469
20
46.5296323111
30
0.0
10
129.031311633
20
47.2163091723
30
0.0
10
128.080372849
20
47.8742207808
30
0.0
10
127.179861563
20
48.4959074588
30
0.0
10
126.353105217
20
49.0739095288
30
0.0
10
125.623431255
20
49.6007673133
30
0.0
10
125.014167121
20
50.0690211347
30
0.0
10
124.548640257
20
50.4712113152
30
0.0
10
124.250178108
20
50.7998781774
30
0.0
10
124.142108117
20
51.0475620437
30
0.0
10
124.247757727
20
51.2068032364
30
0.0
10
124.590454383
20
51.270142078
30
0.0
10
125.193525527
20
51.2301188909
30
0.0
10
126.080298604
20
51.0792739974
30
0.0
10
127.27407346
20
50.810174587
30
0.0
10
128.76601279
20
50.4466757089
30
0.0
10
130.453146295
20
50.1042777412
30
0.0
10
132.215358455
20
49.9151731854
30
0.0
10
133.932953307
20
50.0106574724
30
0.0
10
135.515283993
20
50.4599153433
30
0.0
10
136.919112027
20
51.2307663846
30
0.0
10
138.105568795
20
52.281686846
30
0.0
10
139.03578568
20
53.5711529771
30
0.0
10
139.670894066
20
55.0576410277
30
0.0
10
139.972025339
20
56.6996272474
30
0.0
10
139.900310882
20
58.4555878858
30
0.0
10
139.416882079
20
60.2839991927
30
0.0
10
138.495273249
20
62.1423192459
30
0.0
10
137.161016961
20
63.9837375251
30
0.0
10
135.453270395
20
65.7603250488
30
0.0
10
133.411190785
20
67.4241528318
30
0.0
10
131.073935362
20
68.9272918887
30
0.0
10
128.480661357
20
70.2218132341
30
0.0
10
125.670526002
20
71.2597878826
30
0.0
10
122.682686529
20
71.9932868489
30
0.0
10
119.556300169
20
72.3743811475
30
0.0
10
116.330524155
20
72.3551417932
30
0.0
10
113.044515718
20
71.8876398005
30
0.0
10
109.739426797
20
70.9248409244
30
0.0
10
106.512546487
20
69.4448916293
30
0.0
10
103.523671495
20
67.4539766045
30
0.0
10
100.935871947
20
64.9597488534
30
0.0
10
98.9122179689
20
61.9698613791
30
0.0
10
97.6152435006
20
58.4922429168
30
0.0
10
97.1311288395
20
54.5740868249
30
0.0
10
97.3911524767
20
50.3422442347
30
0.0
10
98.3078368358
20
45.9332115265
30
0.0
10
99.7937043401
20
41.483485081
30
0.0
10
101.761277413
20
37.1295612788
30
0.0
10
104.123078479
20
33.0079365005
30
0.0
10
106.79162996
20
29.2551071266
30
0.0
10
109.67945428
20
26.0075695377
30
0.0
10
112.699073862
20
23.4018201144
30
0.0
10
115.763011131
20
21.5743552373
30
0.0
10
118.783788509
20
20.6616712869
30
0.0
10
121.67392842
20
20.8002646439
30
0.0
0
LINE
5
139925500921808
8
0
62
0
10
44.0358285905
20
53.2721402563
30
0.0
11
44.0358285905
21
35.6056266072
31
0.0
0
LWPOLYLINE
5
139925500921616
8
0
62
0
10
44.0358285905
20
35.6056266072
30
0.0
10
48.1531831178
20
35.2359084405
30
0.0
10
51.6551014634
20
35.8729595311
30
0.0
10
54.5797888808
20
37.4159543634
30
0.0
10
56.9654506235
20
39.7640674215
30
0.0
10
58.8502919451
20
42.8164731899
30
0.0
10
60.272518099
20
46.4723461528
30
0.0
10
61.2703343389
20
50.6308607945
30
0.0
10
61.8819459182
20
55.1911915994
30
0.0
10
62.1455580905
20
60.0525130517
30
0.0
10
62.0993761093
20
65.1139996357
30
0.0
10
61.7816052281
20
70.2748258357
30
0.0
10
61.2304507005
20
75.4341661361
30
0.0
10
60.4841177799
20
80.4911950211
30
0.0
10
59.5808117199
20
85.3450869751
30
0.0
10
58.5587377741
20
89.8950164823
30
0.0
10
57.456101196
20
94.040158027
30
0.0
10
56.311107239
20
97.6796860936
30
0.0
10
55.1619611568
20
100.712775166
30
0.0
10
54.0468682027
20
103.038599729
30
0.0
10
53.0040336305
20
104.556334267
30
0.0
10
52.0716626936
20
105.165153264
30
0.0
10
51.2876662246
20
104.765639473
30
0.0
10
50.6693215353
20
103.357069549
30
0.0
10
50.2000893056
20
101.100471273
30
0.0
10
49.8602957291
20
98.1718652479
30
0.0
10
49.6302669994
20
94.747272078
30
0.0
10
49.4903293103
20
91.002712366
30
0.0
10
49.4208088553
20
87.114206715
30
0.0
10
49.4020318282
20
83.2577757281
30
0.0
10
49.4143244224
20
79.6094400084
30
0.0
10
49.4380128317
20
76.3452201592
30
0.0
10
49.4534232496
20
73.6411367835
30
0.0
10
49.4408818699
20
71.6732104844
30
0.0
10
49.3819357712
20
70.6033041682
30
0.0
10
49.2722423892
20
70.4296534024
30
0.0
10
49.116523627
20
71.0453798574
30
0.0
10
48.9196507201
20
72.3418735066
30
0.0
10
48.6864949038
20
74.2105243236
30
0.0
10
48.4219274134
20
76.5427222818
30
0.0
10
48.1308194845
20
79.2298573547
30
0.0
10
47.8180423524
20
82.1633195158
30
0.0
10
47.4884672526
20
85.2344987385
30
0.0
10
47.1469654203
20
88.3347849964
30
0.0
10
46.7984080911
20
91.3555682628
30
0.0
10
46.4476665003
20
94.1882385114
30
0.0
10
46.0996118834
20
96.7241857155
30
0.0
10
45.7591154757
20
98.8547998486
30
0.0
10
45.4310485126
20
100.471470884
30
0.0
10
45.1202822296
20
101.465588796
30
0.0
10
44.831687862
20
101.728543557
30
0.0
10
44.5701366453
20
101.151725141
30
0.0
10
44.3404998148
20
99.6265235214
30
0.0
10
44.147648606
20
97.0443286717
30
0.0
10
43.9964542543
20
93.2965305655
30
0.0
10
43.891787995
20
88.274519176
30
0.0
10
43.8385210635
20
81.8696844769
30
0.0
10
43.8415246954
20
73.9734164416
30
0.0
10
43.9056701259
20
64.4771050436
30
0.0
10
44.0358285905
20
53.2721402563
30
0.0
0
ARC
8
0
62
0
40
4.87190596011
50
467.557453795
51
314.879351734
10
101.235986979
20
131.09300585
30
0.0
0
LWPOLYLINE
5
139925500920784
8
0
62
0
10
104.673683008
20
127.640801671
30
0.0
10
129.778840098
20
115.536124037
30
0.0
10
152.384473366
20
104.862067379
30
0.0
10
172.469111243
20
95.8507890359
30
0.0
10
190.011282162
20
88.7344463475
30
0.0
10
204.989514553
20
83.7451966531
30
0.0
10
217.382336846
20
81.1151972921
30
0.0
10
227.168277473
20
81.0766056038
30
0.0
10
234.326529765
20
83.8598067
30
0.0
10
238.946492538
20
89.4014438426
30
0.0
10
241.349828959
20
97.0190825539
30
0.0
10
241.887621304
20
105.951874632
30
0.0
10
240.910951845
20
115.438971874
30
0.0
10
238.770902857
20
124.719526078
30
0.0
10
235.818556613
20
133.032689043
30
0.0
10
232.404995388
20
139.617612565
30
0.0
10
228.880907215
20
143.714960808
30
0.0
10
225.499007472
20
144.941235166
30
0.0
10
222.285890697
20
143.780369197
30
0.0
10
219.236353544
20
140.838277712
30
0.0
10
216.34519267
20
136.720875525
30
0.0
10
213.607204731
20
132.034077449
30
0.0
10
211.017186382
20
127.383798298
30
0.0
10
208.569934281
20
123.375952883
30
0.0
10
206.260245081
20
120.616456018
30
0.0
10
204.082894986
20
119.709668263
30
0.0
10
202.028705132
20
120.959433066
30
0.0
10
200.079852752
20
124.012804579
30
0.0
10
198.217372951
20
128.430054867
30
0.0
10
196.422300833
20
133.771455997
30
0.0
10
194.675671505
20
139.597280036
30
0.0
10
192.958520072
20
145.467799049
30
0.0
10
191.251881638
20
150.943285103
30
0.0
10
189.536791308
20
155.584010265
30
0.0
10
187.794284189
20
158.9502466
30
0.0
10
186.005753543
20
160.611455867
30
0.0
10
184.165342794
20
160.464245116
30
0.0
10
182.283109779
20
158.813555699
30
0.0
10
180.370113115
20
155.990007014
30
0.0
10
178.437411416
20
152.32421846
30
0.0
10
176.496063297
20
148.146809435
30
0.0
10
174.557127374
20
143.788399339
30
0.0
10
172.631662261
20
139.579607568
30
0.0
10
170.730726575
20
135.851053523
30
0.0
10
168.865378929
20
132.933356602
30
0.0
10
167.046667148
20
131.156759991
30
0.0
10
165.281648499
20
130.712391278
30
0.0
10
163.567444657
20
131.44501139
30
0.0
10
161.899656905
20
133.146378476
30
0.0
10
160.273886525
20
135.608250683
30
0.0
10
158.685734798
20
138.622386162
30
0.0
10
157.130803007
20
141.980543058
30
0.0
10
155.604692434
20
145.474479523
30
0.0
10
154.10300436
20
148.895953703
30
0.0
10
152.621340067
20
152.036723748
30
0.0
10
151.155300837
20
154.688547806
30
0.0
10
149.700487953
20
156.643184025
30
0.0
10
148.252502695
20
157.692390554
30
0.0
10
146.807566154
20
157.650065085
30
0.0
10
145.368257989
20
156.557233883
30
0.0
10
143.940890919
20
154.588268302
30
0.0
10
142.531825214
20
151.919238192
30
0.0
10
141.147421142
20
148.726213402
30
0.0
10
139.794038972
20
145.18526378
30
0.0
10
138.478038975
20
141.472459177
30
0.0
10
137.205781418
20
137.763869441
30
0.0
10
135.983626571
20
134.235564421
30
0.0
10
134.817934703
20
131.063613967
30
0.0
10
133.715066083
20
128.424087927
30
0.0
10
132.681362083
20
126.492684433
30
0.0
10
131.719295274
20
125.368998107
30
0.0
10
130.822772875
20
124.98413401
30
0.0
10
129.984553394
20
125.246600728
30
0.0
10
129.197395335
20
126.064906843
30
0.0
10
128.454057205
20
127.347560938
30
0.0
10
127.747297508
20
129.003071597
30
0.0
10
127.069874752
20
130.939947404
30
0.0
10
126.41454744
20
133.06669694
30
0.0
10
125.774074079
20
135.29182879
30
0.0
10
125.141213174
20
137.523851537
30
0.0
10
124.508723232
20
139.671273765
30
0.0
10
123.870474641
20
141.656404674
30
0.0
10
123.225519235
20
143.465865151
30
0.0
10
122.574416988
20
145.104995
30
0.0
10
121.917728044
20
146.579136147
30
0.0
10
121.256012547
20
147.893630517
30
0.0
10
120.589830642
20
149.053820035
30
0.0
10
119.919742474
20
150.065046628
30
0.0
10
119.246308186
20
150.932652219
30
0.0
10
118.570087924
20
151.661978735
30
0.0
10
117.891641831
20
152.2583681
30
0.0
10
117.211530053
20
152.727162241
30
0.0
10
116.530312732
20
153.073703082
30
0.0
10
115.848550015
20
153.303332549
30
0.0
10
115.166802045
20
153.421392567
30
0.0
10
114.485628966
20
153.433225062
30
0.0
10
113.805590924
20
153.344171958
30
0.0
10
113.127248063
20
153.159575182
30
0.0
10
112.451160526
20
152.884776658
30
0.0
10
111.777888459
20
152.525118312
30
0.0
10
111.107992005
20
152.085942069
30
0.0
10
110.44203131
20
151.572589855
30
0.0
10
109.780566518
20
150.990403594
30
0.0
10
109.124157773
20
150.344725213
30
0.0
10
108.473365219
20
149.640896636
30
0.0
10
107.828749001
20
148.884259789
30
0.0
10
107.190869264
20
148.080156598
30
0.0
10
106.560286151
20
147.233928987
30
0.0
10
105.937559808
20
146.350918881
30
0.0
10
105.323250378
20
145.436468207
30
0.0
10
104.717918007
20
144.49591889
30
0.0
10
104.122122838
20
143.534612855
30
0.0
10
103.536425016
20
142.557892026
30
0.0
10
102.961384685
20
141.571098331
30
0.0
10
102.39756199
20
140.579573693
30
0.0
10
101.845517075
20
139.588660039
30
0.0
10
101.305810085
20
138.603699293
30
0.0
10
100.779001163
20
137.630033381
30
0.0
10
100.265650456
20
136.673004228
30
0.0
10
99.7663181059
20
135.73795376
30
0.0
0
ENDSEC
0
EOF
