<?xml version="1.0" encoding="utf-8" standalone="no"?>
<!DOCTYPE svg PUBLIC "-//W3C//DTD SVG 1.1//EN"
  "http://www.w3.org/Graphics/SVG/1.1/DTD/svg11.dtd">
<svg xmlns:xlink="http://www.w3.org/1999/xlink" width="402.802812pt" height="297.501184pt" viewBox="0 0 402.802812 297.501184" xmlns="http://www.w3.org/2000/svg" version="1.1">
 <metadata>
  <rdf:RDF xmlns:dc="http://purl.org/dc/elements/1.1/" xmlns:cc="http://creativecommons.org/ns#" xmlns:rdf="http://www.w3.org/1999/02/22-rdf-syntax-ns#">
   <cc:Work>
    <dc:type rdf:resource="http://purl.org/dc/dcmitype/StillImage"/>
    <dc:date>2026-02-10T15:39:35.189386</dc:date>
    <dc:format>image/svg+xml</dc:format>
    <dc:creator>
     <cc:Agent>
      <dc:title>Matplotlib v3.10.8, https://matplotlib.org/</dc:title>
     </cc:Agent>
    </dc:creator>
   </cc:Work>
  </rdf:RDF>
 </metadata>
 <defs>
  <style type="text/css">*{stroke-linejoin: round; stroke-linecap: butt}</style>
 </defs>
 <g id="figure_1">
  <g id="patch_1">
   <path d="M 0 297.501184 
L 402.802812 297.501184 
L 402.802812 0 
L 0 0 
z
" style="fill: #ffffff"/>
  </g>
  <g id="axes_1">
   <g id="patch_2">
    <path d="M 38.482813 273.623059 
L 395.602813 273.623059 
L 395.602813 7.511059 
L 38.482813 7.511059 
z
" style="fill: #ffffff"/>
   </g>
   <g id="matplotlib.axis_1">
    <g id="xtick_1">
     <g id="line2d_1">
      <defs>
       <path id="m3776c5c716" d="M 0 0 
L 0 3.5 
" style="stroke: #000000; stroke-width: 0.8"/>
      </defs>
      <g>
       <use xlink:href="#m3776c5c716" x="46.108144" y="273.623059" style="stroke: #000000; stroke-width: 0.8"/>
      </g>
     </g>
     <g id="text_1">
      <!-- −2 -->
      <g transform="translate(38.73705 288.221497) scale(0.1 -0.1)">
       <defs>
        <path id="DejaVuSans-2212" d="M 678 2272 
L 4684 2272 
L 4684 1741 
L 678 1741 
L 678 2272 
z
" transform="scale(0.015625)"/>
        <path id="DejaVuSans-32" d="M 1228 531 
L 3431 531 
L 3431 0 
L 469 0 
L 469 531 
Q 828 903 1448 1529 
Q 2069 2156 2228 2338 
Q 2531 2678 2651 2914 
Q 2772 3150 2772 3378 
Q 2772 3750 2511 3984 
Q 2250 4219 1831 4219 
Q 1534 4219 1204 4116 
Q 875 4013 500 3803 
L 500 4441 
Q 881 4594 1212 4672 
Q 1544 4750 1819 4750 
Q 2544 4750 2975 4387 
Q 3406 4025 3406 3419 
Q 3406 3131 3298 2873 
Q 3191 2616 2906 2266 
Q 2828 2175 2409 1742 
Q 1991 1309 1228 531 
z
" transform="scale(0.015625)"/>
       </defs>
       <use xlink:href="#DejaVuSans-2212"/>
       <use xlink:href="#DejaVuSans-32" transform="translate(83.789062 0)"/>
      </g>
     </g>
    </g>
    <g id="xtick_2">
     <g id="line2d_2">
      <g>
       <use xlink:href="#m3776c5c716" x="111.039053" y="273.623059" style="stroke: #000000; stroke-width: 0.8"/>
      </g>
     </g>
     <g id="text_2">
      <!-- −1 -->
      <g transform="translate(103.66796 288.221497) scale(0.1 -0.1)">
       <defs>
        <path id="DejaVuSans-31" d="M 794 531 
L 1825 531 
L 1825 4091 
L 703 3866 
L 703 4441 
L 1819 4666 
L 2450 4666 
L 2450 531 
L 3481 531 
L 3481 0 
L 794 0 
L 794 531 
z
" transform="scale(0.015625)"/>
       </defs>
       <use xlink:href="#DejaVuSans-2212"/>
       <use xlink:href="#DejaVuSans-31" transform="translate(83.789062 0)"/>
      </g>
     </g>
    </g>
    <g id="xtick_3">
     <g id="line2d_3">
      <g>
       <use xlink:href="#m3776c5c716" x="175.969962" y="273.623059" style="stroke: #000000; stroke-width: 0.8"/>
      </g>
     </g>
     <g id="text_3">
      <!-- 0 -->
      <g transform="translate(172.788712 288.221497) scale(0.1 -0.1)">
       <defs>
        <path id="DejaVuSans-30" d="M 2034 4250 
Q 1547 4250 1301 3770 
Q 1056 3291 1056 2328 
Q 1056 1369 1301 889 
Q 1547 409 2034 409 
Q 2525 409 2770 889 
Q 3016 1369 3016 2328 
Q 3016 3291 2770 3770 
Q 2525 4250 2034 4250 
z
M 2034 4750 
Q 2819 4750 3233 4129 
Q 3647 3509 3647 2328 
Q 3647 1150 3233 529 
Q 2819 -91 2034 -91 
Q 1250 -91 836 529 
Q 422 1150 422 2328 
Q 422 3509 836 4129 
Q 1250 4750 2034 4750 
z
" transform="scale(0.015625)"/>
       </defs>
       <use xlink:href="#DejaVuSans-30"/>
      </g>
     </g>
    </g>
    <g id="xtick_4">
     <g id="line2d_4">
      <g>
       <use xlink:href="#m3776c5c716" x="240.900871" y="273.623059" style="stroke: #000000; stroke-width: 0.8"/>
      </g>
     </g>
     <g id="text_4">
      <!-- 1 -->
      <g transform="translate(237.719621 288.221497) scale(0.1 -0.1)">
       <use xlink:href="#DejaVuSans-31"/>
      </g>
     </g>
    </g>
    <g id="xtick_5">
     <g id="line2d_5">
      <g>
       <use xlink:href="#m3776c5c716" x="305.831781" y="273.623059" style="stroke: #000000; stroke-width: 0.8"/>
      </g>
     </g>
     <g id="text_5">
      <!-- 2 -->
      <g transform="translate(302.650531 288.221497) scale(0.1 -0.1)">
       <use xlink:href="#DejaVuSans-32"/>
      </g>
     </g>
    </g>
    <g id="xtick_6">
     <g id="line2d_6">
      <g>
       <use xlink:href="#m3776c5c716" x="370.76269" y="273.623059" style="stroke: #000000; stroke-width: 0.8"/>
      </g>
     </g>
     <g id="text_6">
      <!-- 3 -->
      <g transform="translate(367.58144 288.221497) scale(0.1 -0.1)">
       <defs>
        <path id="DejaVuSans-33" d="M 2597 2516 
Q 3050 2419 3304 2112 
Q 3559 1806 3559 1356 
Q 3559 666 3084 287 
Q 2609 -91 1734 -91 
Q 1441 -91 1130 -33 
Q 819 25 488 141 
L 488 750 
Q 750 597 1062 519 
Q 1375 441 1716 441 
Q 2309 441 2620 675 
Q 2931 909 2931 1356 
Q 2931 1769 2642 2001 
Q 2353 2234 1838 2234 
L 1294 2234 
L 1294 2753 
L 1863 2753 
Q 2328 2753 2575 2939 
Q 2822 3125 2822 3475 
Q 2822 3834 2567 4026 
Q 2313 4219 1838 4219 
Q 1578 4219 1281 4162 
Q 984 4106 628 3988 
L 628 4550 
Q 988 4650 1302 4700 
Q 1616 4750 1894 4750 
Q 2613 4750 3031 4423 
Q 3450 4097 3450 3541 
Q 3450 3153 3228 2886 
Q 3006 2619 2597 2516 
z
" transform="scale(0.015625)"/>
       </defs>
       <use xlink:href="#DejaVuSans-33"/>
      </g>
     </g>
    </g>
   </g>
   <g id="matplotlib.axis_2">
    <g id="ytick_1">
     <g id="line2d_7">
      <defs>
       <path id="m8e4c7174ba" d="M 0 0 
L -3.5 0 
" style="stroke: #000000; stroke-width: 0.8"/>
      </defs>
      <g>
       <use xlink:href="#m8e4c7174ba" x="38.482813" y="270.722855" style="stroke: #000000; stroke-width: 0.8"/>
      </g>
     </g>
     <g id="text_7">
      <!-- −2.0 -->
      <g transform="translate(7.2 274.522074) scale(0.1 -0.1)">
       <defs>
        <path id="DejaVuSans-2e" d="M 684 794 
L 1344 794 
L 1344 0 
L 684 0 
L 684 794 
z
" transform="scale(0.015625)"/>
       </defs>
       <use xlink:href="#DejaVuSans-2212"/>
       <use xlink:href="#DejaVuSans-32" transform="translate(83.789062 0)"/>
       <use xlink:href="#DejaVuSans-2e" transform="translate(147.412109 0)"/>
       <use xlink:href="#DejaVuSans-30" transform="translate(179.199219 0)"/>
      </g>
     </g>
    </g>
    <g id="ytick_2">
     <g id="line2d_8">
      <g>
       <use xlink:href="#m8e4c7174ba" x="38.482813" y="238.257401" style="stroke: #000000; stroke-width: 0.8"/>
      </g>
     </g>
     <g id="text_8">
      <!-- −1.5 -->
      <g transform="translate(7.2 242.056619) scale(0.1 -0.1)">
       <defs>
        <path id="DejaVuSans-35" d="M 691 4666 
L 3169 4666 
L 3169 4134 
L 1269 4134 
L 1269 2991 
Q 1406 3038 1543 3061 
Q 1681 3084 1819 3084 
Q 2600 3084 3056 2656 
Q 3513 2228 3513 1497 
Q 3513 744 3044 326 
Q 2575 -91 1722 -91 
Q 1428 -91 1123 -41 
Q 819 9 494 109 
L 494 744 
Q 775 591 1075 516 
Q 1375 441 1709 441 
Q 2250 441 2565 725 
Q 2881 1009 2881 1497 
Q 2881 1984 2565 2268 
Q 2250 2553 1709 2553 
Q 1456 2553 1204 2497 
Q 953 2441 691 2322 
L 691 4666 
z
" transform="scale(0.015625)"/>
       </defs>
       <use xlink:href="#DejaVuSans-2212"/>
       <use xlink:href="#DejaVuSans-31" transform="translate(83.789062 0)"/>
       <use xlink:href="#DejaVuSans-2e" transform="translate(147.412109 0)"/>
       <use xlink:href="#DejaVuSans-35" transform="translate(179.199219 0)"/>
      </g>
     </g>
    </g>
    <g id="ytick_3">
     <g id="line2d_9">
      <g>
       <use xlink:href="#m8e4c7174ba" x="38.482813" y="205.791946" style="stroke: #000000; stroke-width: 0.8"/>
      </g>
     </g>
     <g id="text_9">
      <!-- −1.0 -->
      <g transform="translate(7.2 209.591165) scale(0.1 -0.1)">
       <use xlink:href="#DejaVuSans-2212"/>
       <use xlink:href="#DejaVuSans-31" transform="translate(83.789062 0)"/>
       <use xlink:href="#DejaVuSans-2e" transform="translate(147.412109 0)"/>
       <use xlink:href="#DejaVuSans-30" transform="translate(179.199219 0)"/>
      </g>
     </g>
    </g>
    <g id="ytick_4">
     <g id="line2d_10">
      <g>
       <use xlink:href="#m8e4c7174ba" x="38.482813" y="173.326491" style="stroke: #000000; stroke-width: 0.8"/>
      </g>
     </g>
     <g id="text_10">
      <!-- −0.5 -->
      <g transform="translate(7.2 177.12571) scale(0.1 -0.1)">
       <use xlink:href="#DejaVuSans-2212"/>
       <use xlink:href="#DejaVuSans-30" transform="translate(83.789062 0)"/>
       <use xlink:href="#DejaVuSans-2e" transform="translate(147.412109 0)"/>
       <use xlink:href="#DejaVuSans-35" transform="translate(179.199219 0)"/>
      </g>
     </g>
    </g>
    <g id="ytick_5">
     <g id="line2d_11">
      <g>
       <use xlink:href="#m8e4c7174ba" x="38.482813" y="140.861037" style="stroke: #000000; stroke-width: 0.8"/>
      </g>
     </g>
     <g id="text_11">
      <!-- 0.0 -->
      <g transform="translate(15.579688 144.660256) scale(0.1 -0.1)">
       <use xlink:href="#DejaVuSans-30"/>
       <use xlink:href="#DejaVuSans-2e" transform="translate(63.623047 0)"/>
       <use xlink:href="#DejaVuSans-30" transform="translate(95.410156 0)"/>
      </g>
     </g>
    </g>
    <g id="ytick_6">
     <g id="line2d_12">
      <g>
       <use xlink:href="#m8e4c7174ba" x="38.482813" y="108.395582" style="stroke: #000000; stroke-width: 0.8"/>
      </g>
     </g>
     <g id="text_12">
      <!-- 0.5 -->
      <g transform="translate(15.579688 112.194801) scale(0.1 -0.1)">
       <use xlink:href="#DejaVuSans-30"/>
       <use xlink:href="#DejaVuSans-2e" transform="translate(63.623047 0)"/>
       <use xlink:href="#DejaVuSans-35" transform="translate(95.410156 0)"/>
      </g>
     </g>
    </g>
    <g id="ytick_7">
     <g id="line2d_13">
      <g>
       <use xlink:href="#m8e4c7174ba" x="38.482813" y="75.930128" style="stroke: #000000; stroke-width: 0.8"/>
      </g>
     </g>
     <g id="text_13">
      <!-- 1.0 -->
      <g transform="translate(15.579688 79.729347) scale(0.1 -0.1)">
       <use xlink:href="#DejaVuSans-31"/>
       <use xlink:href="#DejaVuSans-2e" transform="translate(63.623047 0)"/>
       <use xlink:href="#DejaVuSans-30" transform="translate(95.410156 0)"/>
      </g>
     </g>
    </g>
    <g id="ytick_8">
     <g id="line2d_14">
      <g>
       <use xlink:href="#m8e4c7174ba" x="38.482813" y="43.464673" style="stroke: #000000; stroke-width: 0.8"/>
      </g>
     </g>
     <g id="text_14">
      <!-- 1.5 -->
      <g transform="translate(15.579688 47.263892) scale(0.1 -0.1)">
       <use xlink:href="#DejaVuSans-31"/>
       <use xlink:href="#DejaVuSans-2e" transform="translate(63.623047 0)"/>
       <use xlink:href="#DejaVuSans-35" transform="translate(95.410156 0)"/>
      </g>
     </g>
    </g>
    <g id="ytick_9">
     <g id="line2d_15">
      <g>
       <use xlink:href="#m8e4c7174ba" x="38.482813" y="10.999219" style="stroke: #000000; stroke-width: 0.8"/>
      </g>
     </g>
     <g id="text_15">
      <!-- 2.0 -->
      <g transform="translate(15.579688 14.798438) scale(0.1 -0.1)">
       <use xlink:href="#DejaVuSans-32"/>
       <use xlink:href="#DejaVuSans-2e" transform="translate(63.623047 0)"/>
       <use xlink:href="#DejaVuSans-30" transform="translate(95.410156 0)"/>
      </g>
     </g>
    </g>
   </g>
   <g id="line2d_16">
    <path d="M 54.71554 221.730695 
L 143.699852 221.730695 
L 149.556695 221.730695 
L 156.607865 221.730695 
L 161.512309 221.730695 
L 166.527161 221.730695 
L 167.303073 221.730695 
L 169.289409 221.730695 
L 169.289409 142.225845 
L 169.289409 59.403423 
L 166.527161 59.403423 
L 164.866143 59.403423 
L 156.607865 59.403423 
L 149.556695 59.403423 
L 54.71554 59.403423 
L 54.71554 80.057779 
L 54.71554 95.761356 
L 54.71554 95.927059 
L 63.167965 95.927059 
L 64.817973 95.927059 
L 69.534774 96.339723 
L 70.455546 96.420279 
L 75.029017 97.645742 
L 75.921809 97.884966 
L 80.21301 99.885983 
L 81.050701 100.276604 
L 84.929241 102.992381 
L 85.686376 103.522531 
L 89.03439 106.870552 
L 89.68796 107.524123 
L 92.403734 111.402654 
L 92.933883 112.159786 
L 94.934904 116.450986 
L 95.325525 117.288676 
L 96.550988 121.862153 
L 96.790212 122.754947 
L 97.202872 127.471742 
L 97.283428 128.392514 
L 97.283428 148.764722 
L 97.283428 152.741605 
L 96.870768 157.4584 
L 96.790212 158.379172 
L 95.564749 162.952649 
L 95.325525 163.845442 
L 93.324505 168.136642 
L 92.933883 168.974332 
L 90.218109 172.852863 
L 89.68796 173.609995 
L 86.339946 176.958016 
L 85.686376 177.611587 
L 81.807835 180.327364 
L 81.050701 180.857514 
L 76.7595 182.858532 
L 75.921809 183.249152 
L 71.348339 184.474615 
L 70.455546 184.713839 
L 65.738746 185.126503 
L 64.817973 185.207059 
L 56.365548 185.207059 
L 54.71554 185.207059 
L 54.71554 191.00668 
L 54.71554 219.551541 
L 54.71554 221.140571 
L 54.71554 221.730695 
" clip-path="url(#p723a795f79)" style="fill: none; stroke: #1f77b4; stroke-linecap: square"/>
   </g>
   <g id="line2d_17">
    <path d="M 192.138528 221.730695 
L 195.983949 221.730695 
L 203.113888 221.730695 
L 212.277958 221.730695 
L 379.370085 221.730695 
L 379.370085 221.564992 
L 379.370085 212.186177 
L 379.370085 207.253422 
L 379.370085 185.537511 
L 379.370085 129.260446 
L 379.370085 93.867605 
L 379.370085 68.947941 
L 379.370085 65.203043 
L 379.370085 59.403423 
L 223.738258 59.403423 
L 212.277958 59.403423 
L 203.113888 59.403423 
L 195.983949 59.403423 
L 194.721044 59.403423 
L 192.138528 59.403423 
L 192.138528 138.908273 
L 192.138528 221.730695 
" clip-path="url(#p723a795f79)" style="fill: none; stroke: #ff7f0e; stroke-linecap: square"/>
   </g>
   <g id="line2d_18">
    <path d="M 71.143061 214.13378 
L 70.806478 214.104333 
L 69.643458 214.002581 
L 69.317107 213.915135 
L 68.189445 213.612977 
L 67.883234 213.470188 
L 66.825159 212.976796 
L 66.548391 212.783005 
L 65.592057 212.113382 
L 65.353148 211.874475 
L 64.527632 211.048965 
L 64.333842 210.772201 
L 63.664225 209.815878 
L 63.521436 209.509665 
L 63.028044 208.451584 
L 62.940602 208.12523 
L 62.638456 206.997556 
L 62.609009 206.660976 
L 62.507257 205.497968 
L 62.536704 205.161388 
L 62.638456 203.998376 
L 62.725898 203.672023 
L 63.028044 202.544348 
L 63.170834 202.238138 
L 63.664225 201.180066 
L 63.858015 200.903302 
L 64.527632 199.946979 
L 64.76654 199.708071 
L 65.592057 198.882555 
L 65.868824 198.688762 
L 66.825159 198.019136 
L 67.131371 197.876348 
L 68.189445 197.382963 
L 68.515796 197.295515 
L 69.643458 196.993352 
L 69.980041 196.963906 
L 71.143061 196.86216 
L 71.479641 196.891606 
L 72.642649 196.993352 
L 72.969003 197.080799 
L 74.096677 197.382963 
L 74.402889 197.525751 
L 75.460963 198.019136 
L 75.737727 198.212929 
L 76.69405 198.882555 
L 76.932958 199.121463 
L 77.758475 199.946979 
L 77.952265 200.223743 
L 78.621882 201.180066 
L 78.764671 201.486277 
L 79.258062 202.544348 
L 79.345508 202.870702 
L 79.647666 203.998376 
L 79.677114 204.334957 
L 79.778865 205.497968 
L 79.749418 205.834548 
L 79.647666 206.997556 
L 79.56022 207.32391 
L 79.258062 208.451584 
L 79.115273 208.757797 
L 78.621882 209.815878 
L 78.428092 210.092642 
L 77.758475 211.048965 
L 77.519567 211.287871 
L 76.69405 212.113382 
L 76.417286 212.307173 
L 75.460963 212.976796 
L 75.154752 213.119586 
L 74.096677 213.612977 
L 73.770323 213.700423 
L 72.642649 214.002581 
L 72.306069 214.032028 
L 71.143061 214.13378 
" clip-path="url(#p723a795f79)" style="fill: none; stroke: #2ca02c; stroke-linecap: square"/>
   </g>
   <g id="line2d_19">
    <path d="M 144.190334 214.13378 
L 143.853752 214.104333 
L 142.690738 214.002581 
L 142.364384 213.915135 
L 141.23671 213.612977 
L 140.9305 213.470188 
L 139.872432 212.976796 
L 139.595666 212.783005 
L 138.639337 212.113382 
L 138.400429 211.874475 
L 137.574913 211.048965 
L 137.381121 210.772201 
L 136.711498 209.815878 
L 136.568708 209.509665 
L 136.075317 208.451584 
L 135.987873 208.12523 
L 135.685721 206.997556 
L 135.656274 206.660976 
L 135.554522 205.497968 
L 135.583969 205.161388 
L 135.685721 203.998376 
L 135.773165 203.672023 
L 136.075317 202.544348 
L 136.218107 202.238138 
L 136.711498 201.180066 
L 136.90529 200.903302 
L 137.574913 199.946979 
L 137.813821 199.708071 
L 138.639337 198.882555 
L 138.916103 198.688762 
L 139.872432 198.019136 
L 140.178642 197.876348 
L 141.23671 197.382963 
L 141.563064 197.295515 
L 142.690738 196.993352 
L 143.02732 196.963906 
L 144.190334 196.86216 
L 144.526915 196.891606 
L 145.689929 196.993352 
L 146.016283 197.080799 
L 147.143957 197.382963 
L 147.450167 197.525751 
L 148.508236 198.019136 
L 148.785 198.212929 
L 149.741323 198.882555 
L 149.980231 199.121463 
L 150.805747 199.946979 
L 150.999539 200.223743 
L 151.669162 201.180066 
L 151.811952 201.486277 
L 152.305343 202.544348 
L 152.392789 202.870702 
L 152.694947 203.998376 
L 152.724394 204.334957 
L 152.826146 205.497968 
L 152.796698 205.834548 
L 152.694947 206.997556 
L 152.607501 207.32391 
L 152.305343 208.451584 
L 152.162553 208.757797 
L 151.669162 209.815878 
L 151.47537 210.092642 
L 150.805747 211.048965 
L 150.566839 211.287871 
L 149.741323 212.113382 
L 149.464559 212.307173 
L 148.508236 212.976796 
L 148.202026 213.119586 
L 147.143957 213.612977 
L 146.817604 213.700423 
L 145.689929 214.002581 
L 145.353348 214.032028 
L 144.190334 214.13378 
" clip-path="url(#p723a795f79)" style="fill: none; stroke: #d62728; stroke-linecap: square"/>
   </g>
   <g id="line2d_20">
    <path d="M 217.237605 214.13378 
L 216.901024 214.104333 
L 215.738012 214.002581 
L 215.411658 213.915135 
L 214.283984 213.612977 
L 213.977773 213.470188 
L 212.9197 212.976796 
L 212.642936 212.783005 
L 211.686613 212.113382 
L 211.447705 211.874475 
L 210.62219 211.048965 
L 210.428398 210.772201 
L 209.758773 209.815878 
L 209.615985 209.509665 
L 209.122597 208.451584 
L 209.035151 208.12523 
L 208.732992 206.997556 
L 208.703545 206.660976 
L 208.601795 205.497968 
L 208.631242 205.161388 
L 208.732992 203.998376 
L 208.820438 203.672023 
L 209.122597 202.544348 
L 209.265386 202.238138 
L 209.758773 201.180066 
L 209.952566 200.903302 
L 210.62219 199.946979 
L 210.861098 199.708071 
L 211.686613 198.882555 
L 211.963377 198.688762 
L 212.9197 198.019136 
L 213.225911 197.876348 
L 214.283984 197.382963 
L 214.610338 197.295515 
L 215.738012 196.993352 
L 216.074593 196.963906 
L 217.237605 196.86216 
L 217.574186 196.891606 
L 218.737198 196.993352 
L 219.063552 197.080799 
L 220.191226 197.382963 
L 220.497437 197.525751 
L 221.555511 198.019136 
L 221.832275 198.212929 
L 222.788598 198.882555 
L 223.027505 199.121463 
L 223.85302 199.946979 
L 224.046812 200.223743 
L 224.716437 201.180066 
L 224.859226 201.486277 
L 225.352614 202.544348 
L 225.44006 202.870702 
L 225.742219 203.998376 
L 225.771666 204.334957 
L 225.873417 205.497968 
L 225.84397 205.834548 
L 225.742219 206.997556 
L 225.654773 207.32391 
L 225.352614 208.451584 
L 225.209825 208.757797 
L 224.716437 209.815878 
L 224.522645 210.092642 
L 223.85302 211.048965 
L 223.614112 211.287871 
L 222.788598 212.113382 
L 222.511834 212.307173 
L 221.555511 212.976796 
L 221.2493 213.119586 
L 220.191226 213.612977 
L 219.864872 213.700423 
L 218.737198 214.002581 
L 218.400617 214.032028 
L 217.237605 214.13378 
" clip-path="url(#p723a795f79)" style="fill: none; stroke: #9467bd; stroke-linecap: square"/>
   </g>
   <g id="line2d_21">
    <path d="M 290.284879 214.13378 
L 289.9483 214.104333 
L 288.785291 214.002581 
L 288.458936 213.915135 
L 287.331256 213.612977 
L 287.025044 213.470188 
L 285.966969 212.976796 
L 285.690205 212.783005 
L 284.733882 212.113382 
L 284.494976 211.874475 
L 283.669466 211.048965 
L 283.475674 210.772201 
L 282.806051 209.815878 
L 282.663261 209.509665 
L 282.16987 208.451584 
L 282.082424 208.12523 
L 281.780263 206.997556 
L 281.750817 206.660976 
L 281.649071 205.497968 
L 281.678517 205.161388 
L 281.780263 203.998376 
L 281.867709 203.672023 
L 282.16987 202.544348 
L 282.31266 202.238138 
L 282.806051 201.180066 
L 282.999843 200.903302 
L 283.669466 199.946979 
L 283.908372 199.708071 
L 284.733882 198.882555 
L 285.010647 198.688762 
L 285.966969 198.019136 
L 286.273181 197.876348 
L 287.331256 197.382963 
L 287.657611 197.295515 
L 288.785291 196.993352 
L 289.121871 196.963906 
L 290.284879 196.86216 
L 290.621459 196.891606 
L 291.784467 196.993352 
L 292.110821 197.080799 
L 293.238495 197.382963 
L 293.544708 197.525751 
L 294.602789 198.019136 
L 294.879552 198.212929 
L 295.835868 198.882555 
L 296.074777 199.121463 
L 296.900293 199.946979 
L 297.094086 200.223743 
L 297.763715 201.180066 
L 297.906503 201.486277 
L 298.399888 202.544348 
L 298.487334 202.870702 
L 298.789492 203.998376 
L 298.818939 204.334957 
L 298.920691 205.497968 
L 298.891244 205.834548 
L 298.789492 206.997556 
L 298.702046 207.32391 
L 298.399888 208.451584 
L 298.257101 208.757797 
L 297.763715 209.815878 
L 297.569922 210.092642 
L 296.900293 211.048965 
L 296.661385 211.287871 
L 295.835868 212.113382 
L 295.559106 212.307173 
L 294.602789 212.976796 
L 294.296576 213.119586 
L 293.238495 213.612977 
L 292.912141 213.700423 
L 291.784467 214.002581 
L 291.447887 214.032028 
L 290.284879 214.13378 
" clip-path="url(#p723a795f79)" style="fill: none; stroke: #8c564b; stroke-linecap: square"/>
   </g>
   <g id="line2d_22">
    <path d="M 71.143061 84.271958 
L 70.806478 84.242512 
L 69.643458 84.140767 
L 69.317107 84.053319 
L 68.189445 83.751155 
L 67.883234 83.608367 
L 66.825159 83.114982 
L 66.548391 82.921189 
L 65.592057 82.251563 
L 65.353148 82.012655 
L 64.527632 81.187139 
L 64.333842 80.910375 
L 63.664225 79.954052 
L 63.521436 79.647841 
L 63.028044 78.58977 
L 62.940602 78.263416 
L 62.638456 77.135742 
L 62.609009 76.799161 
L 62.507257 75.63615 
L 62.536704 75.29957 
L 62.638456 74.136562 
L 62.725898 73.810208 
L 63.028044 72.682534 
L 63.170834 72.376321 
L 63.664225 71.31824 
L 63.858015 71.041476 
L 64.527632 70.085153 
L 64.76654 69.846247 
L 65.592057 69.020736 
L 65.868824 68.826945 
L 66.825159 68.157322 
L 67.131371 68.014532 
L 68.189445 67.521141 
L 68.515796 67.433695 
L 69.643458 67.131537 
L 69.980041 67.10209 
L 71.143061 67.000338 
L 71.479641 67.029785 
L 72.642649 67.131537 
L 72.969003 67.218983 
L 74.096677 67.521141 
L 74.402889 67.663931 
L 75.460963 68.157322 
L 75.737727 68.351114 
L 76.69405 69.020736 
L 76.932958 69.259643 
L 77.758475 70.085153 
L 77.952265 70.361917 
L 78.621882 71.31824 
L 78.764671 71.624453 
L 79.258062 72.682534 
L 79.345508 73.008888 
L 79.647666 74.136562 
L 79.677114 74.473142 
L 79.778865 75.63615 
L 79.749418 75.972731 
L 79.647666 77.135742 
L 79.56022 77.462096 
L 79.258062 78.58977 
L 79.115273 78.89598 
L 78.621882 79.954052 
L 78.428092 80.230816 
L 77.758475 81.187139 
L 77.519567 81.426047 
L 76.69405 82.251563 
L 76.417286 82.445356 
L 75.460963 83.114982 
L 75.154752 83.25777 
L 74.096677 83.751155 
L 73.770323 83.838603 
L 72.642649 84.140767 
L 72.306069 84.170212 
L 71.143061 84.271958 
" clip-path="url(#p723a795f79)" style="fill: none; stroke: #e377c2; stroke-linecap: square"/>
   </g>
   <g id="line2d_23">
    <path d="M 144.190334 84.271958 
L 143.853752 84.242512 
L 142.690738 84.140767 
L 142.364384 84.053319 
L 141.23671 83.751155 
L 140.9305 83.608367 
L 139.872432 83.114982 
L 139.595666 82.921189 
L 138.639337 82.251563 
L 138.400429 82.012655 
L 137.574913 81.187139 
L 137.381121 80.910375 
L 136.711498 79.954052 
L 136.568708 79.647841 
L 136.075317 78.58977 
L 135.987873 78.263416 
L 135.685721 77.135742 
L 135.656274 76.799161 
L 135.554522 75.63615 
L 135.583969 75.29957 
L 135.685721 74.136562 
L 135.773165 73.810208 
L 136.075317 72.682534 
L 136.218107 72.376321 
L 136.711498 71.31824 
L 136.90529 71.041476 
L 137.574913 70.085153 
L 137.813821 69.846247 
L 138.639337 69.020736 
L 138.916103 68.826945 
L 139.872432 68.157322 
L 140.178642 68.014532 
L 141.23671 67.521141 
L 141.563064 67.433695 
L 142.690738 67.131537 
L 143.02732 67.10209 
L 144.190334 67.000338 
L 144.526915 67.029785 
L 145.689929 67.131537 
L 146.016283 67.218983 
L 147.143957 67.521141 
L 147.450167 67.663931 
L 148.508236 68.157322 
L 148.785 68.351114 
L 149.741323 69.020736 
L 149.980231 69.259643 
L 150.805747 70.085153 
L 150.999539 70.361917 
L 151.669162 71.31824 
L 151.811952 71.624453 
L 152.305343 72.682534 
L 152.392789 73.008888 
L 152.694947 74.136562 
L 152.724394 74.473142 
L 152.826146 75.63615 
L 152.796698 75.972731 
L 152.694947 77.135742 
L 152.607501 77.462096 
L 152.305343 78.58977 
L 152.162553 78.89598 
L 151.669162 79.954052 
L 151.47537 80.230816 
L 150.805747 81.187139 
L 150.566839 81.426047 
L 149.741323 82.251563 
L 149.464559 82.445356 
L 148.508236 83.114982 
L 148.202026 83.25777 
L 147.143957 83.751155 
L 146.817604 83.838603 
L 145.689929 84.140767 
L 145.353348 84.170212 
L 144.190334 84.271958 
" clip-path="url(#p723a795f79)" style="fill: none; stroke: #7f7f7f; stroke-linecap: square"/>
   </g>
   <g id="line2d_24">
    <path d="M 217.237605 84.271958 
L 216.901024 84.242512 
L 215.738012 84.140767 
L 215.411658 84.053319 
L 214.283984 83.751155 
L 213.977773 83.608367 
L 212.9197 83.114982 
L 212.642936 82.921189 
L 211.686613 82.251563 
L 211.447705 82.012655 
L 210.62219 81.187139 
L 210.428398 80.910375 
L 209.758773 79.954052 
L 209.615985 79.647841 
L 209.122597 78.58977 
L 209.035151 78.263416 
L 208.732992 77.135742 
L 208.703545 76.799161 
L 208.601795 75.63615 
L 208.631242 75.29957 
L 208.732992 74.136562 
L 208.820438 73.810208 
L 209.122597 72.682534 
L 209.265386 72.376321 
L 209.758773 71.31824 
L 209.952566 71.041476 
L 210.62219 70.085153 
L 210.861098 69.846247 
L 211.686613 69.020736 
L 211.963377 68.826945 
L 212.9197 68.157322 
L 213.225911 68.014532 
L 214.283984 67.521141 
L 214.610338 67.433695 
L 215.738012 67.131537 
L 216.074593 67.10209 
L 217.237605 67.000338 
L 217.574186 67.029785 
L 218.737198 67.131537 
L 219.063552 67.218983 
L 220.191226 67.521141 
L 220.497437 67.663931 
L 221.555511 68.157322 
L 221.832275 68.351114 
L 222.788598 69.020736 
L 223.027505 69.259643 
L 223.85302 70.085153 
L 224.046812 70.361917 
L 224.716437 71.31824 
L 224.859226 71.624453 
L 225.352614 72.682534 
L 225.44006 73.008888 
L 225.742219 74.136562 
L 225.771666 74.473142 
L 225.873417 75.63615 
L 225.84397 75.972731 
L 225.742219 77.135742 
L 225.654773 77.462096 
L 225.352614 78.58977 
L 225.209825 78.89598 
L 224.716437 79.954052 
L 224.522645 80.230816 
L 223.85302 81.187139 
L 223.614112 81.426047 
L 222.788598 82.251563 
L 222.511834 82.445356 
L 221.555511 83.114982 
L 221.2493 83.25777 
L 220.191226 83.751155 
L 219.864872 83.838603 
L 218.737198 84.140767 
L 218.400617 84.170212 
L 217.237605 84.271958 
" clip-path="url(#p723a795f79)" style="fill: none; stroke: #bcbd22; stroke-linecap: square"/>
   </g>
   <g id="line2d_25">
    <path d="M 290.284879 84.271958 
L 289.9483 84.242512 
L 288.785291 84.140767 
L 288.458936 84.053319 
L 287.331256 83.751155 
L 287.025044 83.608367 
L 285.966969 83.114982 
L 285.690205 82.921189 
L 284.733882 82.251563 
L 284.494976 82.012655 
L 283.669466 81.187139 
L 283.475674 80.910375 
L 282.806051 79.954052 
L 282.663261 79.647841 
L 282.16987 78.58977 
L 282.082424 78.263416 
L 281.780263 77.135742 
L 281.750817 76.799161 
L 281.649071 75.63615 
L 281.678517 75.29957 
L 281.780263 74.136562 
L 281.867709 73.810208 
L 282.16987 72.682534 
L 282.31266 72.376321 
L 282.806051 71.31824 
L 282.999843 71.041476 
L 283.669466 70.085153 
L 283.908372 69.846247 
L 284.733882 69.020736 
L 285.010647 68.826945 
L 285.966969 68.157322 
L 286.273181 68.014532 
L 287.331256 67.521141 
L 287.657611 67.433695 
L 288.785291 67.131537 
L 289.121871 67.10209 
L 290.284879 67.000338 
L 290.621459 67.029785 
L 291.784467 67.131537 
L 292.110821 67.218983 
L 293.238495 67.521141 
L 293.544708 67.663931 
L 294.602789 68.157322 
L 294.879552 68.351114 
L 295.835868 69.020736 
L 296.074777 69.259643 
L 296.900293 70.085153 
L 297.094086 70.361917 
L 297.763715 71.31824 
L 297.906503 71.624453 
L 298.399888 72.682534 
L 298.487334 73.008888 
L 298.789492 74.136562 
L 298.818939 74.473142 
L 298.920691 75.63615 
L 298.891244 75.972731 
L 298.789492 77.135742 
L 298.702046 77.462096 
L 298.399888 78.58977 
L 298.257101 78.89598 
L 297.763715 79.954052 
L 297.569922 80.230816 
L 296.900293 81.187139 
L 296.661385 81.426047 
L 295.835868 82.251563 
L 295.559106 82.445356 
L 294.602789 83.114982 
L 294.296576 83.25777 
L 293.238495 83.751155 
L 292.912141 83.838603 
L 291.784467 84.140767 
L 291.447887 84.170212 
L 290.284879 84.271958 
" clip-path="url(#p723a795f79)" style="fill: none; stroke: #17becf; stroke-linecap: square"/>
   </g>
   <g id="line2d_26">
    <path d="M 128.427538 113.985538 
L 132.927207 119.179793 
L 132.985171 119.865994 
L 133.287334 129.076146 
L 133.181287 156.706601 
L 132.952084 161.977343 
L 134.107542 162.846703 
L 137.876949 165.916753 
L 141.591572 169.25754 
L 144.529324 172.056855 
L 147.40955 175.126905 
L 150.932827 179.391732 
L 153.390071 182.774658 
L 154.507804 184.431004 
L 156.691196 188.354213 
L 158.011225 191.159245 
L 159.46829 195.197569 
L 159.95055 196.61726 
L 160.446034 199.014564 
L 160.623339 199.687311 
L 160.858423 201.832298 
L 161.015467 202.757361 
L 161.035863 204.59592 
L 161.060948 206.402203 
L 160.985678 207.498298 
L 160.893893 209.17241 
L 160.684051 210.422868 
L 160.487113 211.9986 
L 160.274586 212.762495 
L 158.27258 213.961431 
L 157.120466 214.6014 
L 154.886727 215.676564 
L 154.162032 215.987522 
L 151.741475 216.849572 
L 151.090539 217.046087 
L 149.41628 217.378873 
L 147.969008 217.713886 
L 146.772829 217.786844 
L 145.081221 218.01481 
L 143.308497 217.911361 
L 142.211984 218.003477 
L 140.432022 217.637891 
L 138.92586 217.461494 
L 137.331026 216.97981 
L 135.897589 216.631962 
L 133.501702 215.668803 
L 132.637214 215.301547 
L 130.061884 213.989965 
L 129.931781 213.933781 
L 127.319831 212.239592 
L 126.86173 211.976979 
L 120.721629 206.910024 
L 116.907019 202.947607 
L 114.581528 200.368231 
L 109.417129 193.618284 
L 105.371376 195.328265 
L 104.370245 195.710219 
L 98.918149 194.17628 
L 95.834418 193.490331 
L 92.199688 192.590945 
L 87.346257 191.714813 
L 85.296267 191.34475 
L 78.539262 190.695638 
L 75.653472 190.551257 
L 74.384293 190.545851 
L 73.46152 190.494375 
L 71.864103 190.720544 
L 69.328366 190.824106 
L 66.820129 191.251059 
L 66.213407 191.298372 
L 64.290447 191.861414 
L 62.329711 192.343705 
L 61.903028 192.508573 
L 59.637587 189.996501 
L 58.775663 189.495164 
L 56.567537 186.778578 
L 56.567537 186.778578 
" clip-path="url(#p723a795f79)" style="fill: none; stroke: #1f77b4; stroke-linecap: square"/>
   </g>
   <g id="line2d_27">
    <path d="M 61.865221 192.565214 
L 61.76609 192.81553 
L 61.303199 193.90241 
L 60.913771 194.750861 
L 60.742304 195.097222 
L 60.562276 195.43502 
L 60.447573 195.635265 
L 60.276542 196.282008 
L 60.001661 197.200052 
L 59.879613 197.561591 
L 59.746162 197.915144 
L 59.487732 198.531654 
L 59.407307 198.705315 
L 59.31484 199.488574 
L 59.25535 199.864846 
L 59.181577 200.234457 
L 59.053051 200.76422 
L 58.789211 201.682383 
L 58.75817 201.775366 
L 58.769606 202.056205 
L 58.768674 202.43503 
L 58.747487 202.889126 
L 58.656827 203.874647 
L 58.60649 204.237801 
L 58.539358 204.599485 
L 58.482059 204.845417 
L 58.500914 204.963689 
L 58.620751 206.021783 
L 58.644933 206.387225 
L 58.652077 206.754158 
L 58.642182 207.122582 
L 58.584454 207.915467 
L 58.652136 208.130432 
L 58.767214 208.561308 
L 58.84607 208.919254 
L 58.9093 209.281387 
L 59.033849 210.239812 
L 59.083685 210.807123 
L 59.09218 210.985518 
L 59.167708 211.171954 
L 59.292242 211.517894 
L 59.574727 212.41063 
L 59.757273 213.073024 
L 59.848167 213.456376 
L 59.926696 213.848386 
L 59.960908 214.055569 
L 60.2773 214.713318 
L 60.624318 215.498917 
L 60.717454 215.728781 
L 60.856974 215.784088 
L 61.218458 215.94043 
L 61.982455 216.299888 
L 62.390666 216.508612 
L 62.8729 216.599736 
L 63.258959 216.686765 
L 63.636312 216.786225 
L 64.282246 216.982281 
L 65.153507 217.283645 
L 65.460717 217.403759 
L 65.500913 217.405037 
L 65.891813 217.433157 
L 66.447796 217.496299 
L 67.383289 217.643301 
L 67.742791 217.716352 
L 68.098036 217.805292 
L 68.524505 217.932667 
L 68.530768 217.934847 
L 69.52837 217.885539 
L 69.895999 217.884725 
L 70.262103 217.901343 
L 70.626682 217.935394 
L 71.600818 218.073529 
L 71.669943 218.055397 
L 72.030764 217.978397 
L 72.393095 217.918649 
L 72.756934 217.876153 
L 73.731014 217.80885 
L 74.186238 217.798431 
L 74.567573 217.806865 
L 74.670869 217.813688 
L 74.926705 217.732432 
L 75.834479 217.487141 
L 76.364 217.368157 
L 76.736564 217.300716 
L 77.115997 217.248007 
L 77.74092 217.186569 
L 78.045238 217.049291 
L 78.659285 216.799706 
L 79.015467 216.670007 
L 79.379865 216.552043 
L 80.296007 216.290859 
L 80.81097 216.162236 
L 81.116862 215.989625 
L 81.456672 215.811609 
L 81.805264 215.642374 
L 82.650854 215.262716 
L 83.735577 214.811961 
L 83.881021 214.755901 
L 84.093304 214.615445 
L 84.430389 214.404476 
L 85.202608 213.947389 
L 86.565368 213.1833 
L 86.951072 212.977676 
L 86.965923 212.966069 
L 87.298381 212.717085 
L 87.981988 212.226292 
L 89.769396 210.994297 
L 90.021122 210.827007 
L 90.145934 210.716114 
L 90.482189 210.427137 
L 91.040863 209.962464 
L 93.091173 208.31028 
L 93.419174 207.97781 
L 93.76122 207.640178 
L 94.111508 207.303266 
L 94.470066 206.96705 
L 96.161224 205.420226 
L 97.675881 203.748376 
L 98.045674 203.348465 
L 98.423593 202.947843 
L 98.80964 202.54651 
L 99.231274 202.116457 
L 102.301325 198.452364 
L 102.483626 198.203154 
L 103.272926 197.14154 
L 103.631779 196.666311 
L 103.997529 196.189233 
" clip-path="url(#p723a795f79)" style="fill: none; stroke: #ff7f0e; stroke-linecap: square"/>
   </g>
   <g id="line2d_28">
    <path d="M 59.320616 217.125619 
L 56.250565 220.19567 
" clip-path="url(#p723a795f79)" style="fill: none; stroke: #2ca02c; stroke-linecap: square"/>
   </g>
   <g id="line2d_29">
    <path d="M 110.5515 191.713545 
L 111.174266 190.652015 
L 111.293669 190.472136 
L 111.496208 190.16257 
L 111.696496 189.851954 
L 113.602568 186.852188 
L 113.865702 186.431867 
L 114.70322 185.248242 
L 114.912699 184.947923 
L 115.120157 184.646188 
L 116.81135 182.150599 
L 117.624342 180.933525 
L 118.260958 180.086425 
L 118.481394 179.789034 
L 118.700082 179.489896 
L 120.180643 177.436441 
L 120.218611 177.389386 
L 122.23706 174.854664 
L 122.473473 174.553917 
L 122.708446 174.251114 
L 124.054169 172.494376 
L 125.156832 171.03668 
L 126.743889 169.142878 
L 127.002373 168.830792 
L 127.259766 168.516367 
L 127.909982 167.712764 
L 128.422595 167.137 
L 132.243182 162.797424 
L 132.533103 162.464698 
L 132.822322 162.129349 
" clip-path="url(#p723a795f79)" style="fill: none; stroke: #d62728; stroke-linecap: square"/>
   </g>
   <g id="line2d_30">
    <path d="M 160.632287 213.205577 
L 162.748782 215.037564 
L 163.702338 216.354195 
L 165.934377 218.107615 
L 166.772389 219.733846 
" clip-path="url(#p723a795f79)" style="fill: none; stroke: #9467bd; stroke-linecap: square"/>
   </g>
   <g id="line2d_31">
    <path d="M 134.106133 118.254074 
L 135.983096 116.795943 
L 141.194738 112.211277 
L 142.919581 110.655842 
L 147.041325 106.356959 
L 148.741853 104.51574 
L 151.501399 101.034854 
L 154.023473 97.397266 
L 156.305972 93.5065 
L 157.450833 91.228658 
L 158.7742 88.03342 
L 159.750734 85.01152 
L 160.436495 82.115523 
L 160.870394 79.304759 
L 161.075985 76.541694 
L 161.03996 73.631066 
L 160.425978 69.16117 
L 160.288765 68.429557 
L 158.263708 67.178136 
L 154.84587 65.498405 
L 151.696131 64.349296 
L 149.438249 63.708124 
L 147.592016 63.41244 
L 146.806668 63.210408 
L 144.707092 63.194279 
L 143.664388 63.08945 
L 142.576686 63.260578 
L 140.408927 63.410051 
L 138.214584 63.880112 
L 137.65046 63.931813 
L 135.953065 64.581394 
L 134.221102 65.149068 
L 132.681136 65.870184 
L 131.245087 66.522138 
L 128.762457 67.948223 
L 128.039378 68.419069 
L 124.29431 71.172131 
L 121.57516 73.4942 
L 117.657478 77.385742 
L 116.160106 78.953573 
L 112.062178 83.991989 
L 109.40348 87.520977 
L 115.318407 96.877268 
L 122.669422 106.938744 
L 127.262334 112.612253 
L 127.262334 112.612253 
" clip-path="url(#p723a795f79)" style="fill: none; stroke: #8c564b; stroke-linecap: square"/>
   </g>
   <g id="line2d_32">
    <path d="M 108.702434 87.250387 
L 106.949954 86.460518 
L 104.900905 85.673357 
L 104.403339 85.448065 
L 104.0447 84.957515 
L 103.879903 84.728686 
L 103.676745 84.479846 
L 103.288068 83.996626 
L 102.434091 82.918597 
L 100.809853 80.83515 
L 98.781327 78.585122 
L 98.428994 78.186739 
L 98.084079 77.789004 
L 97.746541 77.391872 
L 97.739802 77.383778 
L 94.669751 74.27719 
L 94.529539 74.161827 
L 94.13482 73.828803 
L 93.749175 73.494985 
L 93.372603 73.160374 
L 91.599701 71.542294 
L 91.065231 71.165565 
L 90.448101 70.716105 
L 90.076933 70.436483 
L 89.715099 70.15436 
L 88.52965 69.19718 
L 88.008978 68.896436 
L 87.251045 68.439096 
L 86.882988 68.206712 
L 86.524556 67.969839 
L 85.459599 67.232928 
L 85.265224 67.148051 
L 84.404155 66.748 
L 84.030226 66.562829 
L 83.666123 66.370778 
L 82.700709 65.828687 
L 82.389549 65.642368 
L 81.827446 65.469549 
L 81.441119 65.338049 
L 81.064524 65.196818 
L 80.272354 64.870847 
L 79.440314 64.495729 
L 79.319498 64.436142 
L 79.064275 64.39439 
L 78.672261 64.315865 
L 78.001478 64.155705 
L 77.106948 63.905496 
L 76.755907 63.791899 
L 76.411221 63.664673 
L 76.249447 63.597323 
L 75.8624 63.580426 
L 74.900958 63.497739 
L 74.534758 63.449685 
L 74.172895 63.385445 
L 73.740178 63.288105 
L 73.179397 63.134758 
L 72.76319 63.186362 
L 72.393136 63.214887 
L 72.024618 63.225865 
L 71.657618 63.219296 
L 70.622496 63.150988 
L 70.251251 63.108842 
L 70.109346 63.086042 
L 69.886382 63.139571 
L 69.524886 63.208858 
L 68.560573 63.347386 
L 68.114546 63.390477 
L 67.740553 63.409447 
L 67.362077 63.411689 
L 67.039295 63.399478 
L 66.434385 63.605961 
L 65.918391 63.75798 
L 65.556506 63.848322 
L 65.187949 63.924355 
L 64.238251 64.080576 
L 63.969245 64.11448 
L 63.596012 64.290353 
L 63.251975 64.437395 
L 62.900001 64.573102 
L 62.01937 64.877417 
L 61.165751 65.140993 
L 60.899194 65.214285 
L 60.786646 65.279714 
L 60.643875 65.357027 
L 57.829143 62.488545 
L 57.659738 62.42992 
" clip-path="url(#p723a795f79)" style="fill: none; stroke: #e377c2; stroke-linecap: square"/>
   </g>
   <g id="line2d_33">
    <path d="M 60.563866 65.499971 
L 60.548472 65.559368 
L 60.293056 66.434328 
L 59.997848 67.335564 
L 59.867525 67.691308 
L 59.725981 68.039195 
L 59.487496 68.570022 
L 59.477097 68.663297 
L 59.332514 69.635013 
L 59.262209 70.006241 
L 59.177813 70.370898 
L 59.033846 70.894336 
L 58.794957 71.640072 
L 58.804169 71.824572 
L 58.806963 72.204395 
L 58.793367 72.579827 
L 58.757016 73.029654 
L 58.632885 74.010732 
L 58.570145 74.372801 
L 58.495792 74.710123 
L 58.499897 74.734213 
L 58.546149 75.105825 
L 58.628487 76.159286 
L 58.63993 76.525843 
L 58.634282 76.893895 
L 58.611544 77.263442 
L 58.556078 77.780174 
L 58.690347 78.259153 
L 58.791403 78.693008 
L 58.858752 79.054037 
L 58.91034 79.41929 
L 59.0045 80.390321 
L 59.029986 80.850224 
L 59.072135 80.950705 
L 59.200584 81.294821 
L 59.315734 81.645137 
L 59.574033 82.549261 
L 59.739578 83.223595 
L 59.82063 83.613839 
L 59.873203 83.920275 
L 59.911307 83.997342 
L 60.292321 84.83865 
L 60.623436 85.637951 
L 60.765593 86.013621 
L 60.898228 86.398813 
L 61.082723 86.990326 
L 61.258397 87.284118 
L 61.806619 88.260722 
L 61.998761 88.624696 
L 62.014329 88.656073 
L 61.12906 89.606747 
L 60.440807 90.060376 
L 58.059009 92.742858 
L 57.130687 93.130427 
" clip-path="url(#p723a795f79)" style="fill: none; stroke: #7f7f7f; stroke-linecap: square"/>
   </g>
   <g id="line2d_34">
    <path d="M 62.357038 88.751401 
L 63.130246 88.98787 
L 64.248689 89.362278 
L 64.368206 89.405925 
L 64.618222 89.436217 
L 64.995964 89.492553 
L 65.620746 89.60365 
L 66.827923 89.854009 
L 67.18426 89.93887 
L 67.537816 90.034111 
L 67.787508 90.109297 
L 68.017777 90.119476 
L 69.336532 90.216775 
L 69.700772 90.254702 
L 70.064051 90.303611 
L 70.426369 90.363502 
L 71.305182 90.535863 
L 71.872213 90.505855 
L 72.23901 90.497161 
L 72.60674 90.499135 
L 72.975404 90.511777 
L 74.38744 90.600832 
L 74.912889 90.648397 
L 75.033933 90.662613 
L 75.288462 90.635321 
L 75.659516 90.605383 
L 77.054179 90.529362 
L 77.763764 90.508208 
L 78.166657 90.505811 
L 78.573973 90.512896 
L 79.130012 90.535269 
L 80.029199 90.403473 
L 81.00088 90.282006 
L 81.417398 90.238476 
L 81.839413 90.202797 
L 83.314883 90.10675 
L 83.423203 90.083124 
L 84.797705 89.808621 
L 85.235586 89.728674 
L 85.679721 89.654982 
L 87.332561 89.407499 
L 89.166431 89.159918 
L 89.595137 89.053004 
L 90.072726 88.940415 
L 90.557176 88.832631 
L 92.304102 88.466473 
L 94.35874 88.060027 
L 95.819289 87.636722 
L 96.36113 87.485377 
L 96.910501 87.337543 
L 98.711315 86.870856 
" clip-path="url(#p723a795f79)" style="fill: none; stroke: #bcbd22; stroke-linecap: square"/>
   </g>
   <g id="line2d_35">
    <path d="M 161.147694 67.675132 
L 162.210866 66.315754 
L 164.289737 64.605082 
L 165.280916 63.106535 
L 167.610492 61.535031 
" clip-path="url(#p723a795f79)" style="fill: none; stroke: #17becf; stroke-linecap: square"/>
   </g>
   <g id="line2d_36">
    <path d="M 128.427538 113.985538 
L 127.262334 112.612253 
" clip-path="url(#p723a795f79)" style="fill: none; stroke: #1f77b4; stroke-linecap: square"/>
   </g>
   <g id="line2d_37">
    <path d="M 160.632287 213.205577 
L 160.274586 212.762495 
" clip-path="url(#p723a795f79)" style="fill: none; stroke: #ff7f0e; stroke-linecap: square"/>
   </g>
   <g id="line2d_38">
    <path d="M 104.403339 85.448065 
L 98.711315 86.870856 
" clip-path="url(#p723a795f79)" style="fill: none; stroke: #2ca02c; stroke-linecap: square"/>
   </g>
   <g id="line2d_39">
    <path d="M 59.320616 217.125619 
L 60.717454 215.728781 
" clip-path="url(#p723a795f79)" style="fill: none; stroke: #d62728; stroke-linecap: square"/>
   </g>
   <g id="line2d_40">
    <path d="M 108.702434 87.250387 
L 109.40348 87.520977 
" clip-path="url(#p723a795f79)" style="fill: none; stroke: #9467bd; stroke-linecap: square"/>
   </g>
   <g id="line2d_41">
    <path d="M 161.147694 67.675132 
L 160.288765 68.429557 
" clip-path="url(#p723a795f79)" style="fill: none; stroke: #8c564b; stroke-linecap: square"/>
   </g>
   <g id="line2d_42">
    <path d="M 60.563866 65.499971 
L 60.643875 65.357027 
" clip-path="url(#p723a795f79)" style="fill: none; stroke: #e377c2; stroke-linecap: square"/>
   </g>
   <g id="line2d_43">
    <path d="M 110.5515 191.713545 
L 109.417129 193.618284 
" clip-path="url(#p723a795f79)" style="fill: none; stroke: #7f7f7f; stroke-linecap: square"/>
   </g>
   <g id="line2d_44">
    <path d="M 62.357038 88.751401 
L 62.014329 88.656073 
" clip-path="url(#p723a795f79)" style="fill: none; stroke: #bcbd22; stroke-linecap: square"/>
   </g>
   <g id="line2d_45">
    <path d="M 104.370245 195.710219 
L 103.997529 196.189233 
" clip-path="url(#p723a795f79)" style="fill: none; stroke: #17becf; stroke-linecap: square"/>
   </g>
   <g id="line2d_46">
    <path d="M 134.106133 118.254074 
L 132.927207 119.179793 
" clip-path="url(#p723a795f79)" style="fill: none; stroke: #1f77b4; stroke-linecap: square"/>
   </g>
   <g id="line2d_47">
    <path d="M 132.822322 162.129349 
L 132.952084 161.977343 
" clip-path="url(#p723a795f79)" style="fill: none; stroke: #ff7f0e; stroke-linecap: square"/>
   </g>
   <g id="line2d_48">
    <path d="M 61.865221 192.565214 
L 61.903028 192.508573 
" clip-path="url(#p723a795f79)" style="fill: none; stroke: #2ca02c; stroke-linecap: square"/>
   </g>
   <g id="line2d_49">
    <path d="M 376.579117 219.542465 
L 375.463284 217.495356 
L 373.065963 215.675916 
L 371.806941 213.982202 
L 369.552809 212.070603 
L 368.237525 210.469048 
L 366.039655 208.51503 
L 364.694312 206.955894 
L 362.5265 204.977487 
L 361.162454 203.44274 
L 359.013346 201.448493 
L 357.636538 199.929585 
L 355.500192 197.924223 
L 354.114122 196.416431 
L 351.987038 194.402839 
L 350.593939 192.903277 
L 348.473884 190.883345 
L 347.075269 189.390123 
L 341.447576 183.847911 
L 340.040858 182.363815 
L 335.124601 177.495924 
L 334.421268 178.807394 
L 329.723118 186.613876 
L 327.39496 190.29021 
L 323.166321 196.182012 
L 320.368652 199.815983 
L 316.855498 203.801695 
L 312.543039 207.976243 
L 309.268402 210.710932 
L 305.707089 213.183212 
L 301.810087 215.277649 
L 300.228655 215.9596 
L 299.289727 216.455154 
L 297.791125 216.785429 
L 294.995572 217.533049 
L 292.887184 217.866874 
L 292.263419 218.050667 
L 290.799953 217.920431 
L 288.656194 218.045453 
L 286.523991 217.647529 
L 285.005561 217.493352 
L 283.427769 216.976267 
L 281.122092 216.30237 
L 279.628688 215.636333 
L 278.210803 215.134965 
L 276.225122 213.947568 
L 274.461939 212.966108 
L 271.658648 210.9943 
L 270.910483 210.43662 
L 266.926826 206.969724 
L 263.701013 203.744014 
L 258.148867 197.139837 
L 257.131878 195.880781 
L 253.761242 191.157893 
L 253.761241 145.48796 
L 256.644355 140.567059 
L 317.569603 140.567059 
L 321.785945 147.232274 
L 323.824656 150.766803 
L 327.500484 157.771737 
L 329.152717 161.284891 
L 332.079652 168.311199 
L 334.493919 175.337507 
L 334.493919 175.337507 
" clip-path="url(#p723a795f79)" style="fill: none; stroke: #d62728; stroke-linecap: square"/>
   </g>
   <g id="line2d_50">
    <path d="M 317.814884 140.205966 
L 319.123693 138.155713 
L 319.357822 137.791395 
L 319.59261 137.428491 
L 320.071773 136.692812 
L 322.214555 133.179658 
L 323.81885 130.357879 
L 324.214934 129.666504 
L 325.727297 126.820246 
L 325.921053 126.458581 
L 326.085924 126.15335 
L 326.114363 126.096279 
L 327.851414 122.640196 
L 328.752814 120.683258 
L 329.476443 119.127042 
L 330.600274 116.469371 
L 330.755298 116.106568 
L 330.911452 115.744895 
L 330.968603 115.613888 
L 332.351789 112.100734 
L 332.499546 111.680002 
L 333.599109 108.58758 
L 334.144716 106.843973 
L 334.260786 106.478248 
L 334.378191 106.113457 
L 334.717267 105.074426 
L 335.119863 103.653645 
L 337.212236 101.561272 
L 340.72539 98.048117 
L 344.238545 94.534963 
L 347.751699 91.021809 
L 351.264853 87.508655 
L 354.778007 83.995501 
L 358.291161 80.482347 
L 361.804315 76.969193 
L 365.317469 73.456039 
L 368.830623 69.942885 
L 372.343777 66.429731 
L 375.856931 62.916577 
" clip-path="url(#p723a795f79)" style="fill: none; stroke: #9467bd; stroke-linecap: square"/>
   </g>
   <g id="line2d_51">
    <path d="M 334.637013 102.773326 
L 333.699082 101.046122 
L 328.990754 93.370713 
L 326.672774 89.762471 
L 322.434513 83.997868 
L 319.646466 80.45215 
L 316.133312 76.550578 
L 312.614287 73.151641 
L 308.942763 70.131364 
L 304.35224 67.181833 
L 300.950474 65.488352 
L 299.429735 64.852721 
L 298.216606 64.379418 
L 296.245359 63.912801 
L 295.04529 63.482691 
L 292.870183 63.335973 
L 291.541234 63.05052 
L 290.805424 63.151136 
L 288.664727 63.186202 
L 288.028079 63.107175 
L 286.526492 63.495925 
L 284.27588 63.808776 
L 282.032362 64.559634 
L 281.001771 64.785484 
L 279.627617 65.496715 
L 276.977146 66.715316 
L 273.405704 68.890893 
L 270.310543 71.152671 
L 266.871353 74.159542 
L 262.628041 78.586653 
L 259.922847 81.659664 
L 253.761242 90.023582 
L 253.761241 135.664899 
L 255.786294 139.171575 
L 255.786294 139.171575 
" clip-path="url(#p723a795f79)" style="fill: none; stroke: #8c564b; stroke-linecap: square"/>
   </g>
   <g id="line2d_52">
    <path d="M 253.749249 135.658421 
L 247.667264 132.145267 
L 241.473302 128.283861 
L 236.626426 125.118959 
L 231.654458 121.605804 
L 227.056992 118.09265 
L 222.798613 114.579496 
L 218.928699 111.066342 
L 214.386204 106.361599 
L 212.265514 104.040034 
L 208.036395 98.362882 
L 206.919996 96.70346 
L 204.725752 92.795592 
L 203.107208 89.248709 
L 201.92452 85.961155 
L 200.97931 82.120612 
L 200.503156 79.318228 
L 200.409757 74.3681 
L 200.6302 71.438929 
L 201.110565 68.425961 
L 203.130359 67.157248 
L 203.897484 66.692628 
L 205.730698 65.872137 
L 207.225536 65.080676 
L 209.716324 64.327191 
L 210.73869 63.87903 
L 212.011349 63.754563 
L 213.817974 63.345467 
L 214.251844 63.199998 
L 215.990703 63.251244 
L 216.720125 63.186168 
L 217.769752 63.018536 
L 218.853192 63.238376 
L 221.031589 63.363095 
L 221.278152 63.345096 
L 223.190858 63.928329 
L 225.167162 64.38249 
L 227.171398 65.184508 
L 228.798669 65.825793 
L 231.355419 67.150731 
L 231.817614 67.354168 
L 234.076465 68.907847 
L 235.330768 69.677885 
L 237.126597 71.173791 
L 238.843922 72.492164 
L 240.563889 74.167117 
L 242.357077 75.793981 
L 245.870231 79.607935 
L 250.118069 84.951877 
L 252.896539 88.698568 
L 252.896539 88.698568 
" clip-path="url(#p723a795f79)" style="fill: none; stroke: #e377c2; stroke-linecap: square"/>
   </g>
   <g id="line2d_53">
    <path d="M 200.199228 67.271305 
L 197.89345 65.395339 
L 196.686074 63.598211 
L 194.081977 61.882185 
" clip-path="url(#p723a795f79)" style="fill: none; stroke: #7f7f7f; stroke-linecap: square"/>
   </g>
   <g id="line2d_54">
    <path d="M 252.46461 146.197883 
L 246.469199 149.711037 
L 238.065423 155.089115 
L 235.568332 156.737345 
L 228.688347 161.820581 
L 226.143666 163.763653 
L 220.633186 168.552242 
L 218.168124 170.789961 
L 214.049666 175.127082 
L 211.054105 178.650519 
L 208.036992 182.772652 
L 206.633369 184.842578 
L 203.98107 189.910071 
L 203.059226 191.868886 
L 201.656621 196.10988 
L 200.927466 198.99173 
L 200.410717 204.230005 
L 200.3458 206.404055 
L 200.441844 207.498326 
L 200.659369 210.066449 
L 201.098695 212.770528 
L 203.17102 213.951785 
L 204.625846 214.825481 
L 207.275717 215.977708 
L 208.024914 216.360679 
L 209.733468 216.782443 
L 211.978317 217.450391 
L 213.840117 217.706011 
L 214.97403 218.02624 
L 216.723024 217.914814 
L 218.861467 217.990332 
L 221.004249 217.668988 
L 222.000338 217.652926 
L 223.197915 217.220924 
L 226.382068 216.280954 
L 227.903509 215.646067 
L 229.026646 215.272615 
L 231.305245 213.952436 
L 232.704764 213.204194 
L 234.069448 212.223326 
L 236.588163 210.430217 
L 240.580914 206.96849 
L 243.079262 204.590723 
L 244.868964 202.549621 
L 246.592416 200.689955 
L 250.164809 196.169718 
L 253.618724 191.381664 
L 253.618724 191.381664 
" clip-path="url(#p723a795f79)" style="fill: none; stroke: #bcbd22; stroke-linecap: square"/>
   </g>
   <g id="line2d_55">
    <path d="M 200.921413 212.94781 
L 197.408259 216.460964 
L 193.895105 219.974118 
" clip-path="url(#p723a795f79)" style="fill: none; stroke: #17becf; stroke-linecap: square"/>
   </g>
   <g id="line2d_56">
    <path d="M 317.814884 140.205966 
L 317.569603 140.567059 
" clip-path="url(#p723a795f79)" style="fill: none; stroke: #1f77b4; stroke-linecap: square"/>
   </g>
   <g id="line2d_57">
    <path d="M 335.119863 103.653645 
L 334.637013 102.773326 
" clip-path="url(#p723a795f79)" style="fill: none; stroke: #ff7f0e; stroke-linecap: square"/>
   </g>
   <g id="line2d_58">
    <path d="M 255.786294 139.171575 
L 256.644355 140.567059 
" clip-path="url(#p723a795f79)" style="fill: none; stroke: #2ca02c; stroke-linecap: square"/>
   </g>
   <g id="line2d_59">
    <path d="M 200.921413 212.94781 
L 201.098695 212.770528 
" clip-path="url(#p723a795f79)" style="fill: none; stroke: #d62728; stroke-linecap: square"/>
   </g>
   <g id="line2d_60">
    <path d="M 334.493919 175.337507 
L 335.124601 177.495924 
" clip-path="url(#p723a795f79)" style="fill: none; stroke: #9467bd; stroke-linecap: square"/>
   </g>
   <g id="line2d_61">
    <path d="M 253.761242 90.023582 
L 252.896539 88.698568 
" clip-path="url(#p723a795f79)" style="fill: none; stroke: #8c564b; stroke-linecap: square"/>
   </g>
   <g id="line2d_62">
    <path d="M 253.761242 191.157893 
L 253.618724 191.381664 
" clip-path="url(#p723a795f79)" style="fill: none; stroke: #e377c2; stroke-linecap: square"/>
   </g>
   <g id="line2d_63">
    <path d="M 253.749249 135.658421 
L 253.761241 135.664899 
" clip-path="url(#p723a795f79)" style="fill: none; stroke: #7f7f7f; stroke-linecap: square"/>
   </g>
   <g id="line2d_64">
    <path d="M 200.199228 67.271305 
L 201.110565 68.425961 
" clip-path="url(#p723a795f79)" style="fill: none; stroke: #bcbd22; stroke-linecap: square"/>
   </g>
   <g id="line2d_65">
    <path d="M 252.46461 146.197883 
L 253.761241 145.48796 
" clip-path="url(#p723a795f79)" style="fill: none; stroke: #17becf; stroke-linecap: square"/>
   </g>
   <g id="patch_3">
    <path d="M 38.482813 273.623059 
L 38.482813 7.511059 
" style="fill: none; stroke: #000000; stroke-width: 0.8; stroke-linejoin: miter; stroke-linecap: square"/>
   </g>
   <g id="patch_4">
    <path d="M 395.602813 273.623059 
L 395.602813 7.511059 
" style="fill: none; stroke: #000000; stroke-width: 0.8; stroke-linejoin: miter; stroke-linecap: square"/>
   </g>
   <g id="patch_5">
    <path d="M 38.482813 273.623059 
L 395.602813 273.623059 
" style="fill: none; stroke: #000000; stroke-width: 0.8; stroke-linejoin: miter; stroke-linecap: square"/>
   </g>
   <g id="patch_6">
    <path d="M 38.482813 7.511059 
L 395.602813 7.511059 
" style="fill: none; stroke: #000000; stroke-width: 0.8; stroke-linejoin: miter; stroke-linecap: square"/>
   </g>
  </g>
 </g>
 <defs>
  <clipPath id="p723a795f79">
   <rect x="38.482813" y="7.511059" width="357.12" height="266.112"/>
  </clipPath>
 </defs>
</svg>
