<?xml version="1.0" encoding="utf-8" standalone="no"?>
<!DOCTYPE svg PUBLIC "-//W3C//DTD SVG 1.1//EN"
  "http://www.w3.org/Graphics/SVG/1.1/DTD/svg11.dtd">
<svg xmlns:xlink="http://www.w3.org/1999/xlink" width="402.802812pt" height="297.501184pt" viewBox="0 0 402.802812 297.501184" xmlns="http://www.w3.org/2000/svg" version="1.1">
 <metadata>
  <rdf:RDF xmlns:dc="http://purl.org/dc/elements/1.1/" xmlns:cc="http://creativecommons.org/ns#" xmlns:rdf="http://www.w3.org/1999/02/22-rdf-syntax-ns#">
   <cc:Work>
    <dc:type rdf:resource="http://purl.org/dc/dcmitype/StillImage"/>
    <dc:date>2026-02-10T15:39:34.759877</dc:date>
    <dc:format>image/svg+xml</dc:format>
    <dc:creator>
     <cc:Agent>
      <dc:title>Matplotlib v3.10.8, https://matplotlib.org/</dc:title>
     </cc:Agent>
    </dc:creator>
   </cc:Work>
  </rdf:RDF>
 </metadata>
 <defs>
  <style type="text/css">*{stroke-linejoin: round; stroke-linecap: butt}</style>
 </defs>
 <g id="figure_1">
  <g id="patch_1">
   <path d="M 0 297.501184 
L 402.802812 297.501184 
L 402.802812 0 
L 0 0 
z
" style="fill: #ffffff"/>
  </g>
  <g id="axes_1">
   <g id="patch_2">
    <path d="M 38.482813 273.623059 
L 395.602813 273.623059 
L 395.602813 7.511059 
L 38.482813 7.511059 
z
" style="fill: #ffffff"/>
   </g>
   <g id="matplotlib.axis_1">
    <g id="xtick_1">
     <g id="line2d_1">
      <defs>
       <path id="m5c738bde6e" d="M 0 0 
L 0 3.5 
" style="stroke: #000000; stroke-width: 0.8"/>
      </defs>
      <g>
       <use xlink:href="#m5c738bde6e" x="46.108144" y="273.623059" style="stroke: #000000; stroke-width: 0.8"/>
      </g>
     </g>
     <g id="text_1">
      <!-- −2 -->
      <g transform="translate(38.73705 288.221497) scale(0.1 -0.1)">
       <defs>
        <path id="DejaVuSans-2212" d="M 678 2272 
L 4684 2272 
L 4684 1741 
L 678 1741 
L 678 2272 
z
" transform="scale(0.015625)"/>
        <path id="DejaVuSans-32" d="M 1228 531 
L 3431 531 
L 3431 0 
L 469 0 
L 469 531 
Q 828 903 1448 1529 
Q 2069 2156 2228 2338 
Q 2531 2678 2651 2914 
Q 2772 3150 2772 3378 
Q 2772 3750 2511 3984 
Q 2250 4219 1831 4219 
Q 1534 4219 1204 4116 
Q 875 4013 500 3803 
L 500 4441 
Q 881 4594 1212 4672 
Q 1544 4750 1819 4750 
Q 2544 4750 2975 4387 
Q 3406 4025 3406 3419 
Q 3406 3131 3298 2873 
Q 3191 2616 2906 2266 
Q 2828 2175 2409 1742 
Q 1991 1309 1228 531 
z
" transform="scale(0.015625)"/>
       </defs>
       <use xlink:href="#DejaVuSans-2212"/>
       <use xlink:href="#DejaVuSans-32" transform="translate(83.789062 0)"/>
      </g>
     </g>
    </g>
    <g id="xtick_2">
     <g id="line2d_2">
      <g>
       <use xlink:href="#m5c738bde6e" x="111.039053" y="273.623059" style="stroke: #000000; stroke-width: 0.8"/>
      </g>
     </g>
     <g id="text_2">
      <!-- −1 -->
      <g transform="translate(103.66796 288.221497) scale(0.1 -0.1)">
       <defs>
        <path id="DejaVuSans-31" d="M 794 531 
L 1825 531 
L 1825 4091 
L 703 3866 
L 703 4441 
L 1819 4666 
L 2450 4666 
L 2450 531 
L 3481 531 
L 3481 0 
L 794 0 
L 794 531 
z
" transform="scale(0.015625)"/>
       </defs>
       <use xlink:href="#DejaVuSans-2212"/>
       <use xlink:href="#DejaVuSans-31" transform="translate(83.789062 0)"/>
      </g>
     </g>
    </g>
    <g id="xtick_3">
     <g id="line2d_3">
      <g>
       <use xlink:href="#m5c738bde6e" x="175.969962" y="273.623059" style="stroke: #000000; stroke-width: 0.8"/>
      </g>
     </g>
     <g id="text_3">
      <!-- 0 -->
      <g transform="translate(172.788712 288.221497) scale(0.1 -0.1)">
       <defs>
        <path id="DejaVuSans-30" d="M 2034 4250 
Q 1547 4250 1301 3770 
Q 1056 3291 1056 2328 
Q 1056 1369 1301 889 
Q 1547 409 2034 409 
Q 2525 409 2770 889 
Q 3016 1369 3016 2328 
Q 3016 3291 2770 3770 
Q 2525 4250 2034 4250 
z
M 2034 4750 
Q 2819 4750 3233 4129 
Q 3647 3509 3647 2328 
Q 3647 1150 3233 529 
Q 2819 -91 2034 -91 
Q 1250 -91 836 529 
Q 422 1150 422 2328 
Q 422 3509 836 4129 
Q 1250 4750 2034 4750 
z
" transform="scale(0.015625)"/>
       </defs>
       <use xlink:href="#DejaVuSans-30"/>
      </g>
     </g>
    </g>
    <g id="xtick_4">
     <g id="line2d_4">
      <g>
       <use xlink:href="#m5c738bde6e" x="240.900871" y="273.623059" style="stroke: #000000; stroke-width: 0.8"/>
      </g>
     </g>
     <g id="text_4">
      <!-- 1 -->
      <g transform="translate(237.719621 288.221497) scale(0.1 -0.1)">
       <use xlink:href="#DejaVuSans-31"/>
      </g>
     </g>
    </g>
    <g id="xtick_5">
     <g id="line2d_5">
      <g>
       <use xlink:href="#m5c738bde6e" x="305.831781" y="273.623059" style="stroke: #000000; stroke-width: 0.8"/>
      </g>
     </g>
     <g id="text_5">
      <!-- 2 -->
      <g transform="translate(302.650531 288.221497) scale(0.1 -0.1)">
       <use xlink:href="#DejaVuSans-32"/>
      </g>
     </g>
    </g>
    <g id="xtick_6">
     <g id="line2d_6">
      <g>
       <use xlink:href="#m5c738bde6e" x="370.76269" y="273.623059" style="stroke: #000000; stroke-width: 0.8"/>
      </g>
     </g>
     <g id="text_6">
      <!-- 3 -->
      <g transform="translate(367.58144 288.221497) scale(0.1 -0.1)">
       <defs>
        <path id="DejaVuSans-33" d="M 2597 2516 
Q 3050 2419 3304 2112 
Q 3559 1806 3559 1356 
Q 3559 666 3084 287 
Q 2609 -91 1734 -91 
Q 1441 -91 1130 -33 
Q 819 25 488 141 
L 488 750 
Q 750 597 1062 519 
Q 1375 441 1716 441 
Q 2309 441 2620 675 
Q 2931 909 2931 1356 
Q 2931 1769 2642 2001 
Q 2353 2234 1838 2234 
L 1294 2234 
L 1294 2753 
L 1863 2753 
Q 2328 2753 2575 2939 
Q 2822 3125 2822 3475 
Q 2822 3834 2567 4026 
Q 2313 4219 1838 4219 
Q 1578 4219 1281 4162 
Q 984 4106 628 3988 
L 628 4550 
Q 988 4650 1302 4700 
Q 1616 4750 1894 4750 
Q 2613 4750 3031 4423 
Q 3450 4097 3450 3541 
Q 3450 3153 3228 2886 
Q 3006 2619 2597 2516 
z
" transform="scale(0.015625)"/>
       </defs>
       <use xlink:href="#DejaVuSans-33"/>
      </g>
     </g>
    </g>
   </g>
   <g id="matplotlib.axis_2">
    <g id="ytick_1">
     <g id="line2d_7">
      <defs>
       <path id="m90d11f310b" d="M 0 0 
L -3.5 0 
" style="stroke: #000000; stroke-width: 0.8"/>
      </defs>
      <g>
       <use xlink:href="#m90d11f310b" x="38.482813" y="270.722855" style="stroke: #000000; stroke-width: 0.8"/>
      </g>
     </g>
     <g id="text_7">
      <!-- −2.0 -->
      <g transform="translate(7.2 274.522074) scale(0.1 -0.1)">
       <defs>
        <path id="DejaVuSans-2e" d="M 684 794 
L 1344 794 
L 1344 0 
L 684 0 
L 684 794 
z
" transform="scale(0.015625)"/>
       </defs>
       <use xlink:href="#DejaVuSans-2212"/>
       <use xlink:href="#DejaVuSans-32" transform="translate(83.789062 0)"/>
       <use xlink:href="#DejaVuSans-2e" transform="translate(147.412109 0)"/>
       <use xlink:href="#DejaVuSans-30" transform="translate(179.199219 0)"/>
      </g>
     </g>
    </g>
    <g id="ytick_2">
     <g id="line2d_8">
      <g>
       <use xlink:href="#m90d11f310b" x="38.482813" y="238.257401" style="stroke: #000000; stroke-width: 0.8"/>
      </g>
     </g>
     <g id="text_8">
      <!-- −1.5 -->
      <g transform="translate(7.2 242.056619) scale(0.1 -0.1)">
       <defs>
        <path id="DejaVuSans-35" d="M 691 4666 
L 3169 4666 
L 3169 4134 
L 1269 4134 
L 1269 2991 
Q 1406 3038 1543 3061 
Q 1681 3084 1819 3084 
Q 2600 3084 3056 2656 
Q 3513 2228 3513 1497 
Q 3513 744 3044 326 
Q 2575 -91 1722 -91 
Q 1428 -91 1123 -41 
Q 819 9 494 109 
L 494 744 
Q 775 591 1075 516 
Q 1375 441 1709 441 
Q 2250 441 2565 725 
Q 2881 1009 2881 1497 
Q 2881 1984 2565 2268 
Q 2250 2553 1709 2553 
Q 1456 2553 1204 2497 
Q 953 2441 691 2322 
L 691 4666 
z
" transform="scale(0.015625)"/>
       </defs>
       <use xlink:href="#DejaVuSans-2212"/>
       <use xlink:href="#DejaVuSans-31" transform="translate(83.789062 0)"/>
       <use xlink:href="#DejaVuSans-2e" transform="translate(147.412109 0)"/>
       <use xlink:href="#DejaVuSans-35" transform="translate(179.199219 0)"/>
      </g>
     </g>
    </g>
    <g id="ytick_3">
     <g id="line2d_9">
      <g>
       <use xlink:href="#m90d11f310b" x="38.482813" y="205.791946" style="stroke: #000000; stroke-width: 0.8"/>
      </g>
     </g>
     <g id="text_9">
      <!-- −1.0 -->
      <g transform="translate(7.2 209.591165) scale(0.1 -0.1)">
       <use xlink:href="#DejaVuSans-2212"/>
       <use xlink:href="#DejaVuSans-31" transform="translate(83.789062 0)"/>
       <use xlink:href="#DejaVuSans-2e" transform="translate(147.412109 0)"/>
       <use xlink:href="#DejaVuSans-30" transform="translate(179.199219 0)"/>
      </g>
     </g>
    </g>
    <g id="ytick_4">
     <g id="line2d_10">
      <g>
       <use xlink:href="#m90d11f310b" x="38.482813" y="173.326491" style="stroke: #000000; stroke-width: 0.8"/>
      </g>
     </g>
     <g id="text_10">
      <!-- −0.5 -->
      <g transform="translate(7.2 177.12571) scale(0.1 -0.1)">
       <use xlink:href="#DejaVuSans-2212"/>
       <use xlink:href="#DejaVuSans-30" transform="translate(83.789062 0)"/>
       <use xlink:href="#DejaVuSans-2e" transform="translate(147.412109 0)"/>
       <use xlink:href="#DejaVuSans-35" transform="translate(179.199219 0)"/>
      </g>
     </g>
    </g>
    <g id="ytick_5">
     <g id="line2d_11">
      <g>
       <use xlink:href="#m90d11f310b" x="38.482813" y="140.861037" style="stroke: #000000; stroke-width: 0.8"/>
      </g>
     </g>
     <g id="text_11">
      <!-- 0.0 -->
      <g transform="translate(15.579688 144.660256) scale(0.1 -0.1)">
       <use xlink:href="#DejaVuSans-30"/>
       <use xlink:href="#DejaVuSans-2e" transform="translate(63.623047 0)"/>
       <use xlink:href="#DejaVuSans-30" transform="translate(95.410156 0)"/>
      </g>
     </g>
    </g>
    <g id="ytick_6">
     <g id="line2d_12">
      <g>
       <use xlink:href="#m90d11f310b" x="38.482813" y="108.395582" style="stroke: #000000; stroke-width: 0.8"/>
      </g>
     </g>
     <g id="text_12">
      <!-- 0.5 -->
      <g transform="translate(15.579688 112.194801) scale(0.1 -0.1)">
       <use xlink:href="#DejaVuSans-30"/>
       <use xlink:href="#DejaVuSans-2e" transform="translate(63.623047 0)"/>
       <use xlink:href="#DejaVuSans-35" transform="translate(95.410156 0)"/>
      </g>
     </g>
    </g>
    <g id="ytick_7">
     <g id="line2d_13">
      <g>
       <use xlink:href="#m90d11f310b" x="38.482813" y="75.930128" style="stroke: #000000; stroke-width: 0.8"/>
      </g>
     </g>
     <g id="text_13">
      <!-- 1.0 -->
      <g transform="translate(15.579688 79.729347) scale(0.1 -0.1)">
       <use xlink:href="#DejaVuSans-31"/>
       <use xlink:href="#DejaVuSans-2e" transform="translate(63.623047 0)"/>
       <use xlink:href="#DejaVuSans-30" transform="translate(95.410156 0)"/>
      </g>
     </g>
    </g>
    <g id="ytick_8">
     <g id="line2d_14">
      <g>
       <use xlink:href="#m90d11f310b" x="38.482813" y="43.464673" style="stroke: #000000; stroke-width: 0.8"/>
      </g>
     </g>
     <g id="text_14">
      <!-- 1.5 -->
      <g transform="translate(15.579688 47.263892) scale(0.1 -0.1)">
       <use xlink:href="#DejaVuSans-31"/>
       <use xlink:href="#DejaVuSans-2e" transform="translate(63.623047 0)"/>
       <use xlink:href="#DejaVuSans-35" transform="translate(95.410156 0)"/>
      </g>
     </g>
    </g>
    <g id="ytick_9">
     <g id="line2d_15">
      <g>
       <use xlink:href="#m90d11f310b" x="38.482813" y="10.999219" style="stroke: #000000; stroke-width: 0.8"/>
      </g>
     </g>
     <g id="text_15">
      <!-- 2.0 -->
      <g transform="translate(15.579688 14.798438) scale(0.1 -0.1)">
       <use xlink:href="#DejaVuSans-32"/>
       <use xlink:href="#DejaVuSans-2e" transform="translate(63.623047 0)"/>
       <use xlink:href="#DejaVuSans-30" transform="translate(95.410156 0)"/>
      </g>
     </g>
    </g>
   </g>
   <g id="line2d_16">
    <path d="M 54.71554 221.730695 
L 143.699852 221.730695 
L 149.556695 221.730695 
L 156.607865 221.730695 
L 161.512309 221.730695 
L 166.527161 221.730695 
L 167.303073 221.730695 
L 169.289409 221.730695 
L 169.289409 142.225845 
L 169.289409 59.403423 
L 166.527161 59.403423 
L 164.866143 59.403423 
L 156.607865 59.403423 
L 149.556695 59.403423 
L 54.71554 59.403423 
L 54.71554 80.057779 
L 54.71554 95.761356 
L 54.71554 95.927059 
L 63.167965 95.927059 
L 64.817973 95.927059 
L 69.534774 96.339723 
L 70.455546 96.420279 
L 75.029017 97.645742 
L 75.921809 97.884966 
L 80.21301 99.885983 
L 81.050701 100.276604 
L 84.929241 102.992381 
L 85.686376 103.522531 
L 89.03439 106.870552 
L 89.68796 107.524123 
L 92.403734 111.402654 
L 92.933883 112.159786 
L 94.934904 116.450986 
L 95.325525 117.288676 
L 96.550988 121.862153 
L 96.790212 122.754947 
L 97.202872 127.471742 
L 97.283428 128.392514 
L 97.283428 148.764722 
L 97.283428 152.741605 
L 96.870768 157.4584 
L 96.790212 158.379172 
L 95.564749 162.952649 
L 95.325525 163.845442 
L 93.324505 168.136642 
L 92.933883 168.974332 
L 90.218109 172.852863 
L 89.68796 173.609995 
L 86.339946 176.958016 
L 85.686376 177.611587 
L 81.807835 180.327364 
L 81.050701 180.857514 
L 76.7595 182.858532 
L 75.921809 183.249152 
L 71.348339 184.474615 
L 70.455546 184.713839 
L 65.738746 185.126503 
L 64.817973 185.207059 
L 56.365548 185.207059 
L 54.71554 185.207059 
L 54.71554 191.00668 
L 54.71554 219.551541 
L 54.71554 221.140571 
L 54.71554 221.730695 
" clip-path="url(#pad1797f499)" style="fill: none; stroke: #000000; stroke-width: 1.5; stroke-linecap: square"/>
   </g>
   <g id="line2d_17">
    <path d="M 192.138528 221.730695 
L 195.983949 221.730695 
L 203.113888 221.730695 
L 212.277958 221.730695 
L 379.370085 221.730695 
L 379.370085 221.564992 
L 379.370085 212.186177 
L 379.370085 207.253422 
L 379.370085 185.537511 
L 379.370085 129.260446 
L 379.370085 93.867605 
L 379.370085 68.947941 
L 379.370085 65.203043 
L 379.370085 59.403423 
L 223.738258 59.403423 
L 212.277958 59.403423 
L 203.113888 59.403423 
L 195.983949 59.403423 
L 194.721044 59.403423 
L 192.138528 59.403423 
L 192.138528 138.908273 
L 192.138528 221.730695 
" clip-path="url(#pad1797f499)" style="fill: none; stroke: #000000; stroke-width: 1.5; stroke-linecap: square"/>
   </g>
   <g id="line2d_18">
    <path d="M 71.143061 214.13378 
L 72.306069 214.032028 
L 72.642649 214.002581 
L 73.770323 213.700423 
L 74.096677 213.612977 
L 75.154752 213.119586 
L 75.460963 212.976796 
L 76.417286 212.307173 
L 76.69405 212.113382 
L 77.519567 211.287871 
L 77.758475 211.048965 
L 78.428092 210.092642 
L 78.621882 209.815878 
L 79.115273 208.757797 
L 79.258062 208.451584 
L 79.56022 207.32391 
L 79.647666 206.997556 
L 79.749418 205.834548 
L 79.778865 205.497968 
L 79.677114 204.334957 
L 79.647666 203.998376 
L 79.345508 202.870702 
L 79.258062 202.544348 
L 78.764671 201.486277 
L 78.621882 201.180066 
L 77.952265 200.223743 
L 77.758475 199.946979 
L 76.932958 199.121463 
L 76.69405 198.882555 
L 75.737727 198.212929 
L 75.460963 198.019136 
L 74.402889 197.525751 
L 74.096677 197.382963 
L 72.969003 197.080799 
L 72.642649 196.993352 
L 71.479641 196.891606 
L 71.143061 196.86216 
L 69.980041 196.963906 
L 69.643458 196.993352 
L 68.515796 197.295515 
L 68.189445 197.382963 
L 67.131371 197.876348 
L 66.825159 198.019136 
L 65.868824 198.688762 
L 65.592057 198.882555 
L 64.76654 199.708071 
L 64.527632 199.946979 
L 63.858015 200.903302 
L 63.664225 201.180066 
L 63.170834 202.238138 
L 63.028044 202.544348 
L 62.725898 203.672023 
L 62.638456 203.998376 
L 62.536704 205.161388 
L 62.507257 205.497968 
L 62.609009 206.660976 
L 62.638456 206.997556 
L 62.940602 208.12523 
L 63.028044 208.451584 
L 63.521436 209.509665 
L 63.664225 209.815878 
L 64.333842 210.772201 
L 64.527632 211.048965 
L 65.353148 211.874475 
L 65.592057 212.113382 
L 66.548391 212.783005 
L 66.825159 212.976796 
L 67.883234 213.470188 
L 68.189445 213.612977 
L 69.317107 213.915135 
L 69.643458 214.002581 
L 70.806478 214.104333 
L 71.143061 214.13378 
" clip-path="url(#pad1797f499)" style="fill: none; stroke: #008000; stroke-width: 1.5; stroke-linecap: square"/>
   </g>
   <g id="line2d_19">
    <path d="M 144.190334 214.13378 
L 145.353348 214.032028 
L 145.689929 214.002581 
L 146.817604 213.700423 
L 147.143957 213.612977 
L 148.202026 213.119586 
L 148.508236 212.976796 
L 149.464559 212.307173 
L 149.741323 212.113382 
L 150.566839 211.287871 
L 150.805747 211.048965 
L 151.47537 210.092642 
L 151.669162 209.815878 
L 152.162553 208.757797 
L 152.305343 208.451584 
L 152.607501 207.32391 
L 152.694947 206.997556 
L 152.796698 205.834548 
L 152.826146 205.497968 
L 152.724394 204.334957 
L 152.694947 203.998376 
L 152.392789 202.870702 
L 152.305343 202.544348 
L 151.811952 201.486277 
L 151.669162 201.180066 
L 150.999539 200.223743 
L 150.805747 199.946979 
L 149.980231 199.121463 
L 149.741323 198.882555 
L 148.785 198.212929 
L 148.508236 198.019136 
L 147.450167 197.525751 
L 147.143957 197.382963 
L 146.016283 197.080799 
L 145.689929 196.993352 
L 144.526915 196.891606 
L 144.190334 196.86216 
L 143.02732 196.963906 
L 142.690738 196.993352 
L 141.563064 197.295515 
L 141.23671 197.382963 
L 140.178642 197.876348 
L 139.872432 198.019136 
L 138.916103 198.688762 
L 138.639337 198.882555 
L 137.813821 199.708071 
L 137.574913 199.946979 
L 136.90529 200.903302 
L 136.711498 201.180066 
L 136.218107 202.238138 
L 136.075317 202.544348 
L 135.773165 203.672023 
L 135.685721 203.998376 
L 135.583969 205.161388 
L 135.554522 205.497968 
L 135.656274 206.660976 
L 135.685721 206.997556 
L 135.987873 208.12523 
L 136.075317 208.451584 
L 136.568708 209.509665 
L 136.711498 209.815878 
L 137.381121 210.772201 
L 137.574913 211.048965 
L 138.400429 211.874475 
L 138.639337 212.113382 
L 139.595666 212.783005 
L 139.872432 212.976796 
L 140.9305 213.470188 
L 141.23671 213.612977 
L 142.364384 213.915135 
L 142.690738 214.002581 
L 143.853752 214.104333 
L 144.190334 214.13378 
" clip-path="url(#pad1797f499)" style="fill: none; stroke: #008000; stroke-width: 1.5; stroke-linecap: square"/>
   </g>
   <g id="line2d_20">
    <path d="M 217.237605 214.13378 
L 218.400617 214.032028 
L 218.737198 214.002581 
L 219.864872 213.700423 
L 220.191226 213.612977 
L 221.2493 213.119586 
L 221.555511 212.976796 
L 222.511834 212.307173 
L 222.788598 212.113382 
L 223.614112 211.287871 
L 223.85302 211.048965 
L 224.522645 210.092642 
L 224.716437 209.815878 
L 225.209825 208.757797 
L 225.352614 208.451584 
L 225.654773 207.32391 
L 225.742219 206.997556 
L 225.84397 205.834548 
L 225.873417 205.497968 
L 225.771666 204.334957 
L 225.742219 203.998376 
L 225.44006 202.870702 
L 225.352614 202.544348 
L 224.859226 201.486277 
L 224.716437 201.180066 
L 224.046812 200.223743 
L 223.85302 199.946979 
L 223.027505 199.121463 
L 222.788598 198.882555 
L 221.832275 198.212929 
L 221.555511 198.019136 
L 220.497437 197.525751 
L 220.191226 197.382963 
L 219.063552 197.080799 
L 218.737198 196.993352 
L 217.574186 196.891606 
L 217.237605 196.86216 
L 216.074593 196.963906 
L 215.738012 196.993352 
L 214.610338 197.295515 
L 214.283984 197.382963 
L 213.225911 197.876348 
L 212.9197 198.019136 
L 211.963377 198.688762 
L 211.686613 198.882555 
L 210.861098 199.708071 
L 210.62219 199.946979 
L 209.952566 200.903302 
L 209.758773 201.180066 
L 209.265386 202.238138 
L 209.122597 202.544348 
L 208.820438 203.672023 
L 208.732992 203.998376 
L 208.631242 205.161388 
L 208.601795 205.497968 
L 208.703545 206.660976 
L 208.732992 206.997556 
L 209.035151 208.12523 
L 209.122597 208.451584 
L 209.615985 209.509665 
L 209.758773 209.815878 
L 210.428398 210.772201 
L 210.62219 211.048965 
L 211.447705 211.874475 
L 211.686613 212.113382 
L 212.642936 212.783005 
L 212.9197 212.976796 
L 213.977773 213.470188 
L 214.283984 213.612977 
L 215.411658 213.915135 
L 215.738012 214.002581 
L 216.901024 214.104333 
L 217.237605 214.13378 
" clip-path="url(#pad1797f499)" style="fill: none; stroke: #008000; stroke-width: 1.5; stroke-linecap: square"/>
   </g>
   <g id="line2d_21">
    <path d="M 290.284879 214.13378 
L 291.447887 214.032028 
L 291.784467 214.002581 
L 292.912141 213.700423 
L 293.238495 213.612977 
L 294.296576 213.119586 
L 294.602789 212.976796 
L 295.559106 212.307173 
L 295.835868 212.113382 
L 296.661385 211.287871 
L 296.900293 211.048965 
L 297.569922 210.092642 
L 297.763715 209.815878 
L 298.257101 208.757797 
L 298.399888 208.451584 
L 298.702046 207.32391 
L 298.789492 206.997556 
L 298.891244 205.834548 
L 298.920691 205.497968 
L 298.818939 204.334957 
L 298.789492 203.998376 
L 298.487334 202.870702 
L 298.399888 202.544348 
L 297.906503 201.486277 
L 297.763715 201.180066 
L 297.094086 200.223743 
L 296.900293 199.946979 
L 296.074777 199.121463 
L 295.835868 198.882555 
L 294.879552 198.212929 
L 294.602789 198.019136 
L 293.544708 197.525751 
L 293.238495 197.382963 
L 292.110821 197.080799 
L 291.784467 196.993352 
L 290.621459 196.891606 
L 290.284879 196.86216 
L 289.121871 196.963906 
L 288.785291 196.993352 
L 287.657611 197.295515 
L 287.331256 197.382963 
L 286.273181 197.876348 
L 285.966969 198.019136 
L 285.010647 198.688762 
L 284.733882 198.882555 
L 283.908372 199.708071 
L 283.669466 199.946979 
L 282.999843 200.903302 
L 282.806051 201.180066 
L 282.31266 202.238138 
L 282.16987 202.544348 
L 281.867709 203.672023 
L 281.780263 203.998376 
L 281.678517 205.161388 
L 281.649071 205.497968 
L 281.750817 206.660976 
L 281.780263 206.997556 
L 282.082424 208.12523 
L 282.16987 208.451584 
L 282.663261 209.509665 
L 282.806051 209.815878 
L 283.475674 210.772201 
L 283.669466 211.048965 
L 284.494976 211.874475 
L 284.733882 212.113382 
L 285.690205 212.783005 
L 285.966969 212.976796 
L 287.025044 213.470188 
L 287.331256 213.612977 
L 288.458936 213.915135 
L 288.785291 214.002581 
L 289.9483 214.104333 
L 290.284879 214.13378 
" clip-path="url(#pad1797f499)" style="fill: none; stroke: #008000; stroke-width: 1.5; stroke-linecap: square"/>
   </g>
   <g id="line2d_22">
    <path d="M 71.143061 84.271958 
L 72.306069 84.170212 
L 72.642649 84.140767 
L 73.770323 83.838603 
L 74.096677 83.751155 
L 75.154752 83.25777 
L 75.460963 83.114982 
L 76.417286 82.445356 
L 76.69405 82.251563 
L 77.519567 81.426047 
L 77.758475 81.187139 
L 78.428092 80.230816 
L 78.621882 79.954052 
L 79.115273 78.89598 
L 79.258062 78.58977 
L 79.56022 77.462096 
L 79.647666 77.135742 
L 79.749418 75.972731 
L 79.778865 75.63615 
L 79.677114 74.473142 
L 79.647666 74.136562 
L 79.345508 73.008888 
L 79.258062 72.682534 
L 78.764671 71.624453 
L 78.621882 71.31824 
L 77.952265 70.361917 
L 77.758475 70.085153 
L 76.932958 69.259643 
L 76.69405 69.020736 
L 75.737727 68.351114 
L 75.460963 68.157322 
L 74.402889 67.663931 
L 74.096677 67.521141 
L 72.969003 67.218983 
L 72.642649 67.131537 
L 71.479641 67.029785 
L 71.143061 67.000338 
L 69.980041 67.10209 
L 69.643458 67.131537 
L 68.515796 67.433695 
L 68.189445 67.521141 
L 67.131371 68.014532 
L 66.825159 68.157322 
L 65.868824 68.826945 
L 65.592057 69.020736 
L 64.76654 69.846247 
L 64.527632 70.085153 
L 63.858015 71.041476 
L 63.664225 71.31824 
L 63.170834 72.376321 
L 63.028044 72.682534 
L 62.725898 73.810208 
L 62.638456 74.136562 
L 62.536704 75.29957 
L 62.507257 75.63615 
L 62.609009 76.799161 
L 62.638456 77.135742 
L 62.940602 78.263416 
L 63.028044 78.58977 
L 63.521436 79.647841 
L 63.664225 79.954052 
L 64.333842 80.910375 
L 64.527632 81.187139 
L 65.353148 82.012655 
L 65.592057 82.251563 
L 66.548391 82.921189 
L 66.825159 83.114982 
L 67.883234 83.608367 
L 68.189445 83.751155 
L 69.317107 84.053319 
L 69.643458 84.140767 
L 70.806478 84.242512 
L 71.143061 84.271958 
" clip-path="url(#pad1797f499)" style="fill: none; stroke: #008000; stroke-width: 1.5; stroke-linecap: square"/>
   </g>
   <g id="line2d_23">
    <path d="M 144.190334 84.271958 
L 145.353348 84.170212 
L 145.689929 84.140767 
L 146.817604 83.838603 
L 147.143957 83.751155 
L 148.202026 83.25777 
L 148.508236 83.114982 
L 149.464559 82.445356 
L 149.741323 82.251563 
L 150.566839 81.426047 
L 150.805747 81.187139 
L 151.47537 80.230816 
L 151.669162 79.954052 
L 152.162553 78.89598 
L 152.305343 78.58977 
L 152.607501 77.462096 
L 152.694947 77.135742 
L 152.796698 75.972731 
L 152.826146 75.63615 
L 152.724394 74.473142 
L 152.694947 74.136562 
L 152.392789 73.008888 
L 152.305343 72.682534 
L 151.811952 71.624453 
L 151.669162 71.31824 
L 150.999539 70.361917 
L 150.805747 70.085153 
L 149.980231 69.259643 
L 149.741323 69.020736 
L 148.785 68.351114 
L 148.508236 68.157322 
L 147.450167 67.663931 
L 147.143957 67.521141 
L 146.016283 67.218983 
L 145.689929 67.131537 
L 144.526915 67.029785 
L 144.190334 67.000338 
L 143.02732 67.10209 
L 142.690738 67.131537 
L 141.563064 67.433695 
L 141.23671 67.521141 
L 140.178642 68.014532 
L 139.872432 68.157322 
L 138.916103 68.826945 
L 138.639337 69.020736 
L 137.813821 69.846247 
L 137.574913 70.085153 
L 136.90529 71.041476 
L 136.711498 71.31824 
L 136.218107 72.376321 
L 136.075317 72.682534 
L 135.773165 73.810208 
L 135.685721 74.136562 
L 135.583969 75.29957 
L 135.554522 75.63615 
L 135.656274 76.799161 
L 135.685721 77.135742 
L 135.987873 78.263416 
L 136.075317 78.58977 
L 136.568708 79.647841 
L 136.711498 79.954052 
L 137.381121 80.910375 
L 137.574913 81.187139 
L 138.400429 82.012655 
L 138.639337 82.251563 
L 139.595666 82.921189 
L 139.872432 83.114982 
L 140.9305 83.608367 
L 141.23671 83.751155 
L 142.364384 84.053319 
L 142.690738 84.140767 
L 143.853752 84.242512 
L 144.190334 84.271958 
" clip-path="url(#pad1797f499)" style="fill: none; stroke: #008000; stroke-width: 1.5; stroke-linecap: square"/>
   </g>
   <g id="line2d_24">
    <path d="M 217.237605 84.271958 
L 218.400617 84.170212 
L 218.737198 84.140767 
L 219.864872 83.838603 
L 220.191226 83.751155 
L 221.2493 83.25777 
L 221.555511 83.114982 
L 222.511834 82.445356 
L 222.788598 82.251563 
L 223.614112 81.426047 
L 223.85302 81.187139 
L 224.522645 80.230816 
L 224.716437 79.954052 
L 225.209825 78.89598 
L 225.352614 78.58977 
L 225.654773 77.462096 
L 225.742219 77.135742 
L 225.84397 75.972731 
L 225.873417 75.63615 
L 225.771666 74.473142 
L 225.742219 74.136562 
L 225.44006 73.008888 
L 225.352614 72.682534 
L 224.859226 71.624453 
L 224.716437 71.31824 
L 224.046812 70.361917 
L 223.85302 70.085153 
L 223.027505 69.259643 
L 222.788598 69.020736 
L 221.832275 68.351114 
L 221.555511 68.157322 
L 220.497437 67.663931 
L 220.191226 67.521141 
L 219.063552 67.218983 
L 218.737198 67.131537 
L 217.574186 67.029785 
L 217.237605 67.000338 
L 216.074593 67.10209 
L 215.738012 67.131537 
L 214.610338 67.433695 
L 214.283984 67.521141 
L 213.225911 68.014532 
L 212.9197 68.157322 
L 211.963377 68.826945 
L 211.686613 69.020736 
L 210.861098 69.846247 
L 210.62219 70.085153 
L 209.952566 71.041476 
L 209.758773 71.31824 
L 209.265386 72.376321 
L 209.122597 72.682534 
L 208.820438 73.810208 
L 208.732992 74.136562 
L 208.631242 75.29957 
L 208.601795 75.63615 
L 208.703545 76.799161 
L 208.732992 77.135742 
L 209.035151 78.263416 
L 209.122597 78.58977 
L 209.615985 79.647841 
L 209.758773 79.954052 
L 210.428398 80.910375 
L 210.62219 81.187139 
L 211.447705 82.012655 
L 211.686613 82.251563 
L 212.642936 82.921189 
L 212.9197 83.114982 
L 213.977773 83.608367 
L 214.283984 83.751155 
L 215.411658 84.053319 
L 215.738012 84.140767 
L 216.901024 84.242512 
L 217.237605 84.271958 
" clip-path="url(#pad1797f499)" style="fill: none; stroke: #008000; stroke-width: 1.5; stroke-linecap: square"/>
   </g>
   <g id="line2d_25">
    <path d="M 290.284879 84.271958 
L 291.447887 84.170212 
L 291.784467 84.140767 
L 292.912141 83.838603 
L 293.238495 83.751155 
L 294.296576 83.25777 
L 294.602789 83.114982 
L 295.559106 82.445356 
L 295.835868 82.251563 
L 296.661385 81.426047 
L 296.900293 81.187139 
L 297.569922 80.230816 
L 297.763715 79.954052 
L 298.257101 78.89598 
L 298.399888 78.58977 
L 298.702046 77.462096 
L 298.789492 77.135742 
L 298.891244 75.972731 
L 298.920691 75.63615 
L 298.818939 74.473142 
L 298.789492 74.136562 
L 298.487334 73.008888 
L 298.399888 72.682534 
L 297.906503 71.624453 
L 297.763715 71.31824 
L 297.094086 70.361917 
L 296.900293 70.085153 
L 296.074777 69.259643 
L 295.835868 69.020736 
L 294.879552 68.351114 
L 294.602789 68.157322 
L 293.544708 67.663931 
L 293.238495 67.521141 
L 292.110821 67.218983 
L 291.784467 67.131537 
L 290.621459 67.029785 
L 290.284879 67.000338 
L 289.121871 67.10209 
L 288.785291 67.131537 
L 287.657611 67.433695 
L 287.331256 67.521141 
L 286.273181 68.014532 
L 285.966969 68.157322 
L 285.010647 68.826945 
L 284.733882 69.020736 
L 283.908372 69.846247 
L 283.669466 70.085153 
L 282.999843 71.041476 
L 282.806051 71.31824 
L 282.31266 72.376321 
L 282.16987 72.682534 
L 281.867709 73.810208 
L 281.780263 74.136562 
L 281.678517 75.29957 
L 281.649071 75.63615 
L 281.750817 76.799161 
L 281.780263 77.135742 
L 282.082424 78.263416 
L 282.16987 78.58977 
L 282.663261 79.647841 
L 282.806051 79.954052 
L 283.475674 80.910375 
L 283.669466 81.187139 
L 284.494976 82.012655 
L 284.733882 82.251563 
L 285.690205 82.921189 
L 285.966969 83.114982 
L 287.025044 83.608367 
L 287.331256 83.751155 
L 288.458936 84.053319 
L 288.785291 84.140767 
L 289.9483 84.242512 
L 290.284879 84.271958 
" clip-path="url(#pad1797f499)" style="fill: none; stroke: #008000; stroke-width: 1.5; stroke-linecap: square"/>
   </g>
   <g id="patch_3">
    <path d="M 38.482813 273.623059 
L 38.482813 7.511059 
" style="fill: none; stroke: #000000; stroke-width: 0.8; stroke-linejoin: miter; stroke-linecap: square"/>
   </g>
   <g id="patch_4">
    <path d="M 395.602813 273.623059 
L 395.602813 7.511059 
" style="fill: none; stroke: #000000; stroke-width: 0.8; stroke-linejoin: miter; stroke-linecap: square"/>
   </g>
   <g id="patch_5">
    <path d="M 38.482813 273.623059 
L 395.602813 273.623059 
" style="fill: none; stroke: #000000; stroke-width: 0.8; stroke-linejoin: miter; stroke-linecap: square"/>
   </g>
   <g id="patch_6">
    <path d="M 38.482813 7.511059 
L 395.602813 7.511059 
" style="fill: none; stroke: #000000; stroke-width: 0.8; stroke-linejoin: miter; stroke-linecap: square"/>
   </g>
  </g>
 </g>
 <defs>
  <clipPath id="pad1797f499">
   <rect x="38.482813" y="7.511059" width="357.12" height="266.112"/>
  </clipPath>
 </defs>
</svg>
