<?xml version="1.0" encoding="utf-8"?>
<!-- Generator: Adobe Illustrator 15.1.0, SVG Export Plug-In . SVG Version: 6.00 Build 0)  -->
<!DOCTYPE svg PUBLIC "-//W3C//DTD SVG 1.1//EN" "http://www.w3.org/Graphics/SVG/1.1/DTD/svg11.dtd">
<svg version="1.1" xmlns="http://www.w3.org/2000/svg" xmlns:xlink="http://www.w3.org/1999/xlink" x="0px" y="0px" width="1000px"
	 height="1000px" viewBox="0 0 1000 1000" enable-background="new 0 0 1000 1000" xml:space="preserve">
<g id="Layer_1" display="none">
	<rect x="0" y="0" display="inline" fill="none" stroke="#231F20" stroke-miterlimit="10" width="999.999" height="1000"/>
	<path display="inline" fill="none" stroke="#231F20" stroke-miterlimit="10" d="M839.741,898.683H160.259
		c-31.244,0-56.664-25.563-56.664-56.985V158.305c0-31.423,25.42-56.986,56.664-56.986h679.481
		c31.245,0,56.664,25.563,56.664,56.986v683.392C896.405,873.119,870.986,898.683,839.741,898.683z"/>
	<path display="inline" fill="none" stroke="#231F20" stroke-miterlimit="10" d="M785.621,960.672H214.377
		c-26.266,0-47.636-29.537-47.636-65.844V105.175c0-36.308,21.37-65.845,47.636-65.845h571.243
		c26.268,0,47.639,29.537,47.639,65.845v789.653C833.259,931.135,811.888,960.672,785.621,960.672z"/>
	<path display="inline" fill="none" stroke="#231F20" stroke-miterlimit="10" d="M893.6,832.723H106.4
		c-36.197,0-65.646-21.333-65.646-47.557V214.835c0-26.224,29.448-47.557,65.646-47.557h787.2c36.196,0,65.646,21.333,65.646,47.557
		v570.331C959.247,811.39,929.796,832.723,893.6,832.723z"/>
	<ellipse display="inline" fill="none" stroke="#231F20" stroke-miterlimit="10" cx="500.001" cy="500" rx="209.776" ry="210.16"/>
	<ellipse display="inline" fill="none" stroke="#231F20" stroke-miterlimit="10" cx="500" cy="500" rx="459.832" ry="460.669"/>
	<line display="inline" fill="none" stroke="#231F20" stroke-miterlimit="10" x1="0" y1="0" x2="1000" y2="1000"/>
	<line display="inline" fill="none" stroke="#231F20" stroke-miterlimit="10" x1="1000" y1="0" x2="0" y2="1000"/>
	<line display="inline" fill="none" stroke="#231F20" stroke-miterlimit="10" x1="500" y1="0" x2="500" y2="1000"/>
	<line display="inline" fill="none" stroke="#231F20" stroke-miterlimit="10" x1="351.168" y1="0" x2="351.168" y2="1000"/>
	<line display="inline" fill="none" stroke="#231F20" stroke-miterlimit="10" x1="651.667" y1="0.001" x2="651.667" y2="1000"/>
	<line display="inline" fill="none" stroke="#231F20" stroke-miterlimit="10" x1="0" y1="500" x2="1000" y2="500"/>
	<line display="inline" fill="none" stroke="#231F20" stroke-miterlimit="10" x1="0" y1="500" x2="1000" y2="500"/>
	<line display="inline" fill="none" stroke="#231F20" stroke-miterlimit="10" x1="0" y1="500" x2="1000" y2="500"/>
	<line display="inline" fill="none" stroke="#231F20" stroke-miterlimit="10" x1="0.001" y1="648.068" x2="1000" y2="648.068"/>
	<line display="inline" fill="none" stroke="#231F20" stroke-miterlimit="10" x1="8.668" y1="355.667" x2="1008.667" y2="355.667"/>
</g>
<g id="Layer_2">
	<g>
		<g>
			<path fill="#B811BC" d="M1000.001,498.511v1.488c0,55.538-9.067,108.956-25.791,158.876c-0.747,2.229-1.501,4.476-2.281,6.687
				c-1.234,3.538-2.515,7.042-3.839,10.533c-8.086,21.508-17.611,42.312-28.479,62.297c-1.957,3.601-3.946,7.166-5.988,10.704
				c-2.412,4.184-4.89,8.354-7.423,12.465c-43.786,71.219-104.938,130.626-177.559,172.317c-5.853,3.355-11.769,6.609-17.773,9.722
				c-12.672,6.623-25.661,12.705-38.954,18.227c-4.573,1.916-9.195,3.751-13.829,5.522c-0.229,0.094-0.467,0.182-0.692,0.257
				c-3.331,1.267-6.67,2.5-10.025,3.689C615.036,989.883,558.685,1000,500,1000c-58.716,0-115.097-10.131-167.429-28.735
				c-3.372-1.189-6.712-2.423-10.041-3.688c-0.226-0.088-0.448-0.168-0.677-0.257c-4.695-1.787-9.348-3.628-13.951-5.565
				c-13.305-5.538-26.311-11.637-39.001-18.263v-0.011c-6.001-3.118-11.935-6.369-17.79-9.739
				C178.599,892.049,117.521,832.69,73.782,761.538c-2.53-4.103-4.997-8.259-7.422-12.456c-2.033-3.541-4.03-7.117-5.985-10.719
				c-10.856-19.973-20.401-40.774-28.464-62.269c-1.324-3.491-2.605-6.995-3.84-10.533c-0.778-2.211-1.535-4.457-2.286-6.687
				C9.06,608.955-0.001,555.537-0.001,499.999v-1.207c0.018-6.784,0.167-13.542,0.455-20.271
				c0.616-14.479,1.833-28.791,3.655-42.926c4.182-32.571,11.517-64.162,21.675-94.476c0.751-2.243,1.507-4.47,2.303-6.683
				c1.218-3.536,2.499-7.042,3.823-10.538c30.025-79.858,79.936-149.996,143.693-204.376c2.707-2.305,5.449-4.591,8.201-6.852
				c0.183-0.15,0.378-0.299,0.554-0.448C267.203,44.704,372.097,3.19,486.558,0.18h0.061c4.064-0.102,8.113-0.163,12.207-0.163
				C499.219,0,499.605,0,500,0c0.375,0,0.764,0,1.14,0.017c4.084,0,8.144,0.062,12.208,0.163h0.064
				c114.443,3.011,219.324,44.49,302.16,111.998c0.185,0.15,0.378,0.299,0.561,0.448c2.771,2.26,5.508,4.548,8.221,6.866
				c63.751,54.376,113.696,124.531,143.736,204.406c1.324,3.496,2.604,7.002,3.839,10.538c0.78,2.213,1.534,4.455,2.281,6.683
				c10.131,30.235,17.466,61.768,21.646,94.265c1.821,14.119,3.058,28.432,3.656,42.896
				C999.817,484.992,999.982,491.735,1000.001,498.511z"/>
		</g>
		<polygon fill="#747474" points="697.254,329.166 500,670.829 302.741,329.166 		"/>
		<polygon fill="#FFFFFF" points="500,670.829 697.254,329.166 894.512,670.829 		"/>
		<polygon fill="#9F9F9F" points="105.482,670.829 302.741,329.166 500,670.829 		"/>
		<g>
			<g>
				<path fill="#FFFFFF" d="M816.133,112.626L697.227,318.57l-3.07,5.328l-3.005,5.21l-0.047,0.058l-3.041,5.271L499.955,660.266
					l-3.023,5.235l-0.033,0.061l-3.025,5.237l-0.016,0.03l-3.041,5.266L322.531,967.577c3.329,1.265,6.669,2.498,10.041,3.688
					l167.383-289.927l3.026-5.243l3.038-5.266l0.03-0.03l3.008-5.237l188.17-325.902l3.012-5.223l0.029-0.047l3.041-5.268
					l3.01-5.224l118.035-204.406C821.641,117.174,818.904,114.886,816.133,112.626z M694.157,323.898l-3.005,5.21l-0.047,0.058
					l-3.041,5.271L499.955,660.266l-3.023,5.235l0.028,0.061l3.041,5.268l3.022-5.251l1.135,1.953l0.386,0.665l1.507,2.603
					l3.008-5.237l188.17-325.902l3.012-5.223l0.029-0.047l3.041-5.268l3.01-5.224H694.157z"/>
			</g>
			<g>
				<path fill="#FFFFFF" d="M486.619,0.18h-0.061L302.707,318.618l-3.051,5.28l-1.158,2.021l-1.872,3.236l-3.053,5.281
					L105.418,660.321l-3.012,5.24l-1.156,2.003l-1.913,3.295l-3.012,5.235l-35.952,62.269c1.955,3.602,3.953,7.178,5.985,10.719
					l39.077-67.676l3.051-5.312l3.025-5.222l0.016-0.044l3.042-5.268L302.707,339.69l3.042-5.254l0.016-0.031l3.025-5.239
					l3.04-5.268L498.826,0.017C494.732,0.017,490.684,0.078,486.619,0.18z"/>
			</g>
			<g>
				<path fill="#FFFFFF" d="M968.09,323.898H31.91c-1.324,3.496-2.605,7.002-3.823,10.538h943.842
					C970.695,330.9,969.415,327.395,968.09,323.898z M293.589,323.898l3.037,5.257l3.058,5.281h388.38l3.041-5.271l0.047-0.058
					l3.005-5.21H293.589z"/>
			</g>
			<g>
				<path fill="#FFFFFF" d="M28.069,665.562c1.235,3.538,2.517,7.042,3.84,10.533H968.09c1.324-3.491,2.604-6.995,3.839-10.533
					H28.069z M495.783,674.097l-0.392-0.662l-1.501-2.605l-0.017-0.03l3.025-5.237H96.28l3.058,5.298l1.43,2.468l1.595,2.768
					h394.579L495.783,674.097z M503.008,665.562l0.014,0.017l1.135,1.953l0.386,0.665l1.507,2.603l0.017,0.03H888.35l0.042-0.071
					l2.999-5.196H503.008z"/>
			</g>
			<g>
				<path fill="#FFFFFF" d="M903.644,676.095l-3.094-5.337l-2.991-5.196l-3.083-5.343L706.381,334.437l-3.072-5.314l-3.01-5.224
					l-3.072-5.328L513.413,0.18h-0.064c-4.064-0.102-8.124-0.163-12.208-0.163l186.995,323.882l3.017,5.21l0.024,0.058l3.045,5.271
					l3.006,5.223l188.168,325.902l2.997,5.196l0.047,0.071l3.038,5.266l2.999,5.196l39.147,67.805
					c2.042-3.538,4.031-7.104,5.988-10.704L903.644,676.095z M891.477,676.095l2.999,5.196l2.994-5.196H891.477z"/>
			</g>
			<g>
				<path fill="#FFFFFF" d="M102.363,676.095l3.073,5.312l3.051-5.312H102.363z M114.524,676.095l-3.012-5.222l-0.027-0.044
					l-2.998-5.207l-0.043-0.061l-3.025-5.24L0.454,478.521c-0.287,6.729-0.437,13.487-0.455,20.271v0.018L96.28,665.562l3.058,5.298
					l1.43,2.468l1.595,2.768l3.073,5.312l145.676,252.336c5.854,3.37,11.788,6.621,17.79,9.739L114.524,676.095z M102.363,676.095
					l3.073,5.312l3.051-5.312H102.363z"/>
			</g>
			<g>
				<path fill="#FFFFFF" d="M891.391,665.562l-2.999,5.196l0.047,0.071l3.038,5.266h5.993l3.08-5.337l3.002-5.196H891.391z
					 M891.391,665.562l-2.999,5.196l0.047,0.071l3.038,5.266h5.993l3.08-5.337l3.002-5.196H891.391z M891.391,665.562l-2.999,5.196
					l0.047,0.071l3.038,5.266h5.993l3.08-5.337l3.002-5.196H891.391z M891.391,665.562l-2.999,5.196l0.047,0.071l3.038,5.266h5.993
					l3.08-5.337l3.002-5.196H891.391z M999.513,478.279L894.476,660.219l-3.043,5.266l-0.042,0.077l-2.999,5.196l-0.042,0.071
					l-3.044,5.266L730.869,943.6c6.005-3.112,11.921-6.366,17.773-9.722l145.834-252.587l2.994-5.196l3.08-5.337l3.002-5.196
					l96.449-167.037v-0.014C999.982,491.735,999.817,484.992,999.513,478.279z M891.391,665.562l-2.999,5.196l0.047,0.071
					l3.038,5.266h5.993l3.08-5.337l3.002-5.196H891.391z M891.391,665.562l-2.999,5.196l0.047,0.071l3.038,5.266h5.993l3.08-5.337
					l3.002-5.196H891.391z M891.391,665.562l-2.999,5.196l0.047,0.071l3.038,5.266h5.993l3.08-5.337l3.002-5.196H891.391z
					 M891.391,665.562l-2.999,5.196l0.047,0.071l3.038,5.266h5.993l3.08-5.337l3.002-5.196H891.391z M891.391,665.562l-2.999,5.196
					l0.047,0.071l3.038,5.266h5.993l3.08-5.337l3.002-5.196H891.391z"/>
			</g>
			<g>
				<path fill="#FFFFFF" d="M504.542,668.196l-0.386-0.665l-1.135-1.953L500,670.829h-6.11l1.501,2.605l0.392,0.662l1.159,1.998
					l3.012,5.243l3.026-5.243l3.038-5.266l0.03-0.03L504.542,668.196z M509.107,676.095l-3.041-5.266l-0.017-0.03l-1.507-2.603
					l-0.386-0.665l-1.135-1.953l-0.014-0.017l-3.054-5.296L311.829,334.437l-3.04-5.271l-0.815-1.412v-0.875l-1.081-1.021
					l-1.129-1.959l-3.058-5.28L183.804,112.671c-2.752,2.261-5.495,4.547-8.201,6.852l117.986,204.376l3.037,5.257l3.058,5.281
					v0.014l3.023,5.24l188.142,325.871l3.024,5.237l0.017,0.03l1.501,2.605l0.392,0.662l1.159,1.998l3.012,5.243l167.413,289.957
					c3.355-1.189,6.694-2.423,10.025-3.689L509.107,676.095z M504.542,668.196l-0.386-0.665l-1.135-1.953l-0.014-0.017h-6.049
					l-0.028-0.061L305.78,334.437h-6.097v0.014l3.023,5.24l188.142,325.871l3.024,5.237l0.017,0.03l1.501,2.605l0.392,0.662
					l1.159,1.998l3.012,5.243l3.026-5.243l3.038-5.266l0.03-0.03L504.542,668.196z"/>
			</g>
		</g>
	</g>
</g>
</svg>
