<svg xmlns="http://www.w3.org/2000/svg" width="400" height="400"><path fill="#B811BC" d="M346.181 146.73v.436c0 16.237-2.647 31.854-7.539 46.45a99.903 99.903 0 01-.668 1.955 98.7 98.7 0 01-1.124 3.08 143.658 143.658 0 01-8.325 18.212 118.144 118.144 0 01-1.753 3.131 122.916 122.916 0 01-2.169 3.641 146.793 146.793 0 01-51.909 50.383 137.994 137.994 0 01-5.196 2.844 143.852 143.852 0 01-11.39 5.327c-1.34.56-2.687 1.097-4.044 1.614a1.384 1.384 0 01-.2.073c-.978.372-1.95.734-2.932 1.081-15.301 5.436-31.775 8.393-48.933 8.393-17.168 0-33.649-2.963-48.952-8.4-.987-.349-1.96-.709-2.933-1.079-.064-.026-.134-.05-.196-.077a119.459 119.459 0 01-4.08-1.627 144.753 144.753 0 01-11.403-5.336v-.004a137.601 137.601 0 01-5.2-2.848 146.832 146.832 0 01-55.767-57.124 143.66 143.66 0 01-8.321-18.205 96.121 96.121 0 01-1.12-3.08 83.375 83.375 0 01-.671-1.955c-4.892-14.596-7.536-30.212-7.536-46.45v-.354a147.337 147.337 0 011.196-18.477 145.038 145.038 0 016.34-27.622c.217-.654.438-1.304.675-1.952.35-1.034.728-2.061 1.116-3.08 8.778-23.35 23.368-43.856 42.01-59.757.792-.671 1.592-1.34 2.396-2.001.053-.044.116-.086.161-.13 24.224-19.74 54.895-31.879 88.354-32.759h.02c1.187-.027 2.372-.044 3.569-.044.116-.008.23-.008.343-.008.111 0 .224 0 .333.008 1.193 0 2.38.017 3.568.044h.021c33.46.88 64.118 13.011 88.339 32.747.056.042.111.086.165.131.808.659 1.606 1.33 2.402 2.005 18.638 15.9 33.24 36.41 42.022 59.765a93.408 93.408 0 011.124 3.08c.23.648.451 1.303.668 1.952a144.685 144.685 0 016.331 27.563c.534 4.127.895 8.312 1.067 12.542.085 1.96.134 3.93.141 5.912z"/><path fill="#747474" d="M257.67 97.222l-57.671 99.891-57.673-99.891z"/><path fill="#FFF" d="M199.999 197.113l57.671-99.891 57.667 99.891z"/><path fill="#9F9F9F" d="M84.658 197.113l57.668-99.891 57.673 99.891z"/><path fill="#FFF" d="M292.425 33.913l-34.763 60.212-.896 1.558-.881 1.521-.012.018-.893 1.541-54.994 95.26-.885 1.529-.008.02-.889 1.532-.003.01-.886 1.538-49.202 85.219c.973.37 1.945.73 2.933 1.079l48.939-84.768.884-1.531.888-1.538.009-.01.881-1.532 55.015-95.283.88-1.526.008-.016.89-1.538.879-1.526 34.509-59.765a174.591 174.591 0 00-2.403-2.004zm-35.659 61.77l-.881 1.521-.012.018-.893 1.541-54.994 95.26-.885 1.529.008.02.89 1.542.888-1.538.325.571.117.197.438.759.881-1.532 55.015-95.283.88-1.526.008-.016.89-1.538.879-1.526h-3.554zM196.087 1.035h-.02l-53.749 93.102-.893 1.545-.337.588-.548.947-.896 1.544-55.011 95.277-.877 1.532-.341.586-.555.964-.883 1.529-10.511 18.205c.571 1.053 1.156 2.1 1.753 3.135l11.422-19.787.893-1.553.884-1.528.009-.01.883-1.542 55.008-95.273.889-1.536.004-.01.884-1.531.888-1.539L199.657.989c-1.198.002-2.384.019-3.57.046z"/><path fill="#FFF" d="M336.85 95.683H63.146a83.089 83.089 0 00-1.116 3.08h275.943a95.735 95.735 0 00-1.123-3.08zm-197.197 0l.888 1.536.889 1.544h113.55l.893-1.541.012-.018.881-1.521H139.653zm-77.627 99.888a98.609 98.609 0 001.12 3.08H336.85a98.7 98.7 0 001.124-3.08H62.026zm136.738 2.495l-.111-.192-.442-.76-.005-.01.889-1.532H81.966l.896 1.551.418.719.462.81h115.36l-.338-.586zm2.118-2.495l.005.004.325.571.117.197.438.759.004.01h111.771l.013-.022.872-1.52H200.882z"/><path fill="#FFF" d="M318.01 198.651l-.903-1.56-.876-1.52-.9-1.563-54.991-95.246-.899-1.554-.881-1.526-.896-1.558-53.741-93.09h-.023a156.85 156.85 0 00-3.568-.044l54.673 94.691.88 1.521.005.018.893 1.541.88 1.526 55.011 95.283.881 1.52.012.022.89 1.538.875 1.52 11.441 19.823a118.144 118.144 0 001.753-3.131l-10.516-18.211zm-3.555 0l.875 1.52.876-1.52h-1.751zm-230.714 0l.901 1.553.893-1.553h-1.794zm3.558 0l-.88-1.528-.013-.01-.871-1.525-.013-.017-.889-1.532-30.687-53.153a145.81 145.81 0 00-.128 5.926v.006l28.146 48.752.896 1.551.418.719.462.81.901 1.553 42.592 73.775c1.712.984 3.444 1.936 5.2 2.848l-45.134-78.175zm-3.558 0l.901 1.553.893-1.553h-1.794z"/><path fill="#FFF" d="M314.426 195.571l-.872 1.52.012.022.89 1.538h1.751l.9-1.56.876-1.52h-3.557zm0 0l-.872 1.52.012.022.89 1.538h1.751l.9-1.56.876-1.52h-3.557zm0 0l-.872 1.52.012.022.89 1.538h1.751l.9-1.56.876-1.52h-3.557zm0 0l-.872 1.52.012.022.89 1.538h1.751l.9-1.56.876-1.52h-3.557zm31.614-54.752l-30.71 53.189-.889 1.539-.016.024-.872 1.52-.013.022-.893 1.538-45.151 78.21a136.58 136.58 0 005.196-2.844l42.637-73.847.876-1.52.9-1.56.876-1.52 28.198-48.835v-.006a144.733 144.733 0 00-.139-5.91zm-31.614 54.752l-.872 1.52.012.022.89 1.538h1.751l.9-1.56.876-1.52h-3.557zm0 0l-.872 1.52.012.022.89 1.538h1.751l.9-1.56.876-1.52h-3.557zm0 0l-.872 1.52.012.022.89 1.538h1.751l.9-1.56.876-1.52h-3.557zm0 0l-.872 1.52.012.022.89 1.538h1.751l.9-1.56.876-1.52h-3.557zm0 0l-.872 1.52.012.022.89 1.538h1.751l.9-1.56.876-1.52h-3.557zm-113.097.773l-.117-.197-.325-.571-.888 1.538h-1.789l.442.76.111.192.338.585.885 1.531.884-1.531.888-1.538.009-.01-.438-.759zm1.334 2.307l-.893-1.538-.004-.01-.438-.759-.117-.197-.325-.571-.005-.004-.896-1.549-55.004-95.26-.888-1.541-.237-.414v-.253l-.317-.303-.329-.569-.893-1.545-34.767-60.213c-.804.662-1.604 1.331-2.396 2.001l34.497 59.757.888 1.536.889 1.544v.002l.889 1.533 55.006 95.273.881 1.532.005.01.442.76.111.192.338.585.885 1.531 48.945 84.775c.981-.347 1.954-.709 2.932-1.081l-49.199-85.224zm-1.334-2.307l-.117-.197-.325-.571-.005-.004h-1.772l-.008-.02-55.888-96.789h-1.784v.002l.889 1.533 55.006 95.273.881 1.532.005.01.442.76.111.192.338.585.885 1.531.884-1.531.888-1.538.009-.01-.439-.758z"/><path d="M28.045 399.534c-7.369 0-12.732-1.515-16.089-4.545-3.355-3.03-5.035-7.988-5.035-14.874v-27.114H0v-12.602h6.921v-16.578h18.076v16.578h17.404v12.602H24.997v20.555c0 2.033.018 3.806.053 5.319.034 1.516.31 2.876.825 4.081.481 1.205 1.333 2.16 2.557 2.867 1.221.705 3.003 1.058 5.347 1.058.963 0 2.227-.206 3.796-.62 1.565-.412 2.658-.791 3.278-1.136h1.549v12.757a50.633 50.633 0 01-6.248 1.213c-2.206.292-4.908.439-8.109.439zm60.684-42.04h-1.497c-.689-.24-1.688-.421-2.997-.542a47.756 47.756 0 00-4.338-.181c-1.894 0-3.882.276-5.964.825a58.466 58.466 0 00-6.071 1.964v38.838H49.788v-57.999h18.074v8.315c.829-.757 1.972-1.712 3.437-2.867 1.463-1.152 2.796-2.073 4.003-2.763 1.307-.791 2.83-1.472 4.57-2.039 1.738-.569 3.382-.853 4.933-.853.585 0 1.238.018 1.961.051.723.035 1.376.087 1.964.155v17.096zm25.514-25.357h-19.11v-14.101h19.11v14.101zm-.516 66.261H95.649v-57.999h18.077v57.999zm83.15 0v-28.975c0-2.856-.053-5.268-.155-7.229-.103-1.964-.414-3.565-.93-4.805-.517-1.239-1.316-2.143-2.402-2.711-1.084-.567-2.607-.852-4.569-.852-1.378 0-2.737.301-4.08.903-1.344.603-2.809 1.454-4.392 2.557v41.11H162.17v-28.975c0-2.822-.062-5.224-.181-7.204-.122-1.979-.439-3.59-.956-4.829-.516-1.239-1.316-2.143-2.4-2.711-1.084-.567-2.592-.852-4.519-.852-1.482 0-2.927.345-4.34 1.032a31.472 31.472 0 00-4.132 2.428v41.11h-18.075v-57.999h18.075v6.404c2.961-2.514 5.75-4.476 8.367-5.888 2.615-1.411 5.561-2.118 8.833-2.118 3.545 0 6.662.845 9.346 2.531 2.687 1.688 4.735 4.201 6.147 7.541 3.476-3.237 6.757-5.725 9.838-7.463s6.207-2.609 9.373-2.609c2.687 0 5.096.432 7.23 1.291a13.926 13.926 0 015.424 3.874c1.618 1.859 2.832 4.072 3.641 6.637.81 2.565 1.215 5.913 1.215 10.045v37.754h-18.179zm61.252 1.549c-10.95 0-19.343-2.616-25.178-7.851-5.836-5.232-8.754-12.687-8.754-22.362 0-9.469 2.72-17.025 8.16-22.673 5.439-5.646 13.048-8.47 22.826-8.47 8.885 0 15.563 2.394 20.039 7.179 4.476 4.786 6.715 11.639 6.715 20.555v6.508h-39.614c.173 2.686.742 4.933 1.705 6.74.965 1.808 2.238 3.245 3.823 4.313 1.548 1.066 3.355 1.832 5.422 2.297 2.065.465 4.321.697 6.766.697 2.099 0 4.165-.232 6.198-.697 2.031-.465 3.891-1.075 5.577-1.833a36.572 36.572 0 004.106-2.118c1.258-.757 2.28-1.428 3.073-2.014h1.911v14.926c-1.48.586-2.835 1.128-4.055 1.627-1.224.499-2.901 1.007-5.036 1.523a52.94 52.94 0 01-6.067 1.214c-2.084.293-4.623.439-7.617.439zm5.991-38.011c-.105-3.821-.991-6.73-2.661-8.728s-4.226-2.996-7.668-2.996c-3.512 0-6.26 1.051-8.239 3.15-1.979 2.101-3.073 4.959-3.278 8.573h21.846zM308.896 400c-4.271 0-8.309-.466-12.112-1.395-3.804-.93-6.945-2.015-9.424-3.255v-15.287h1.497c.861.654 1.84 1.377 2.943 2.169 1.102.793 2.635 1.619 4.597 2.479 1.686.792 3.591 1.472 5.706 2.04 2.119.568 4.416.852 6.896.852 2.547 0 4.793-.395 6.739-1.188 1.944-.792 2.917-2.048 2.917-3.771 0-1.343-.446-2.358-1.342-3.047-.896-.688-2.634-1.343-5.217-1.962-1.376-.344-3.115-.715-5.217-1.111-2.099-.395-3.96-.852-5.576-1.368-4.546-1.411-7.963-3.503-10.252-6.275-2.29-2.771-3.436-6.412-3.436-10.923 0-2.582.595-5.019 1.783-7.308 1.187-2.29 2.936-4.33 5.243-6.12 2.305-1.756 5.155-3.15 8.546-4.184s7.223-1.55 11.491-1.55c4.063 0 7.799.405 11.208 1.215 3.406.809 6.282 1.781 8.623 2.918v14.666h-1.445c-.621-.48-1.6-1.126-2.943-1.937a40.108 40.108 0 00-3.925-2.091c-1.516-.688-3.212-1.257-5.088-1.704a24.774 24.774 0 00-5.758-.672c-2.618 0-4.83.447-6.638 1.343-1.807.896-2.71 2.084-2.71 3.563 0 1.31.445 2.343 1.342 3.1.894.757 2.84 1.497 5.835 2.22 1.551.38 3.331.749 5.347 1.11 2.014.362 3.951.853 5.809 1.473 4.165 1.344 7.327 3.314 9.479 5.913 2.151 2.6 3.229 6.052 3.229 10.354 0 2.721-.64 5.313-1.913 7.773-1.273 2.462-3.081 4.537-5.422 6.223-2.479 1.826-5.398 3.237-8.754 4.235-3.354 1.001-7.374 1.502-12.058 1.502zM400 398.398h-18.18v-28.767a86.31 86.31 0 00-.283-6.999c-.189-2.323-.543-4.036-1.06-5.139-.62-1.309-1.515-2.246-2.684-2.814-1.173-.567-2.739-.852-4.701-.852-1.48 0-2.979.275-4.493.826-1.516.551-3.134 1.429-4.855 2.634v41.11h-18.075v-80.362h18.075v28.768c2.961-2.514 5.845-4.476 8.652-5.888 2.807-1.411 5.913-2.118 9.321-2.118 5.922 0 10.45 1.869 13.584 5.604 3.133 3.736 4.698 9.15 4.698 16.242v37.755z" fill="#9F9F9F"/></svg>