<svg xmlns="http://www.w3.org/2000/svg" viewBox="0 0 852.251 126.114" height="63.057" width="426.125"><path d="M104.044 126.114l-51.06-88.376h102.118z" fill="#7b697f"/><path d="M106.044 126.06l51.023-88.376 51.019 88.376z" fill="#493e4b"/><path d="M0 126.06l51.02-88.376 51.024 88.376z" fill="#a496a8"/><path aria-label="trimesh" d="M278.54 119.998q-3.47 2.975-8.594 4.628-5.124 1.488-10.578 1.488-13.223 0-20.496-7.108-7.273-7.106-7.273-20.33V50.578h-14.876V37.521h14.876V18.347h15.868v19.174h25.123v13.057h-25.122v47.436q0 7.107 3.47 10.91 3.637 3.8 10.248 3.8 7.273 0 12.397-4.132zm34.38-67.768q4.132-7.602 12.231-11.57 8.099-3.966 19.67-3.966v15.372q-1.323-.166-3.637-.166-12.892 0-20.33 7.768-7.273 7.604-7.273 21.818v43.636h-15.867V37.52h15.208zm67.272 72.892h-15.868V37.52h15.868zm-7.935-104.461q-4.628 0-7.769-2.976-2.975-2.975-2.975-7.272 0-4.298 2.975-7.272Q367.63 0 372.258 0t7.603 2.975q3.14 2.81 3.14 7.108 0 4.463-3.14 7.602-2.975 2.976-7.603 2.976zm147.767 16.033q16.53 0 26.115 9.586 9.753 9.587 9.753 28.43v50.412h-15.868V76.528q0-12.727-5.95-19.174-5.786-6.446-16.695-6.446-12.065 0-19.173 7.604-7.107 7.438-7.107 21.487v45.123h-15.867V76.528q0-12.727-5.95-19.174-5.785-6.446-16.695-6.446-12.066 0-19.174 7.604-7.106 7.438-7.106 21.487v45.123h-15.868V37.52h15.206v13.057q4.793-6.776 12.562-10.247 7.769-3.636 17.686-3.636 10.247 0 18.181 4.131 7.934 4.133 12.231 12.067 4.959-7.604 13.72-11.9 8.925-4.3 19.999-4.3zm144.295 45.124q0 1.817-.33 4.793h-71.073q1.487 11.569 10.082 18.677 8.76 6.942 21.653 6.942 15.702 0 25.288-10.578l8.76 10.248q-5.95 6.942-14.876 10.577-8.759 3.637-19.669 3.637-13.884 0-24.627-5.62-10.744-5.785-16.695-16.033-5.784-10.248-5.784-23.14 0-12.727 5.62-22.975 5.785-10.247 15.701-15.867 10.083-5.785 22.646-5.785 12.56 0 22.313 5.785 9.918 5.619 15.371 15.867 5.62 10.248 5.62 23.47zm-43.304-31.736q-11.405 0-19.175 6.942-7.602 6.942-8.924 18.182h56.197q-1.323-11.075-9.091-18.016-7.603-7.108-19.007-7.108zm90.41 76.032q-10.743 0-20.66-2.81-9.918-2.975-15.537-7.438l6.612-12.562q5.785 4.133 14.049 6.612 8.264 2.48 16.695 2.48 20.825 0 20.825-11.901 0-3.967-2.81-6.282-2.81-2.314-7.107-3.305-4.132-1.158-11.901-2.48-10.578-1.653-17.355-3.8-6.611-2.15-11.404-7.274-4.794-5.124-4.794-14.38 0-11.9 9.917-19.008 9.917-7.272 26.612-7.272 8.759 0 17.52 2.148 8.76 2.15 14.38 5.786l-6.777 12.56q-10.744-6.941-25.288-6.941-10.083 0-15.372 3.306-5.29 3.306-5.29 8.76 0 4.297 2.975 6.777 2.975 2.479 7.273 3.636 4.463 1.157 12.397 2.644 10.578 1.82 17.024 3.967 6.612 1.984 11.24 6.942 4.628 4.959 4.628 13.884 0 11.901-10.248 19.009-10.083 6.942-27.603 6.942zm104.462-89.42q16.695 0 26.446 9.752 9.918 9.587 9.918 28.264v50.412h-15.868V76.528q0-12.727-6.116-19.174-6.116-6.446-17.52-6.446-12.892 0-20.33 7.604-7.438 7.438-7.438 21.487v45.123H769.11V2.48h15.868v47.438q4.958-6.281 12.892-9.752 8.099-3.471 18.016-3.471z" fill="#7b697f"/></svg>