<svg xmlns="http://www.w3.org/2000/svg" width="467.756" height="69.3" viewBox="0 0 935.512 138.6"><path d="M107.508 127.052l-51.06-88.376h102.118z" fill="#747474"/><path d="M109.508 126.998l51.023-88.376 51.019 88.376z"/><path fill="#9f9f9f" d="M3.464 126.998l51.02-88.376 51.024 88.376z"/><path d="M310.854 132.672q-4.01 2.964-9.937 4.533-5.753 1.395-12.204 1.395-16.736 0-25.976-8.543-9.066-8.542-9.066-25.105V66.423H239.2v-20.92h14.47V22.664h27.197v22.839h23.361v20.92h-23.361v38.18q0 5.928 2.964 9.24 3.138 3.139 8.717 3.139 6.45 0 10.983-3.487zm41.319-76.883q4.881-6.8 13.075-10.286 8.368-3.487 19.178-3.487V67.12q-4.533-.349-6.102-.349-11.681 0-18.306 6.625-6.625 6.45-6.625 19.526v44.282h-27.197V43.411h25.977zm48.466-12.379h27.197v93.795h-27.197zm13.598-13.075q-7.496 0-12.204-4.358-4.707-4.359-4.707-10.81 0-6.45 4.707-10.809Q406.741 0 414.237 0q7.497 0 12.204 4.184 4.707 4.184 4.707 10.46 0 6.8-4.707 11.333-4.707 4.358-12.204 4.358zm158.998 11.681q17.608 0 27.894 10.46 10.46 10.286 10.46 31.033v53.696h-27.196V87.693q0-11.158-4.708-16.562-4.532-5.58-13.075-5.58-9.589 0-15.168 6.277-5.579 6.102-5.579 18.306v47.071h-27.197V87.693q0-22.141-17.782-22.141-9.415 0-14.993 6.276-5.58 6.102-5.58 18.306v47.071h-27.196V43.411h25.976V54.22q5.23-5.928 12.727-9.066 7.671-3.138 16.737-3.138 9.937 0 17.957 4.01 8.02 3.835 12.9 11.332 5.754-7.323 14.471-11.332 8.891-4.01 19.352-4.01zM728.92 90.657q0 .523-.523 7.322H657.44q1.917 8.717 9.065 13.773 7.148 5.056 17.783 5.056 7.322 0 12.9-2.093 5.754-2.266 10.636-6.973l14.47 15.69Q709.045 138.6 683.59 138.6q-15.864 0-28.068-6.102-12.204-6.276-18.829-17.26-6.625-10.983-6.625-24.93 0-13.773 6.45-24.756 6.626-11.158 17.958-17.26 11.506-6.276 25.628-6.276 13.773 0 24.93 5.927 11.158 5.928 17.434 17.086 6.45 10.983 6.45 25.628zm-48.641-28.07q-9.24 0-15.516 5.231-6.276 5.23-7.671 14.296h46.2q-1.395-8.891-7.671-14.122-6.276-5.404-15.342-5.404zm98.327 76.013q-11.68 0-22.838-2.79-11.158-2.963-17.783-7.322l9.066-19.526q6.276 4.01 15.167 6.625 8.892 2.44 17.434 2.44 17.26 0 17.26-8.542 0-4.01-4.707-5.753-4.707-1.743-14.47-2.964-11.507-1.743-19.003-4.01-7.497-2.266-13.076-8.02-5.404-5.752-5.404-16.387 0-8.891 5.055-15.69 5.23-6.974 14.994-10.81 9.937-3.835 23.361-3.835 9.938 0 19.7 2.266 9.938 2.092 16.388 5.928l-9.065 19.352q-12.378-6.974-27.023-6.974-8.717 0-13.075 2.44-4.359 2.441-4.359 6.277 0 4.358 4.707 6.102 4.708 1.743 14.994 3.312 11.506 1.918 18.828 4.184 7.323 2.092 12.727 7.846 5.405 5.753 5.405 16.039 0 8.717-5.23 15.516-5.23 6.8-15.342 10.635-9.938 3.661-23.71 3.661zm118.028-96.584q17.434 0 28.069 10.46 10.809 10.46 10.809 31.033v53.696h-27.197V87.693q0-11.158-4.882-16.562-4.881-5.58-14.121-5.58-10.286 0-16.388 6.451-6.102 6.276-6.102 18.829v46.374h-27.197V7.845h27.197v45.329q5.404-5.405 13.075-8.194 7.671-2.964 16.737-2.964z" aria-label="trimesh" font-weight="700" font-size="174.34" font-family="Montserrat" letter-spacing="0" word-spacing="0" fill="#9f9f9f" stroke-width="4.358"/></svg>