<?xml version="1.0" encoding="utf-8"?>
<!-- Generator: Adobe Illustrator 15.1.0, SVG Export Plug-In . SVG Version: 6.00 Build 0)  -->
<!DOCTYPE svg PUBLIC "-//W3C//DTD SVG 1.1//EN" "http://www.w3.org/Graphics/SVG/1.1/DTD/svg11.dtd">
<svg version="1.1" id="Layer_2" xmlns="http://www.w3.org/2000/svg" xmlns:xlink="http://www.w3.org/1999/xlink" x="0px" y="0px"
	 width="400px" height="400px" viewBox="0 0 400 400" enable-background="new 0 0 400 400" xml:space="preserve">
<g>
	<g>
		<g>
			<path fill="#B811BC" d="M346.181,146.73v0.436c0,16.237-2.647,31.854-7.539,46.45c-0.217,0.653-0.438,1.308-0.668,1.955
				c-0.358,1.031-0.731,2.059-1.124,3.08c-2.36,6.289-5.146,12.372-8.325,18.212c-0.57,1.053-1.152,2.097-1.753,3.131
				c-0.701,1.224-1.425,2.44-2.169,3.641c-12.797,20.826-30.679,38.191-51.909,50.383c-1.712,0.982-3.439,1.934-5.196,2.844
				c-3.705,1.936-7.504,3.711-11.39,5.327c-1.34,0.56-2.687,1.097-4.044,1.614c-0.068,0.029-0.133,0.056-0.2,0.073
				c-0.978,0.372-1.95,0.734-2.932,1.081c-15.301,5.436-31.775,8.393-48.933,8.393c-17.168,0-33.649-2.963-48.952-8.4
				c-0.987-0.349-1.96-0.709-2.933-1.079c-0.064-0.026-0.134-0.05-0.196-0.077c-1.376-0.52-2.734-1.061-4.08-1.627
				c-3.892-1.618-7.693-3.4-11.403-5.336v-0.004c-1.756-0.912-3.488-1.863-5.2-2.848c-21.201-12.191-39.06-29.545-51.845-50.349
				c-0.739-1.2-1.463-2.412-2.169-3.64c-0.597-1.035-1.182-2.082-1.753-3.135c-3.176-5.84-5.965-11.92-8.321-18.205
				c-0.389-1.021-0.767-2.049-1.12-3.08c-0.233-0.647-0.454-1.302-0.671-1.955c-4.892-14.596-7.536-30.212-7.536-46.45v-0.354
				c0.004-1.984,0.044-3.958,0.128-5.926c0.181-4.232,0.535-8.418,1.068-12.551c1.227-9.52,3.365-18.757,6.34-27.622
				c0.217-0.654,0.438-1.304,0.675-1.952c0.35-1.034,0.728-2.061,1.116-3.08c8.778-23.35,23.368-43.856,42.01-59.757
				c0.792-0.671,1.592-1.34,2.396-2.001c0.053-0.044,0.116-0.086,0.161-0.13c24.224-19.74,54.895-31.879,88.354-32.759h0.02
				c1.187-0.027,2.372-0.044,3.569-0.044c0.116-0.008,0.23-0.008,0.343-0.008c0.111,0,0.224,0,0.333,0.008
				c1.193,0,2.38,0.017,3.568,0.044h0.021c33.46,0.88,64.118,13.011,88.339,32.747c0.056,0.042,0.111,0.086,0.165,0.131
				c0.808,0.659,1.606,1.33,2.402,2.005c18.638,15.9,33.24,36.41,42.022,59.765c0.393,1.019,0.766,2.045,1.124,3.08
				c0.23,0.648,0.451,1.303,0.668,1.952c2.967,8.84,5.107,18.061,6.331,27.563c0.534,4.127,0.895,8.312,1.067,12.542
				C346.125,142.778,346.174,144.748,346.181,146.73z"/>
		</g>
		<polygon fill="#747474" points="257.67,97.222 199.999,197.113 142.326,97.222 		"/>
		<polygon fill="#FFFFFF" points="199.999,197.113 257.67,97.222 315.337,197.113 		"/>
		<polygon fill="#9F9F9F" points="84.658,197.113 142.326,97.222 199.999,197.113 		"/>
		<g>
			<g>
				<path fill="#FFFFFF" d="M292.425,33.913l-34.763,60.212l-0.896,1.558l-0.881,1.521l-0.012,0.018l-0.893,1.541l-54.994,95.26
					l-0.885,1.529l-0.008,0.02l-0.889,1.532l-0.003,0.01l-0.886,1.538l-49.202,85.219c0.973,0.37,1.945,0.73,2.933,1.079
					l48.939-84.768l0.884-1.531l0.888-1.538l0.009-0.01l0.881-1.532l55.015-95.283l0.88-1.526l0.008-0.016l0.89-1.538l0.879-1.526
					l34.509-59.765C294.031,35.243,293.232,34.571,292.425,33.913z M256.766,95.683l-0.881,1.521l-0.012,0.018l-0.893,1.541
					l-54.994,95.26l-0.885,1.529l0.008,0.02l0.89,1.542l0.888-1.538l0.325,0.571l0.117,0.197l0.438,0.759l0.881-1.532l55.015-95.283
					l0.88-1.526l0.008-0.016l0.89-1.538l0.879-1.526H256.766z"/>
			</g>
			<g>
				<path fill="#FFFFFF" d="M196.087,1.035h-0.02l-53.749,93.102l-0.893,1.545l-0.337,0.588l-0.548,0.947l-0.896,1.544
					l-55.011,95.277l-0.877,1.532l-0.341,0.586l-0.555,0.964l-0.883,1.529l-10.511,18.205c0.571,1.053,1.156,2.1,1.753,3.135
					l11.422-19.787l0.893-1.553l0.884-1.528l0.009-0.01l0.883-1.542l55.008-95.273l0.889-1.536l0.004-0.01l0.884-1.531l0.888-1.539
					l54.674-94.691C198.459,0.991,197.273,1.008,196.087,1.035z"/>
			</g>
			<g>
				<path fill="#FFFFFF" d="M336.85,95.683H63.146c-0.389,1.019-0.767,2.045-1.116,3.08h275.943
					C337.615,97.728,337.242,96.702,336.85,95.683z M139.653,95.683l0.888,1.536l0.889,1.544H254.98l0.893-1.541l0.012-0.018
					l0.881-1.521H139.653z"/>
			</g>
			<g>
				<path fill="#FFFFFF" d="M62.026,195.571c0.354,1.031,0.731,2.059,1.12,3.08H336.85c0.393-1.021,0.766-2.049,1.124-3.08H62.026z
					 M198.764,198.066l-0.111-0.192l-0.442-0.76l-0.005-0.01l0.889-1.532H81.966l0.896,1.551l0.418,0.719l0.462,0.81h115.36
					L198.764,198.066z M200.882,195.571l0.005,0.004l0.325,0.571l0.117,0.197l0.438,0.759l0.004,0.01h111.771l0.013-0.022
					l0.872-1.52H200.882z"/>
			</g>
			<g>
				<path fill="#FFFFFF" d="M318.01,198.651l-0.903-1.56l-0.876-1.52l-0.9-1.563l-54.991-95.246l-0.899-1.554l-0.881-1.526
					l-0.896-1.558l-53.741-93.09H203.9c-1.188-0.027-2.375-0.044-3.568-0.044l54.673,94.691l0.88,1.521l0.005,0.018l0.893,1.541
					l0.88,1.526l55.011,95.283l0.881,1.52l0.012,0.022l0.89,1.538l0.875,1.52l11.441,19.823c0.601-1.034,1.183-2.078,1.753-3.131
					L318.01,198.651z M314.455,198.651l0.875,1.52l0.876-1.52H314.455z"/>
			</g>
			<g>
				<path fill="#FFFFFF" d="M83.741,198.651l0.901,1.553l0.893-1.553H83.741z M87.299,198.651l-0.88-1.528l-0.013-0.01l-0.871-1.525
					l-0.013-0.017l-0.889-1.532l-30.687-53.153c-0.084,1.968-0.124,3.942-0.128,5.926v0.006l28.146,48.752l0.896,1.551l0.418,0.719
					l0.462,0.81l0.901,1.553l42.592,73.775c1.712,0.984,3.444,1.936,5.2,2.848L87.299,198.651z M83.741,198.651l0.901,1.553
					l0.893-1.553H83.741z"/>
			</g>
			<g>
				<path fill="#FFFFFF" d="M314.426,195.571l-0.872,1.52l0.012,0.022l0.89,1.538h1.751l0.9-1.56l0.876-1.52H314.426z
					 M314.426,195.571l-0.872,1.52l0.012,0.022l0.89,1.538h1.751l0.9-1.56l0.876-1.52H314.426z M314.426,195.571l-0.872,1.52
					l0.012,0.022l0.89,1.538h1.751l0.9-1.56l0.876-1.52H314.426z M314.426,195.571l-0.872,1.52l0.012,0.022l0.89,1.538h1.751
					l0.9-1.56l0.876-1.52H314.426z M346.04,140.819l-30.71,53.189l-0.889,1.539l-0.016,0.024l-0.872,1.52l-0.013,0.022l-0.893,1.538
					l-45.151,78.21c1.757-0.91,3.484-1.861,5.196-2.844l42.637-73.847l0.876-1.52l0.9-1.56l0.876-1.52l28.198-48.835v-0.006
					C346.174,144.748,346.125,142.778,346.04,140.819z M314.426,195.571l-0.872,1.52l0.012,0.022l0.89,1.538h1.751l0.9-1.56
					l0.876-1.52H314.426z M314.426,195.571l-0.872,1.52l0.012,0.022l0.89,1.538h1.751l0.9-1.56l0.876-1.52H314.426z
					 M314.426,195.571l-0.872,1.52l0.012,0.022l0.89,1.538h1.751l0.9-1.56l0.876-1.52H314.426z M314.426,195.571l-0.872,1.52
					l0.012,0.022l0.89,1.538h1.751l0.9-1.56l0.876-1.52H314.426z M314.426,195.571l-0.872,1.52l0.012,0.022l0.89,1.538h1.751
					l0.9-1.56l0.876-1.52H314.426z"/>
			</g>
			<g>
				<path fill="#FFFFFF" d="M201.329,196.344l-0.117-0.197l-0.325-0.571l-0.888,1.538h-1.789l0.442,0.76l0.111,0.192l0.338,0.585
					l0.885,1.531l0.884-1.531l0.888-1.538l0.009-0.01L201.329,196.344z M202.663,198.651l-0.893-1.538l-0.004-0.01l-0.438-0.759
					l-0.117-0.197l-0.325-0.571l-0.005-0.004l-0.896-1.549l-55.004-95.26l-0.888-1.541l-0.237-0.414v-0.253l-0.317-0.303
					l-0.329-0.569l-0.893-1.545l-34.767-60.213c-0.804,0.662-1.604,1.331-2.396,2.001l34.497,59.757l0.888,1.536l0.889,1.544v0.002
					l0.889,1.533l55.006,95.273l0.881,1.532l0.005,0.01l0.442,0.76l0.111,0.192l0.338,0.585l0.885,1.531l48.945,84.775
					c0.981-0.347,1.954-0.709,2.932-1.081L202.663,198.651z M201.329,196.344l-0.117-0.197l-0.325-0.571l-0.005-0.004h-1.772
					l-0.008-0.02l-55.888-96.789h-1.784v0.002l0.889,1.533l55.006,95.273l0.881,1.532l0.005,0.01l0.442,0.76l0.111,0.192
					l0.338,0.585l0.885,1.531l0.884-1.531l0.888-1.538l0.009-0.01L201.329,196.344z"/>
			</g>
		</g>
	</g>
	<g>
		<path fill="#9F9F9F" d="M28.045,399.534c-7.369,0-12.732-1.515-16.089-4.545c-3.355-3.03-5.035-7.988-5.035-14.874v-27.114H0
			v-12.602h6.921v-16.578h18.076v16.578h17.404v12.602H24.997v20.555c0,2.033,0.018,3.806,0.053,5.319
			c0.034,1.516,0.31,2.876,0.825,4.081c0.481,1.205,1.333,2.16,2.557,2.867c1.221,0.705,3.003,1.058,5.347,1.058
			c0.963,0,2.227-0.206,3.796-0.62c1.565-0.412,2.658-0.791,3.278-1.136h1.549v12.757c-1.961,0.517-4.046,0.921-6.248,1.213
			C33.948,399.387,31.246,399.534,28.045,399.534z"/>
		<path fill="#9F9F9F" d="M88.729,357.494h-1.497c-0.689-0.24-1.688-0.421-2.997-0.542c-1.307-0.12-2.756-0.181-4.338-0.181
			c-1.894,0-3.882,0.276-5.964,0.825c-2.085,0.552-4.107,1.207-6.071,1.964v38.838H49.788v-57.999h18.074v8.315
			c0.829-0.757,1.972-1.712,3.437-2.867c1.463-1.152,2.796-2.073,4.003-2.763c1.307-0.791,2.83-1.472,4.57-2.039
			c1.738-0.569,3.382-0.853,4.933-0.853c0.585,0,1.238,0.018,1.961,0.051c0.723,0.035,1.376,0.087,1.964,0.155V357.494z"/>
		<path fill="#9F9F9F" d="M114.243,332.137h-19.11v-14.101h19.11V332.137z M113.727,398.398H95.649v-57.999h18.077V398.398z"/>
		<path fill="#9F9F9F" d="M196.877,398.398v-28.975c0-2.856-0.053-5.268-0.155-7.229c-0.103-1.964-0.414-3.565-0.93-4.805
			c-0.517-1.239-1.316-2.143-2.402-2.711c-1.084-0.567-2.607-0.852-4.569-0.852c-1.378,0-2.737,0.301-4.08,0.903
			c-1.344,0.603-2.809,1.454-4.392,2.557v41.11H162.17v-28.975c0-2.822-0.062-5.224-0.181-7.204
			c-0.122-1.979-0.439-3.59-0.956-4.829c-0.516-1.239-1.316-2.143-2.4-2.711c-1.084-0.567-2.592-0.852-4.519-0.852
			c-1.482,0-2.927,0.345-4.34,1.032c-1.412,0.688-2.789,1.498-4.132,2.428v41.11h-18.075v-57.999h18.075v6.404
			c2.961-2.514,5.75-4.476,8.367-5.888c2.615-1.411,5.561-2.118,8.833-2.118c3.545,0,6.662,0.845,9.346,2.531
			c2.687,1.688,4.735,4.201,6.147,7.541c3.476-3.237,6.757-5.725,9.838-7.463s6.207-2.609,9.373-2.609
			c2.687,0,5.096,0.432,7.23,1.291c2.135,0.862,3.943,2.153,5.424,3.874c1.618,1.859,2.832,4.072,3.641,6.637
			c0.81,2.565,1.215,5.913,1.215,10.045v37.754H196.877z"/>
		<path fill="#9F9F9F" d="M258.129,399.947c-10.95,0-19.343-2.616-25.178-7.851c-5.836-5.232-8.754-12.687-8.754-22.362
			c0-9.469,2.72-17.025,8.16-22.673c5.439-5.646,13.048-8.47,22.826-8.47c8.885,0,15.563,2.394,20.039,7.179
			c4.476,4.786,6.715,11.639,6.715,20.555v6.508h-39.614c0.173,2.686,0.742,4.933,1.705,6.74c0.965,1.808,2.238,3.245,3.823,4.313
			c1.548,1.066,3.355,1.832,5.422,2.297c2.065,0.465,4.321,0.697,6.766,0.697c2.099,0,4.165-0.232,6.198-0.697
			c2.031-0.465,3.891-1.075,5.577-1.833c1.479-0.653,2.848-1.36,4.106-2.118c1.258-0.757,2.28-1.428,3.073-2.014h1.911v14.926
			c-1.48,0.586-2.835,1.128-4.055,1.627c-1.224,0.499-2.901,1.007-5.036,1.523c-1.963,0.516-3.984,0.92-6.067,1.214
			C263.662,399.801,261.123,399.947,258.129,399.947z M264.12,361.936c-0.105-3.821-0.991-6.73-2.661-8.728
			s-4.226-2.996-7.668-2.996c-3.512,0-6.26,1.051-8.239,3.15c-1.979,2.101-3.073,4.959-3.278,8.573H264.12z"/>
		<path fill="#9F9F9F" d="M308.896,400c-4.271,0-8.309-0.466-12.112-1.395c-3.804-0.93-6.945-2.015-9.424-3.255v-15.287h1.497
			c0.861,0.654,1.84,1.377,2.943,2.169c1.102,0.793,2.635,1.619,4.597,2.479c1.686,0.792,3.591,1.472,5.706,2.04
			c2.119,0.568,4.416,0.852,6.896,0.852c2.547,0,4.793-0.395,6.739-1.188c1.944-0.792,2.917-2.048,2.917-3.771
			c0-1.343-0.446-2.358-1.342-3.047c-0.896-0.688-2.634-1.343-5.217-1.962c-1.376-0.344-3.115-0.715-5.217-1.111
			c-2.099-0.395-3.96-0.852-5.576-1.368c-4.546-1.411-7.963-3.503-10.252-6.275c-2.29-2.771-3.436-6.412-3.436-10.923
			c0-2.582,0.595-5.019,1.783-7.308c1.187-2.29,2.936-4.33,5.243-6.12c2.305-1.756,5.155-3.15,8.546-4.184s7.223-1.55,11.491-1.55
			c4.063,0,7.799,0.405,11.208,1.215c3.406,0.809,6.282,1.781,8.623,2.918v14.666h-1.445c-0.621-0.48-1.6-1.126-2.943-1.937
			c-1.343-0.808-2.651-1.506-3.925-2.091c-1.516-0.688-3.212-1.257-5.088-1.704c-1.878-0.447-3.796-0.672-5.758-0.672
			c-2.618,0-4.83,0.447-6.638,1.343c-1.807,0.896-2.71,2.084-2.71,3.563c0,1.31,0.445,2.343,1.342,3.1
			c0.894,0.757,2.84,1.497,5.835,2.22c1.551,0.38,3.331,0.749,5.347,1.11c2.014,0.362,3.951,0.853,5.809,1.473
			c4.165,1.344,7.327,3.314,9.479,5.913c2.151,2.6,3.229,6.052,3.229,10.354c0,2.721-0.64,5.313-1.913,7.773
			c-1.273,2.462-3.081,4.537-5.422,6.223c-2.479,1.826-5.398,3.237-8.754,4.235C317.6,399.499,313.58,400,308.896,400z"/>
		<path fill="#9F9F9F" d="M400,398.398h-18.18v-28.767c0-2.342-0.094-4.675-0.283-6.999c-0.189-2.323-0.543-4.036-1.06-5.139
			c-0.62-1.309-1.515-2.246-2.684-2.814c-1.173-0.567-2.739-0.852-4.701-0.852c-1.48,0-2.979,0.275-4.493,0.826
			c-1.516,0.551-3.134,1.429-4.855,2.634v41.11h-18.075v-80.362h18.075v28.768c2.961-2.514,5.845-4.476,8.652-5.888
			c2.807-1.411,5.913-2.118,9.321-2.118c5.922,0,10.45,1.869,13.584,5.604c3.133,3.736,4.698,9.15,4.698,16.242V398.398z"/>
	</g>
</g>
</svg>
