<?xml version="1.0" encoding="utf-8"?>
<!-- Generator: Adobe Illustrator 15.1.0, SVG Export Plug-In . SVG Version: 6.00 Build 0)  -->
<!DOCTYPE svg PUBLIC "-//W3C//DTD SVG 1.1//EN" "http://www.w3.org/Graphics/SVG/1.1/DTD/svg11.dtd">
<svg version="1.1" id="Layer_2" xmlns="http://www.w3.org/2000/svg" xmlns:xlink="http://www.w3.org/1999/xlink" x="0px" y="0px"
	 width="500px" height="129.331px" viewBox="0 0 1000 258.662" enable-background="new 0 0 1000 258.662" xml:space="preserve">
<g>
	<g>
		<g>
			<path fill="#B811BC" d="M258.658,128.945v0.386c0,14.365-2.343,28.182-6.671,41.095c-0.191,0.578-0.387,1.157-0.59,1.729
				c-0.317,0.912-0.647,1.821-0.995,2.725c-2.088,5.563-4.552,10.945-7.365,16.113c-0.505,0.932-1.02,1.854-1.551,2.77
				c-0.621,1.083-1.261,2.159-1.919,3.222c-11.322,18.424-27.143,33.788-45.925,44.573c-1.515,0.869-3.043,1.711-4.598,2.517
				c-3.278,1.713-6.639,3.283-10.077,4.713c-1.185,0.495-2.376,0.971-3.577,1.429c-0.061,0.025-0.117,0.049-0.178,0.064
				c-0.864,0.329-1.725,0.649-2.593,0.957c-13.537,4.808-28.112,7.425-43.292,7.425c-15.188,0-29.771-2.621-43.309-7.433
				c-0.874-0.309-1.734-0.627-2.595-0.954c-0.058-0.023-0.118-0.045-0.174-0.068c-1.217-0.46-2.419-0.938-3.609-1.439
				c-3.443-1.432-6.807-3.009-10.089-4.721v-0.003c-1.554-0.808-3.086-1.649-4.601-2.521
				c-18.757-10.785-34.557-26.139-45.868-44.544c-0.654-1.062-1.294-2.134-1.919-3.22c-0.527-0.916-1.046-1.843-1.551-2.774
				c-2.81-5.166-5.277-10.546-7.361-16.105c-0.345-0.903-0.679-1.813-0.991-2.725c-0.207-0.572-0.402-1.151-0.594-1.729
				C2.34,157.513,0,143.696,0,129.331v-0.313c0.004-1.755,0.039-3.502,0.114-5.243c0.159-3.744,0.473-7.447,0.944-11.104
				c1.086-8.423,2.978-16.595,5.609-24.438c0.191-0.579,0.387-1.153,0.597-1.727c0.31-0.915,0.644-1.823,0.988-2.725
				c7.766-20.658,20.674-38.801,37.166-52.868c0.701-0.594,1.408-1.186,2.119-1.771c0.047-0.039,0.104-0.076,0.143-0.115
				C69.112,11.563,96.247,0.824,125.85,0.046h0.018c1.05-0.024,2.099-0.039,3.158-0.039C129.128,0,129.229,0,129.328,0
				c0.099,0,0.198,0,0.295,0.007c1.056,0,2.105,0.015,3.157,0.039h0.018c29.603,0.778,56.727,11.511,78.155,28.972
				c0.049,0.037,0.099,0.076,0.146,0.115c0.715,0.583,1.422,1.177,2.126,1.774c16.489,14.067,29.408,32.213,37.178,52.875
				c0.348,0.901,0.678,1.81,0.995,2.725c0.203,0.573,0.398,1.152,0.59,1.727c2.625,7.821,4.52,15.979,5.602,24.385
				c0.473,3.651,0.792,7.354,0.944,11.097C258.608,125.448,258.651,127.191,258.658,128.945z"/>
		</g>
		<polygon fill="#747474" points="180.351,85.144 129.328,173.52 78.304,85.144 		"/>
		<polygon fill="#FFFFFF" points="129.328,173.52 180.351,85.144 231.37,173.52 		"/>
		<polygon fill="#9F9F9F" points="27.284,173.52 78.304,85.144 129.328,173.52 		"/>
		<g>
			<g>
				<path fill="#FFFFFF" d="M211.099,29.133l-30.755,53.271l-0.793,1.378l-0.779,1.346l-0.011,0.016l-0.789,1.363l-48.654,84.278
					l-0.783,1.353l-0.007,0.018l-0.786,1.355l-0.003,0.009l-0.783,1.36l-43.53,75.396c0.86,0.327,1.721,0.646,2.595,0.954
					l43.298-74.995l0.781-1.354l0.786-1.36l0.007-0.009l0.779-1.355l48.673-84.299l0.778-1.35l0.007-0.014l0.787-1.361l0.778-1.35
					l30.53-52.875C212.521,30.31,211.813,29.716,211.099,29.133z M179.551,83.782l-0.779,1.346l-0.011,0.016l-0.789,1.363
					l-48.654,84.278l-0.783,1.353l0.007,0.018l0.787,1.364l0.785-1.36l0.288,0.506l0.104,0.174l0.387,0.672l0.779-1.355
					l48.673-84.299l0.778-1.35l0.007-0.014l0.787-1.361l0.778-1.35H179.551z"/>
			</g>
			<g>
				<path fill="#FFFFFF" d="M125.867,0.046h-0.018L78.297,82.415l-0.789,1.367l-0.299,0.521l-0.484,0.838l-0.793,1.366L27.263,170.8
					l-0.775,1.355l-0.303,0.519l-0.49,0.854l-0.781,1.353l-9.299,16.105c0.505,0.932,1.023,1.858,1.551,2.774l10.105-17.506
					l0.789-1.374l0.782-1.352l0.008-0.009l0.781-1.364l48.666-84.29l0.786-1.358l0.004-0.009l0.781-1.354l0.786-1.361l48.371-83.775
					C127.966,0.007,126.917,0.021,125.867,0.046z"/>
			</g>
			<g>
				<path fill="#FFFFFF" d="M250.402,83.782H8.253c-0.345,0.901-0.679,1.81-0.988,2.725h244.133
					C251.08,85.592,250.75,84.684,250.402,83.782z M75.939,83.782l0.785,1.358l0.786,1.366h100.461l0.789-1.363l0.011-0.016
					l0.779-1.346H75.939z"/>
			</g>
			<g>
				<path fill="#FFFFFF" d="M7.262,172.155c0.313,0.912,0.646,1.821,0.991,2.725h242.149c0.348-0.903,0.678-1.813,0.995-2.725H7.262
					z M128.235,174.362l-0.099-0.17l-0.392-0.673l-0.004-0.009l0.786-1.355H24.902l0.792,1.372l0.37,0.636l0.408,0.717h102.062
					L128.235,174.362z M130.109,172.155l0.004,0.004l0.288,0.506l0.104,0.174l0.387,0.672l0.004,0.009h98.886l0.011-0.02
					l0.771-1.345H130.109z"/>
			</g>
			<g>
				<path fill="#FFFFFF" d="M233.734,174.88l-0.799-1.38l-0.775-1.345l-0.797-1.383l-48.651-84.266l-0.796-1.375l-0.779-1.35
					l-0.793-1.378L132.798,0.046h-0.018c-1.052-0.024-2.102-0.039-3.157-0.039l48.37,83.775l0.778,1.346l0.004,0.016l0.79,1.363
					l0.778,1.35l48.669,84.299l0.779,1.345l0.011,0.02l0.786,1.36l0.774,1.345l10.123,17.538c0.531-0.915,1.046-1.838,1.551-2.77
					L233.734,174.88z M230.589,174.88l0.774,1.345l0.775-1.345H230.589z"/>
			</g>
			<g>
				<path fill="#FFFFFF" d="M26.473,174.88l0.798,1.374l0.789-1.374H26.473z M29.62,174.88l-0.778-1.352l-0.011-0.009l-0.771-1.35
					l-0.011-0.015l-0.786-1.355L0.114,123.774c-0.075,1.741-0.11,3.488-0.114,5.243v0.006l24.902,43.132l0.792,1.372l0.37,0.636
					l0.408,0.717l0.798,1.374l37.682,65.27c1.515,0.871,3.047,1.713,4.601,2.521L29.62,174.88z M26.473,174.88l0.798,1.374
					l0.789-1.374H26.473z"/>
			</g>
			<g>
				<path fill="#FFFFFF" d="M230.563,172.155l-0.771,1.345l0.011,0.02l0.786,1.36h1.55l0.797-1.38l0.774-1.345H230.563z
					 M230.563,172.155l-0.771,1.345l0.011,0.02l0.786,1.36h1.55l0.797-1.38l0.774-1.345H230.563z M230.563,172.155l-0.771,1.345
					l0.011,0.02l0.786,1.36h1.55l0.797-1.38l0.774-1.345H230.563z M230.563,172.155l-0.771,1.345l0.011,0.02l0.786,1.36h1.55
					l0.797-1.38l0.774-1.345H230.563z M258.533,123.715l-27.17,47.058l-0.785,1.361l-0.015,0.021l-0.771,1.345l-0.011,0.02
					l-0.79,1.36l-39.946,69.194c1.555-0.806,3.083-1.647,4.598-2.517l37.721-65.333l0.775-1.345l0.797-1.38l0.774-1.345
					l24.948-43.205v-0.005C258.651,127.191,258.608,125.448,258.533,123.715z M230.563,172.155l-0.771,1.345l0.011,0.02l0.786,1.36
					h1.55l0.797-1.38l0.774-1.345H230.563z M230.563,172.155l-0.771,1.345l0.011,0.02l0.786,1.36h1.55l0.797-1.38l0.774-1.345
					H230.563z M230.563,172.155l-0.771,1.345l0.011,0.02l0.786,1.36h1.55l0.797-1.38l0.774-1.345H230.563z M230.563,172.155
					l-0.771,1.345l0.011,0.02l0.786,1.36h1.55l0.797-1.38l0.774-1.345H230.563z M230.563,172.155l-0.771,1.345l0.011,0.02
					l0.786,1.36h1.55l0.797-1.38l0.774-1.345H230.563z"/>
			</g>
			<g>
				<path fill="#FFFFFF" d="M130.505,172.839l-0.104-0.174l-0.288-0.506l-0.785,1.36h-1.583l0.392,0.673l0.099,0.17l0.299,0.518
					l0.783,1.354l0.781-1.354l0.786-1.36l0.007-0.009L130.505,172.839z M131.686,174.88l-0.79-1.36l-0.004-0.009l-0.387-0.672
					l-0.104-0.174l-0.288-0.506l-0.004-0.004l-0.792-1.37L80.654,86.507l-0.786-1.363l-0.209-0.366v-0.224l-0.281-0.268
					l-0.291-0.504l-0.79-1.367L47.538,29.144c-0.711,0.585-1.418,1.177-2.119,1.771l30.521,52.868l0.785,1.358l0.786,1.366v0.002
					l0.786,1.356l48.665,84.29l0.779,1.355l0.004,0.009l0.392,0.673l0.099,0.17l0.299,0.518l0.783,1.354l43.303,75.003
					c0.868-0.308,1.729-0.628,2.593-0.957L131.686,174.88z M130.505,172.839l-0.104-0.174l-0.288-0.506l-0.004-0.004h-1.568
					l-0.007-0.018L79.09,86.507h-1.579v0.002l0.786,1.356l48.665,84.29l0.779,1.355l0.004,0.009l0.392,0.673l0.099,0.17l0.299,0.518
					l0.783,1.354l0.781-1.354l0.786-1.36l0.007-0.009L130.505,172.839z"/>
			</g>
		</g>
	</g>
	<g>
		<path fill="#9F9F9F" d="M370.679,197.881c-12.466,0-21.541-2.562-27.22-7.689c-5.679-5.126-8.52-13.515-8.52-25.165V119.15h-11.71
			V97.829h11.71V69.78h30.584v28.049h29.446v21.321h-29.446v34.777c0,3.439,0.029,6.438,0.089,9
			c0.057,2.564,0.523,4.865,1.397,6.904c0.814,2.039,2.254,3.655,4.324,4.851c2.065,1.194,5.081,1.79,9.046,1.79
			c1.629,0,3.769-0.349,6.423-1.049c2.648-0.698,4.498-1.339,5.547-1.922h2.62v21.584c-3.317,0.873-6.845,1.558-10.571,2.052
			C380.668,197.632,376.095,197.881,370.679,197.881z"/>
		<path fill="#9F9F9F" d="M473.353,126.753h-2.532c-1.167-0.407-2.855-0.713-5.07-0.918c-2.212-0.202-4.662-0.306-7.34-0.306
			c-3.203,0-6.567,0.468-10.091,1.397c-3.527,0.934-6.949,2.041-10.271,3.321v65.711h-30.581v-98.13h30.581v14.069
			c1.401-1.28,3.336-2.896,5.814-4.851c2.475-1.95,4.729-3.508,6.771-4.675c2.212-1.338,4.789-2.49,7.733-3.45
			c2.94-0.962,5.722-1.442,8.346-1.442c0.989,0,2.095,0.03,3.317,0.087c1.224,0.06,2.329,0.146,3.322,0.262V126.753z"/>
		<path fill="#9F9F9F" d="M516.521,83.85h-32.334V59.993h32.334V83.85z M515.646,195.959h-30.585v-98.13h30.585V195.959z"/>
		<path fill="#9F9F9F" d="M656.331,195.959v-49.021c0-4.834-0.089-8.913-0.264-12.231c-0.174-3.321-0.7-6.031-1.572-8.128
			c-0.874-2.098-2.229-3.626-4.063-4.587s-4.412-1.441-7.733-1.441c-2.329,0-4.631,0.51-6.902,1.529
			c-2.272,1.019-4.751,2.46-7.429,4.325v69.555h-30.758v-49.021c0-4.775-0.104-8.838-0.306-12.189
			c-0.207-3.35-0.744-6.073-1.618-8.17c-0.871-2.098-2.227-3.626-4.061-4.587c-1.835-0.961-4.385-1.441-7.646-1.441
			c-2.507,0-4.953,0.583-7.343,1.747c-2.39,1.165-4.719,2.534-6.991,4.107v69.555h-30.581v-98.13h30.581v10.837
			c5.01-4.253,9.729-7.572,14.156-9.962c4.427-2.388,9.408-3.583,14.945-3.583c5.999,0,11.271,1.428,15.813,4.281
			c4.545,2.855,8.012,7.108,10.401,12.759c5.881-5.477,11.432-9.685,16.645-12.627c5.213-2.94,10.501-4.413,15.859-4.413
			c4.545,0,8.62,0.729,12.232,2.184c3.612,1.458,6.671,3.644,9.178,6.555c2.738,3.146,4.79,6.889,6.159,11.229
			s2.055,10.004,2.055,16.995v63.876H656.331z"/>
		<path fill="#9F9F9F" d="M759.964,198.58c-18.526,0-32.726-4.426-42.6-13.282c-9.872-8.854-14.811-21.465-14.811-37.836
			c0-16.02,4.602-28.806,13.808-38.36c9.203-9.553,22.075-14.33,38.62-14.33c15.031,0,26.331,4.05,33.905,12.146
			c7.571,8.097,11.361,19.69,11.361,34.776v11.011h-67.025c0.292,4.544,1.256,8.346,2.884,11.403
			c1.633,3.059,3.788,5.491,6.469,7.298c2.62,1.806,5.679,3.1,9.174,3.888c3.495,0.786,7.312,1.179,11.447,1.179
			c3.552,0,7.047-0.393,10.486-1.179c3.438-0.788,6.582-1.82,9.437-3.103c2.504-1.105,4.818-2.301,6.948-3.583
			c2.127-1.28,3.858-2.416,5.199-3.407h3.232v25.253c-2.504,0.991-4.794,1.908-6.859,2.753c-2.069,0.844-4.907,1.703-8.521,2.577
			c-3.321,0.873-6.741,1.558-10.266,2.054C769.326,198.333,765.031,198.58,759.964,198.58z M770.102,134.268
			c-0.179-6.466-1.679-11.388-4.502-14.767c-2.827-3.379-7.15-5.069-12.976-5.069c-5.941,0-10.589,1.778-13.938,5.33
			c-3.351,3.555-5.199,8.391-5.548,14.506H770.102z"/>
		<path fill="#9F9F9F" d="M845.859,198.669c-7.225,0-14.057-0.788-20.492-2.359c-6.436-1.573-11.753-3.408-15.945-5.507v-25.864
			h2.532c1.458,1.106,3.114,2.33,4.981,3.67c1.863,1.342,4.456,2.738,7.777,4.194c2.852,1.341,6.073,2.491,9.654,3.451
			c3.584,0.962,7.471,1.442,11.667,1.442c4.309,0,8.11-0.669,11.403-2.01c3.289-1.34,4.936-3.465,4.936-6.379
			c0-2.272-0.757-3.99-2.272-5.156c-1.515-1.164-4.455-2.271-8.826-3.319c-2.328-0.581-5.27-1.209-8.825-1.88
			c-3.552-0.667-6.699-1.441-9.434-2.314c-7.691-2.388-13.474-5.928-17.346-10.617c-3.876-4.689-5.813-10.85-5.813-18.481
			c0-4.369,1.006-8.49,3.016-12.364c2.009-3.874,4.967-7.325,8.871-10.354c3.901-2.971,8.723-5.33,14.459-7.078
			c5.739-1.748,12.221-2.621,19.443-2.621c6.874,0,13.196,0.685,18.963,2.054c5.765,1.369,10.629,3.014,14.591,4.938v24.814h-2.446
			c-1.05-0.813-2.707-1.905-4.979-3.276c-2.271-1.367-4.487-2.548-6.642-3.538c-2.564-1.165-5.434-2.127-8.606-2.884
			c-3.178-0.756-6.425-1.136-9.742-1.136c-4.431,0-8.172,0.757-11.23,2.271c-3.057,1.515-4.586,3.526-4.586,6.029
			c0,2.215,0.753,3.963,2.271,5.243c1.512,1.281,4.805,2.533,9.871,3.757c2.624,0.642,5.637,1.268,9.047,1.879
			c3.406,0.612,6.686,1.442,9.828,2.49c7.047,2.273,12.396,5.608,16.037,10.005c3.638,4.398,5.462,10.24,5.462,17.52
			c0,4.604-1.081,8.988-3.236,13.151c-2.154,4.166-5.213,7.677-9.174,10.529c-4.192,3.089-9.132,5.477-14.811,7.165
			S853.782,198.669,845.859,198.669z"/>
		<path fill="#9F9F9F" d="M1000,195.959h-30.759v-48.671c0-3.961-0.16-7.908-0.48-11.842c-0.319-3.931-0.917-6.828-1.792-8.693
			c-1.049-2.214-2.563-3.801-4.54-4.762c-1.984-0.961-4.634-1.441-7.955-1.441c-2.503,0-5.038,0.466-7.602,1.397
			c-2.564,0.933-5.303,2.418-8.215,4.457v69.555h-30.581V59.993h30.581v48.673c5.01-4.253,9.889-7.572,14.64-9.962
			c4.747-2.388,10.003-3.583,15.771-3.583c10.021,0,17.68,3.162,22.982,9.48c5.301,6.322,7.95,15.482,7.95,27.481V195.959z"/>
	</g>
</g>
</svg>
