ply
format ascii 1.0
comment Created by Blender 2.83.1 - www.blender.org, source file: ''
element vertex 24
property float x
property float y
property float z
property float nx
property float ny
property float nz
property float s
property float t
element face 12
property list uchar uint vertex_indices
end_header
-0.500000 -0.500000 0.500000 0.000000 0.000000 1.000000 6.000000 1.000000
0.500000 -0.500000 0.500000 0.000000 0.000000 1.000000 5.000000 1.000000
-0.500000 0.500000 0.500000 0.000000 0.000000 1.000000 6.000000 0.000000
0.500000 0.500000 0.500000 -0.000000 0.000000 1.000000 5.000000 0.000000
0.500000 0.500000 0.500000 1.000000 -0.000000 -0.000000 4.000000 1.000000
0.500000 -0.500000 0.500000 1.000000 -0.000000 -0.000000 5.000000 1.000000
0.500000 0.500000 -0.500000 1.000000 -0.000000 -0.000000 4.000000 0.000000
0.500000 -0.500000 -0.500000 1.000000 0.000000 0.000000 5.000000 0.000000
-0.500000 0.500000 0.500000 0.000000 1.000000 -0.000000 2.000000 1.000000
0.500000 0.500000 0.500000 0.000000 1.000000 -0.000000 1.000000 1.000000
-0.500000 0.500000 -0.500000 0.000000 1.000000 -0.000000 2.000000 0.000000
0.500000 0.500000 -0.500000 0.000000 1.000000 -0.000000 1.000000 0.000000
0.500000 -0.500000 0.500000 0.000000 -1.000000 0.000000 3.000000 1.000000
-0.500000 -0.500000 0.500000 0.000000 -1.000000 0.000000 4.000000 1.000000
0.500000 -0.500000 -0.500000 0.000000 -1.000000 0.000000 3.000000 0.000000
-0.500000 -0.500000 -0.500000 0.000000 -1.000000 0.000000 4.000000 0.000000
-0.500000 -0.500000 0.500000 -1.000000 0.000000 0.000000 3.000000 1.000000
-0.500000 0.500000 0.500000 -1.000000 0.000000 0.000000 2.000000 1.000000
-0.500000 -0.500000 -0.500000 -1.000000 0.000000 0.000000 3.000000 0.000000
-0.500000 0.500000 -0.500000 -1.000000 0.000000 -0.000000 2.000000 0.000000
-0.500000 -0.500000 -0.500000 0.000000 -0.000000 -1.000000 0.000000 1.000000
-0.500000 0.500000 -0.500000 0.000000 -0.000000 -1.000000 0.000000 0.000000
0.500000 -0.500000 -0.500000 0.000000 -0.000000 -1.000000 1.000000 1.000000
0.500000 0.500000 -0.500000 0.000000 -0.000000 -1.000000 1.000000 0.000000
3 0 1 2
3 3 2 1
3 4 5 6
3 7 6 5
3 8 9 10
3 11 10 9
3 12 13 14
3 15 14 13
3 16 17 18
3 19 18 17
3 20 21 22
3 23 22 21
