solid bodyB
  facet normal -1 -1.34230289E-014 1.65623108E-015
    outer loop
      vertex -0.440789347 -0.528135696 0.0626728809
      vertex -0.440789347 -0.718809786 -0.0414456238
      vertex -0.440789347 -0.713575677 0.0680076416
    endloop
  endfacet
  facet normal -1 -2.72317242E-014 2.69443431E-014
    outer loop
      vertex -0.440789347 -0.718809786 -0.0414456238
      vertex -0.440789347 -0.528135696 0.0626728809
      vertex -0.440789347 -0.529415204 -0.0519321219
    endloop
  endfacet
  facet normal -1 2.26640913E-007 8.91020051E-007
    outer loop
      vertex -0.510789397 -0.528032778 0.0626652343
      vertex -0.510789533 -0.718809786 -0.0414456238
      vertex -0.510789435 -0.713575676 0.068007641
    endloop
  endfacet
  facet normal -1 -1.56375913E-007 1.5928758E-006
    outer loop
      vertex -0.510789533 -0.718809786 -0.0414456238
      vertex -0.510789397 -0.528032778 0.0626652343
      vertex -0.51078958 -0.529730896 -0.0519249498
    endloop
  endfacet
  facet normal 9.28622855E-009 -0.0287562293 -0.999586454
    outer loop
      vertex -0.510789435 -0.713575676 0.068007641
      vertex -0.440789347 -0.528135696 0.0626728809
      vertex -0.440789347 -0.713575677 0.0680076416
    endloop
  endfacet
  facet normal 6.68754162E-005 -0.028781449 -0.999585726
    outer loop
      vertex -0.440789347 -0.528135696 0.0626728809
      vertex -0.510789435 -0.713575676 0.068007641
      vertex -0.510789397 -0.528032778 0.0626652343
    endloop
  endfacet
  facet normal 6.82196909E-013 0.0553381089 0.998467673
    outer loop
      vertex -0.440789347 -0.718809786 -0.0414456238
      vertex -0.51078958 -0.529730896 -0.0519249498
      vertex -0.510789533 -0.718809786 -0.0414456238
    endloop
  endfacet
  facet normal -0.00014702111 0.0552838452 0.998470668
    outer loop
      vertex -0.51078958 -0.529730896 -0.0519249498
      vertex -0.440789347 -0.718809786 -0.0414456238
      vertex -0.440789347 -0.529415204 -0.0519321219
    endloop
  endfacet
  facet normal 2.73756404E-012 0.998858557 -0.0477659113
    outer loop
      vertex -0.510789435 -0.713575676 0.068007641
      vertex -0.440789347 -0.718809786 -0.0414456238
      vertex -0.510789533 -0.718809786 -0.0414456238
    endloop
  endfacet
  facet normal 3.94218571E-009 0.998858558 -0.0477659088
    outer loop
      vertex -0.440789347 -0.718809786 -0.0414456238
      vertex -0.510789435 -0.713575676 0.068007641
      vertex -0.440789347 -0.713575677 0.0680076416
    endloop
  endfacet
  facet normal 0.00451085653 -0.999880043 0.0148172661
    outer loop
      vertex -0.440789347 -0.529415204 -0.0519321219
      vertex -0.510789397 -0.528032778 0.0626652343
      vertex -0.51078958 -0.529730896 -0.0519249498
    endloop
  endfacet
  facet normal -0.00147137708 -0.9999366 0.0111637921
    outer loop
      vertex -0.510789397 -0.528032778 0.0626652343
      vertex -0.440789347 -0.529415204 -0.0519321219
      vertex -0.440789347 -0.528135696 0.0626728809
    endloop
  endfacet
endsolid bodyB
solid bodyA
  facet normal 0.290553109 -3.06075535E-006 0.956858867
    outer loop
      vertex 0.0999005454 -0.369621646 0.16772795
      vertex 0.023286254 -8.48891568E-007 0.190993295
      vertex 0.0232856607 -0.369621589 0.190992293
    endloop
  endfacet
  facet normal 0.290553241 -3.03091855E-006 0.956858827
    outer loop
      vertex 0.023286254 -8.48891568E-007 0.190993295
      vertex 0.0999005454 -0.369621646 0.16772795
      vertex 0.0999012214 -9.06014682E-007 0.167728916
    endloop
  endfacet
  facet normal -0.279158286 1.12280344E-006 -0.9602451
    outer loop
      vertex 0.0485044684 -0.369621893 0.287966019
      vertex 0.125242366 1.11914757E-006 0.265657543
      vertex 0.125241892 -0.369621955 0.265657248
    endloop
  endfacet
  facet normal -0.279102736 -1.13846098E-005 -0.960261247
    outer loop
      vertex 0.125242366 1.11914757E-006 0.265657543
      vertex 0.0485044684 -0.369621893 0.287966019
      vertex 0.048387693 1.05677683E-006 0.287995578
    endloop
  endfacet
  facet normal -1.58162397E-006 -1 -2.7532619E-006
    outer loop
      vertex 0.125241892 -0.369621955 0.265657248
      vertex 0.0232856607 -0.369621589 0.190992293
      vertex 0.0999005454 -0.369621646 0.16772795
    endloop
  endfacet
  facet normal -1.60317747E-006 -1 -2.72383025E-006
    outer loop
      vertex 0.0232856607 -0.369621589 0.190992293
      vertex 0.125241892 -0.369621955 0.265657248
      vertex 0.0485044684 -0.369621893 0.287966019
    endloop
  endfacet
  facet normal 0.290553241 3.03090369E-006 0.956858827
    outer loop
      vertex 0.0999005454 0.369621646 0.16772795
      vertex 0.023286254 -8.48891568E-007 0.190993295
      vertex 0.0999012214 -9.06014682E-007 0.167728916
    endloop
  endfacet
  facet normal 0.290553109 3.06074129E-006 0.956858867
    outer loop
      vertex 0.023286254 -8.48891568E-007 0.190993295
      vertex 0.0999005454 0.369621646 0.16772795
      vertex 0.0232856607 0.369621589 0.190992293
    endloop
  endfacet
  facet normal -0.279102736 1.13846749E-005 -0.960261247
    outer loop
      vertex 0.0485044684 0.369621893 0.287966019
      vertex 0.125242366 1.11914757E-006 0.265657543
      vertex 0.048387693 1.05677683E-006 0.287995578
    endloop
  endfacet
  facet normal -0.279158286 -1.12281024E-006 -0.9602451
    outer loop
      vertex 0.125242366 1.11914757E-006 0.265657543
      vertex 0.0485044684 0.369621893 0.287966019
      vertex 0.125241892 0.369621955 0.265657248
    endloop
  endfacet
  facet normal -1.58162397E-006 1 -2.7532619E-006
    outer loop
      vertex 0.0232856607 0.369621589 0.190992293
      vertex 0.125241892 0.369621955 0.265657248
      vertex 0.0999005454 0.369621646 0.16772795
    endloop
  endfacet
  facet normal -1.60317747E-006 1 -2.72383025E-006
    outer loop
      vertex 0.125241892 0.369621955 0.265657248
      vertex 0.0232856607 0.369621589 0.190992293
      vertex 0.0485044684 0.369621893 0.287966019
    endloop
  endfacet
  facet normal -0.968111427 1.11605422E-006 0.25051999
    outer loop
      vertex 0.125241892 -0.369621955 0.265657248
      vertex 0.0999012214 -9.06014682E-007 0.167728916
      vertex 0.0999005454 -0.369621646 0.16772795
    endloop
  endfacet
  facet normal -0.968111495 1.04182999E-006 0.250519728
    outer loop
      vertex 0.0999012214 -9.06014682E-007 0.167728916
      vertex 0.125241892 -0.369621955 0.265657248
      vertex 0.125242366 1.11914757E-006 0.265657543
    endloop
  endfacet
  facet normal -0.968111495 -1.11604956E-006 0.250519728
    outer loop
      vertex 0.125242366 1.11914757E-006 0.265657543
      vertex 0.0999005454 0.369621646 0.16772795
      vertex 0.0999012214 -9.06014682E-007 0.167728916
    endloop
  endfacet
  facet normal -0.968111427 -1.04183601E-006 0.25051999
    outer loop
      vertex 0.0999005454 0.369621646 0.16772795
      vertex 0.125242366 1.11914757E-006 0.265657543
      vertex 0.125241892 0.369621955 0.265657248
    endloop
  endfacet
  facet normal 0.9678088 -8.71112912E-007 -0.251686566
    outer loop
      vertex 0.023286254 -8.48891568E-007 0.190993295
      vertex 0.0485044684 -0.369621893 0.287966019
      vertex 0.0232856607 -0.369621589 0.190992293
    endloop
  endfacet
  facet normal 0.968111426 0.000325890961 -0.25051978
    outer loop
      vertex 0.0485044684 -0.369621893 0.287966019
      vertex 0.023286254 -8.48891568E-007 0.190993295
      vertex 0.048387693 1.05677683E-006 0.287995578
    endloop
  endfacet
  facet normal 0.968111479 8.74758278E-007 -0.250519787
    outer loop
      vertex 0.0232856607 0.369621589 0.190992293
      vertex 0.048387693 1.05677683E-006 0.287995578
      vertex 0.023286254 -8.48891568E-007 0.190993295
    endloop
  endfacet
  facet normal 0.967808748 -0.000325890506 -0.251686551
    outer loop
      vertex 0.048387693 1.05677683E-006 0.287995578
      vertex 0.0232856607 0.369621589 0.190992293
      vertex 0.0485044684 0.369621893 0.287966019
    endloop
  endfacet
endsolid bodyA
