ply
format ascii 1.0
comment VCGLIB generated
element vertex 642
property float x
property float y
property float z
element face 1280
property list uchar int vertex_indices
end_header
-0.525731 0.850651 0 
0.525731 0.850651 0 
-0.525731 -0.850651 0 
0.525731 -0.850651 0 
0 -0.525731 0.850651 
0 0.525731 0.850651 
0 -0.525731 -0.850651 
0 0.525731 -0.850651 
0.850651 0 -0.525731 
0.850651 0 0.525731 
-0.850651 0 -0.525731 
-0.850651 0 0.525731 
0 0 1 
0 0 -1 
0 1 0 
0 -1 0 
-0.309017 -0.809017 -0.5 
-0.309017 -0.809017 0.5 
-0.309017 0.809017 -0.5 
-0.309017 0.809017 0.5 
-0.5 -0.309017 -0.809017 
-0.5 -0.309017 0.809017 
-0.5 0.309017 -0.809017 
-0.5 0.309017 0.809017 
-0.809017 -0.5 -0.309017 
-0.809017 -0.5 0.309017 
-0.809017 0.5 -0.309017 
-0.809017 0.5 0.309017 
1 0 0 
-1 0 0 
0.809017 -0.5 -0.309017 
0.809017 -0.5 0.309017 
0.809017 0.5 -0.309017 
0.809017 0.5 0.309017 
0.5 -0.309017 -0.809017 
0.5 -0.309017 0.809017 
0.5 0.309017 -0.809017 
0.5 0.309017 0.809017 
0.309017 -0.809017 -0.5 
0.309017 -0.809017 0.5 
0.309017 0.809017 -0.5 
0.309017 0.809017 0.5 
0 -0.273267 0.961938 
0 -0.273267 -0.961938 
0 0.850651 -0.525731 
0 0.850651 0.525731 
0 -0.850651 -0.525731 
0 -0.850651 0.525731 
0 0.273267 0.961938 
0 0.273267 -0.961938 
-0.69378 -0.702046 -0.160622 
-0.69378 -0.702046 0.160622 
-0.69378 0.702046 -0.160622 
-0.69378 0.702046 0.160622 
0.587785 0.688191 0.425325 
0.587785 0.688191 -0.425325 
0.587785 -0.688191 0.425325 
0.587785 -0.688191 -0.425325 
-0.702046 -0.160622 -0.69378 
-0.702046 -0.160622 0.69378 
-0.702046 0.160622 -0.69378 
-0.702046 0.160622 0.69378 
-0.160622 -0.69378 -0.702046 
-0.160622 -0.69378 0.702046 
-0.16246 -0.951057 0.262866 
-0.16246 -0.951057 -0.262866 
-0.16246 0.951057 0.262866 
-0.16246 0.951057 -0.262866 
-0.160622 0.69378 -0.702046 
-0.160622 0.69378 0.702046 
0.425325 0.587785 0.688191 
0.425325 0.587785 -0.688191 
0.425325 -0.587785 0.688191 
0.425325 -0.587785 -0.688191 
-0.862668 0.259892 -0.433889 
-0.862668 0.259892 0.433889 
-0.862668 -0.259892 -0.433889 
-0.862668 -0.259892 0.433889 
-0.273267 0.961938 0 
-0.273267 -0.961938 0 
0.961938 0 -0.273267 
0.961938 0 0.273267 
0.262866 -0.16246 -0.951057 
0.262866 -0.16246 0.951057 
0.259892 -0.433889 -0.862668 
0.259892 -0.433889 0.862668 
0.259892 0.433889 -0.862668 
0.259892 0.433889 0.862668 
0.262866 0.16246 -0.951057 
0.262866 0.16246 0.951057 
-0.433889 -0.862668 0.259892 
-0.433889 -0.862668 -0.259892 
-0.433889 0.862668 0.259892 
-0.433889 0.862668 -0.259892 
0.850651 -0.525731 0 
0.850651 0.525731 0 
-0.951057 0.262866 -0.16246 
-0.951057 0.262866 0.16246 
-0.951057 -0.262866 -0.16246 
-0.951057 -0.262866 0.16246 
0.688191 0.425325 0.587785 
0.688191 0.425325 -0.587785 
0.688191 -0.425325 0.587785 
0.688191 -0.425325 -0.587785 
-0.525731 0 0.850651 
-0.525731 0 -0.850651 
0.525731 0 0.850651 
0.525731 0 -0.850651 
-0.688191 0.425325 0.587785 
-0.688191 0.425325 -0.587785 
-0.688191 -0.425325 0.587785 
-0.688191 -0.425325 -0.587785 
0.951057 0.262866 -0.16246 
0.951057 0.262866 0.16246 
0.951057 -0.262866 -0.16246 
0.951057 -0.262866 0.16246 
-0.850651 -0.525731 0 
-0.850651 0.525731 0 
0.433889 -0.862668 0.259892 
0.433889 -0.862668 -0.259892 
0.433889 0.862668 0.259892 
0.433889 0.862668 -0.259892 
-0.262866 -0.16246 -0.951057 
-0.262866 -0.16246 0.951057 
-0.259892 -0.433889 -0.862668 
-0.259892 -0.433889 0.862668 
-0.259892 0.433889 -0.862668 
-0.259892 0.433889 0.862668 
-0.262866 0.16246 -0.951057 
-0.262866 0.16246 0.951057 
-0.961938 0 -0.273267 
-0.961938 0 0.273267 
0.273267 0.961938 0 
0.273267 -0.961938 0 
0.862668 0.259892 -0.433889 
0.862668 0.259892 0.433889 
0.862668 -0.259892 -0.433889 
0.862668 -0.259892 0.433889 
-0.425325 0.587785 0.688191 
-0.425325 0.587785 -0.688191 
-0.425325 -0.587785 0.688191 
-0.425325 -0.587785 -0.688191 
0.160622 -0.69378 -0.702046 
0.160622 -0.69378 0.702046 
0.16246 -0.951057 0.262866 
0.16246 -0.951057 -0.262866 
0.16246 0.951057 0.262866 
0.16246 0.951057 -0.262866 
0.160622 0.69378 -0.702046 
0.160622 0.69378 0.702046 
0.702046 -0.160622 -0.69378 
0.702046 -0.160622 0.69378 
0.702046 0.160622 -0.69378 
0.702046 0.160622 0.69378 
-0.587785 0.688191 0.425325 
-0.587785 0.688191 -0.425325 
-0.587785 -0.688191 0.425325 
-0.587785 -0.688191 -0.425325 
0.69378 -0.702046 -0.160622 
0.69378 -0.702046 0.160622 
0.69378 0.702046 -0.160622 
0.69378 0.702046 0.160622 
0 -0.702907 -0.711282 
0 -0.702907 0.711282 
0 0.702907 -0.711282 
0 0.702907 0.711282 
0 0.403355 0.915043 
0 0.403355 -0.915043 
0 0.137952 0.990439 
0 0.137952 -0.990439 
0 0.963861 -0.266405 
0 0.963861 0.266405 
0 -0.963861 -0.266405 
0 -0.963861 0.266405 
0 -0.137952 0.990439 
0 -0.137952 -0.990439 
0 -0.403355 0.915043 
0 -0.403355 -0.915043 
-0.702907 -0.711282 0 
-0.702907 0.711282 0 
0.702907 -0.711282 0 
0.702907 0.711282 0 
-0.912982 -0.399607 0.0823236 
-0.912982 -0.399607 -0.0823236 
-0.912982 0.399607 0.0823236 
-0.912982 0.399607 -0.0823236 
-0.707107 -0.601501 0.371748 
-0.707107 -0.601501 -0.371748 
-0.707107 0.601501 0.371748 
-0.707107 0.601501 -0.371748 
0.264083 0.301259 0.916244 
0.264083 0.301259 -0.916244 
0.264083 -0.301259 0.916244 
0.264083 -0.301259 -0.916244 
0.843911 0.383614 -0.375039 
0.843911 0.383614 0.375039 
0.843911 -0.383614 -0.375039 
0.843911 -0.383614 0.375039 
-0.132792 -0.220117 -0.966393 
-0.132792 -0.220117 0.966393 
-0.133071 0.0822425 -0.987688 
-0.133071 0.0822425 0.987688 
-0.133071 -0.0822425 -0.987688 
-0.133071 -0.0822425 0.987688 
-0.132792 0.220117 -0.966393 
-0.132792 0.220117 0.966393 
0.990439 0 0.137952 
0.990439 0 -0.137952 
0.646578 -0.564254 0.513375 
0.646578 -0.564254 -0.513375 
0.646578 0.564254 0.513375 
0.646578 0.564254 -0.513375 
0.519258 -0.156434 -0.840178 
0.519258 -0.156434 0.840178 
0.519258 0.156434 -0.840178 
0.519258 0.156434 0.840178 
-0.711282 0 -0.702907 
-0.711282 0 0.702907 
-0.156434 -0.840178 0.519258 
-0.156434 -0.840178 -0.519258 
-0.156434 0.840178 0.519258 
-0.156434 0.840178 -0.519258 
0.758652 -0.606825 0.237086 
0.758652 -0.606825 -0.237086 
0.758652 0.606825 0.237086 
0.758652 0.606825 -0.237086 
-0.840178 0.519258 -0.156434 
-0.840178 0.519258 0.156434 
-0.840178 -0.519258 -0.156434 
-0.840178 -0.519258 0.156434 
0.131655 0.358229 -0.924305 
0.131655 0.358229 0.924305 
0.1312 -0.484442 -0.864929 
0.1312 -0.484442 0.864929 
0.1312 0.484442 -0.864929 
0.1312 0.484442 0.864929 
0.131655 -0.358229 -0.924305 
0.131655 -0.358229 0.924305 
-0.571252 0.792649 -0.213023 
-0.571252 0.792649 0.213023 
-0.571252 -0.792649 -0.213023 
-0.571252 -0.792649 0.213023 
-0.266405 0 0.963861 
-0.266405 0 -0.963861 
-0.296005 -0.647412 -0.70231 
-0.296005 -0.647412 0.70231 
-0.296005 0.647412 -0.70231 
-0.296005 0.647412 0.70231 
-0.615642 0.783843 0.0810863 
-0.615642 0.783843 -0.0810863 
-0.615642 -0.783843 0.0810863 
-0.615642 -0.783843 -0.0810863 
0.916244 0.264083 0.301259 
0.916244 0.264083 -0.301259 
0.916244 -0.264083 0.301259 
0.916244 -0.264083 -0.301259 
0.513375 0.646578 -0.564254 
0.513375 0.646578 0.564254 
0.513375 -0.646578 -0.564254 
0.513375 -0.646578 0.564254 
0.386187 0.238677 0.891007 
0.386187 0.238677 -0.891007 
0.386187 -0.238677 0.891007 
0.386187 -0.238677 -0.891007 
0.783843 0.0810863 -0.615642 
0.783843 0.0810863 0.615642 
0.783843 -0.0810863 -0.615642 
0.783843 -0.0810863 0.615642 
-0.966393 -0.132792 -0.220117 
-0.966393 -0.132792 0.220117 
-0.966393 0.132792 -0.220117 
-0.966393 0.132792 0.220117 
-0.220117 -0.966393 -0.132792 
-0.220117 -0.966393 0.132792 
-0.220117 0.966393 -0.132792 
-0.220117 0.966393 0.132792 
-0.647412 -0.70231 -0.296005 
-0.647412 -0.70231 0.296005 
-0.647412 0.70231 -0.296005 
-0.647412 0.70231 0.296005 
-0.399607 0.0823236 -0.912982 
-0.399607 0.0823236 0.912982 
-0.399607 -0.0823236 -0.912982 
-0.399607 -0.0823236 0.912982 
0.403355 0.915043 0 
0.403355 -0.915043 0 
0.358229 -0.924305 0.131655 
0.358229 -0.924305 -0.131655 
0.358229 0.924305 0.131655 
0.358229 0.924305 -0.131655 
0.783452 -0.346153 -0.516122 
0.783452 -0.346153 0.516122 
0.783452 0.346153 -0.516122 
0.783452 0.346153 0.516122 
0.371748 -0.707107 -0.601501 
0.371748 -0.707107 0.601501 
0.371748 0.707107 -0.601501 
0.371748 0.707107 0.601501 
-0.375039 0.843911 0.383614 
-0.375039 0.843911 -0.383614 
-0.375039 -0.843911 0.383614 
-0.375039 -0.843911 -0.383614 
-0.70231 -0.296005 -0.647412 
-0.70231 -0.296005 0.647412 
-0.70231 0.296005 -0.647412 
-0.70231 0.296005 0.647412 
-0.780204 0.62024 0.0811419 
-0.780204 0.62024 -0.0811419 
-0.780204 -0.62024 0.0811419 
-0.780204 -0.62024 -0.0811419 
-0.987688 -0.133071 0.0822425 
-0.987688 -0.133071 -0.0822425 
-0.987688 0.133071 0.0822425 
-0.987688 0.133071 -0.0822425 
-0.484442 -0.864929 0.1312 
-0.484442 -0.864929 -0.1312 
-0.484442 0.864929 0.1312 
-0.484442 0.864929 -0.1312 
0.301259 0.916244 0.264083 
0.301259 0.916244 -0.264083 
0.301259 -0.916244 0.264083 
0.301259 -0.916244 -0.264083 
0.62024 0.0811419 -0.780204 
0.62024 0.0811419 0.780204 
0.62024 -0.0811419 -0.780204 
0.62024 -0.0811419 0.780204 
-0.606825 0.237086 0.758652 
-0.606825 0.237086 -0.758652 
-0.606825 -0.237086 0.758652 
-0.606825 -0.237086 -0.758652 
-0.45399 0.757935 -0.46843 
-0.45399 0.757935 0.46843 
-0.45399 -0.757935 -0.46843 
-0.45399 -0.757935 0.46843 
0.238677 0.891007 0.386187 
0.238677 0.891007 -0.386187 
0.238677 -0.891007 0.386187 
0.238677 -0.891007 -0.386187 
0.915043 0 0.403355 
0.915043 0 -0.403355 
-0.864929 0.1312 -0.484442 
-0.864929 0.1312 0.484442 
-0.864929 -0.1312 -0.484442 
-0.864929 -0.1312 0.484442 
-0.516122 0.783452 -0.346153 
-0.516122 0.783452 0.346153 
-0.516122 -0.783452 -0.346153 
-0.516122 -0.783452 0.346153 
-0.564254 0.513375 0.646578 
-0.564254 0.513375 -0.646578 
-0.564254 -0.513375 0.646578 
-0.564254 -0.513375 -0.646578 
0.891007 0.386187 0.238677 
0.891007 0.386187 -0.238677 
0.891007 -0.386187 0.238677 
0.891007 -0.386187 -0.238677 
0.137952 0.990439 0 
0.137952 -0.990439 0 
-0.213023 -0.571252 0.792649 
-0.213023 -0.571252 -0.792649 
-0.213023 0.571252 0.792649 
-0.213023 0.571252 -0.792649 
0.237086 0.758652 -0.606825 
0.237086 0.758652 0.606825 
0.237086 -0.758652 -0.606825 
0.237086 -0.758652 0.606825 
-0.46843 -0.45399 0.757935 
-0.46843 -0.45399 -0.757935 
-0.46843 0.45399 0.757935 
-0.46843 0.45399 -0.757935 
0.792649 -0.213023 -0.571252 
0.792649 -0.213023 0.571252 
0.792649 0.213023 -0.571252 
0.792649 0.213023 0.571252 
0.383614 -0.375039 0.843911 
0.383614 -0.375039 -0.843911 
0.383614 0.375039 0.843911 
0.383614 0.375039 -0.843911 
0.757935 -0.46843 -0.45399 
0.757935 -0.46843 0.45399 
0.757935 0.46843 -0.45399 
0.757935 0.46843 0.45399 
0.0823236 -0.912982 -0.399607 
0.0823236 -0.912982 0.399607 
0.0822425 -0.987688 -0.133071 
0.0822425 -0.987688 0.133071 
0.0822425 0.987688 -0.133071 
0.0822425 0.987688 0.133071 
0.0823236 0.912982 -0.399607 
0.0823236 0.912982 0.399607 
0.963861 -0.266405 0 
0.963861 0.266405 0 
-0.601501 0.371748 -0.707107 
-0.601501 0.371748 0.707107 
-0.601501 -0.371748 -0.707107 
-0.601501 -0.371748 0.707107 
-0.924305 0.131655 0.358229 
-0.924305 0.131655 -0.358229 
-0.924305 -0.131655 0.358229 
-0.924305 -0.131655 -0.358229 
-0.346153 -0.516122 0.783452 
-0.346153 -0.516122 -0.783452 
-0.346153 0.516122 0.783452 
-0.346153 0.516122 -0.783452 
0.0810863 -0.615642 0.783843 
0.0810863 -0.615642 -0.783843 
0.0811419 -0.780204 0.62024 
0.0811419 -0.780204 -0.62024 
0.0811419 0.780204 0.62024 
0.0811419 0.780204 -0.62024 
0.0810863 0.615642 0.783843 
0.0810863 0.615642 -0.783843 
-0.0810863 -0.615642 0.783843 
-0.0810863 -0.615642 -0.783843 
-0.0811419 -0.780204 0.62024 
-0.0811419 -0.780204 -0.62024 
-0.0811419 0.780204 0.62024 
-0.0811419 0.780204 -0.62024 
-0.0810863 0.615642 0.783843 
-0.0810863 0.615642 -0.783843 
0.346153 -0.516122 0.783452 
0.346153 -0.516122 -0.783452 
0.346153 0.516122 0.783452 
0.346153 0.516122 -0.783452 
0.924305 0.131655 0.358229 
0.924305 0.131655 -0.358229 
0.924305 -0.131655 0.358229 
0.924305 -0.131655 -0.358229 
0.601501 0.371748 -0.707107 
0.601501 0.371748 0.707107 
0.601501 -0.371748 -0.707107 
0.601501 -0.371748 0.707107 
-0.963861 -0.266405 0 
-0.963861 0.266405 0 
-0.0823236 -0.912982 -0.399607 
-0.0823236 -0.912982 0.399607 
-0.0822425 -0.987688 -0.133071 
-0.0822425 -0.987688 0.133071 
-0.0822425 0.987688 -0.133071 
-0.0822425 0.987688 0.133071 
-0.0823236 0.912982 -0.399607 
-0.0823236 0.912982 0.399607 
-0.757935 -0.46843 -0.45399 
-0.757935 -0.46843 0.45399 
-0.757935 0.46843 -0.45399 
-0.757935 0.46843 0.45399 
-0.383614 -0.375039 0.843911 
-0.383614 -0.375039 -0.843911 
-0.383614 0.375039 0.843911 
-0.383614 0.375039 -0.843911 
-0.792649 -0.213023 -0.571252 
-0.792649 -0.213023 0.571252 
-0.792649 0.213023 -0.571252 
-0.792649 0.213023 0.571252 
0.46843 -0.45399 0.757935 
0.46843 -0.45399 -0.757935 
0.46843 0.45399 0.757935 
0.46843 0.45399 -0.757935 
-0.237086 0.758652 -0.606825 
-0.237086 0.758652 0.606825 
-0.237086 -0.758652 -0.606825 
-0.237086 -0.758652 0.606825 
0.213023 -0.571252 0.792649 
0.213023 -0.571252 -0.792649 
0.213023 0.571252 0.792649 
0.213023 0.571252 -0.792649 
-0.137952 0.990439 0 
-0.137952 -0.990439 0 
-0.891007 0.386187 0.238677 
-0.891007 0.386187 -0.238677 
-0.891007 -0.386187 0.238677 
-0.891007 -0.386187 -0.238677 
0.564254 0.513375 0.646578 
0.564254 0.513375 -0.646578 
0.564254 -0.513375 0.646578 
0.564254 -0.513375 -0.646578 
0.516122 0.783452 -0.346153 
0.516122 0.783452 0.346153 
0.516122 -0.783452 -0.346153 
0.516122 -0.783452 0.346153 
0.864929 0.1312 -0.484442 
0.864929 0.1312 0.484442 
0.864929 -0.1312 -0.484442 
0.864929 -0.1312 0.484442 
-0.915043 0 0.403355 
-0.915043 0 -0.403355 
-0.238677 0.891007 0.386187 
-0.238677 0.891007 -0.386187 
-0.238677 -0.891007 0.386187 
-0.238677 -0.891007 -0.386187 
0.45399 0.757935 -0.46843 
0.45399 0.757935 0.46843 
0.45399 -0.757935 -0.46843 
0.45399 -0.757935 0.46843 
0.606825 0.237086 0.758652 
0.606825 0.237086 -0.758652 
0.606825 -0.237086 0.758652 
0.606825 -0.237086 -0.758652 
-0.62024 0.0811419 -0.780204 
-0.62024 0.0811419 0.780204 
-0.62024 -0.0811419 -0.780204 
-0.62024 -0.0811419 0.780204 
-0.301259 0.916244 0.264083 
-0.301259 0.916244 -0.264083 
-0.301259 -0.916244 0.264083 
-0.301259 -0.916244 -0.264083 
0.484442 -0.864929 0.1312 
0.484442 -0.864929 -0.1312 
0.484442 0.864929 0.1312 
0.484442 0.864929 -0.1312 
0.987688 -0.133071 0.0822425 
0.987688 -0.133071 -0.0822425 
0.987688 0.133071 0.0822425 
0.987688 0.133071 -0.0822425 
0.780204 0.62024 0.0811419 
0.780204 0.62024 -0.0811419 
0.780204 -0.62024 0.0811419 
0.780204 -0.62024 -0.0811419 
0.70231 -0.296005 -0.647412 
0.70231 -0.296005 0.647412 
0.70231 0.296005 -0.647412 
0.70231 0.296005 0.647412 
0.375039 0.843911 0.383614 
0.375039 0.843911 -0.383614 
0.375039 -0.843911 0.383614 
0.375039 -0.843911 -0.383614 
-0.371748 -0.707107 -0.601501 
-0.371748 -0.707107 0.601501 
-0.371748 0.707107 -0.601501 
-0.371748 0.707107 0.601501 
-0.783452 -0.346153 -0.516122 
-0.783452 -0.346153 0.516122 
-0.783452 0.346153 -0.516122 
-0.783452 0.346153 0.516122 
-0.358229 -0.924305 0.131655 
-0.358229 -0.924305 -0.131655 
-0.358229 0.924305 0.131655 
-0.358229 0.924305 -0.131655 
-0.403355 0.915043 0 
-0.403355 -0.915043 0 
0.399607 0.0823236 -0.912982 
0.399607 0.0823236 0.912982 
0.399607 -0.0823236 -0.912982 
0.399607 -0.0823236 0.912982 
0.647412 -0.70231 -0.296005 
0.647412 -0.70231 0.296005 
0.647412 0.70231 -0.296005 
0.647412 0.70231 0.296005 
0.220117 -0.966393 -0.132792 
0.220117 -0.966393 0.132792 
0.220117 0.966393 -0.132792 
0.220117 0.966393 0.132792 
0.966393 -0.132792 -0.220117 
0.966393 -0.132792 0.220117 
0.966393 0.132792 -0.220117 
0.966393 0.132792 0.220117 
-0.783843 0.0810863 -0.615642 
-0.783843 0.0810863 0.615642 
-0.783843 -0.0810863 -0.615642 
-0.783843 -0.0810863 0.615642 
-0.386187 0.238677 0.891007 
-0.386187 0.238677 -0.891007 
-0.386187 -0.238677 0.891007 
-0.386187 -0.238677 -0.891007 
-0.513375 0.646578 -0.564254 
-0.513375 0.646578 0.564254 
-0.513375 -0.646578 -0.564254 
-0.513375 -0.646578 0.564254 
-0.916244 0.264083 0.301259 
-0.916244 0.264083 -0.301259 
-0.916244 -0.264083 0.301259 
-0.916244 -0.264083 -0.301259 
0.615642 0.783843 0.0810863 
0.615642 0.783843 -0.0810863 
0.615642 -0.783843 0.0810863 
0.615642 -0.783843 -0.0810863 
0.296005 -0.647412 -0.70231 
0.296005 -0.647412 0.70231 
0.296005 0.647412 -0.70231 
0.296005 0.647412 0.70231 
0.266405 0 0.963861 
0.266405 0 -0.963861 
0.571252 0.792649 -0.213023 
0.571252 0.792649 0.213023 
0.571252 -0.792649 -0.213023 
0.571252 -0.792649 0.213023 
-0.131655 0.358229 -0.924305 
-0.131655 0.358229 0.924305 
-0.1312 -0.484442 -0.864929 
-0.1312 -0.484442 0.864929 
-0.1312 0.484442 -0.864929 
-0.1312 0.484442 0.864929 
-0.131655 -0.358229 -0.924305 
-0.131655 -0.358229 0.924305 
0.840178 0.519258 -0.156434 
0.840178 0.519258 0.156434 
0.840178 -0.519258 -0.156434 
0.840178 -0.519258 0.156434 
-0.758652 -0.606825 0.237086 
-0.758652 -0.606825 -0.237086 
-0.758652 0.606825 0.237086 
-0.758652 0.606825 -0.237086 
0.156434 -0.840178 0.519258 
0.156434 -0.840178 -0.519258 
0.156434 0.840178 0.519258 
0.156434 0.840178 -0.519258 
0.711282 0 -0.702907 
0.711282 0 0.702907 
-0.519258 -0.156434 -0.840178 
-0.519258 -0.156434 0.840178 
-0.519258 0.156434 -0.840178 
-0.519258 0.156434 0.840178 
-0.646578 -0.564254 0.513375 
-0.646578 -0.564254 -0.513375 
-0.646578 0.564254 0.513375 
-0.646578 0.564254 -0.513375 
-0.990439 0 0.137952 
-0.990439 0 -0.137952 
0.132792 -0.220117 -0.966393 
0.132792 -0.220117 0.966393 
0.133071 0.0822425 -0.987688 
0.133071 0.0822425 0.987688 
0.133071 -0.0822425 -0.987688 
0.133071 -0.0822425 0.987688 
0.132792 0.220117 -0.966393 
0.132792 0.220117 0.966393 
-0.843911 0.383614 -0.375039 
-0.843911 0.383614 0.375039 
-0.843911 -0.383614 -0.375039 
-0.843911 -0.383614 0.375039 
-0.264083 0.301259 0.916244 
-0.264083 0.301259 -0.916244 
-0.264083 -0.301259 0.916244 
-0.264083 -0.301259 -0.916244 
0.707107 -0.601501 0.371748 
0.707107 -0.601501 -0.371748 
0.707107 0.601501 0.371748 
0.707107 0.601501 -0.371748 
0.912982 -0.399607 0.0823236 
0.912982 -0.399607 -0.0823236 
0.912982 0.399607 0.0823236 
0.912982 0.399607 -0.0823236 
3 0 248 316 
3 248 53 239 
3 316 239 92 
3 248 239 316 
3 53 600 279 
3 600 27 188 
3 279 188 154 
3 600 188 279 
3 92 345 298 
3 345 154 331 
3 298 331 19 
3 345 331 298 
3 53 279 239 
3 279 154 345 
3 239 345 92 
3 279 345 239 
3 27 627 445 
3 627 75 533 
3 445 533 108 
3 627 533 445 
3 75 341 453 
3 341 11 557 
3 453 557 61 
3 341 557 453 
3 108 305 393 
3 305 61 326 
3 393 326 23 
3 305 326 393 
3 75 453 533 
3 453 61 305 
3 533 305 108 
3 453 305 533 
3 19 529 459 
3 529 138 247 
3 459 247 69 
3 529 247 459 
3 138 368 402 
3 368 23 448 
3 402 448 127 
3 368 448 402 
3 69 360 418 
3 360 127 591 
3 418 591 5 
3 360 591 418 
3 138 402 247 
3 402 127 360 
3 247 360 69 
3 402 360 247 
3 27 445 188 
3 445 108 614 
3 188 614 154 
3 445 614 188 
3 108 393 348 
3 393 23 368 
3 348 368 138 
3 393 368 348 
3 154 565 331 
3 565 138 529 
3 331 529 19 
3 565 529 331 
3 108 348 614 
3 348 138 565 
3 614 565 154 
3 348 565 614 
3 0 316 538 
3 316 92 536 
3 538 536 78 
3 316 536 538 
3 92 298 502 
3 298 19 486 
3 502 486 66 
3 298 486 502 
3 78 275 466 
3 275 66 439 
3 466 439 14 
3 275 439 466 
3 92 502 536 
3 502 66 275 
3 536 275 78 
3 502 275 536 
3 19 459 220 
3 459 69 416 
3 220 416 45 
3 459 416 220 
3 69 418 165 
3 418 5 410 
3 165 410 149 
3 418 410 165 
3 45 408 604 
3 408 149 363 
3 604 363 41 
3 408 363 604 
3 69 165 416 
3 165 149 408 
3 416 408 45 
3 165 408 416 
3 14 387 356 
3 387 146 551 
3 356 551 132 
3 387 551 356 
3 146 334 318 
3 334 41 522 
3 318 522 120 
3 334 522 318 
3 132 288 284 
3 288 120 508 
3 284 508 1 
3 288 508 284 
3 146 318 551 
3 318 120 288 
3 551 288 132 
3 318 288 551 
3 19 220 486 
3 220 45 441 
3 486 441 66 
3 220 441 486 
3 45 604 389 
3 604 41 334 
3 389 334 146 
3 604 334 389 
3 66 171 439 
3 171 146 387 
3 439 387 14 
3 171 387 439 
3 45 389 441 
3 389 146 171 
3 441 171 66 
3 389 171 441 
3 0 538 317 
3 538 78 537 
3 317 537 93 
3 538 537 317 
3 78 466 274 
3 466 14 438 
3 274 438 67 
3 466 438 274 
3 93 503 299 
3 503 67 487 
3 299 487 18 
3 503 487 299 
3 78 274 537 
3 274 67 503 
3 537 503 93 
3 274 503 537 
3 14 356 386 
3 356 132 550 
3 386 550 147 
3 356 550 386 
3 132 284 289 
3 284 1 509 
3 289 509 121 
3 284 509 289 
3 147 319 335 
3 319 121 523 
3 335 523 40 
3 319 523 335 
3 132 289 550 
3 289 121 319 
3 550 319 147 
3 289 319 550 
3 18 221 458 
3 221 44 417 
3 458 417 68 
3 221 417 458 
3 44 605 409 
3 605 40 362 
3 409 362 148 
3 605 362 409 
3 68 164 419 
3 164 148 411 
3 419 411 7 
3 164 411 419 
3 44 409 417 
3 409 148 164 
3 417 164 68 
3 409 164 417 
3 14 386 438 
3 386 147 170 
3 438 170 67 
3 386 170 438 
3 147 335 388 
3 335 40 605 
3 388 605 44 
3 335 605 388 
3 67 440 487 
3 440 44 221 
3 487 221 18 
3 440 221 487 
3 147 388 170 
3 388 44 440 
3 170 440 67 
3 388 440 170 
3 0 317 249 
3 317 93 238 
3 249 238 52 
3 317 238 249 
3 93 299 344 
3 299 18 330 
3 344 330 155 
3 299 330 344 
3 52 278 601 
3 278 155 189 
3 601 189 26 
3 278 189 601 
3 93 344 238 
3 344 155 278 
3 238 278 52 
3 344 278 238 
3 18 458 528 
3 458 68 246 
3 528 246 139 
3 458 246 528 
3 68 419 361 
3 419 7 590 
3 361 590 126 
3 419 590 361 
3 139 403 369 
3 403 126 449 
3 369 449 22 
3 403 449 369 
3 68 361 246 
3 361 126 403 
3 246 403 139 
3 361 403 246 
3 26 444 626 
3 444 109 532 
3 626 532 74 
3 444 532 626 
3 109 392 304 
3 392 22 327 
3 304 327 60 
3 392 327 304 
3 74 452 340 
3 452 60 556 
3 340 556 10 
3 452 556 340 
3 109 304 532 
3 304 60 452 
3 532 452 74 
3 304 452 532 
3 18 528 330 
3 528 139 564 
3 330 564 155 
3 528 564 330 
3 139 369 349 
3 369 22 392 
3 349 392 109 
3 369 392 349 
3 155 615 189 
3 615 109 444 
3 189 444 26 
3 615 444 189 
3 139 349 564 
3 349 109 615 
3 564 615 155 
3 349 615 564 
3 0 249 248 
3 249 52 179 
3 248 179 53 
3 249 179 248 
3 52 601 307 
3 601 26 226 
3 307 226 117 
3 601 226 307 
3 53 306 600 
3 306 117 227 
3 600 227 27 
3 306 227 600 
3 52 307 179 
3 307 117 306 
3 179 306 53 
3 307 306 179 
3 26 626 469 
3 626 74 569 
3 469 569 96 
3 626 569 469 
3 74 340 397 
3 340 10 485 
3 397 485 130 
3 340 485 397 
3 96 270 313 
3 270 130 617 
3 313 617 29 
3 270 617 313 
3 74 397 569 
3 397 130 270 
3 569 270 96 
3 397 270 569 
3 27 468 627 
3 468 97 568 
3 627 568 75 
3 468 568 627 
3 97 312 271 
3 312 29 616 
3 271 616 131 
3 312 616 271 
3 75 396 341 
3 396 131 484 
3 341 484 11 
3 396 484 341 
3 97 271 568 
3 271 131 396 
3 568 396 75 
3 271 396 568 
3 26 469 226 
3 469 96 185 
3 226 185 117 
3 469 185 226 
3 96 313 433 
3 313 29 312 
3 433 312 97 
3 313 312 433 
3 117 184 227 
3 184 97 468 
3 227 468 27 
3 184 468 227 
3 96 433 185 
3 433 97 184 
3 185 184 117 
3 433 184 185 
3 1 508 572 
3 508 120 583 
3 572 583 161 
3 508 583 572 
3 120 522 477 
3 522 41 491 
3 477 491 54 
3 522 491 477 
3 161 547 224 
3 547 54 636 
3 224 636 33 
3 547 636 224 
3 120 477 583 
3 477 54 547 
3 583 547 161 
3 477 547 583 
3 41 363 297 
3 363 149 579 
3 297 579 70 
3 363 579 297 
3 149 410 464 
3 410 5 235 
3 464 235 87 
3 410 235 464 
3 70 422 456 
3 422 87 376 
3 456 376 37 
3 422 376 456 
3 149 464 579 
3 464 87 422 
3 579 422 70 
3 464 422 579 
3 33 381 195 
3 381 100 293 
3 195 293 135 
3 381 293 195 
3 100 429 521 
3 429 37 494 
3 521 494 153 
3 429 494 521 
3 135 373 481 
3 373 153 265 
3 481 265 9 
3 373 265 481 
3 100 521 293 
3 521 153 373 
3 293 373 135 
3 521 373 293 
3 41 297 491 
3 297 70 257 
3 491 257 54 
3 297 257 491 
3 70 456 472 
3 456 37 429 
3 472 429 100 
3 456 429 472 
3 54 210 636 
3 210 100 381 
3 636 381 33 
3 210 381 636 
3 70 472 257 
3 472 100 210 
3 257 210 54 
3 472 210 257 
3 5 591 166 
3 591 127 587 
3 166 587 48 
3 591 587 166 
3 127 448 630 
3 448 23 560 
3 630 560 129 
3 448 560 630 
3 48 205 168 
3 205 129 201 
3 168 201 12 
3 205 201 168 
3 127 630 587 
3 630 129 205 
3 587 205 48 
3 630 205 587 
3 23 326 611 
3 326 61 499 
3 611 499 104 
3 326 499 611 
3 61 557 217 
3 557 11 559 
3 217 559 59 
3 557 559 217 
3 104 501 609 
3 501 59 328 
3 609 328 21 
3 501 328 609 
3 61 217 499 
3 217 59 501 
3 499 501 104 
3 217 501 499 
3 12 203 174 
3 203 123 199 
3 174 199 42 
3 203 199 174 
3 123 562 632 
3 562 21 446 
3 632 446 125 
3 562 446 632 
3 42 593 176 
3 593 125 589 
3 176 589 4 
3 593 589 176 
3 123 632 199 
3 632 125 593 
3 199 593 42 
3 632 593 199 
3 23 611 560 
3 611 104 281 
3 560 281 129 
3 611 281 560 
3 104 609 283 
3 609 21 562 
3 283 562 123 
3 609 562 283 
3 129 242 201 
3 242 123 203 
3 201 203 12 
3 242 203 201 
3 104 283 281 
3 283 123 242 
3 281 242 129 
3 283 242 281 
3 11 484 343 
3 484 131 398 
3 343 398 77 
3 484 398 343 
3 131 616 269 
3 616 29 310 
3 269 310 99 
3 616 310 269 
3 77 570 629 
3 570 99 470 
3 629 470 25 
3 570 470 629 
3 131 269 398 
3 269 99 570 
3 398 570 77 
3 269 570 398 
3 29 617 311 
3 617 130 268 
3 311 268 98 
3 617 268 311 
3 130 485 399 
3 485 10 342 
3 399 342 76 
3 485 342 399 
3 98 571 471 
3 571 76 628 
3 471 628 24 
3 571 628 471 
3 130 399 268 
3 399 76 571 
3 268 571 98 
3 399 571 268 
3 25 229 598 
3 229 116 308 
3 598 308 51 
3 229 308 598 
3 116 228 309 
3 228 24 599 
3 309 599 50 
3 228 599 309 
3 51 178 250 
3 178 50 251 
3 250 251 2 
3 178 251 250 
3 116 309 308 
3 309 50 178 
3 308 178 51 
3 309 178 308 
3 29 311 310 
3 311 98 432 
3 310 432 99 
3 311 432 310 
3 98 471 183 
3 471 24 228 
3 183 228 116 
3 471 228 183 
3 99 182 470 
3 182 116 229 
3 470 229 25 
3 182 229 470 
3 98 183 432 
3 183 116 182 
3 432 182 99 
3 183 182 432 
3 10 556 558 
3 556 60 216 
3 558 216 58 
3 556 216 558 
3 60 327 498 
3 327 22 610 
3 498 610 105 
3 327 610 498 
3 58 500 329 
3 500 105 608 
3 329 608 20 
3 500 608 329 
3 60 498 216 
3 498 105 500 
3 216 500 58 
3 498 500 216 
3 22 449 561 
3 449 126 631 
3 561 631 128 
3 449 631 561 
3 126 590 586 
3 590 7 167 
3 586 167 49 
3 590 167 586 
3 128 204 200 
3 204 49 169 
3 200 169 13 
3 204 169 200 
3 126 586 631 
3 586 49 204 
3 631 204 128 
3 586 204 631 
3 20 563 447 
3 563 122 633 
3 447 633 124 
3 563 633 447 
3 122 202 198 
3 202 13 175 
3 198 175 43 
3 202 175 198 
3 124 592 588 
3 592 43 177 
3 588 177 6 
3 592 177 588 
3 122 198 633 
3 198 43 592 
3 633 592 124 
3 198 592 633 
3 22 561 610 
3 561 128 280 
3 610 280 105 
3 561 280 610 
3 128 200 243 
3 200 13 202 
3 243 202 122 
3 200 202 243 
3 105 282 608 
3 282 122 563 
3 608 563 20 
3 282 563 608 
3 128 243 280 
3 243 122 282 
3 280 282 105 
3 243 282 280 
3 7 411 234 
3 411 148 465 
3 234 465 86 
3 411 465 234 
3 148 362 578 
3 362 40 296 
3 578 296 71 
3 362 296 578 
3 86 423 377 
3 423 71 457 
3 377 457 36 
3 423 457 377 
3 148 578 465 
3 578 71 423 
3 465 423 86 
3 578 423 465 
3 40 523 490 
3 523 121 476 
3 490 476 55 
3 523 476 490 
3 121 509 582 
3 509 1 573 
3 582 573 160 
3 509 573 582 
3 55 546 637 
3 546 160 225 
3 637 225 32 
3 546 225 637 
3 121 582 476 
3 582 160 546 
3 476 546 55 
3 582 546 476 
3 36 428 495 
3 428 101 520 
3 495 520 152 
3 428 520 495 
3 101 380 292 
3 380 32 194 
3 292 194 134 
3 380 194 292 
3 152 372 264 
3 372 134 480 
3 264 480 8 
3 372 480 264 
3 101 292 520 
3 292 134 372 
3 520 372 152 
3 292 372 520 
3 40 490 296 
3 490 55 256 
3 296 256 71 
3 490 256 296 
3 55 637 211 
3 637 32 380 
3 211 380 101 
3 637 380 211 
3 71 473 457 
3 473 101 428 
3 457 428 36 
3 473 428 457 
3 55 211 256 
3 211 101 473 
3 256 473 71 
3 211 473 256 
3 3 574 506 
3 574 159 585 
3 506 585 118 
3 574 585 506 
3 159 222 545 
3 222 31 634 
3 545 634 56 
3 222 634 545 
3 118 479 524 
3 479 56 493 
3 524 493 39 
3 479 493 524 
3 159 545 585 
3 545 56 479 
3 585 479 118 
3 545 479 585 
3 31 197 379 
3 197 137 291 
3 379 291 102 
3 197 291 379 
3 137 483 371 
3 483 9 267 
3 371 267 151 
3 483 267 371 
3 102 519 431 
3 519 151 496 
3 431 496 35 
3 519 496 431 
3 137 371 291 
3 371 151 519 
3 291 519 102 
3 371 519 291 
3 39 295 365 
3 295 72 577 
3 365 577 143 
3 295 577 365 
3 72 454 420 
3 454 35 374 
3 420 374 85 
3 454 374 420 
3 143 462 404 
3 462 85 233 
3 404 233 4 
3 462 233 404 
3 72 420 577 
3 420 85 462 
3 577 462 143 
3 420 462 577 
3 31 379 634 
3 379 102 208 
3 634 208 56 
3 379 208 634 
3 102 431 474 
3 431 35 454 
3 474 454 72 
3 431 454 474 
3 56 259 493 
3 259 72 295 
3 493 295 39 
3 259 295 493 
3 102 474 208 
3 474 72 259 
3 208 259 56 
3 474 259 208 
3 3 506 285 
3 506 118 286 
3 285 286 133 
3 506 286 285 
3 118 524 320 
3 524 39 336 
3 320 336 144 
3 524 336 320 
3 133 549 357 
3 549 144 385 
3 357 385 15 
3 549 385 357 
3 118 320 286 
3 320 144 549 
3 286 549 133 
3 320 549 286 
3 39 365 602 
3 365 143 406 
3 602 406 47 
3 365 406 602 
3 143 404 163 
3 404 4 412 
3 163 412 63 
3 404 412 163 
3 47 414 218 
3 414 63 461 
3 218 461 17 
3 414 461 218 
3 143 163 406 
3 163 63 414 
3 406 414 47 
3 163 414 406 
3 15 437 467 
3 437 64 273 
3 467 273 79 
3 437 273 467 
3 64 488 504 
3 488 17 300 
3 504 300 90 
3 488 300 504 
3 79 534 539 
3 534 90 314 
3 539 314 2 
3 534 314 539 
3 64 504 273 
3 504 90 534 
3 273 534 79 
3 504 534 273 
3 39 602 336 
3 602 47 383 
3 336 383 144 
3 602 383 336 
3 47 218 435 
3 218 17 488 
3 435 488 64 
3 218 488 435 
3 144 173 385 
3 173 64 437 
3 385 437 15 
3 173 437 385 
3 47 435 383 
3 435 64 173 
3 383 173 144 
3 435 173 383 
3 3 285 507 
3 285 133 287 
3 507 287 119 
3 285 287 507 
3 133 357 548 
3 357 15 384 
3 548 384 145 
3 357 384 548 
3 119 321 525 
3 321 145 337 
3 525 337 38 
3 321 337 525 
3 133 548 287 
3 548 145 321 
3 287 321 119 
3 548 321 287 
3 15 467 436 
3 467 79 272 
3 436 272 65 
3 467 272 436 
3 79 539 535 
3 539 2 315 
3 535 315 91 
3 539 315 535 
3 65 505 489 
3 505 91 301 
3 489 301 16 
3 505 301 489 
3 79 535 272 
3 535 91 505 
3 272 505 65 
3 535 505 272 
3 38 603 364 
3 603 46 407 
3 364 407 142 
3 603 407 364 
3 46 219 415 
3 219 16 460 
3 415 460 62 
3 219 460 415 
3 142 162 405 
3 162 62 413 
3 405 413 6 
3 162 413 405 
3 46 415 407 
3 415 62 162 
3 407 162 142 
3 415 162 407 
3 15 436 384 
3 436 65 172 
3 384 172 145 
3 436 172 384 
3 65 489 434 
3 489 16 219 
3 434 219 46 
3 489 219 434 
3 145 382 337 
3 382 46 603 
3 337 603 38 
3 382 603 337 
3 65 434 172 
3 434 46 382 
3 172 382 145 
3 434 382 172 
3 3 507 575 
3 507 119 584 
3 575 584 158 
3 507 584 575 
3 119 525 478 
3 525 38 492 
3 478 492 57 
3 525 492 478 
3 158 544 223 
3 544 57 635 
3 223 635 30 
3 544 635 223 
3 119 478 584 
3 478 57 544 
3 584 544 158 
3 478 544 584 
3 38 364 294 
3 364 142 576 
3 294 576 73 
3 364 576 294 
3 142 405 463 
3 405 6 232 
3 463 232 84 
3 405 232 463 
3 73 421 455 
3 421 84 375 
3 455 375 34 
3 421 375 455 
3 142 463 576 
3 463 84 421 
3 576 421 73 
3 463 421 576 
3 30 378 196 
3 378 103 290 
3 196 290 136 
3 378 290 196 
3 103 430 518 
3 430 34 497 
3 518 497 150 
3 430 497 518 
3 136 370 482 
3 370 150 266 
3 482 266 8 
3 370 266 482 
3 103 518 290 
3 518 150 370 
3 290 370 136 
3 518 370 290 
3 38 294 492 
3 294 73 258 
3 492 258 57 
3 294 258 492 
3 73 455 475 
3 455 34 430 
3 475 430 103 
3 455 430 475 
3 57 209 635 
3 209 103 378 
3 635 378 30 
3 209 378 635 
3 73 475 258 
3 475 103 209 
3 258 209 57 
3 475 209 258 
3 3 575 574 
3 575 158 180 
3 574 180 159 
3 575 180 574 
3 158 223 517 
3 223 30 596 
3 517 596 94 
3 223 596 517 
3 159 516 222 
3 516 94 597 
3 222 597 31 
3 516 597 222 
3 158 517 180 
3 517 94 516 
3 180 516 159 
3 517 516 180 
3 30 196 355 
3 196 136 255 
3 355 255 114 
3 196 255 355 
3 136 482 427 
3 482 8 339 
3 427 339 80 
3 482 339 427 
3 114 552 511 
3 552 80 207 
3 511 207 28 
3 552 207 511 
3 136 427 255 
3 427 80 552 
3 255 552 114 
3 427 552 255 
3 31 354 197 
3 354 115 254 
3 197 254 137 
3 354 254 197 
3 115 510 553 
3 510 28 206 
3 553 206 81 
3 510 206 553 
3 137 426 483 
3 426 81 338 
3 483 338 9 
3 426 338 483 
3 115 553 254 
3 553 81 426 
3 254 426 137 
3 553 426 254 
3 30 355 596 
3 355 114 639 
3 596 639 94 
3 355 639 596 
3 114 511 390 
3 511 28 510 
3 390 510 115 
3 511 510 390 
3 94 638 597 
3 638 115 354 
3 597 354 31 
3 638 354 597 
3 114 390 639 
3 390 115 638 
3 639 638 94 
3 390 638 639 
3 4 233 176 
3 233 85 237 
3 176 237 42 
3 233 237 176 
3 85 374 192 
3 374 35 262 
3 192 262 83 
3 374 262 192 
3 42 619 174 
3 619 83 623 
3 174 623 12 
3 619 623 174 
3 85 192 237 
3 192 83 619 
3 237 619 42 
3 192 619 237 
3 35 496 213 
3 496 151 325 
3 213 325 106 
3 496 325 213 
3 151 267 607 
3 267 9 265 
3 607 265 153 
3 267 265 607 
3 106 323 215 
3 323 153 494 
3 215 494 37 
3 323 494 215 
3 151 607 325 
3 607 153 323 
3 325 323 106 
3 607 323 325 
3 12 621 168 
3 621 89 625 
3 168 625 48 
3 621 625 168 
3 89 260 190 
3 260 37 376 
3 190 376 87 
3 260 376 190 
3 48 231 166 
3 231 87 235 
3 166 235 5 
3 231 235 166 
3 89 190 625 
3 190 87 231 
3 625 231 48 
3 190 231 625 
3 35 213 262 
3 213 106 543 
3 262 543 83 
3 213 543 262 
3 106 215 541 
3 215 37 260 
3 541 260 89 
3 215 260 541 
3 83 580 623 
3 580 89 621 
3 623 621 12 
3 580 621 623 
3 106 541 543 
3 541 89 580 
3 543 580 83 
3 541 580 543 
3 2 314 250 
3 314 90 241 
3 250 241 51 
3 314 241 250 
3 90 300 347 
3 300 17 333 
3 347 333 156 
3 300 333 347 
3 51 277 598 
3 277 156 186 
3 598 186 25 
3 277 186 598 
3 90 347 241 
3 347 156 277 
3 241 277 51 
3 347 277 241 
3 17 461 527 
3 461 63 245 
3 527 245 140 
3 461 245 527 
3 63 412 358 
3 412 4 589 
3 358 589 125 
3 412 589 358 
3 140 400 366 
3 400 125 446 
3 366 446 21 
3 400 446 366 
3 63 358 245 
3 358 125 400 
3 245 400 140 
3 358 400 245 
3 25 443 629 
3 443 110 531 
3 629 531 77 
3 443 531 629 
3 110 395 303 
3 395 21 328 
3 303 328 59 
3 395 328 303 
3 77 451 343 
3 451 59 559 
3 343 559 11 
3 451 559 343 
3 110 303 531 
3 303 59 451 
3 531 451 77 
3 303 451 531 
3 17 527 333 
3 527 140 567 
3 333 567 156 
3 527 567 333 
3 140 366 350 
3 366 21 395 
3 350 395 110 
3 366 395 350 
3 156 612 186 
3 612 110 443 
3 186 443 25 
3 612 443 186 
3 140 350 567 
3 350 110 612 
3 567 612 156 
3 350 612 567 
3 6 413 588 
3 413 62 359 
3 588 359 124 
3 413 359 588 
3 62 460 244 
3 460 16 526 
3 244 526 141 
3 460 526 244 
3 124 401 447 
3 401 141 367 
3 447 367 20 
3 401 367 447 
3 62 244 359 
3 244 141 401 
3 359 401 124 
3 244 401 359 
3 16 301 332 
3 301 91 346 
3 332 346 157 
3 301 346 332 
3 91 315 240 
3 315 2 251 
3 240 251 50 
3 315 251 240 
3 157 276 187 
3 276 50 599 
3 187 599 24 
3 276 599 187 
3 91 240 346 
3 240 50 276 
3 346 276 157 
3 240 276 346 
3 20 394 329 
3 394 111 302 
3 329 302 58 
3 394 302 329 
3 111 442 530 
3 442 24 628 
3 530 628 76 
3 442 628 530 
3 58 450 558 
3 450 76 342 
3 558 342 10 
3 450 342 558 
3 111 530 302 
3 530 76 450 
3 302 450 58 
3 530 450 302 
3 16 332 526 
3 332 157 566 
3 526 566 141 
3 332 566 526 
3 157 187 613 
3 187 24 442 
3 613 442 111 
3 187 442 613 
3 141 351 367 
3 351 111 394 
3 367 394 20 
3 351 394 367 
3 157 613 566 
3 613 111 351 
3 566 351 141 
3 613 351 566 
3 8 266 264 
3 266 150 606 
3 264 606 152 
3 266 606 264 
3 150 497 324 
3 497 34 212 
3 324 212 107 
3 497 212 324 
3 152 322 495 
3 322 107 214 
3 495 214 36 
3 322 214 495 
3 150 324 606 
3 324 107 322 
3 606 322 152 
3 324 322 606 
3 34 375 263 
3 375 84 193 
3 263 193 82 
3 375 193 263 
3 84 232 236 
3 232 6 177 
3 236 177 43 
3 232 177 236 
3 82 618 622 
3 618 43 175 
3 622 175 13 
3 618 175 622 
3 84 236 193 
3 236 43 618 
3 193 618 82 
3 236 618 193 
3 36 261 377 
3 261 88 191 
3 377 191 86 
3 261 191 377 
3 88 620 624 
3 620 13 169 
3 624 169 49 
3 620 169 624 
3 86 230 234 
3 230 49 167 
3 234 167 7 
3 230 167 234 
3 88 624 191 
3 624 49 230 
3 191 230 86 
3 624 230 191 
3 34 263 212 
3 263 82 542 
3 212 542 107 
3 263 542 212 
3 82 622 581 
3 622 13 620 
3 581 620 88 
3 622 620 581 
3 107 540 214 
3 540 88 261 
3 214 261 36 
3 540 261 214 
3 82 581 542 
3 581 88 540 
3 542 540 107 
3 581 540 542 
3 9 338 481 
3 338 81 424 
3 481 424 135 
3 338 424 481 
3 81 206 555 
3 206 28 512 
3 555 512 113 
3 206 512 555 
3 135 252 195 
3 252 113 352 
3 195 352 33 
3 252 352 195 
3 81 555 424 
3 555 113 252 
3 424 252 135 
3 555 252 424 
3 28 207 513 
3 207 80 554 
3 513 554 112 
3 207 554 513 
3 80 339 425 
3 339 8 480 
3 425 480 134 
3 339 480 425 
3 112 253 353 
3 253 134 194 
3 353 194 32 
3 253 194 353 
3 80 425 554 
3 425 134 253 
3 554 253 112 
3 425 253 554 
3 33 595 224 
3 595 95 514 
3 224 514 161 
3 595 514 224 
3 95 594 515 
3 594 32 225 
3 515 225 160 
3 594 225 515 
3 161 181 572 
3 181 160 573 
3 572 573 1 
3 181 573 572 
3 95 515 514 
3 515 160 181 
3 514 181 161 
3 515 181 514 
3 28 513 512 
3 513 112 391 
3 512 391 113 
3 513 391 512 
3 112 353 641 
3 353 32 594 
3 641 594 95 
3 353 594 641 
3 113 640 352 
3 640 95 595 
3 352 595 33 
3 640 595 352 
3 112 641 391 
3 641 95 640 
3 391 640 113 
3 641 640 391 
