solid CornerOfCubeTranslated
  facet normal 0.0 -1.0 0.0
	outer loop
	  vertex 5.0 0.0 0.0
	  vertex 8.0 0.0 0.0
	  vertex 5.0 0.0 3.0
	endloop
  endfacet
  facet normal 0.0 0.0 -1.0
	outer loop
	  vertex 5.0 0.0 0.0
	  vertex 5.0 3.0 0.0
	  vertex 8.0 0.0 0.0
	endloop
  endfacet
  facet normal -1.0 0.0 0.0
	outer loop
	  vertex 5.0 0.0 0.0
	  vertex 5.0 0.0 3.0
	  vertex 5.0 3.0 0.0
	endloop
  endfacet
  facet normal 0.577 0.577 0.577
	outer loop
	  vertex 8.0 0.0 0.0
	  vertex 5.0 3.0 0.0
	  vertex 5.0 0.0 3.0
	endloop
  endfacet
endsolid

solid CornerOfCubeOriginal
  facet normal 0.0 -1.0 0.0
	outer loop
	  vertex 0.0 0.0 0.0
	  vertex 3.0 0.0 0.0
	  vertex 0.0 0.0 3.0
	endloop
  endfacet
  facet normal 0.0 0.0 -1.0
	outer loop
	  vertex 0.0 0.0 0.0
	  vertex 0.0 3.0 0.0
	  vertex 3.0 0.0 0.0
	endloop
  endfacet
  facet normal -1.0 0.0 0.0
	outer loop
	  vertex 0.0 0.0 0.0
	  vertex 0.0 0.0 3.0
	  vertex 0.0 3.0 0.0
	endloop
  endfacet
  facet normal 0.577 0.577 0.577
	outer loop
	  vertex 3.0 0.0 0.0
	  vertex 0.0 3.0 0.0
	  vertex 0.0 0.0 3.0
	endloop
  endfacet
endsolid